<svg width="581" height="43" viewBox="0 0 581 43" fill="none" xmlns="http://www.w3.org/2000/svg">
<rect width="581" height="43" rx="15" fill="#1A343E"/>
<path fill-rule="evenodd" clip-rule="evenodd" d="M25.0098 18.8346L14 18.835V13.123H25.0098V18.835H30.754V29.8771H25.0098V24.5471C22.093 24.5979 19.7442 26.9647 19.7442 29.8771H14C14 23.8103 18.9205 18.8862 25.0098 18.835V18.8346Z" fill="#A0E4FF"/>
<path d="M55.4139 30H51.4379L50.0379 25.94H44.1859L42.7579 30H38.9779L45.0259 13.368H49.3659L55.4139 30ZM49.0859 23L47.7419 19.22C47.6112 18.8467 47.4992 18.5013 47.4059 18.184C47.3312 17.848 47.2566 17.512 47.1819 17.176H47.0419C46.9672 17.512 46.8832 17.848 46.7899 18.184C46.7152 18.5013 46.6126 18.8467 46.4819 19.22L45.1099 23H49.0859ZM68.421 23.7C68.421 24.9507 68.1503 26.0707 67.609 27.06C67.0863 28.0493 66.3583 28.8333 65.425 29.412C64.5103 29.972 63.4463 30.252 62.233 30.252C61.1877 30.252 60.3383 30.084 59.685 29.748V35.18H56.101V17.764L59.685 17.596V18.492C60.1143 18.1373 60.5903 17.876 61.113 17.708C61.6357 17.5213 62.233 17.428 62.905 17.428C63.9317 17.428 64.8557 17.68 65.677 18.184C66.517 18.688 67.1797 19.4067 67.665 20.34C68.169 21.2733 68.421 22.3933 68.421 23.7ZM64.725 23.812C64.725 23.14 64.613 22.5613 64.389 22.076C64.165 21.572 63.829 21.1893 63.381 20.928C62.9517 20.648 62.4103 20.508 61.757 20.508C60.9543 20.508 60.2637 20.7227 59.685 21.152V26.836C59.9277 26.9293 60.2077 27.0133 60.525 27.088C60.861 27.144 61.2063 27.172 61.561 27.172C62.2143 27.172 62.7743 27.0413 63.241 26.78C63.7077 26.5 64.0717 26.108 64.333 25.604C64.5943 25.0813 64.725 24.484 64.725 23.812ZM81.7998 23.7C81.7998 24.9507 81.5291 26.0707 80.9878 27.06C80.4651 28.0493 79.7371 28.8333 78.8038 29.412C77.8891 29.972 76.8251 30.252 75.6117 30.252C74.5664 30.252 73.7171 30.084 73.0638 29.748V35.18H69.4797V17.764L73.0638 17.596V18.492C73.4931 18.1373 73.9691 17.876 74.4918 17.708C75.0144 17.5213 75.6118 17.428 76.2838 17.428C77.3104 17.428 78.2344 17.68 79.0558 18.184C79.8958 18.688 80.5584 19.4067 81.0437 20.34C81.5478 21.2733 81.7998 22.3933 81.7998 23.7ZM78.1038 23.812C78.1038 23.14 77.9918 22.5613 77.7678 22.076C77.5438 21.572 77.2078 21.1893 76.7598 20.928C76.3304 20.648 75.7891 20.508 75.1358 20.508C74.3331 20.508 73.6424 20.7227 73.0638 21.152V26.836C73.3064 26.9293 73.5864 27.0133 73.9038 27.088C74.2397 27.144 74.5851 27.172 74.9398 27.172C75.5931 27.172 76.1531 27.0413 76.6198 26.78C77.0864 26.5 77.4504 26.108 77.7118 25.604C77.9731 25.0813 78.1038 24.484 78.1038 23.812ZM93.8651 14.012L93.1651 17.316C92.8665 17.1293 92.4651 16.9707 91.9611 16.84C91.4758 16.7093 90.9718 16.6067 90.4491 16.532C89.9265 16.4387 89.4318 16.392 88.9651 16.392C88.0691 16.392 87.3878 16.5227 86.9211 16.784C86.4545 17.0453 86.2211 17.4467 86.2211 17.988C86.2211 18.3613 86.3705 18.66 86.6691 18.884C86.9678 19.108 87.3598 19.304 87.8451 19.472C88.3491 19.64 88.8998 19.808 89.4971 19.976C90.0945 20.144 90.6918 20.3493 91.2891 20.592C91.8865 20.816 92.4278 21.1147 92.9131 21.488C93.3985 21.8427 93.7905 22.3093 94.0891 22.888C94.4065 23.448 94.5651 24.148 94.5651 24.988C94.5651 26.5933 93.9771 27.872 92.8011 28.824C91.6251 29.776 89.9265 30.252 87.7051 30.252C86.6785 30.252 85.6985 30.1587 84.7651 29.972C83.8505 29.7853 83.0945 29.5333 82.4971 29.216L82.8051 25.744C83.1785 25.968 83.6358 26.1733 84.1771 26.36C84.7185 26.5467 85.3065 26.696 85.9411 26.808C86.5758 26.92 87.2011 26.976 87.8171 26.976C88.8065 26.976 89.5438 26.8453 90.0291 26.584C90.5145 26.304 90.7571 25.884 90.7571 25.324C90.7571 24.932 90.5985 24.6147 90.2811 24.372C89.9825 24.1293 89.5905 23.924 89.1051 23.756C88.6198 23.588 88.0785 23.42 87.4811 23.252C86.8838 23.084 86.2865 22.888 85.6891 22.664C85.0918 22.4213 84.5411 22.1227 84.0371 21.768C83.5518 21.4133 83.1598 20.956 82.8611 20.396C82.5625 19.836 82.4131 19.136 82.4131 18.296C82.4131 17.2693 82.6651 16.3733 83.1691 15.608C83.6918 14.824 84.4385 14.2173 85.4091 13.788C86.3798 13.34 87.5371 13.116 88.8811 13.116C89.4225 13.116 90.0011 13.1533 90.6171 13.228C91.2331 13.284 91.8211 13.3773 92.3811 13.508C92.9598 13.6387 93.4545 13.8067 93.8651 14.012ZM105.601 18.52L104.817 21.768C104.5 21.4507 104.08 21.1893 103.557 20.984C103.034 20.7787 102.493 20.676 101.933 20.676C101.317 20.676 100.757 20.8067 100.253 21.068C99.7677 21.3107 99.3851 21.6653 99.1051 22.132C98.8437 22.5987 98.7131 23.1587 98.7131 23.812C98.7131 24.484 98.8531 25.0627 99.1331 25.548C99.4131 26.0333 99.8144 26.3973 100.337 26.64C100.878 26.8827 101.504 27.004 102.213 27.004C102.848 27.004 103.445 26.9107 104.005 26.724C104.584 26.5373 105.097 26.2947 105.545 25.996L105.685 29.188C105.162 29.5053 104.565 29.7667 103.893 29.972C103.221 30.1587 102.465 30.252 101.625 30.252C100.449 30.252 99.3571 30 98.3491 29.496C97.3411 28.992 96.5291 28.264 95.9131 27.312C95.3157 26.3413 95.0171 25.1747 95.0171 23.812C95.0171 22.58 95.3064 21.488 95.8851 20.536C96.4637 19.5653 97.2477 18.8093 98.2371 18.268C99.2264 17.708 100.328 17.428 101.541 17.428C102.437 17.428 103.221 17.5307 103.893 17.736C104.584 17.9227 105.153 18.184 105.601 18.52ZM118.477 30H114.893V22.636C114.893 21.908 114.697 21.3853 114.305 21.068C113.932 20.7507 113.437 20.592 112.821 20.592C112.41 20.592 111.99 20.6667 111.561 20.816C111.132 20.9467 110.721 21.1333 110.329 21.376V30H106.745V12.416L110.329 12.248V18.744C110.926 18.296 111.552 17.9693 112.205 17.764C112.858 17.54 113.53 17.428 114.221 17.428C115.509 17.428 116.536 17.792 117.301 18.52C118.085 19.2293 118.477 20.3493 118.477 21.88V30ZM132.888 23.84C132.888 25.072 132.598 26.1733 132.02 27.144C131.46 28.1147 130.676 28.88 129.668 29.44C128.66 29.9813 127.512 30.252 126.224 30.252C124.936 30.252 123.788 29.9813 122.78 29.44C121.772 28.88 120.978 28.1147 120.4 27.144C119.84 26.1733 119.56 25.072 119.56 23.84C119.56 22.5893 119.84 21.488 120.4 20.536C120.978 19.5653 121.772 18.8093 122.78 18.268C123.788 17.708 124.936 17.428 126.224 17.428C127.512 17.428 128.66 17.708 129.668 18.268C130.676 18.8093 131.46 19.5653 132.02 20.536C132.598 21.488 132.888 22.5893 132.888 23.84ZM129.192 23.84C129.192 23.1867 129.061 22.6173 128.8 22.132C128.538 21.628 128.184 21.2453 127.736 20.984C127.288 20.704 126.784 20.564 126.224 20.564C125.664 20.564 125.16 20.704 124.712 20.984C124.264 21.2453 123.909 21.628 123.648 22.132C123.386 22.6173 123.256 23.1867 123.256 23.84C123.256 24.4933 123.386 25.072 123.648 25.576C123.909 26.0613 124.264 26.444 124.712 26.724C125.178 26.9853 125.682 27.116 126.224 27.116C126.802 27.116 127.316 26.9853 127.764 26.724C128.212 26.444 128.557 26.0613 128.8 25.576C129.061 25.072 129.192 24.4933 129.192 23.84Z" fill="#A0E4FF"/>
<path d="M354.91 26H353.995V25.4C353.715 25.6 353.375 25.765 352.975 25.895C352.575 26.025 352.15 26.09 351.7 26.09C350.95 26.09 350.38 25.92 349.99 25.58C349.6 25.24 349.405 24.775 349.405 24.185C349.405 23.505 349.645 23.005 350.125 22.685C350.615 22.355 351.265 22.19 352.075 22.19C352.415 22.19 352.76 22.225 353.11 22.295C353.47 22.365 353.755 22.455 353.965 22.565V21.725C353.965 21.165 353.81 20.765 353.5 20.525C353.19 20.285 352.73 20.165 352.12 20.165C351.71 20.165 351.315 20.22 350.935 20.33C350.565 20.43 350.26 20.555 350.02 20.705L349.975 19.82C350.255 19.66 350.585 19.535 350.965 19.445C351.355 19.355 351.77 19.31 352.21 19.31C353.06 19.31 353.72 19.495 354.19 19.865C354.67 20.225 354.91 20.815 354.91 21.635V26ZM353.965 24.74V23.225C353.755 23.115 353.49 23.03 353.17 22.97C352.86 22.9 352.545 22.865 352.225 22.865C351.665 22.865 351.215 22.97 350.875 23.18C350.545 23.38 350.38 23.71 350.38 24.17C350.38 24.6 350.525 24.91 350.815 25.1C351.105 25.29 351.475 25.385 351.925 25.385C352.315 25.385 352.7 25.32 353.08 25.19C353.46 25.06 353.755 24.91 353.965 24.74ZM362.006 26H361.061V21.86C361.061 21.29 360.921 20.87 360.641 20.6C360.361 20.32 359.961 20.18 359.441 20.18C359.081 20.18 358.716 20.255 358.346 20.405C357.976 20.545 357.621 20.735 357.281 20.975V26H356.321V19.43L357.281 19.37V20.18C357.681 19.88 358.081 19.66 358.481 19.52C358.891 19.38 359.291 19.31 359.681 19.31C360.411 19.31 360.981 19.5 361.391 19.88C361.801 20.25 362.006 20.84 362.006 21.65V26ZM370.962 26H370.047V25.4C369.767 25.6 369.427 25.765 369.027 25.895C368.627 26.025 368.202 26.09 367.752 26.09C367.002 26.09 366.432 25.92 366.042 25.58C365.652 25.24 365.457 24.775 365.457 24.185C365.457 23.505 365.697 23.005 366.177 22.685C366.667 22.355 367.317 22.19 368.127 22.19C368.467 22.19 368.812 22.225 369.162 22.295C369.522 22.365 369.807 22.455 370.017 22.565V21.725C370.017 21.165 369.862 20.765 369.552 20.525C369.242 20.285 368.782 20.165 368.172 20.165C367.762 20.165 367.367 20.22 366.987 20.33C366.617 20.43 366.312 20.555 366.072 20.705L366.027 19.82C366.307 19.66 366.637 19.535 367.017 19.445C367.407 19.355 367.822 19.31 368.262 19.31C369.112 19.31 369.772 19.495 370.242 19.865C370.722 20.225 370.962 20.815 370.962 21.635V26ZM370.017 24.74V23.225C369.807 23.115 369.542 23.03 369.222 22.97C368.912 22.9 368.597 22.865 368.277 22.865C367.717 22.865 367.267 22.97 366.927 23.18C366.597 23.38 366.432 23.71 366.432 24.17C366.432 24.6 366.577 24.91 366.867 25.1C367.157 25.29 367.527 25.385 367.977 25.385C368.367 25.385 368.752 25.32 369.132 25.19C369.512 25.06 369.807 24.91 370.017 24.74ZM381.722 19.4L379.502 26H378.497L377.162 22.34C377.062 22.02 376.972 21.74 376.892 21.5C376.812 21.26 376.747 21.045 376.697 20.855H376.622C376.582 21.045 376.517 21.26 376.427 21.5C376.347 21.74 376.257 22.02 376.157 22.34L374.822 26H373.817L371.597 19.43L372.587 19.37L373.997 23.63C374.067 23.85 374.132 24.08 374.192 24.32C374.262 24.55 374.317 24.765 374.357 24.965H374.417C374.457 24.765 374.512 24.55 374.582 24.32C374.662 24.08 374.737 23.85 374.807 23.63L376.172 19.85H377.177L378.542 23.63C378.612 23.85 378.687 24.08 378.767 24.32C378.847 24.55 378.902 24.765 378.932 24.965H379.007C379.047 24.765 379.097 24.55 379.157 24.32C379.227 24.08 379.292 23.85 379.352 23.63L380.747 19.4H381.722ZM392.519 26H391.559V21.86C391.559 21.72 391.544 21.59 391.514 21.47C391.494 21.34 391.469 21.23 391.439 21.14C391.339 20.8 391.169 20.555 390.929 20.405C390.689 20.255 390.384 20.18 390.014 20.18C389.964 20.18 389.914 20.185 389.864 20.195C389.814 20.195 389.764 20.195 389.714 20.195C389.424 20.225 389.124 20.31 388.814 20.45C388.514 20.58 388.209 20.755 387.899 20.975C387.929 21.095 387.949 21.22 387.959 21.35C387.979 21.47 387.989 21.6 387.989 21.74V26H387.029V21.86C387.029 21.72 387.019 21.59 386.999 21.47C386.979 21.34 386.949 21.23 386.909 21.14C386.819 20.8 386.654 20.555 386.414 20.405C386.174 20.255 385.869 20.18 385.499 20.18C385.169 20.18 384.829 20.255 384.479 20.405C384.139 20.545 383.804 20.735 383.474 20.975V26H382.514V19.43L383.474 19.37V20.18C383.844 19.9 384.199 19.695 384.539 19.565C384.889 19.425 385.219 19.35 385.529 19.34C385.859 19.32 386.174 19.35 386.474 19.43C386.754 19.49 386.999 19.595 387.209 19.745C387.419 19.885 387.584 20.08 387.704 20.33C388.154 19.96 388.594 19.7 389.024 19.55C389.454 19.39 389.859 19.31 390.239 19.31C390.939 19.31 391.494 19.5 391.904 19.88C392.314 20.25 392.519 20.84 392.519 21.65V26ZM398.909 26H397.994V25.4C397.714 25.6 397.374 25.765 396.974 25.895C396.574 26.025 396.149 26.09 395.699 26.09C394.949 26.09 394.379 25.92 393.989 25.58C393.599 25.24 393.404 24.775 393.404 24.185C393.404 23.505 393.644 23.005 394.124 22.685C394.614 22.355 395.264 22.19 396.074 22.19C396.414 22.19 396.759 22.225 397.109 22.295C397.469 22.365 397.754 22.455 397.964 22.565V21.725C397.964 21.165 397.809 20.765 397.499 20.525C397.189 20.285 396.729 20.165 396.119 20.165C395.709 20.165 395.314 20.22 394.934 20.33C394.564 20.43 394.259 20.555 394.019 20.705L393.974 19.82C394.254 19.66 394.584 19.535 394.964 19.445C395.354 19.355 395.769 19.31 396.209 19.31C397.059 19.31 397.719 19.495 398.189 19.865C398.669 20.225 398.909 20.815 398.909 21.635V26ZM397.964 24.74V23.225C397.754 23.115 397.489 23.03 397.169 22.97C396.859 22.9 396.544 22.865 396.224 22.865C395.664 22.865 395.214 22.97 394.874 23.18C394.544 23.38 394.379 23.71 394.379 24.17C394.379 24.6 394.524 24.91 394.814 25.1C395.104 25.29 395.474 25.385 395.924 25.385C396.314 25.385 396.699 25.32 397.079 25.19C397.459 25.06 397.754 24.91 397.964 24.74ZM399.753 26V25.175L403.893 20.24H399.933V19.4H405.048V20.225L400.908 25.16H405.228V26H399.753ZM406.679 16.64C406.849 16.64 406.994 16.7 407.114 16.82C407.234 16.94 407.294 17.085 407.294 17.255C407.294 17.435 407.234 17.585 407.114 17.705C406.994 17.825 406.849 17.885 406.679 17.885C406.499 17.885 406.344 17.825 406.214 17.705C406.094 17.585 406.034 17.435 406.034 17.255C406.034 17.085 406.094 16.94 406.214 16.82C406.344 16.7 406.499 16.64 406.679 16.64ZM407.144 19.37V26H406.184V19.43L407.144 19.37ZM414.246 26H413.301V21.86C413.301 21.29 413.161 20.87 412.881 20.6C412.601 20.32 412.201 20.18 411.681 20.18C411.321 20.18 410.956 20.255 410.586 20.405C410.216 20.545 409.861 20.735 409.521 20.975V26H408.561V19.43L409.521 19.37V20.18C409.921 19.88 410.321 19.66 410.721 19.52C411.131 19.38 411.531 19.31 411.921 19.31C412.651 19.31 413.221 19.5 413.631 19.88C414.041 20.25 414.246 20.84 414.246 21.65V26ZM421.144 19.25L421.114 20.09H419.749C419.969 20.27 420.144 20.49 420.274 20.75C420.414 21.01 420.484 21.29 420.484 21.59C420.484 22.21 420.269 22.73 419.839 23.15C419.419 23.57 418.844 23.805 418.114 23.855L417.004 25.04C417.104 25.02 417.244 25.005 417.424 24.995C417.604 24.975 417.784 24.96 417.964 24.95C418.154 24.94 418.304 24.935 418.414 24.935C419.354 24.935 420.064 25.09 420.544 25.4C421.034 25.71 421.279 26.185 421.279 26.825C421.279 27.415 421.019 27.9 420.499 28.28C419.989 28.67 419.164 28.865 418.024 28.865C417.414 28.865 416.819 28.8 416.239 28.67C415.669 28.55 415.209 28.385 414.859 28.175L414.949 27.29C415.179 27.43 415.459 27.555 415.789 27.665C416.119 27.785 416.479 27.88 416.869 27.95C417.269 28.02 417.664 28.055 418.054 28.055C418.644 28.055 419.104 28 419.434 27.89C419.764 27.78 419.999 27.63 420.139 27.44C420.279 27.26 420.349 27.06 420.349 26.84C420.349 26.43 420.179 26.145 419.839 25.985C419.509 25.815 418.979 25.73 418.249 25.73C417.919 25.73 417.549 25.745 417.139 25.775C416.739 25.805 416.409 25.85 416.149 25.91V25.145L417.409 23.84C416.729 23.77 416.194 23.525 415.804 23.105C415.414 22.675 415.219 22.17 415.219 21.59C415.219 21.15 415.324 20.76 415.534 20.42C415.754 20.07 416.059 19.8 416.449 19.61C416.849 19.41 417.314 19.31 417.844 19.31C418.194 19.31 418.509 19.355 418.789 19.445L421.144 19.25ZM419.569 21.59C419.569 21.14 419.414 20.77 419.104 20.48C418.794 20.18 418.374 20.03 417.844 20.03C417.324 20.03 416.909 20.175 416.599 20.465C416.289 20.755 416.134 21.13 416.134 21.59C416.134 22.04 416.289 22.41 416.599 22.7C416.909 22.99 417.324 23.135 417.844 23.135C418.374 23.135 418.794 22.995 419.104 22.715C419.414 22.425 419.569 22.05 419.569 21.59ZM431.892 26H430.842L429.747 23.255H425.832L424.737 26H423.717L427.257 17.09H428.367L431.892 26ZM429.447 22.43L428.127 19.115C428.057 18.945 427.997 18.79 427.947 18.65C427.907 18.5 427.867 18.35 427.827 18.2H427.752C427.712 18.35 427.667 18.5 427.617 18.65C427.577 18.79 427.522 18.945 427.452 19.115L426.117 22.43H429.447ZM438.856 19.955C438.856 20.605 438.701 21.145 438.391 21.575C438.091 21.995 437.676 22.305 437.146 22.505C436.616 22.705 436.011 22.805 435.331 22.805H433.681V26H432.691V17.09H435.331C436.021 17.09 436.626 17.195 437.146 17.405C437.676 17.605 438.091 17.915 438.391 18.335C438.701 18.755 438.856 19.295 438.856 19.955ZM437.851 19.955C437.851 19.445 437.731 19.045 437.491 18.755C437.251 18.455 436.936 18.245 436.546 18.125C436.156 17.995 435.726 17.93 435.256 17.93H433.681V21.965H435.256C435.726 21.965 436.156 21.905 436.546 21.785C436.936 21.665 437.251 21.46 437.491 21.17C437.731 20.87 437.851 20.465 437.851 19.955ZM440.907 17.09V26H439.917V17.09H440.907ZM454.471 19.4L452.251 26H451.246L449.911 22.34C449.811 22.02 449.721 21.74 449.641 21.5C449.561 21.26 449.496 21.045 449.446 20.855H449.371C449.331 21.045 449.266 21.26 449.176 21.5C449.096 21.74 449.006 22.02 448.906 22.34L447.571 26H446.566L444.346 19.43L445.336 19.37L446.746 23.63C446.816 23.85 446.881 24.08 446.941 24.32C447.011 24.55 447.066 24.765 447.106 24.965H447.166C447.206 24.765 447.261 24.55 447.331 24.32C447.411 24.08 447.486 23.85 447.556 23.63L448.921 19.85H449.926L451.291 23.63C451.361 23.85 451.436 24.08 451.516 24.32C451.596 24.55 451.651 24.765 451.681 24.965H451.756C451.796 24.765 451.846 24.55 451.906 24.32C451.976 24.08 452.041 23.85 452.101 23.63L453.496 19.4H454.471ZM458.818 19.4L458.788 20.315C458.708 20.285 458.603 20.26 458.473 20.24C458.353 20.22 458.243 20.21 458.143 20.21C457.783 20.21 457.433 20.305 457.093 20.495C456.763 20.675 456.473 20.915 456.223 21.215V26H455.263V19.43L456.223 19.37V20.36C456.493 20.04 456.808 19.785 457.168 19.595C457.528 19.405 457.898 19.31 458.278 19.31C458.378 19.31 458.478 19.315 458.578 19.325C458.678 19.335 458.758 19.36 458.818 19.4ZM464.539 26H463.624V25.4C463.344 25.6 463.004 25.765 462.604 25.895C462.204 26.025 461.779 26.09 461.329 26.09C460.579 26.09 460.009 25.92 459.619 25.58C459.229 25.24 459.034 24.775 459.034 24.185C459.034 23.505 459.274 23.005 459.754 22.685C460.244 22.355 460.894 22.19 461.704 22.19C462.044 22.19 462.389 22.225 462.739 22.295C463.099 22.365 463.384 22.455 463.594 22.565V21.725C463.594 21.165 463.439 20.765 463.129 20.525C462.819 20.285 462.359 20.165 461.749 20.165C461.339 20.165 460.944 20.22 460.564 20.33C460.194 20.43 459.889 20.555 459.649 20.705L459.604 19.82C459.884 19.66 460.214 19.535 460.594 19.445C460.984 19.355 461.399 19.31 461.839 19.31C462.689 19.31 463.349 19.495 463.819 19.865C464.299 20.225 464.539 20.815 464.539 21.635V26ZM463.594 24.74V23.225C463.384 23.115 463.119 23.03 462.799 22.97C462.489 22.9 462.174 22.865 461.854 22.865C461.294 22.865 460.844 22.97 460.504 23.18C460.174 23.38 460.009 23.71 460.009 24.17C460.009 24.6 460.154 24.91 460.444 25.1C460.734 25.29 461.104 25.385 461.554 25.385C461.944 25.385 462.329 25.32 462.709 25.19C463.089 25.06 463.384 24.91 463.594 24.74ZM472.055 22.655C472.055 23.315 471.905 23.905 471.605 24.425C471.315 24.945 470.91 25.355 470.39 25.655C469.88 25.945 469.295 26.09 468.635 26.09C467.955 26.09 467.38 25.99 466.91 25.79V28.775H465.95V19.43L466.91 19.37V19.955C467.19 19.735 467.495 19.575 467.825 19.475C468.165 19.365 468.525 19.31 468.905 19.31C469.495 19.31 470.025 19.44 470.495 19.7C470.965 19.96 471.34 20.34 471.62 20.84C471.91 21.34 472.055 21.945 472.055 22.655ZM471.065 22.67C471.065 22.14 470.96 21.685 470.75 21.305C470.55 20.925 470.27 20.64 469.91 20.45C469.56 20.25 469.155 20.15 468.695 20.15C468.015 20.15 467.42 20.35 466.91 20.75V24.935C467.12 25.025 467.36 25.1 467.63 25.16C467.91 25.22 468.2 25.25 468.5 25.25C468.98 25.25 469.41 25.15 469.79 24.95C470.18 24.74 470.49 24.44 470.72 24.05C470.95 23.66 471.065 23.2 471.065 22.67ZM479.047 22.655C479.047 23.315 478.897 23.905 478.597 24.425C478.307 24.945 477.902 25.355 477.382 25.655C476.872 25.945 476.287 26.09 475.627 26.09C474.947 26.09 474.372 25.99 473.902 25.79V28.775H472.942V19.43L473.902 19.37V19.955C474.182 19.735 474.487 19.575 474.817 19.475C475.157 19.365 475.517 19.31 475.897 19.31C476.487 19.31 477.017 19.44 477.487 19.7C477.957 19.96 478.332 20.34 478.612 20.84C478.902 21.34 479.047 21.945 479.047 22.655ZM478.057 22.67C478.057 22.14 477.952 21.685 477.742 21.305C477.542 20.925 477.262 20.64 476.902 20.45C476.552 20.25 476.147 20.15 475.687 20.15C475.007 20.15 474.412 20.35 473.902 20.75V24.935C474.112 25.025 474.352 25.1 474.622 25.16C474.902 25.22 475.192 25.25 475.492 25.25C475.972 25.25 476.402 25.15 476.782 24.95C477.172 24.74 477.482 24.44 477.712 24.05C477.942 23.66 478.057 23.2 478.057 22.67ZM485.303 22.895H480.398C480.438 23.375 480.573 23.79 480.803 24.14C481.043 24.48 481.358 24.75 481.748 24.95C482.138 25.14 482.588 25.235 483.098 25.235C483.518 25.235 483.928 25.175 484.328 25.055C484.738 24.935 485.078 24.765 485.348 24.545L485.393 25.445C485.133 25.645 484.783 25.805 484.343 25.925C483.913 26.035 483.483 26.09 483.053 26.09C482.333 26.09 481.693 25.95 481.133 25.67C480.583 25.39 480.158 24.99 479.858 24.47C479.558 23.95 479.408 23.335 479.408 22.625C479.408 21.965 479.543 21.385 479.813 20.885C480.083 20.385 480.453 20 480.923 19.73C481.403 19.45 481.943 19.31 482.543 19.31C483.093 19.31 483.578 19.425 483.998 19.655C484.428 19.885 484.763 20.21 485.003 20.63C485.243 21.05 485.363 21.54 485.363 22.1C485.363 22.21 485.358 22.34 485.348 22.49C485.338 22.64 485.323 22.775 485.303 22.895ZM482.543 20.06C481.953 20.06 481.458 20.26 481.058 20.66C480.658 21.06 480.433 21.595 480.383 22.265H484.418C484.428 22.225 484.433 22.185 484.433 22.145C484.433 22.095 484.433 22.04 484.433 21.98C484.433 21.42 484.258 20.96 483.908 20.6C483.568 20.24 483.113 20.06 482.543 20.06ZM489.967 19.4L489.937 20.315C489.857 20.285 489.752 20.26 489.622 20.24C489.502 20.22 489.392 20.21 489.292 20.21C488.932 20.21 488.582 20.305 488.242 20.495C487.912 20.675 487.622 20.915 487.372 21.215V26H486.412V19.43L487.372 19.37V20.36C487.642 20.04 487.957 19.785 488.317 19.595C488.677 19.405 489.047 19.31 489.427 19.31C489.527 19.31 489.627 19.315 489.727 19.325C489.827 19.335 489.907 19.36 489.967 19.4ZM496.516 16.565L496.471 17.42C496.401 17.4 496.311 17.385 496.201 17.375C496.101 17.365 496.001 17.36 495.901 17.36C495.501 17.36 495.171 17.475 494.911 17.705C494.661 17.925 494.536 18.335 494.536 18.935V19.4H496.336L496.261 20.24H494.536V26H493.591V20.24H492.631V19.4H493.591V18.905C493.591 18.095 493.796 17.49 494.206 17.09C494.616 16.69 495.156 16.49 495.826 16.49C495.946 16.49 496.066 16.5 496.186 16.52C496.316 16.53 496.426 16.545 496.516 16.565ZM503.227 22.7C503.227 23.36 503.077 23.95 502.777 24.47C502.477 24.98 502.067 25.38 501.547 25.67C501.027 25.95 500.447 26.09 499.807 26.09C499.167 26.09 498.587 25.95 498.067 25.67C497.547 25.38 497.137 24.98 496.837 24.47C496.537 23.95 496.387 23.36 496.387 22.7C496.387 22.03 496.537 21.44 496.837 20.93C497.137 20.42 497.547 20.025 498.067 19.745C498.587 19.455 499.167 19.31 499.807 19.31C500.447 19.31 501.027 19.455 501.547 19.745C502.067 20.025 502.477 20.42 502.777 20.93C503.077 21.44 503.227 22.03 503.227 22.7ZM502.237 22.7C502.237 22.2 502.127 21.76 501.907 21.38C501.687 21 501.392 20.705 501.022 20.495C500.662 20.275 500.257 20.165 499.807 20.165C499.357 20.165 498.947 20.275 498.577 20.495C498.207 20.705 497.912 21 497.692 21.38C497.482 21.76 497.377 22.2 497.377 22.7C497.377 23.19 497.487 23.63 497.707 24.02C497.927 24.4 498.222 24.7 498.592 24.92C498.962 25.13 499.367 25.235 499.807 25.235C500.267 25.235 500.682 25.13 501.052 24.92C501.422 24.7 501.712 24.4 501.922 24.02C502.132 23.63 502.237 23.19 502.237 22.7ZM507.664 19.4L507.634 20.315C507.554 20.285 507.449 20.26 507.319 20.24C507.199 20.22 507.089 20.21 506.989 20.21C506.629 20.21 506.279 20.305 505.939 20.495C505.609 20.675 505.319 20.915 505.069 21.215V26H504.109V19.43L505.069 19.37V20.36C505.339 20.04 505.654 19.785 506.014 19.595C506.374 19.405 506.744 19.31 507.124 19.31C507.224 19.31 507.324 19.315 507.424 19.325C507.524 19.335 507.604 19.36 507.664 19.4ZM518.398 26H517.348L516.253 23.255H512.338L511.243 26H510.223L513.763 17.09H514.873L518.398 26ZM515.953 22.43L514.633 19.115C514.563 18.945 514.503 18.79 514.453 18.65C514.413 18.5 514.373 18.35 514.333 18.2H514.258C514.218 18.35 514.173 18.5 514.123 18.65C514.083 18.79 514.028 18.945 513.958 19.115L512.623 22.43H515.953ZM525.362 19.955C525.362 20.605 525.207 21.145 524.897 21.575C524.597 21.995 524.182 22.305 523.652 22.505C523.122 22.705 522.517 22.805 521.837 22.805H520.187V26H519.197V17.09H521.837C522.527 17.09 523.132 17.195 523.652 17.405C524.182 17.605 524.597 17.915 524.897 18.335C525.207 18.755 525.362 19.295 525.362 19.955ZM524.357 19.955C524.357 19.445 524.237 19.045 523.997 18.755C523.757 18.455 523.442 18.245 523.052 18.125C522.662 17.995 522.232 17.93 521.762 17.93H520.187V21.965H521.762C522.232 21.965 522.662 21.905 523.052 21.785C523.442 21.665 523.757 21.46 523.997 21.17C524.237 20.87 524.357 20.465 524.357 19.955ZM532.588 19.955C532.588 20.605 532.433 21.145 532.123 21.575C531.823 21.995 531.408 22.305 530.878 22.505C530.348 22.705 529.743 22.805 529.063 22.805H527.413V26H526.423V17.09H529.063C529.753 17.09 530.358 17.195 530.878 17.405C531.408 17.605 531.823 17.915 532.123 18.335C532.433 18.755 532.588 19.295 532.588 19.955ZM531.583 19.955C531.583 19.445 531.463 19.045 531.223 18.755C530.983 18.455 530.668 18.245 530.278 18.125C529.888 17.995 529.458 17.93 528.988 17.93H527.413V21.965H528.988C529.458 21.965 529.888 21.905 530.278 21.785C530.668 21.665 530.983 21.46 531.223 21.17C531.463 20.87 531.583 20.465 531.583 19.955ZM538.778 17.48L538.568 18.365C538.398 18.265 538.193 18.18 537.953 18.11C537.713 18.04 537.458 17.985 537.188 17.945C536.928 17.905 536.668 17.885 536.408 17.885C535.718 17.885 535.188 18.02 534.818 18.29C534.458 18.56 534.278 18.92 534.278 19.37C534.278 19.67 534.363 19.92 534.533 20.12C534.713 20.32 534.948 20.485 535.238 20.615C535.528 20.745 535.843 20.865 536.183 20.975C536.533 21.085 536.883 21.205 537.233 21.335C537.583 21.455 537.903 21.61 538.193 21.8C538.483 21.98 538.713 22.215 538.883 22.505C539.063 22.795 539.153 23.155 539.153 23.585C539.153 24.345 538.878 24.955 538.328 25.415C537.778 25.865 536.958 26.09 535.868 26.09C535.338 26.09 534.828 26.035 534.338 25.925C533.858 25.815 533.468 25.675 533.168 25.505L533.288 24.56C533.498 24.68 533.738 24.79 534.008 24.89C534.288 24.98 534.588 25.055 534.908 25.115C535.228 25.175 535.553 25.205 535.883 25.205C536.663 25.205 537.233 25.07 537.593 24.8C537.953 24.52 538.133 24.145 538.133 23.675C538.133 23.355 538.043 23.095 537.863 22.895C537.693 22.695 537.463 22.53 537.173 22.4C536.883 22.26 536.563 22.14 536.213 22.04C535.873 21.93 535.528 21.815 535.178 21.695C534.828 21.565 534.508 21.41 534.218 21.23C533.928 21.04 533.693 20.805 533.513 20.525C533.343 20.235 533.258 19.87 533.258 19.43C533.258 18.96 533.378 18.545 533.618 18.185C533.858 17.815 534.213 17.525 534.683 17.315C535.153 17.105 535.723 17 536.393 17C536.693 17 536.988 17.02 537.278 17.06C537.568 17.09 537.843 17.14 538.103 17.21C538.363 17.28 538.588 17.37 538.778 17.48ZM547.205 25.415C546.865 25.635 546.455 25.805 545.975 25.925C545.505 26.035 545 26.09 544.46 26.09C543.53 26.09 542.7 25.9 541.97 25.52C541.25 25.13 540.685 24.59 540.275 23.9C539.875 23.21 539.675 22.425 539.675 21.545C539.675 20.665 539.865 19.885 540.245 19.205C540.635 18.525 541.17 17.99 541.85 17.6C542.53 17.2 543.31 17 544.19 17C544.8 17 545.325 17.06 545.765 17.18C546.215 17.29 546.625 17.475 546.995 17.735L546.665 18.665C546.375 18.435 546.02 18.255 545.6 18.125C545.18 17.985 544.73 17.915 544.25 17.915C543.55 17.915 542.93 18.075 542.39 18.395C541.86 18.705 541.445 19.13 541.145 19.67C540.845 20.21 540.695 20.835 540.695 21.545C540.695 22.235 540.855 22.855 541.175 23.405C541.505 23.955 541.955 24.39 542.525 24.71C543.095 25.02 543.75 25.175 544.49 25.175C544.98 25.175 545.465 25.11 545.945 24.98C546.435 24.84 546.85 24.65 547.19 24.41L547.205 25.415ZM555.475 17.09V26H554.485V21.95H549.28V26H548.29V17.09H549.28V21.05H554.485V17.09H555.475ZM561.074 17C561.964 17 562.749 17.195 563.429 17.585C564.109 17.975 564.644 18.515 565.034 19.205C565.424 19.885 565.619 20.665 565.619 21.545C565.619 22.415 565.424 23.195 565.034 23.885C564.644 24.565 564.109 25.105 563.429 25.505C562.749 25.895 561.964 26.09 561.074 26.09C560.184 26.09 559.394 25.895 558.704 25.505C558.024 25.105 557.489 24.565 557.099 23.885C556.719 23.195 556.529 22.415 556.529 21.545C556.529 20.665 556.719 19.885 557.099 19.205C557.489 18.525 558.024 17.99 558.704 17.6C559.394 17.2 560.184 17 561.074 17ZM561.074 25.19C561.764 25.19 562.374 25.03 562.904 24.71C563.434 24.39 563.844 23.955 564.134 23.405C564.434 22.855 564.584 22.235 564.584 21.545C564.584 20.865 564.434 20.25 564.134 19.7C563.844 19.14 563.434 18.7 562.904 18.38C562.374 18.06 561.764 17.9 561.074 17.9C560.384 17.9 559.774 18.06 559.244 18.38C558.714 18.7 558.299 19.135 557.999 19.685C557.709 20.225 557.564 20.845 557.564 21.545C557.564 22.225 557.709 22.845 557.999 23.405C558.299 23.955 558.714 24.39 559.244 24.71C559.774 25.03 560.384 25.19 561.074 25.19Z" fill="white"/>
</svg>
