<svg width="581" height="43" viewBox="0 0 581 43" fill="none" xmlns="http://www.w3.org/2000/svg">
<rect width="581" height="43" rx="15" fill="#1A3E3D"/>
<path fill-rule="evenodd" clip-rule="evenodd" d="M25.0098 18.8346L14 18.835V13.123H25.0098V18.835H30.754V29.8771H25.0098V24.5471C22.093 24.5979 19.7442 26.9647 19.7442 29.8771H14C14 23.8103 18.9205 18.8862 25.0098 18.835V18.8346Z" fill="#A0FFFD"/>
<path d="M55.4139 30H51.4379L50.0379 25.94H44.1859L42.7579 30H38.9779L45.0259 13.368H49.3659L55.4139 30ZM49.0859 23L47.7419 19.22C47.6112 18.8467 47.4992 18.5013 47.4059 18.184C47.3312 17.848 47.2566 17.512 47.1819 17.176H47.0419C46.9672 17.512 46.8832 17.848 46.7899 18.184C46.7152 18.5013 46.6126 18.8467 46.4819 19.22L45.1099 23H49.0859ZM68.421 23.7C68.421 24.9507 68.1503 26.0707 67.609 27.06C67.0863 28.0493 66.3583 28.8333 65.425 29.412C64.5103 29.972 63.4463 30.252 62.233 30.252C61.1877 30.252 60.3383 30.084 59.685 29.748V35.18H56.101V17.764L59.685 17.596V18.492C60.1143 18.1373 60.5903 17.876 61.113 17.708C61.6357 17.5213 62.233 17.428 62.905 17.428C63.9317 17.428 64.8557 17.68 65.677 18.184C66.517 18.688 67.1797 19.4067 67.665 20.34C68.169 21.2733 68.421 22.3933 68.421 23.7ZM64.725 23.812C64.725 23.14 64.613 22.5613 64.389 22.076C64.165 21.572 63.829 21.1893 63.381 20.928C62.9517 20.648 62.4103 20.508 61.757 20.508C60.9543 20.508 60.2637 20.7227 59.685 21.152V26.836C59.9277 26.9293 60.2077 27.0133 60.525 27.088C60.861 27.144 61.2063 27.172 61.561 27.172C62.2143 27.172 62.7743 27.0413 63.241 26.78C63.7077 26.5 64.0717 26.108 64.333 25.604C64.5943 25.0813 64.725 24.484 64.725 23.812ZM81.7998 23.7C81.7998 24.9507 81.5291 26.0707 80.9878 27.06C80.4651 28.0493 79.7371 28.8333 78.8038 29.412C77.8891 29.972 76.8251 30.252 75.6117 30.252C74.5664 30.252 73.7171 30.084 73.0638 29.748V35.18H69.4797V17.764L73.0638 17.596V18.492C73.4931 18.1373 73.9691 17.876 74.4918 17.708C75.0144 17.5213 75.6118 17.428 76.2838 17.428C77.3104 17.428 78.2344 17.68 79.0558 18.184C79.8958 18.688 80.5584 19.4067 81.0437 20.34C81.5478 21.2733 81.7998 22.3933 81.7998 23.7ZM78.1038 23.812C78.1038 23.14 77.9918 22.5613 77.7678 22.076C77.5438 21.572 77.2078 21.1893 76.7598 20.928C76.3304 20.648 75.7891 20.508 75.1358 20.508C74.3331 20.508 73.6424 20.7227 73.0638 21.152V26.836C73.3064 26.9293 73.5864 27.0133 73.9038 27.088C74.2397 27.144 74.5851 27.172 74.9398 27.172C75.5931 27.172 76.1531 27.0413 76.6198 26.78C77.0864 26.5 77.4504 26.108 77.7118 25.604C77.9731 25.0813 78.1038 24.484 78.1038 23.812ZM89.5175 30H85.7935V16.728H81.0335V13.368H94.4175L94.1375 16.728H89.5175V30ZM105.345 30H101.957V29.048C101.509 29.4027 100.967 29.692 100.333 29.916C99.698 30.14 98.998 30.252 98.2327 30.252C96.87 30.252 95.8247 29.9253 95.0967 29.272C94.3874 28.6187 94.0327 27.7133 94.0327 26.556C94.0327 25.3053 94.4714 24.3627 95.3487 23.728C96.226 23.0747 97.4114 22.748 98.9047 22.748C99.446 22.748 99.9874 22.7947 100.529 22.888C101.07 22.9813 101.509 23.1027 101.845 23.252V22.58C101.845 21.852 101.611 21.3387 101.145 21.04C100.697 20.7227 99.9874 20.564 99.0167 20.564C98.326 20.564 97.6167 20.648 96.8887 20.816C96.1794 20.984 95.61 21.1987 95.1807 21.46L95.0407 18.324C95.6194 18.044 96.3007 17.8293 97.0847 17.68C97.8874 17.512 98.7087 17.428 99.5487 17.428C101.415 17.428 102.843 17.8293 103.833 18.632C104.841 19.416 105.345 20.6573 105.345 22.356V30ZM101.845 27.144V25.38C101.583 25.2493 101.257 25.1467 100.865 25.072C100.491 24.9973 100.127 24.96 99.7727 24.96C99.0634 24.96 98.522 25.0907 98.1487 25.352C97.7754 25.5947 97.5887 25.9773 97.5887 26.5C97.5887 26.9853 97.7474 27.34 98.0647 27.564C98.382 27.7693 98.8487 27.872 99.4647 27.872C99.894 27.872 100.333 27.8067 100.781 27.676C101.229 27.5267 101.583 27.3493 101.845 27.144ZM125.897 17.68L122.257 30H118.449L116.993 25.66C116.732 24.764 116.517 24.0453 116.349 23.504C116.181 22.944 116.041 22.4307 115.929 21.964H115.789C115.696 22.4307 115.556 22.944 115.369 23.504C115.201 24.0453 114.986 24.764 114.725 25.66L113.269 30H109.461L105.821 17.764L109.433 17.596L111.085 23.476C111.178 23.868 111.272 24.3347 111.365 24.876C111.477 25.3987 111.561 25.884 111.617 26.332H111.757C111.813 25.884 111.906 25.3987 112.037 24.876C112.168 24.3347 112.289 23.868 112.401 23.476L114.025 18.604H117.833L119.457 23.476C119.569 23.868 119.69 24.3347 119.821 24.876C119.952 25.3987 120.045 25.884 120.101 26.332H120.241C120.297 25.884 120.372 25.3987 120.465 24.876C120.577 24.3347 120.68 23.868 120.773 23.476L122.369 17.68H125.897ZM139.061 23.644C139.061 24.9507 138.781 26.108 138.221 27.116C137.661 28.1053 136.858 28.88 135.813 29.44C134.768 29.9813 133.517 30.252 132.061 30.252C131.053 30.252 130.092 30.1493 129.177 29.944C128.262 29.72 127.45 29.44 126.741 29.104V12.416L130.325 12.248V18.436C130.829 18.0813 131.333 17.8293 131.837 17.68C132.36 17.512 132.929 17.428 133.545 17.428C134.59 17.428 135.524 17.68 136.345 18.184C137.185 18.688 137.848 19.4067 138.333 20.34C138.818 21.2547 139.061 22.356 139.061 23.644ZM135.365 23.812C135.365 23.14 135.253 22.5613 135.029 22.076C134.805 21.572 134.469 21.1893 134.021 20.928C133.592 20.648 133.05 20.508 132.397 20.508C131.594 20.508 130.904 20.7227 130.325 21.152V26.836C130.568 26.9293 130.848 27.0133 131.165 27.088C131.501 27.144 131.846 27.172 132.201 27.172C132.854 27.172 133.414 27.0413 133.881 26.78C134.348 26.5 134.712 26.108 134.973 25.604C135.234 25.0813 135.365 24.484 135.365 23.812ZM143.704 12.248V30H140.12V12.416L143.704 12.248ZM156.434 24.708H148.538C148.65 25.212 148.874 25.6507 149.21 26.024C149.565 26.3787 150.013 26.6493 150.554 26.836C151.114 27.0227 151.767 27.116 152.514 27.116C153.149 27.116 153.83 27.032 154.558 26.864C155.286 26.6773 155.883 26.444 156.35 26.164L156.49 29.216C156.005 29.552 155.351 29.8133 154.53 30C153.727 30.168 152.971 30.252 152.262 30.252C150.675 30.252 149.313 29.9907 148.174 29.468C147.054 28.9267 146.205 28.1707 145.626 27.2C145.066 26.2293 144.786 25.0907 144.786 23.784C144.786 22.496 145.047 21.3853 145.57 20.452C146.111 19.5 146.849 18.7627 147.782 18.24C148.734 17.6987 149.798 17.428 150.974 17.428C152.057 17.428 153.018 17.6427 153.858 18.072C154.717 18.5013 155.379 19.1267 155.846 19.948C156.331 20.7507 156.574 21.7213 156.574 22.86C156.574 23.1027 156.555 23.4013 156.518 23.756C156.499 24.092 156.471 24.4093 156.434 24.708ZM151.002 20.004C150.274 20.004 149.677 20.2467 149.21 20.732C148.762 21.2173 148.491 21.8613 148.398 22.664H153.242C153.242 22.6267 153.242 22.5707 153.242 22.496C153.242 22.4027 153.242 22.3373 153.242 22.3C153.242 21.6093 153.037 21.0587 152.626 20.648C152.234 20.2187 151.693 20.004 151.002 20.004Z" fill="#A0FFFD"/>
<path d="M353.91 26H352.995V25.4C352.715 25.6 352.375 25.765 351.975 25.895C351.575 26.025 351.15 26.09 350.7 26.09C349.95 26.09 349.38 25.92 348.99 25.58C348.6 25.24 348.405 24.775 348.405 24.185C348.405 23.505 348.645 23.005 349.125 22.685C349.615 22.355 350.265 22.19 351.075 22.19C351.415 22.19 351.76 22.225 352.11 22.295C352.47 22.365 352.755 22.455 352.965 22.565V21.725C352.965 21.165 352.81 20.765 352.5 20.525C352.19 20.285 351.73 20.165 351.12 20.165C350.71 20.165 350.315 20.22 349.935 20.33C349.565 20.43 349.26 20.555 349.02 20.705L348.975 19.82C349.255 19.66 349.585 19.535 349.965 19.445C350.355 19.355 350.77 19.31 351.21 19.31C352.06 19.31 352.72 19.495 353.19 19.865C353.67 20.225 353.91 20.815 353.91 21.635V26ZM352.965 24.74V23.225C352.755 23.115 352.49 23.03 352.17 22.97C351.86 22.9 351.545 22.865 351.225 22.865C350.665 22.865 350.215 22.97 349.875 23.18C349.545 23.38 349.38 23.71 349.38 24.17C349.38 24.6 349.525 24.91 349.815 25.1C350.105 25.29 350.475 25.385 350.925 25.385C351.315 25.385 351.7 25.32 352.08 25.19C352.46 25.06 352.755 24.91 352.965 24.74ZM361.006 26H360.061V21.86C360.061 21.29 359.921 20.87 359.641 20.6C359.361 20.32 358.961 20.18 358.441 20.18C358.081 20.18 357.716 20.255 357.346 20.405C356.976 20.545 356.621 20.735 356.281 20.975V26H355.321V19.43L356.281 19.37V20.18C356.681 19.88 357.081 19.66 357.481 19.52C357.891 19.38 358.291 19.31 358.681 19.31C359.411 19.31 359.981 19.5 360.391 19.88C360.801 20.25 361.006 20.84 361.006 21.65V26ZM369.962 26H369.047V25.4C368.767 25.6 368.427 25.765 368.027 25.895C367.627 26.025 367.202 26.09 366.752 26.09C366.002 26.09 365.432 25.92 365.042 25.58C364.652 25.24 364.457 24.775 364.457 24.185C364.457 23.505 364.697 23.005 365.177 22.685C365.667 22.355 366.317 22.19 367.127 22.19C367.467 22.19 367.812 22.225 368.162 22.295C368.522 22.365 368.807 22.455 369.017 22.565V21.725C369.017 21.165 368.862 20.765 368.552 20.525C368.242 20.285 367.782 20.165 367.172 20.165C366.762 20.165 366.367 20.22 365.987 20.33C365.617 20.43 365.312 20.555 365.072 20.705L365.027 19.82C365.307 19.66 365.637 19.535 366.017 19.445C366.407 19.355 366.822 19.31 367.262 19.31C368.112 19.31 368.772 19.495 369.242 19.865C369.722 20.225 369.962 20.815 369.962 21.635V26ZM369.017 24.74V23.225C368.807 23.115 368.542 23.03 368.222 22.97C367.912 22.9 367.597 22.865 367.277 22.865C366.717 22.865 366.267 22.97 365.927 23.18C365.597 23.38 365.432 23.71 365.432 24.17C365.432 24.6 365.577 24.91 365.867 25.1C366.157 25.29 366.527 25.385 366.977 25.385C367.367 25.385 367.752 25.32 368.132 25.19C368.512 25.06 368.807 24.91 369.017 24.74ZM380.722 19.4L378.502 26H377.497L376.162 22.34C376.062 22.02 375.972 21.74 375.892 21.5C375.812 21.26 375.747 21.045 375.697 20.855H375.622C375.582 21.045 375.517 21.26 375.427 21.5C375.347 21.74 375.257 22.02 375.157 22.34L373.822 26H372.817L370.597 19.43L371.587 19.37L372.997 23.63C373.067 23.85 373.132 24.08 373.192 24.32C373.262 24.55 373.317 24.765 373.357 24.965H373.417C373.457 24.765 373.512 24.55 373.582 24.32C373.662 24.08 373.737 23.85 373.807 23.63L375.172 19.85H376.177L377.542 23.63C377.612 23.85 377.687 24.08 377.767 24.32C377.847 24.55 377.902 24.765 377.932 24.965H378.007C378.047 24.765 378.097 24.55 378.157 24.32C378.227 24.08 378.292 23.85 378.352 23.63L379.747 19.4H380.722ZM391.519 26H390.559V21.86C390.559 21.72 390.544 21.59 390.514 21.47C390.494 21.34 390.469 21.23 390.439 21.14C390.339 20.8 390.169 20.555 389.929 20.405C389.689 20.255 389.384 20.18 389.014 20.18C388.964 20.18 388.914 20.185 388.864 20.195C388.814 20.195 388.764 20.195 388.714 20.195C388.424 20.225 388.124 20.31 387.814 20.45C387.514 20.58 387.209 20.755 386.899 20.975C386.929 21.095 386.949 21.22 386.959 21.35C386.979 21.47 386.989 21.6 386.989 21.74V26H386.029V21.86C386.029 21.72 386.019 21.59 385.999 21.47C385.979 21.34 385.949 21.23 385.909 21.14C385.819 20.8 385.654 20.555 385.414 20.405C385.174 20.255 384.869 20.18 384.499 20.18C384.169 20.18 383.829 20.255 383.479 20.405C383.139 20.545 382.804 20.735 382.474 20.975V26H381.514V19.43L382.474 19.37V20.18C382.844 19.9 383.199 19.695 383.539 19.565C383.889 19.425 384.219 19.35 384.529 19.34C384.859 19.32 385.174 19.35 385.474 19.43C385.754 19.49 385.999 19.595 386.209 19.745C386.419 19.885 386.584 20.08 386.704 20.33C387.154 19.96 387.594 19.7 388.024 19.55C388.454 19.39 388.859 19.31 389.239 19.31C389.939 19.31 390.494 19.5 390.904 19.88C391.314 20.25 391.519 20.84 391.519 21.65V26ZM397.909 26H396.994V25.4C396.714 25.6 396.374 25.765 395.974 25.895C395.574 26.025 395.149 26.09 394.699 26.09C393.949 26.09 393.379 25.92 392.989 25.58C392.599 25.24 392.404 24.775 392.404 24.185C392.404 23.505 392.644 23.005 393.124 22.685C393.614 22.355 394.264 22.19 395.074 22.19C395.414 22.19 395.759 22.225 396.109 22.295C396.469 22.365 396.754 22.455 396.964 22.565V21.725C396.964 21.165 396.809 20.765 396.499 20.525C396.189 20.285 395.729 20.165 395.119 20.165C394.709 20.165 394.314 20.22 393.934 20.33C393.564 20.43 393.259 20.555 393.019 20.705L392.974 19.82C393.254 19.66 393.584 19.535 393.964 19.445C394.354 19.355 394.769 19.31 395.209 19.31C396.059 19.31 396.719 19.495 397.189 19.865C397.669 20.225 397.909 20.815 397.909 21.635V26ZM396.964 24.74V23.225C396.754 23.115 396.489 23.03 396.169 22.97C395.859 22.9 395.544 22.865 395.224 22.865C394.664 22.865 394.214 22.97 393.874 23.18C393.544 23.38 393.379 23.71 393.379 24.17C393.379 24.6 393.524 24.91 393.814 25.1C394.104 25.29 394.474 25.385 394.924 25.385C395.314 25.385 395.699 25.32 396.079 25.19C396.459 25.06 396.754 24.91 396.964 24.74ZM398.753 26V25.175L402.893 20.24H398.933V19.4H404.048V20.225L399.908 25.16H404.228V26H398.753ZM405.679 16.64C405.849 16.64 405.994 16.7 406.114 16.82C406.234 16.94 406.294 17.085 406.294 17.255C406.294 17.435 406.234 17.585 406.114 17.705C405.994 17.825 405.849 17.885 405.679 17.885C405.499 17.885 405.344 17.825 405.214 17.705C405.094 17.585 405.034 17.435 405.034 17.255C405.034 17.085 405.094 16.94 405.214 16.82C405.344 16.7 405.499 16.64 405.679 16.64ZM406.144 19.37V26H405.184V19.43L406.144 19.37ZM413.246 26H412.301V21.86C412.301 21.29 412.161 20.87 411.881 20.6C411.601 20.32 411.201 20.18 410.681 20.18C410.321 20.18 409.956 20.255 409.586 20.405C409.216 20.545 408.861 20.735 408.521 20.975V26H407.561V19.43L408.521 19.37V20.18C408.921 19.88 409.321 19.66 409.721 19.52C410.131 19.38 410.531 19.31 410.921 19.31C411.651 19.31 412.221 19.5 412.631 19.88C413.041 20.25 413.246 20.84 413.246 21.65V26ZM420.144 19.25L420.114 20.09H418.749C418.969 20.27 419.144 20.49 419.274 20.75C419.414 21.01 419.484 21.29 419.484 21.59C419.484 22.21 419.269 22.73 418.839 23.15C418.419 23.57 417.844 23.805 417.114 23.855L416.004 25.04C416.104 25.02 416.244 25.005 416.424 24.995C416.604 24.975 416.784 24.96 416.964 24.95C417.154 24.94 417.304 24.935 417.414 24.935C418.354 24.935 419.064 25.09 419.544 25.4C420.034 25.71 420.279 26.185 420.279 26.825C420.279 27.415 420.019 27.9 419.499 28.28C418.989 28.67 418.164 28.865 417.024 28.865C416.414 28.865 415.819 28.8 415.239 28.67C414.669 28.55 414.209 28.385 413.859 28.175L413.949 27.29C414.179 27.43 414.459 27.555 414.789 27.665C415.119 27.785 415.479 27.88 415.869 27.95C416.269 28.02 416.664 28.055 417.054 28.055C417.644 28.055 418.104 28 418.434 27.89C418.764 27.78 418.999 27.63 419.139 27.44C419.279 27.26 419.349 27.06 419.349 26.84C419.349 26.43 419.179 26.145 418.839 25.985C418.509 25.815 417.979 25.73 417.249 25.73C416.919 25.73 416.549 25.745 416.139 25.775C415.739 25.805 415.409 25.85 415.149 25.91V25.145L416.409 23.84C415.729 23.77 415.194 23.525 414.804 23.105C414.414 22.675 414.219 22.17 414.219 21.59C414.219 21.15 414.324 20.76 414.534 20.42C414.754 20.07 415.059 19.8 415.449 19.61C415.849 19.41 416.314 19.31 416.844 19.31C417.194 19.31 417.509 19.355 417.789 19.445L420.144 19.25ZM418.569 21.59C418.569 21.14 418.414 20.77 418.104 20.48C417.794 20.18 417.374 20.03 416.844 20.03C416.324 20.03 415.909 20.175 415.599 20.465C415.289 20.755 415.134 21.13 415.134 21.59C415.134 22.04 415.289 22.41 415.599 22.7C415.909 22.99 416.324 23.135 416.844 23.135C417.374 23.135 417.794 22.995 418.104 22.715C418.414 22.425 418.569 22.05 418.569 21.59ZM430.892 26H429.842L428.747 23.255H424.832L423.737 26H422.717L426.257 17.09H427.367L430.892 26ZM428.447 22.43L427.127 19.115C427.057 18.945 426.997 18.79 426.947 18.65C426.907 18.5 426.867 18.35 426.827 18.2H426.752C426.712 18.35 426.667 18.5 426.617 18.65C426.577 18.79 426.522 18.945 426.452 19.115L425.117 22.43H428.447ZM437.856 19.955C437.856 20.605 437.701 21.145 437.391 21.575C437.091 21.995 436.676 22.305 436.146 22.505C435.616 22.705 435.011 22.805 434.331 22.805H432.681V26H431.691V17.09H434.331C435.021 17.09 435.626 17.195 436.146 17.405C436.676 17.605 437.091 17.915 437.391 18.335C437.701 18.755 437.856 19.295 437.856 19.955ZM436.851 19.955C436.851 19.445 436.731 19.045 436.491 18.755C436.251 18.455 435.936 18.245 435.546 18.125C435.156 17.995 434.726 17.93 434.256 17.93H432.681V21.965H434.256C434.726 21.965 435.156 21.905 435.546 21.785C435.936 21.665 436.251 21.46 436.491 21.17C436.731 20.87 436.851 20.465 436.851 19.955ZM439.907 17.09V26H438.917V17.09H439.907ZM453.471 19.4L451.251 26H450.246L448.911 22.34C448.811 22.02 448.721 21.74 448.641 21.5C448.561 21.26 448.496 21.045 448.446 20.855H448.371C448.331 21.045 448.266 21.26 448.176 21.5C448.096 21.74 448.006 22.02 447.906 22.34L446.571 26H445.566L443.346 19.43L444.336 19.37L445.746 23.63C445.816 23.85 445.881 24.08 445.941 24.32C446.011 24.55 446.066 24.765 446.106 24.965H446.166C446.206 24.765 446.261 24.55 446.331 24.32C446.411 24.08 446.486 23.85 446.556 23.63L447.921 19.85H448.926L450.291 23.63C450.361 23.85 450.436 24.08 450.516 24.32C450.596 24.55 450.651 24.765 450.681 24.965H450.756C450.796 24.765 450.846 24.55 450.906 24.32C450.976 24.08 451.041 23.85 451.101 23.63L452.496 19.4H453.471ZM457.818 19.4L457.788 20.315C457.708 20.285 457.603 20.26 457.473 20.24C457.353 20.22 457.243 20.21 457.143 20.21C456.783 20.21 456.433 20.305 456.093 20.495C455.763 20.675 455.473 20.915 455.223 21.215V26H454.263V19.43L455.223 19.37V20.36C455.493 20.04 455.808 19.785 456.168 19.595C456.528 19.405 456.898 19.31 457.278 19.31C457.378 19.31 457.478 19.315 457.578 19.325C457.678 19.335 457.758 19.36 457.818 19.4ZM463.539 26H462.624V25.4C462.344 25.6 462.004 25.765 461.604 25.895C461.204 26.025 460.779 26.09 460.329 26.09C459.579 26.09 459.009 25.92 458.619 25.58C458.229 25.24 458.034 24.775 458.034 24.185C458.034 23.505 458.274 23.005 458.754 22.685C459.244 22.355 459.894 22.19 460.704 22.19C461.044 22.19 461.389 22.225 461.739 22.295C462.099 22.365 462.384 22.455 462.594 22.565V21.725C462.594 21.165 462.439 20.765 462.129 20.525C461.819 20.285 461.359 20.165 460.749 20.165C460.339 20.165 459.944 20.22 459.564 20.33C459.194 20.43 458.889 20.555 458.649 20.705L458.604 19.82C458.884 19.66 459.214 19.535 459.594 19.445C459.984 19.355 460.399 19.31 460.839 19.31C461.689 19.31 462.349 19.495 462.819 19.865C463.299 20.225 463.539 20.815 463.539 21.635V26ZM462.594 24.74V23.225C462.384 23.115 462.119 23.03 461.799 22.97C461.489 22.9 461.174 22.865 460.854 22.865C460.294 22.865 459.844 22.97 459.504 23.18C459.174 23.38 459.009 23.71 459.009 24.17C459.009 24.6 459.154 24.91 459.444 25.1C459.734 25.29 460.104 25.385 460.554 25.385C460.944 25.385 461.329 25.32 461.709 25.19C462.089 25.06 462.384 24.91 462.594 24.74ZM471.055 22.655C471.055 23.315 470.905 23.905 470.605 24.425C470.315 24.945 469.91 25.355 469.39 25.655C468.88 25.945 468.295 26.09 467.635 26.09C466.955 26.09 466.38 25.99 465.91 25.79V28.775H464.95V19.43L465.91 19.37V19.955C466.19 19.735 466.495 19.575 466.825 19.475C467.165 19.365 467.525 19.31 467.905 19.31C468.495 19.31 469.025 19.44 469.495 19.7C469.965 19.96 470.34 20.34 470.62 20.84C470.91 21.34 471.055 21.945 471.055 22.655ZM470.065 22.67C470.065 22.14 469.96 21.685 469.75 21.305C469.55 20.925 469.27 20.64 468.91 20.45C468.56 20.25 468.155 20.15 467.695 20.15C467.015 20.15 466.42 20.35 465.91 20.75V24.935C466.12 25.025 466.36 25.1 466.63 25.16C466.91 25.22 467.2 25.25 467.5 25.25C467.98 25.25 468.41 25.15 468.79 24.95C469.18 24.74 469.49 24.44 469.72 24.05C469.95 23.66 470.065 23.2 470.065 22.67ZM478.047 22.655C478.047 23.315 477.897 23.905 477.597 24.425C477.307 24.945 476.902 25.355 476.382 25.655C475.872 25.945 475.287 26.09 474.627 26.09C473.947 26.09 473.372 25.99 472.902 25.79V28.775H471.942V19.43L472.902 19.37V19.955C473.182 19.735 473.487 19.575 473.817 19.475C474.157 19.365 474.517 19.31 474.897 19.31C475.487 19.31 476.017 19.44 476.487 19.7C476.957 19.96 477.332 20.34 477.612 20.84C477.902 21.34 478.047 21.945 478.047 22.655ZM477.057 22.67C477.057 22.14 476.952 21.685 476.742 21.305C476.542 20.925 476.262 20.64 475.902 20.45C475.552 20.25 475.147 20.15 474.687 20.15C474.007 20.15 473.412 20.35 472.902 20.75V24.935C473.112 25.025 473.352 25.1 473.622 25.16C473.902 25.22 474.192 25.25 474.492 25.25C474.972 25.25 475.402 25.15 475.782 24.95C476.172 24.74 476.482 24.44 476.712 24.05C476.942 23.66 477.057 23.2 477.057 22.67ZM484.303 22.895H479.398C479.438 23.375 479.573 23.79 479.803 24.14C480.043 24.48 480.358 24.75 480.748 24.95C481.138 25.14 481.588 25.235 482.098 25.235C482.518 25.235 482.928 25.175 483.328 25.055C483.738 24.935 484.078 24.765 484.348 24.545L484.393 25.445C484.133 25.645 483.783 25.805 483.343 25.925C482.913 26.035 482.483 26.09 482.053 26.09C481.333 26.09 480.693 25.95 480.133 25.67C479.583 25.39 479.158 24.99 478.858 24.47C478.558 23.95 478.408 23.335 478.408 22.625C478.408 21.965 478.543 21.385 478.813 20.885C479.083 20.385 479.453 20 479.923 19.73C480.403 19.45 480.943 19.31 481.543 19.31C482.093 19.31 482.578 19.425 482.998 19.655C483.428 19.885 483.763 20.21 484.003 20.63C484.243 21.05 484.363 21.54 484.363 22.1C484.363 22.21 484.358 22.34 484.348 22.49C484.338 22.64 484.323 22.775 484.303 22.895ZM481.543 20.06C480.953 20.06 480.458 20.26 480.058 20.66C479.658 21.06 479.433 21.595 479.383 22.265H483.418C483.428 22.225 483.433 22.185 483.433 22.145C483.433 22.095 483.433 22.04 483.433 21.98C483.433 21.42 483.258 20.96 482.908 20.6C482.568 20.24 482.113 20.06 481.543 20.06ZM488.967 19.4L488.937 20.315C488.857 20.285 488.752 20.26 488.622 20.24C488.502 20.22 488.392 20.21 488.292 20.21C487.932 20.21 487.582 20.305 487.242 20.495C486.912 20.675 486.622 20.915 486.372 21.215V26H485.412V19.43L486.372 19.37V20.36C486.642 20.04 486.957 19.785 487.317 19.595C487.677 19.405 488.047 19.31 488.427 19.31C488.527 19.31 488.627 19.315 488.727 19.325C488.827 19.335 488.907 19.36 488.967 19.4ZM495.516 16.565L495.471 17.42C495.401 17.4 495.311 17.385 495.201 17.375C495.101 17.365 495.001 17.36 494.901 17.36C494.501 17.36 494.171 17.475 493.911 17.705C493.661 17.925 493.536 18.335 493.536 18.935V19.4H495.336L495.261 20.24H493.536V26H492.591V20.24H491.631V19.4H492.591V18.905C492.591 18.095 492.796 17.49 493.206 17.09C493.616 16.69 494.156 16.49 494.826 16.49C494.946 16.49 495.066 16.5 495.186 16.52C495.316 16.53 495.426 16.545 495.516 16.565ZM502.227 22.7C502.227 23.36 502.077 23.95 501.777 24.47C501.477 24.98 501.067 25.38 500.547 25.67C500.027 25.95 499.447 26.09 498.807 26.09C498.167 26.09 497.587 25.95 497.067 25.67C496.547 25.38 496.137 24.98 495.837 24.47C495.537 23.95 495.387 23.36 495.387 22.7C495.387 22.03 495.537 21.44 495.837 20.93C496.137 20.42 496.547 20.025 497.067 19.745C497.587 19.455 498.167 19.31 498.807 19.31C499.447 19.31 500.027 19.455 500.547 19.745C501.067 20.025 501.477 20.42 501.777 20.93C502.077 21.44 502.227 22.03 502.227 22.7ZM501.237 22.7C501.237 22.2 501.127 21.76 500.907 21.38C500.687 21 500.392 20.705 500.022 20.495C499.662 20.275 499.257 20.165 498.807 20.165C498.357 20.165 497.947 20.275 497.577 20.495C497.207 20.705 496.912 21 496.692 21.38C496.482 21.76 496.377 22.2 496.377 22.7C496.377 23.19 496.487 23.63 496.707 24.02C496.927 24.4 497.222 24.7 497.592 24.92C497.962 25.13 498.367 25.235 498.807 25.235C499.267 25.235 499.682 25.13 500.052 24.92C500.422 24.7 500.712 24.4 500.922 24.02C501.132 23.63 501.237 23.19 501.237 22.7ZM506.664 19.4L506.634 20.315C506.554 20.285 506.449 20.26 506.319 20.24C506.199 20.22 506.089 20.21 505.989 20.21C505.629 20.21 505.279 20.305 504.939 20.495C504.609 20.675 504.319 20.915 504.069 21.215V26H503.109V19.43L504.069 19.37V20.36C504.339 20.04 504.654 19.785 505.014 19.595C505.374 19.405 505.744 19.31 506.124 19.31C506.224 19.31 506.324 19.315 506.424 19.325C506.524 19.335 506.604 19.36 506.664 19.4ZM517.398 26H516.348L515.253 23.255H511.338L510.243 26H509.223L512.763 17.09H513.873L517.398 26ZM514.953 22.43L513.633 19.115C513.563 18.945 513.503 18.79 513.453 18.65C513.413 18.5 513.373 18.35 513.333 18.2H513.258C513.218 18.35 513.173 18.5 513.123 18.65C513.083 18.79 513.028 18.945 512.958 19.115L511.623 22.43H514.953ZM524.362 19.955C524.362 20.605 524.207 21.145 523.897 21.575C523.597 21.995 523.182 22.305 522.652 22.505C522.122 22.705 521.517 22.805 520.837 22.805H519.187V26H518.197V17.09H520.837C521.527 17.09 522.132 17.195 522.652 17.405C523.182 17.605 523.597 17.915 523.897 18.335C524.207 18.755 524.362 19.295 524.362 19.955ZM523.357 19.955C523.357 19.445 523.237 19.045 522.997 18.755C522.757 18.455 522.442 18.245 522.052 18.125C521.662 17.995 521.232 17.93 520.762 17.93H519.187V21.965H520.762C521.232 21.965 521.662 21.905 522.052 21.785C522.442 21.665 522.757 21.46 522.997 21.17C523.237 20.87 523.357 20.465 523.357 19.955ZM531.588 19.955C531.588 20.605 531.433 21.145 531.123 21.575C530.823 21.995 530.408 22.305 529.878 22.505C529.348 22.705 528.743 22.805 528.063 22.805H526.413V26H525.423V17.09H528.063C528.753 17.09 529.358 17.195 529.878 17.405C530.408 17.605 530.823 17.915 531.123 18.335C531.433 18.755 531.588 19.295 531.588 19.955ZM530.583 19.955C530.583 19.445 530.463 19.045 530.223 18.755C529.983 18.455 529.668 18.245 529.278 18.125C528.888 17.995 528.458 17.93 527.988 17.93H526.413V21.965H527.988C528.458 21.965 528.888 21.905 529.278 21.785C529.668 21.665 529.983 21.46 530.223 21.17C530.463 20.87 530.583 20.465 530.583 19.955ZM535.654 26H534.664V17.99H531.769V17.09H538.594L538.519 17.99H535.654V26ZM545.832 26H544.782L543.687 23.255H539.772L538.677 26H537.657L541.197 17.09H542.307L545.832 26ZM543.387 22.43L542.067 19.115C541.997 18.945 541.937 18.79 541.887 18.65C541.847 18.5 541.807 18.35 541.767 18.2H541.692C541.652 18.35 541.607 18.5 541.557 18.65C541.517 18.79 541.462 18.945 541.392 19.115L540.057 22.43H543.387ZM553.096 23.54C553.096 24.27 552.831 24.865 552.301 25.325C551.771 25.775 550.986 26 549.946 26H546.631V17.09H549.751C550.751 17.09 551.491 17.3 551.971 17.72C552.461 18.14 552.706 18.705 552.706 19.415C552.706 19.925 552.566 20.355 552.286 20.705C552.016 21.045 551.666 21.275 551.236 21.395C551.786 21.505 552.231 21.745 552.571 22.115C552.921 22.485 553.096 22.96 553.096 23.54ZM551.716 19.52C551.716 19.02 551.546 18.63 551.206 18.35C550.876 18.07 550.341 17.93 549.601 17.93H547.606V21.125H549.736C550.416 21.125 550.916 20.975 551.236 20.675C551.556 20.375 551.716 19.99 551.716 19.52ZM552.091 23.48C552.091 22.97 551.906 22.575 551.536 22.295C551.176 22.015 550.606 21.875 549.826 21.875H547.606V25.16H549.811C550.551 25.16 551.116 25.025 551.506 24.755C551.896 24.475 552.091 24.05 552.091 23.48ZM554.15 26V17.09H555.14V25.1H559.25L559.175 26H554.15ZM565.56 17.09L565.485 17.975H561.135V21.065H564.78V21.935H561.135V25.115H565.65V26H560.145V17.09H565.56Z" fill="white"/>
</svg>
