<svg width="581" height="43" viewBox="0 0 581 43" fill="none" xmlns="http://www.w3.org/2000/svg">
<rect width="581" height="43" rx="15" fill="#1A1F3E"/>
<path fill-rule="evenodd" clip-rule="evenodd" d="M25.0098 18.8346L14 18.835V13.123H25.0098V18.835H30.754V29.8771H25.0098V24.5471C22.093 24.5979 19.7442 26.9647 19.7442 29.8771H14C14 23.8103 18.9205 18.8862 25.0098 18.835V18.8346Z" fill="#A0AEFF"/>
<path d="M55.4139 30H51.4379L50.0379 25.94H44.1859L42.7579 30H38.9779L45.0259 13.368H49.3659L55.4139 30ZM49.0859 23L47.7419 19.22C47.6112 18.8467 47.4992 18.5013 47.4059 18.184C47.3312 17.848 47.2566 17.512 47.1819 17.176H47.0419C46.9672 17.512 46.8832 17.848 46.7899 18.184C46.7152 18.5013 46.6126 18.8467 46.4819 19.22L45.1099 23H49.0859ZM74.0772 17.68L70.4372 30H66.6292L65.1732 25.66C64.9119 24.764 64.6972 24.0453 64.5292 23.504C64.3612 22.944 64.2212 22.4307 64.1092 21.964H63.9692C63.8759 22.4307 63.7359 22.944 63.5492 23.504C63.3812 24.0453 63.1666 24.764 62.9052 25.66L61.4492 30H57.6412L54.0012 17.764L57.6132 17.596L59.2652 23.476C59.3586 23.868 59.4519 24.3347 59.5452 24.876C59.6572 25.3987 59.7412 25.884 59.7972 26.332H59.9372C59.9932 25.884 60.0866 25.3987 60.2172 24.876C60.3479 24.3347 60.4692 23.868 60.5812 23.476L62.2052 18.604H66.0132L67.6372 23.476C67.7492 23.868 67.8706 24.3347 68.0012 24.876C68.1319 25.3987 68.2252 25.884 68.2812 26.332H68.4212C68.4772 25.884 68.5519 25.3987 68.6452 24.876C68.7572 24.3347 68.8599 23.868 68.9532 23.476L70.5492 17.68H74.0772ZM78.5052 12.248V30H74.9212V12.416L78.5052 12.248ZM82.1635 12.024C82.7235 12.024 83.1809 12.2107 83.5355 12.584C83.8902 12.9387 84.0675 13.3867 84.0675 13.928C84.0675 14.488 83.8902 14.9547 83.5355 15.328C83.1809 15.6827 82.7235 15.86 82.1635 15.86C81.5849 15.86 81.0995 15.6827 80.7075 15.328C80.3342 14.9547 80.1475 14.488 80.1475 13.928C80.1475 13.3867 80.3342 12.9387 80.7075 12.584C81.0995 12.2107 81.5849 12.024 82.1635 12.024ZM83.8995 17.596V30H80.3155V17.764L83.8995 17.596ZM94.2219 18.044L93.6899 20.956C93.2979 20.7693 92.8126 20.62 92.2339 20.508C91.6739 20.3773 91.1046 20.312 90.5259 20.312C90.0032 20.312 89.6112 20.396 89.3499 20.564C89.1072 20.732 88.9859 20.956 88.9859 21.236C88.9859 21.46 89.1259 21.656 89.4059 21.824C89.6859 21.9733 90.0406 22.1133 90.4699 22.244C90.9179 22.3747 91.3846 22.5333 91.8699 22.72C92.3739 22.9067 92.8406 23.14 93.2699 23.42C93.7179 23.7 94.0726 24.0733 94.3339 24.54C94.6139 24.988 94.7539 25.5573 94.7539 26.248C94.7539 26.9573 94.5766 27.62 94.2219 28.236C93.8859 28.8333 93.3259 29.3187 92.5419 29.692C91.7766 30.0653 90.7779 30.252 89.5459 30.252C88.7059 30.252 87.8846 30.1587 87.0819 29.972C86.2979 29.7853 85.6632 29.5427 85.1779 29.244L85.4019 26.22C85.8686 26.5187 86.4752 26.7893 87.2219 27.032C87.9872 27.256 88.7432 27.368 89.4899 27.368C90.5539 27.368 91.0859 27.0507 91.0859 26.416C91.0859 26.1733 90.9459 25.9773 90.6659 25.828C90.3859 25.6787 90.0312 25.5387 89.6019 25.408C89.1726 25.2587 88.7059 25.0907 88.2019 24.904C87.6979 24.7173 87.2312 24.484 86.8019 24.204C86.3726 23.9053 86.0179 23.532 85.7379 23.084C85.4579 22.636 85.3179 22.0667 85.3179 21.376C85.3179 20.6293 85.5232 19.9667 85.9339 19.388C86.3632 18.7907 86.9699 18.3147 87.7539 17.96C88.5379 17.6053 89.4712 17.428 90.5539 17.428C91.2819 17.428 91.9726 17.484 92.6259 17.596C93.2792 17.6893 93.8112 17.8387 94.2219 18.044ZM106.837 24.708H98.9408C99.0528 25.212 99.2768 25.6507 99.6128 26.024C99.9674 26.3787 100.415 26.6493 100.957 26.836C101.517 27.0227 102.17 27.116 102.917 27.116C103.551 27.116 104.233 27.032 104.961 26.864C105.689 26.6773 106.286 26.444 106.753 26.164L106.893 29.216C106.407 29.552 105.754 29.8133 104.933 30C104.13 30.168 103.374 30.252 102.665 30.252C101.078 30.252 99.7154 29.9907 98.5768 29.468C97.4568 28.9267 96.6074 28.1707 96.0288 27.2C95.4688 26.2293 95.1888 25.0907 95.1888 23.784C95.1888 22.496 95.4501 21.3853 95.9728 20.452C96.5141 19.5 97.2514 18.7627 98.1848 18.24C99.1368 17.6987 100.201 17.428 101.377 17.428C102.459 17.428 103.421 17.6427 104.261 18.072C105.119 18.5013 105.782 19.1267 106.249 19.948C106.734 20.7507 106.977 21.7213 106.977 22.86C106.977 23.1027 106.958 23.4013 106.921 23.756C106.902 24.092 106.874 24.4093 106.837 24.708ZM101.405 20.004C100.677 20.004 100.079 20.2467 99.6128 20.732C99.1648 21.2173 98.8941 21.8613 98.8008 22.664H103.645C103.645 22.6267 103.645 22.5707 103.645 22.496C103.645 22.4027 103.645 22.3373 103.645 22.3C103.645 21.6093 103.439 21.0587 103.029 20.648C102.637 20.2187 102.095 20.004 101.405 20.004Z" fill="#A0AEFF"/>
<path d="M380.91 26H379.995V25.4C379.715 25.6 379.375 25.765 378.975 25.895C378.575 26.025 378.15 26.09 377.7 26.09C376.95 26.09 376.38 25.92 375.99 25.58C375.6 25.24 375.405 24.775 375.405 24.185C375.405 23.505 375.645 23.005 376.125 22.685C376.615 22.355 377.265 22.19 378.075 22.19C378.415 22.19 378.76 22.225 379.11 22.295C379.47 22.365 379.755 22.455 379.965 22.565V21.725C379.965 21.165 379.81 20.765 379.5 20.525C379.19 20.285 378.73 20.165 378.12 20.165C377.71 20.165 377.315 20.22 376.935 20.33C376.565 20.43 376.26 20.555 376.02 20.705L375.975 19.82C376.255 19.66 376.585 19.535 376.965 19.445C377.355 19.355 377.77 19.31 378.21 19.31C379.06 19.31 379.72 19.495 380.19 19.865C380.67 20.225 380.91 20.815 380.91 21.635V26ZM379.965 24.74V23.225C379.755 23.115 379.49 23.03 379.17 22.97C378.86 22.9 378.545 22.865 378.225 22.865C377.665 22.865 377.215 22.97 376.875 23.18C376.545 23.38 376.38 23.71 376.38 24.17C376.38 24.6 376.525 24.91 376.815 25.1C377.105 25.29 377.475 25.385 377.925 25.385C378.315 25.385 378.7 25.32 379.08 25.19C379.46 25.06 379.755 24.91 379.965 24.74ZM388.006 26H387.061V21.86C387.061 21.29 386.921 20.87 386.641 20.6C386.361 20.32 385.961 20.18 385.441 20.18C385.081 20.18 384.716 20.255 384.346 20.405C383.976 20.545 383.621 20.735 383.281 20.975V26H382.321V19.43L383.281 19.37V20.18C383.681 19.88 384.081 19.66 384.481 19.52C384.891 19.38 385.291 19.31 385.681 19.31C386.411 19.31 386.981 19.5 387.391 19.88C387.801 20.25 388.006 20.84 388.006 21.65V26ZM396.962 26H396.047V25.4C395.767 25.6 395.427 25.765 395.027 25.895C394.627 26.025 394.202 26.09 393.752 26.09C393.002 26.09 392.432 25.92 392.042 25.58C391.652 25.24 391.457 24.775 391.457 24.185C391.457 23.505 391.697 23.005 392.177 22.685C392.667 22.355 393.317 22.19 394.127 22.19C394.467 22.19 394.812 22.225 395.162 22.295C395.522 22.365 395.807 22.455 396.017 22.565V21.725C396.017 21.165 395.862 20.765 395.552 20.525C395.242 20.285 394.782 20.165 394.172 20.165C393.762 20.165 393.367 20.22 392.987 20.33C392.617 20.43 392.312 20.555 392.072 20.705L392.027 19.82C392.307 19.66 392.637 19.535 393.017 19.445C393.407 19.355 393.822 19.31 394.262 19.31C395.112 19.31 395.772 19.495 396.242 19.865C396.722 20.225 396.962 20.815 396.962 21.635V26ZM396.017 24.74V23.225C395.807 23.115 395.542 23.03 395.222 22.97C394.912 22.9 394.597 22.865 394.277 22.865C393.717 22.865 393.267 22.97 392.927 23.18C392.597 23.38 392.432 23.71 392.432 24.17C392.432 24.6 392.577 24.91 392.867 25.1C393.157 25.29 393.527 25.385 393.977 25.385C394.367 25.385 394.752 25.32 395.132 25.19C395.512 25.06 395.807 24.91 396.017 24.74ZM407.722 19.4L405.502 26H404.497L403.162 22.34C403.062 22.02 402.972 21.74 402.892 21.5C402.812 21.26 402.747 21.045 402.697 20.855H402.622C402.582 21.045 402.517 21.26 402.427 21.5C402.347 21.74 402.257 22.02 402.157 22.34L400.822 26H399.817L397.597 19.43L398.587 19.37L399.997 23.63C400.067 23.85 400.132 24.08 400.192 24.32C400.262 24.55 400.317 24.765 400.357 24.965H400.417C400.457 24.765 400.512 24.55 400.582 24.32C400.662 24.08 400.737 23.85 400.807 23.63L402.172 19.85H403.177L404.542 23.63C404.612 23.85 404.687 24.08 404.767 24.32C404.847 24.55 404.902 24.765 404.932 24.965H405.007C405.047 24.765 405.097 24.55 405.157 24.32C405.227 24.08 405.292 23.85 405.352 23.63L406.747 19.4H407.722ZM418.519 26H417.559V21.86C417.559 21.72 417.544 21.59 417.514 21.47C417.494 21.34 417.469 21.23 417.439 21.14C417.339 20.8 417.169 20.555 416.929 20.405C416.689 20.255 416.384 20.18 416.014 20.18C415.964 20.18 415.914 20.185 415.864 20.195C415.814 20.195 415.764 20.195 415.714 20.195C415.424 20.225 415.124 20.31 414.814 20.45C414.514 20.58 414.209 20.755 413.899 20.975C413.929 21.095 413.949 21.22 413.959 21.35C413.979 21.47 413.989 21.6 413.989 21.74V26H413.029V21.86C413.029 21.72 413.019 21.59 412.999 21.47C412.979 21.34 412.949 21.23 412.909 21.14C412.819 20.8 412.654 20.555 412.414 20.405C412.174 20.255 411.869 20.18 411.499 20.18C411.169 20.18 410.829 20.255 410.479 20.405C410.139 20.545 409.804 20.735 409.474 20.975V26H408.514V19.43L409.474 19.37V20.18C409.844 19.9 410.199 19.695 410.539 19.565C410.889 19.425 411.219 19.35 411.529 19.34C411.859 19.32 412.174 19.35 412.474 19.43C412.754 19.49 412.999 19.595 413.209 19.745C413.419 19.885 413.584 20.08 413.704 20.33C414.154 19.96 414.594 19.7 415.024 19.55C415.454 19.39 415.859 19.31 416.239 19.31C416.939 19.31 417.494 19.5 417.904 19.88C418.314 20.25 418.519 20.84 418.519 21.65V26ZM424.909 26H423.994V25.4C423.714 25.6 423.374 25.765 422.974 25.895C422.574 26.025 422.149 26.09 421.699 26.09C420.949 26.09 420.379 25.92 419.989 25.58C419.599 25.24 419.404 24.775 419.404 24.185C419.404 23.505 419.644 23.005 420.124 22.685C420.614 22.355 421.264 22.19 422.074 22.19C422.414 22.19 422.759 22.225 423.109 22.295C423.469 22.365 423.754 22.455 423.964 22.565V21.725C423.964 21.165 423.809 20.765 423.499 20.525C423.189 20.285 422.729 20.165 422.119 20.165C421.709 20.165 421.314 20.22 420.934 20.33C420.564 20.43 420.259 20.555 420.019 20.705L419.974 19.82C420.254 19.66 420.584 19.535 420.964 19.445C421.354 19.355 421.769 19.31 422.209 19.31C423.059 19.31 423.719 19.495 424.189 19.865C424.669 20.225 424.909 20.815 424.909 21.635V26ZM423.964 24.74V23.225C423.754 23.115 423.489 23.03 423.169 22.97C422.859 22.9 422.544 22.865 422.224 22.865C421.664 22.865 421.214 22.97 420.874 23.18C420.544 23.38 420.379 23.71 420.379 24.17C420.379 24.6 420.524 24.91 420.814 25.1C421.104 25.29 421.474 25.385 421.924 25.385C422.314 25.385 422.699 25.32 423.079 25.19C423.459 25.06 423.754 24.91 423.964 24.74ZM425.753 26V25.175L429.893 20.24H425.933V19.4H431.048V20.225L426.908 25.16H431.228V26H425.753ZM432.679 16.64C432.849 16.64 432.994 16.7 433.114 16.82C433.234 16.94 433.294 17.085 433.294 17.255C433.294 17.435 433.234 17.585 433.114 17.705C432.994 17.825 432.849 17.885 432.679 17.885C432.499 17.885 432.344 17.825 432.214 17.705C432.094 17.585 432.034 17.435 432.034 17.255C432.034 17.085 432.094 16.94 432.214 16.82C432.344 16.7 432.499 16.64 432.679 16.64ZM433.144 19.37V26H432.184V19.43L433.144 19.37ZM440.246 26H439.301V21.86C439.301 21.29 439.161 20.87 438.881 20.6C438.601 20.32 438.201 20.18 437.681 20.18C437.321 20.18 436.956 20.255 436.586 20.405C436.216 20.545 435.861 20.735 435.521 20.975V26H434.561V19.43L435.521 19.37V20.18C435.921 19.88 436.321 19.66 436.721 19.52C437.131 19.38 437.531 19.31 437.921 19.31C438.651 19.31 439.221 19.5 439.631 19.88C440.041 20.25 440.246 20.84 440.246 21.65V26ZM447.144 19.25L447.114 20.09H445.749C445.969 20.27 446.144 20.49 446.274 20.75C446.414 21.01 446.484 21.29 446.484 21.59C446.484 22.21 446.269 22.73 445.839 23.15C445.419 23.57 444.844 23.805 444.114 23.855L443.004 25.04C443.104 25.02 443.244 25.005 443.424 24.995C443.604 24.975 443.784 24.96 443.964 24.95C444.154 24.94 444.304 24.935 444.414 24.935C445.354 24.935 446.064 25.09 446.544 25.4C447.034 25.71 447.279 26.185 447.279 26.825C447.279 27.415 447.019 27.9 446.499 28.28C445.989 28.67 445.164 28.865 444.024 28.865C443.414 28.865 442.819 28.8 442.239 28.67C441.669 28.55 441.209 28.385 440.859 28.175L440.949 27.29C441.179 27.43 441.459 27.555 441.789 27.665C442.119 27.785 442.479 27.88 442.869 27.95C443.269 28.02 443.664 28.055 444.054 28.055C444.644 28.055 445.104 28 445.434 27.89C445.764 27.78 445.999 27.63 446.139 27.44C446.279 27.26 446.349 27.06 446.349 26.84C446.349 26.43 446.179 26.145 445.839 25.985C445.509 25.815 444.979 25.73 444.249 25.73C443.919 25.73 443.549 25.745 443.139 25.775C442.739 25.805 442.409 25.85 442.149 25.91V25.145L443.409 23.84C442.729 23.77 442.194 23.525 441.804 23.105C441.414 22.675 441.219 22.17 441.219 21.59C441.219 21.15 441.324 20.76 441.534 20.42C441.754 20.07 442.059 19.8 442.449 19.61C442.849 19.41 443.314 19.31 443.844 19.31C444.194 19.31 444.509 19.355 444.789 19.445L447.144 19.25ZM445.569 21.59C445.569 21.14 445.414 20.77 445.104 20.48C444.794 20.18 444.374 20.03 443.844 20.03C443.324 20.03 442.909 20.175 442.599 20.465C442.289 20.755 442.134 21.13 442.134 21.59C442.134 22.04 442.289 22.41 442.599 22.7C442.909 22.99 443.324 23.135 443.844 23.135C444.374 23.135 444.794 22.995 445.104 22.715C445.414 22.425 445.569 22.05 445.569 21.59ZM457.892 26H456.842L455.747 23.255H451.832L450.737 26H449.717L453.257 17.09H454.367L457.892 26ZM455.447 22.43L454.127 19.115C454.057 18.945 453.997 18.79 453.947 18.65C453.907 18.5 453.867 18.35 453.827 18.2H453.752C453.712 18.35 453.667 18.5 453.617 18.65C453.577 18.79 453.522 18.945 453.452 19.115L452.117 22.43H455.447ZM464.856 19.955C464.856 20.605 464.701 21.145 464.391 21.575C464.091 21.995 463.676 22.305 463.146 22.505C462.616 22.705 462.011 22.805 461.331 22.805H459.681V26H458.691V17.09H461.331C462.021 17.09 462.626 17.195 463.146 17.405C463.676 17.605 464.091 17.915 464.391 18.335C464.701 18.755 464.856 19.295 464.856 19.955ZM463.851 19.955C463.851 19.445 463.731 19.045 463.491 18.755C463.251 18.455 462.936 18.245 462.546 18.125C462.156 17.995 461.726 17.93 461.256 17.93H459.681V21.965H461.256C461.726 21.965 462.156 21.905 462.546 21.785C462.936 21.665 463.251 21.46 463.491 21.17C463.731 20.87 463.851 20.465 463.851 19.955ZM466.907 17.09V26H465.917V17.09H466.907ZM480.471 19.4L478.251 26H477.246L475.911 22.34C475.811 22.02 475.721 21.74 475.641 21.5C475.561 21.26 475.496 21.045 475.446 20.855H475.371C475.331 21.045 475.266 21.26 475.176 21.5C475.096 21.74 475.006 22.02 474.906 22.34L473.571 26H472.566L470.346 19.43L471.336 19.37L472.746 23.63C472.816 23.85 472.881 24.08 472.941 24.32C473.011 24.55 473.066 24.765 473.106 24.965H473.166C473.206 24.765 473.261 24.55 473.331 24.32C473.411 24.08 473.486 23.85 473.556 23.63L474.921 19.85H475.926L477.291 23.63C477.361 23.85 477.436 24.08 477.516 24.32C477.596 24.55 477.651 24.765 477.681 24.965H477.756C477.796 24.765 477.846 24.55 477.906 24.32C477.976 24.08 478.041 23.85 478.101 23.63L479.496 19.4H480.471ZM484.818 19.4L484.788 20.315C484.708 20.285 484.603 20.26 484.473 20.24C484.353 20.22 484.243 20.21 484.143 20.21C483.783 20.21 483.433 20.305 483.093 20.495C482.763 20.675 482.473 20.915 482.223 21.215V26H481.263V19.43L482.223 19.37V20.36C482.493 20.04 482.808 19.785 483.168 19.595C483.528 19.405 483.898 19.31 484.278 19.31C484.378 19.31 484.478 19.315 484.578 19.325C484.678 19.335 484.758 19.36 484.818 19.4ZM490.539 26H489.624V25.4C489.344 25.6 489.004 25.765 488.604 25.895C488.204 26.025 487.779 26.09 487.329 26.09C486.579 26.09 486.009 25.92 485.619 25.58C485.229 25.24 485.034 24.775 485.034 24.185C485.034 23.505 485.274 23.005 485.754 22.685C486.244 22.355 486.894 22.19 487.704 22.19C488.044 22.19 488.389 22.225 488.739 22.295C489.099 22.365 489.384 22.455 489.594 22.565V21.725C489.594 21.165 489.439 20.765 489.129 20.525C488.819 20.285 488.359 20.165 487.749 20.165C487.339 20.165 486.944 20.22 486.564 20.33C486.194 20.43 485.889 20.555 485.649 20.705L485.604 19.82C485.884 19.66 486.214 19.535 486.594 19.445C486.984 19.355 487.399 19.31 487.839 19.31C488.689 19.31 489.349 19.495 489.819 19.865C490.299 20.225 490.539 20.815 490.539 21.635V26ZM489.594 24.74V23.225C489.384 23.115 489.119 23.03 488.799 22.97C488.489 22.9 488.174 22.865 487.854 22.865C487.294 22.865 486.844 22.97 486.504 23.18C486.174 23.38 486.009 23.71 486.009 24.17C486.009 24.6 486.154 24.91 486.444 25.1C486.734 25.29 487.104 25.385 487.554 25.385C487.944 25.385 488.329 25.32 488.709 25.19C489.089 25.06 489.384 24.91 489.594 24.74ZM498.055 22.655C498.055 23.315 497.905 23.905 497.605 24.425C497.315 24.945 496.91 25.355 496.39 25.655C495.88 25.945 495.295 26.09 494.635 26.09C493.955 26.09 493.38 25.99 492.91 25.79V28.775H491.95V19.43L492.91 19.37V19.955C493.19 19.735 493.495 19.575 493.825 19.475C494.165 19.365 494.525 19.31 494.905 19.31C495.495 19.31 496.025 19.44 496.495 19.7C496.965 19.96 497.34 20.34 497.62 20.84C497.91 21.34 498.055 21.945 498.055 22.655ZM497.065 22.67C497.065 22.14 496.96 21.685 496.75 21.305C496.55 20.925 496.27 20.64 495.91 20.45C495.56 20.25 495.155 20.15 494.695 20.15C494.015 20.15 493.42 20.35 492.91 20.75V24.935C493.12 25.025 493.36 25.1 493.63 25.16C493.91 25.22 494.2 25.25 494.5 25.25C494.98 25.25 495.41 25.15 495.79 24.95C496.18 24.74 496.49 24.44 496.72 24.05C496.95 23.66 497.065 23.2 497.065 22.67ZM505.047 22.655C505.047 23.315 504.897 23.905 504.597 24.425C504.307 24.945 503.902 25.355 503.382 25.655C502.872 25.945 502.287 26.09 501.627 26.09C500.947 26.09 500.372 25.99 499.902 25.79V28.775H498.942V19.43L499.902 19.37V19.955C500.182 19.735 500.487 19.575 500.817 19.475C501.157 19.365 501.517 19.31 501.897 19.31C502.487 19.31 503.017 19.44 503.487 19.7C503.957 19.96 504.332 20.34 504.612 20.84C504.902 21.34 505.047 21.945 505.047 22.655ZM504.057 22.67C504.057 22.14 503.952 21.685 503.742 21.305C503.542 20.925 503.262 20.64 502.902 20.45C502.552 20.25 502.147 20.15 501.687 20.15C501.007 20.15 500.412 20.35 499.902 20.75V24.935C500.112 25.025 500.352 25.1 500.622 25.16C500.902 25.22 501.192 25.25 501.492 25.25C501.972 25.25 502.402 25.15 502.782 24.95C503.172 24.74 503.482 24.44 503.712 24.05C503.942 23.66 504.057 23.2 504.057 22.67ZM511.303 22.895H506.398C506.438 23.375 506.573 23.79 506.803 24.14C507.043 24.48 507.358 24.75 507.748 24.95C508.138 25.14 508.588 25.235 509.098 25.235C509.518 25.235 509.928 25.175 510.328 25.055C510.738 24.935 511.078 24.765 511.348 24.545L511.393 25.445C511.133 25.645 510.783 25.805 510.343 25.925C509.913 26.035 509.483 26.09 509.053 26.09C508.333 26.09 507.693 25.95 507.133 25.67C506.583 25.39 506.158 24.99 505.858 24.47C505.558 23.95 505.408 23.335 505.408 22.625C505.408 21.965 505.543 21.385 505.813 20.885C506.083 20.385 506.453 20 506.923 19.73C507.403 19.45 507.943 19.31 508.543 19.31C509.093 19.31 509.578 19.425 509.998 19.655C510.428 19.885 510.763 20.21 511.003 20.63C511.243 21.05 511.363 21.54 511.363 22.1C511.363 22.21 511.358 22.34 511.348 22.49C511.338 22.64 511.323 22.775 511.303 22.895ZM508.543 20.06C507.953 20.06 507.458 20.26 507.058 20.66C506.658 21.06 506.433 21.595 506.383 22.265H510.418C510.428 22.225 510.433 22.185 510.433 22.145C510.433 22.095 510.433 22.04 510.433 21.98C510.433 21.42 510.258 20.96 509.908 20.6C509.568 20.24 509.113 20.06 508.543 20.06ZM515.967 19.4L515.937 20.315C515.857 20.285 515.752 20.26 515.622 20.24C515.502 20.22 515.392 20.21 515.292 20.21C514.932 20.21 514.582 20.305 514.242 20.495C513.912 20.675 513.622 20.915 513.372 21.215V26H512.412V19.43L513.372 19.37V20.36C513.642 20.04 513.957 19.785 514.317 19.595C514.677 19.405 515.047 19.31 515.427 19.31C515.527 19.31 515.627 19.315 515.727 19.325C515.827 19.335 515.907 19.36 515.967 19.4ZM522.516 16.565L522.471 17.42C522.401 17.4 522.311 17.385 522.201 17.375C522.101 17.365 522.001 17.36 521.901 17.36C521.501 17.36 521.171 17.475 520.911 17.705C520.661 17.925 520.536 18.335 520.536 18.935V19.4H522.336L522.261 20.24H520.536V26H519.591V20.24H518.631V19.4H519.591V18.905C519.591 18.095 519.796 17.49 520.206 17.09C520.616 16.69 521.156 16.49 521.826 16.49C521.946 16.49 522.066 16.5 522.186 16.52C522.316 16.53 522.426 16.545 522.516 16.565ZM529.227 22.7C529.227 23.36 529.077 23.95 528.777 24.47C528.477 24.98 528.067 25.38 527.547 25.67C527.027 25.95 526.447 26.09 525.807 26.09C525.167 26.09 524.587 25.95 524.067 25.67C523.547 25.38 523.137 24.98 522.837 24.47C522.537 23.95 522.387 23.36 522.387 22.7C522.387 22.03 522.537 21.44 522.837 20.93C523.137 20.42 523.547 20.025 524.067 19.745C524.587 19.455 525.167 19.31 525.807 19.31C526.447 19.31 527.027 19.455 527.547 19.745C528.067 20.025 528.477 20.42 528.777 20.93C529.077 21.44 529.227 22.03 529.227 22.7ZM528.237 22.7C528.237 22.2 528.127 21.76 527.907 21.38C527.687 21 527.392 20.705 527.022 20.495C526.662 20.275 526.257 20.165 525.807 20.165C525.357 20.165 524.947 20.275 524.577 20.495C524.207 20.705 523.912 21 523.692 21.38C523.482 21.76 523.377 22.2 523.377 22.7C523.377 23.19 523.487 23.63 523.707 24.02C523.927 24.4 524.222 24.7 524.592 24.92C524.962 25.13 525.367 25.235 525.807 25.235C526.267 25.235 526.682 25.13 527.052 24.92C527.422 24.7 527.712 24.4 527.922 24.02C528.132 23.63 528.237 23.19 528.237 22.7ZM533.664 19.4L533.634 20.315C533.554 20.285 533.449 20.26 533.319 20.24C533.199 20.22 533.089 20.21 532.989 20.21C532.629 20.21 532.279 20.305 531.939 20.495C531.609 20.675 531.319 20.915 531.069 21.215V26H530.109V19.43L531.069 19.37V20.36C531.339 20.04 531.654 19.785 532.014 19.595C532.374 19.405 532.744 19.31 533.124 19.31C533.224 19.31 533.324 19.315 533.424 19.325C533.524 19.335 533.604 19.36 533.664 19.4ZM544.398 26H543.348L542.253 23.255H538.338L537.243 26H536.223L539.763 17.09H540.873L544.398 26ZM541.953 22.43L540.633 19.115C540.563 18.945 540.503 18.79 540.453 18.65C540.413 18.5 540.373 18.35 540.333 18.2H540.258C540.218 18.35 540.173 18.5 540.123 18.65C540.083 18.79 540.028 18.945 539.958 19.115L538.623 22.43H541.953ZM545.197 26V17.09H546.187V25.1H550.297L550.222 26H545.197ZM552.182 17.09V26H551.192V17.09H552.182ZM558.919 17.48L558.709 18.365C558.539 18.265 558.334 18.18 558.094 18.11C557.854 18.04 557.599 17.985 557.329 17.945C557.069 17.905 556.809 17.885 556.549 17.885C555.859 17.885 555.329 18.02 554.959 18.29C554.599 18.56 554.419 18.92 554.419 19.37C554.419 19.67 554.504 19.92 554.674 20.12C554.854 20.32 555.089 20.485 555.379 20.615C555.669 20.745 555.984 20.865 556.324 20.975C556.674 21.085 557.024 21.205 557.374 21.335C557.724 21.455 558.044 21.61 558.334 21.8C558.624 21.98 558.854 22.215 559.024 22.505C559.204 22.795 559.294 23.155 559.294 23.585C559.294 24.345 559.019 24.955 558.469 25.415C557.919 25.865 557.099 26.09 556.009 26.09C555.479 26.09 554.969 26.035 554.479 25.925C553.999 25.815 553.609 25.675 553.309 25.505L553.429 24.56C553.639 24.68 553.879 24.79 554.149 24.89C554.429 24.98 554.729 25.055 555.049 25.115C555.369 25.175 555.694 25.205 556.024 25.205C556.804 25.205 557.374 25.07 557.734 24.8C558.094 24.52 558.274 24.145 558.274 23.675C558.274 23.355 558.184 23.095 558.004 22.895C557.834 22.695 557.604 22.53 557.314 22.4C557.024 22.26 556.704 22.14 556.354 22.04C556.014 21.93 555.669 21.815 555.319 21.695C554.969 21.565 554.649 21.41 554.359 21.23C554.069 21.04 553.834 20.805 553.654 20.525C553.484 20.235 553.399 19.87 553.399 19.43C553.399 18.96 553.519 18.545 553.759 18.185C553.999 17.815 554.354 17.525 554.824 17.315C555.294 17.105 555.864 17 556.534 17C556.834 17 557.129 17.02 557.419 17.06C557.709 17.09 557.984 17.14 558.244 17.21C558.504 17.28 558.729 17.37 558.919 17.48ZM565.785 17.09L565.71 17.975H561.36V21.065H565.005V21.935H561.36V25.115H565.875V26H560.37V17.09H565.785Z" fill="white"/>
</svg>
