<svg width="581" height="43" viewBox="0 0 581 43" fill="none" xmlns="http://www.w3.org/2000/svg">
<rect width="581" height="43" rx="15" fill="#1A3E29"/>
<path fill-rule="evenodd" clip-rule="evenodd" d="M25.0098 18.8346L14 18.835V13.123H25.0098V18.835H30.754V29.8771H25.0098V24.5471C22.093 24.5979 19.7442 26.9647 19.7442 29.8771H14C14 23.8103 18.9205 18.8862 25.0098 18.835V18.8346Z" fill="#A0FFC9"/>
<path d="M53.5659 29.076C52.9686 29.468 52.2219 29.7667 51.3259 29.972C50.4486 30.1587 49.5246 30.252 48.5539 30.252C46.7059 30.252 45.1006 29.8787 43.7379 29.132C42.3752 28.3853 41.3206 27.368 40.5739 26.08C39.8272 24.7733 39.4539 23.308 39.4539 21.684C39.4539 20.0227 39.8272 18.5573 40.5739 17.288C41.3206 16 42.3379 14.9827 43.6259 14.236C44.9326 13.4893 46.4072 13.116 48.0499 13.116C49.2259 13.116 50.2526 13.2373 51.1299 13.48C52.0259 13.704 52.8286 14.0587 53.5379 14.544L52.3339 17.932C51.8299 17.5027 51.2419 17.1667 50.5699 16.924C49.8979 16.6813 49.1512 16.56 48.3299 16.56C47.3592 16.56 46.4912 16.7653 45.7259 17.176C44.9606 17.5867 44.3539 18.1747 43.9059 18.94C43.4766 19.7053 43.2619 20.62 43.2619 21.684C43.2619 22.6733 43.4859 23.56 43.9339 24.344C44.3819 25.1093 45.0166 25.716 45.8379 26.164C46.6592 26.5933 47.6112 26.808 48.6939 26.808C49.6646 26.808 50.5606 26.6867 51.3819 26.444C52.2219 26.2013 52.9032 25.8747 53.4259 25.464L53.5659 29.076ZM58.4819 12.248V30H54.8979V12.416L58.4819 12.248ZM62.1402 12.024C62.7002 12.024 63.1576 12.2107 63.5122 12.584C63.8669 12.9387 64.0442 13.3867 64.0442 13.928C64.0442 14.488 63.8669 14.9547 63.5122 15.328C63.1576 15.6827 62.7002 15.86 62.1402 15.86C61.5616 15.86 61.0762 15.6827 60.6842 15.328C60.3109 14.9547 60.1242 14.488 60.1242 13.928C60.1242 13.3867 60.3109 12.9387 60.6842 12.584C61.0762 12.2107 61.5616 12.024 62.1402 12.024ZM63.8763 17.596V30H60.2922V17.764L63.8763 17.596ZM75.5426 18.52L74.7586 21.768C74.4413 21.4507 74.0213 21.1893 73.4986 20.984C72.976 20.7787 72.4346 20.676 71.8746 20.676C71.2586 20.676 70.6986 20.8067 70.1946 21.068C69.7093 21.3107 69.3266 21.6653 69.0466 22.132C68.7853 22.5987 68.6546 23.1587 68.6546 23.812C68.6546 24.484 68.7946 25.0627 69.0746 25.548C69.3546 26.0333 69.756 26.3973 70.2786 26.64C70.82 26.8827 71.4453 27.004 72.1546 27.004C72.7893 27.004 73.3866 26.9107 73.9466 26.724C74.5253 26.5373 75.0386 26.2947 75.4866 25.996L75.6266 29.188C75.104 29.5053 74.5066 29.7667 73.8346 29.972C73.1626 30.1587 72.4066 30.252 71.5666 30.252C70.3906 30.252 69.2986 30 68.2906 29.496C67.2826 28.992 66.4706 28.264 65.8546 27.312C65.2573 26.3413 64.9586 25.1747 64.9586 23.812C64.9586 22.58 65.248 21.488 65.8266 20.536C66.4053 19.5653 67.1893 18.8093 68.1786 18.268C69.168 17.708 70.2693 17.428 71.4826 17.428C72.3786 17.428 73.1626 17.5307 73.8346 17.736C74.5253 17.9227 75.0946 18.184 75.5426 18.52ZM88.8105 17.764L84.4705 22.804L89.0345 30H84.9185L81.7265 25.296L80.2705 26.976V30H76.6865V12.416L80.2705 12.248V23.588H80.4105C80.6158 23.1773 80.8865 22.72 81.2225 22.216C81.5585 21.6933 81.9598 21.1333 82.4265 20.536L84.9745 17.596L88.8105 17.764ZM105.108 30H101.132L99.7324 25.94H93.8804L92.4524 30H88.6724L94.7204 13.368H99.0604L105.108 30ZM98.7804 23L97.4364 19.22C97.3058 18.8467 97.1938 18.5013 97.1004 18.184C97.0258 17.848 96.9511 17.512 96.8764 17.176H96.7364C96.6618 17.512 96.5778 17.848 96.4844 18.184C96.4098 18.5013 96.3071 18.8467 96.1764 19.22L94.8044 23H98.7804ZM117.444 30H113.86V22.636C113.86 21.908 113.682 21.3853 113.328 21.068C112.973 20.7507 112.488 20.592 111.872 20.592C111.461 20.592 111.041 20.6667 110.612 20.816C110.182 20.9467 109.772 21.1333 109.38 21.376V30H105.796V17.764L109.38 17.596V18.744C109.977 18.296 110.584 17.9693 111.2 17.764C111.834 17.54 112.497 17.428 113.188 17.428C114.476 17.428 115.502 17.792 116.268 18.52C117.052 19.2293 117.444 20.3493 117.444 21.88V30ZM130.848 12.248V30H127.264V29.244C126.368 29.916 125.314 30.252 124.1 30.252C123.092 30.252 122.159 30 121.3 29.496C120.46 28.992 119.788 28.2733 119.284 27.34C118.78 26.388 118.528 25.268 118.528 23.98C118.528 22.6547 118.78 21.5067 119.284 20.536C119.807 19.5467 120.535 18.7813 121.468 18.24C122.42 17.6987 123.531 17.428 124.8 17.428C125.248 17.428 125.687 17.4653 126.116 17.54C126.546 17.6147 126.928 17.7267 127.264 17.876V12.416L130.848 12.248ZM127.264 20.872C127.04 20.7787 126.751 20.6947 126.396 20.62C126.042 20.5453 125.696 20.508 125.36 20.508C124.726 20.508 124.166 20.648 123.68 20.928C123.214 21.1893 122.85 21.572 122.588 22.076C122.346 22.58 122.224 23.1773 122.224 23.868C122.224 24.54 122.336 25.128 122.56 25.632C122.784 26.1173 123.111 26.5 123.54 26.78C123.988 27.0413 124.502 27.172 125.08 27.172C125.92 27.172 126.648 26.9573 127.264 26.528V20.872ZM150.835 13.368V30H147.111V19.808H146.971C146.896 20.1813 146.794 20.5547 146.663 20.928C146.532 21.3013 146.364 21.712 146.159 22.16L143.527 27.62H140.027L137.395 22.16C137.208 21.7493 137.05 21.348 136.919 20.956C136.788 20.564 136.676 20.1813 136.583 19.808H136.443V30H132.887V13.368H136.835L140.811 21.712C140.998 22.1227 141.184 22.5613 141.371 23.028C141.558 23.476 141.698 23.868 141.791 24.204H141.931C142.024 23.868 142.164 23.4667 142.351 23C142.538 22.5333 142.724 22.104 142.911 21.712L146.859 13.368H150.835ZM163.797 24.708H155.901C156.013 25.212 156.237 25.6507 156.573 26.024C156.928 26.3787 157.376 26.6493 157.917 26.836C158.477 27.0227 159.13 27.116 159.877 27.116C160.512 27.116 161.193 27.032 161.921 26.864C162.649 26.6773 163.246 26.444 163.713 26.164L163.853 29.216C163.368 29.552 162.714 29.8133 161.893 30C161.09 30.168 160.334 30.252 159.625 30.252C158.038 30.252 156.676 29.9907 155.537 29.468C154.417 28.9267 153.568 28.1707 152.989 27.2C152.429 26.2293 152.149 25.0907 152.149 23.784C152.149 22.496 152.41 21.3853 152.933 20.452C153.474 19.5 154.212 18.7627 155.145 18.24C156.097 17.6987 157.161 17.428 158.337 17.428C159.42 17.428 160.381 17.6427 161.221 18.072C162.08 18.5013 162.742 19.1267 163.209 19.948C163.694 20.7507 163.937 21.7213 163.937 22.86C163.937 23.1027 163.918 23.4013 163.881 23.756C163.862 24.092 163.834 24.4093 163.797 24.708ZM158.365 20.004C157.637 20.004 157.04 20.2467 156.573 20.732C156.125 21.2173 155.854 21.8613 155.761 22.664H160.605C160.605 22.6267 160.605 22.5707 160.605 22.496C160.605 22.4027 160.605 22.3373 160.605 22.3C160.605 21.6093 160.4 21.0587 159.989 20.648C159.597 20.2187 159.056 20.004 158.365 20.004ZM177.789 23.84C177.789 25.072 177.5 26.1733 176.921 27.144C176.361 28.1147 175.577 28.88 174.569 29.44C173.561 29.9813 172.413 30.252 171.125 30.252C169.837 30.252 168.689 29.9813 167.681 29.44C166.673 28.88 165.88 28.1147 165.301 27.144C164.741 26.1733 164.461 25.072 164.461 23.84C164.461 22.5893 164.741 21.488 165.301 20.536C165.88 19.5653 166.673 18.8093 167.681 18.268C168.689 17.708 169.837 17.428 171.125 17.428C172.413 17.428 173.561 17.708 174.569 18.268C175.577 18.8093 176.361 19.5653 176.921 20.536C177.5 21.488 177.789 22.5893 177.789 23.84ZM174.093 23.84C174.093 23.1867 173.963 22.6173 173.701 22.132C173.44 21.628 173.085 21.2453 172.637 20.984C172.189 20.704 171.685 20.564 171.125 20.564C170.565 20.564 170.061 20.704 169.613 20.984C169.165 21.2453 168.811 21.628 168.549 22.132C168.288 22.6173 168.157 23.1867 168.157 23.84C168.157 24.4933 168.288 25.072 168.549 25.576C168.811 26.0613 169.165 26.444 169.613 26.724C170.08 26.9853 170.584 27.116 171.125 27.116C171.704 27.116 172.217 26.9853 172.665 26.724C173.113 26.444 173.459 26.0613 173.701 25.576C173.963 25.072 174.093 24.4933 174.093 23.84ZM197.884 17.68L194.244 30H190.436L188.98 25.66C188.719 24.764 188.504 24.0453 188.336 23.504C188.168 22.944 188.028 22.4307 187.916 21.964H187.776C187.683 22.4307 187.543 22.944 187.356 23.504C187.188 24.0453 186.974 24.764 186.712 25.66L185.256 30H181.448L177.808 17.764L181.42 17.596L183.072 23.476C183.166 23.868 183.259 24.3347 183.352 24.876C183.464 25.3987 183.548 25.884 183.604 26.332H183.744C183.8 25.884 183.894 25.3987 184.024 24.876C184.155 24.3347 184.276 23.868 184.388 23.476L186.012 18.604H189.82L191.444 23.476C191.556 23.868 191.678 24.3347 191.808 24.876C191.939 25.3987 192.032 25.884 192.088 26.332H192.228C192.284 25.884 192.359 25.3987 192.452 24.876C192.564 24.3347 192.667 23.868 192.76 23.476L194.356 17.68H197.884Z" fill="#A0FFC9"/>
<path d="M350.91 26H349.995V25.4C349.715 25.6 349.375 25.765 348.975 25.895C348.575 26.025 348.15 26.09 347.7 26.09C346.95 26.09 346.38 25.92 345.99 25.58C345.6 25.24 345.405 24.775 345.405 24.185C345.405 23.505 345.645 23.005 346.125 22.685C346.615 22.355 347.265 22.19 348.075 22.19C348.415 22.19 348.76 22.225 349.11 22.295C349.47 22.365 349.755 22.455 349.965 22.565V21.725C349.965 21.165 349.81 20.765 349.5 20.525C349.19 20.285 348.73 20.165 348.12 20.165C347.71 20.165 347.315 20.22 346.935 20.33C346.565 20.43 346.26 20.555 346.02 20.705L345.975 19.82C346.255 19.66 346.585 19.535 346.965 19.445C347.355 19.355 347.77 19.31 348.21 19.31C349.06 19.31 349.72 19.495 350.19 19.865C350.67 20.225 350.91 20.815 350.91 21.635V26ZM349.965 24.74V23.225C349.755 23.115 349.49 23.03 349.17 22.97C348.86 22.9 348.545 22.865 348.225 22.865C347.665 22.865 347.215 22.97 346.875 23.18C346.545 23.38 346.38 23.71 346.38 24.17C346.38 24.6 346.525 24.91 346.815 25.1C347.105 25.29 347.475 25.385 347.925 25.385C348.315 25.385 348.7 25.32 349.08 25.19C349.46 25.06 349.755 24.91 349.965 24.74ZM364.879 26H363.919V21.86C363.919 21.72 363.904 21.59 363.874 21.47C363.854 21.34 363.829 21.23 363.799 21.14C363.699 20.8 363.529 20.555 363.289 20.405C363.049 20.255 362.744 20.18 362.374 20.18C362.324 20.18 362.274 20.185 362.224 20.195C362.174 20.195 362.124 20.195 362.074 20.195C361.784 20.225 361.484 20.31 361.174 20.45C360.874 20.58 360.569 20.755 360.259 20.975C360.289 21.095 360.309 21.22 360.319 21.35C360.339 21.47 360.349 21.6 360.349 21.74V26H359.389V21.86C359.389 21.72 359.379 21.59 359.359 21.47C359.339 21.34 359.309 21.23 359.269 21.14C359.179 20.8 359.014 20.555 358.774 20.405C358.534 20.255 358.229 20.18 357.859 20.18C357.529 20.18 357.189 20.255 356.839 20.405C356.499 20.545 356.164 20.735 355.834 20.975V26H354.874V19.43L355.834 19.37V20.18C356.204 19.9 356.559 19.695 356.899 19.565C357.249 19.425 357.579 19.35 357.889 19.34C358.219 19.32 358.534 19.35 358.834 19.43C359.114 19.49 359.359 19.595 359.569 19.745C359.779 19.885 359.944 20.08 360.064 20.33C360.514 19.96 360.954 19.7 361.384 19.55C361.814 19.39 362.219 19.31 362.599 19.31C363.299 19.31 363.854 19.5 364.264 19.88C364.674 20.25 364.879 20.84 364.879 21.65V26ZM371.659 22.895H366.754C366.794 23.375 366.929 23.79 367.159 24.14C367.399 24.48 367.714 24.75 368.104 24.95C368.494 25.14 368.944 25.235 369.454 25.235C369.874 25.235 370.284 25.175 370.684 25.055C371.094 24.935 371.434 24.765 371.704 24.545L371.749 25.445C371.489 25.645 371.139 25.805 370.699 25.925C370.269 26.035 369.839 26.09 369.409 26.09C368.689 26.09 368.049 25.95 367.489 25.67C366.939 25.39 366.514 24.99 366.214 24.47C365.914 23.95 365.764 23.335 365.764 22.625C365.764 21.965 365.899 21.385 366.169 20.885C366.439 20.385 366.809 20 367.279 19.73C367.759 19.45 368.299 19.31 368.899 19.31C369.449 19.31 369.934 19.425 370.354 19.655C370.784 19.885 371.119 20.21 371.359 20.63C371.599 21.05 371.719 21.54 371.719 22.1C371.719 22.21 371.714 22.34 371.704 22.49C371.694 22.64 371.679 22.775 371.659 22.895ZM368.899 20.06C368.309 20.06 367.814 20.26 367.414 20.66C367.014 21.06 366.789 21.595 366.739 22.265H370.774C370.784 22.225 370.789 22.185 370.789 22.145C370.789 22.095 370.789 22.04 370.789 21.98C370.789 21.42 370.614 20.96 370.264 20.6C369.924 20.24 369.469 20.06 368.899 20.06ZM379.083 22.7C379.083 23.36 378.933 23.95 378.633 24.47C378.333 24.98 377.923 25.38 377.403 25.67C376.883 25.95 376.303 26.09 375.663 26.09C375.023 26.09 374.443 25.95 373.923 25.67C373.403 25.38 372.993 24.98 372.693 24.47C372.393 23.95 372.243 23.36 372.243 22.7C372.243 22.03 372.393 21.44 372.693 20.93C372.993 20.42 373.403 20.025 373.923 19.745C374.443 19.455 375.023 19.31 375.663 19.31C376.303 19.31 376.883 19.455 377.403 19.745C377.923 20.025 378.333 20.42 378.633 20.93C378.933 21.44 379.083 22.03 379.083 22.7ZM378.093 22.7C378.093 22.2 377.983 21.76 377.763 21.38C377.543 21 377.248 20.705 376.878 20.495C376.518 20.275 376.113 20.165 375.663 20.165C375.213 20.165 374.803 20.275 374.433 20.495C374.063 20.705 373.768 21 373.548 21.38C373.338 21.76 373.233 22.2 373.233 22.7C373.233 23.19 373.343 23.63 373.563 24.02C373.783 24.4 374.078 24.7 374.448 24.92C374.818 25.13 375.223 25.235 375.663 25.235C376.123 25.235 376.538 25.13 376.908 24.92C377.278 24.7 377.568 24.4 377.778 24.02C377.988 23.63 378.093 23.19 378.093 22.7ZM389.46 19.4L387.24 26H386.235L384.9 22.34C384.8 22.02 384.71 21.74 384.63 21.5C384.55 21.26 384.485 21.045 384.435 20.855H384.36C384.32 21.045 384.255 21.26 384.165 21.5C384.085 21.74 383.995 22.02 383.895 22.34L382.56 26H381.555L379.335 19.43L380.325 19.37L381.735 23.63C381.805 23.85 381.87 24.08 381.93 24.32C382 24.55 382.055 24.765 382.095 24.965H382.155C382.195 24.765 382.25 24.55 382.32 24.32C382.4 24.08 382.475 23.85 382.545 23.63L383.91 19.85H384.915L386.28 23.63C386.35 23.85 386.425 24.08 386.505 24.32C386.585 24.55 386.64 24.765 386.67 24.965H386.745C386.785 24.765 386.835 24.55 386.895 24.32C386.965 24.08 387.03 23.85 387.09 23.63L388.485 19.4H389.46ZM392.96 22.235V23.105H389.45V22.235H392.96ZM403.937 26H402.977V21.86C402.977 21.72 402.962 21.59 402.932 21.47C402.912 21.34 402.887 21.23 402.857 21.14C402.757 20.8 402.587 20.555 402.347 20.405C402.107 20.255 401.802 20.18 401.432 20.18C401.382 20.18 401.332 20.185 401.282 20.195C401.232 20.195 401.182 20.195 401.132 20.195C400.842 20.225 400.542 20.31 400.232 20.45C399.932 20.58 399.627 20.755 399.317 20.975C399.347 21.095 399.367 21.22 399.377 21.35C399.397 21.47 399.407 21.6 399.407 21.74V26H398.447V21.86C398.447 21.72 398.437 21.59 398.417 21.47C398.397 21.34 398.367 21.23 398.327 21.14C398.237 20.8 398.072 20.555 397.832 20.405C397.592 20.255 397.287 20.18 396.917 20.18C396.587 20.18 396.247 20.255 395.897 20.405C395.557 20.545 395.222 20.735 394.892 20.975V26H393.932V19.43L394.892 19.37V20.18C395.262 19.9 395.617 19.695 395.957 19.565C396.307 19.425 396.637 19.35 396.947 19.34C397.277 19.32 397.592 19.35 397.892 19.43C398.172 19.49 398.417 19.595 398.627 19.745C398.837 19.885 399.002 20.08 399.122 20.33C399.572 19.96 400.012 19.7 400.442 19.55C400.872 19.39 401.277 19.31 401.657 19.31C402.357 19.31 402.912 19.5 403.322 19.88C403.732 20.25 403.937 20.84 403.937 21.65V26ZM410.328 26H409.413V25.4C409.133 25.6 408.793 25.765 408.393 25.895C407.993 26.025 407.568 26.09 407.118 26.09C406.368 26.09 405.798 25.92 405.408 25.58C405.018 25.24 404.823 24.775 404.823 24.185C404.823 23.505 405.063 23.005 405.543 22.685C406.033 22.355 406.683 22.19 407.493 22.19C407.833 22.19 408.178 22.225 408.528 22.295C408.888 22.365 409.173 22.455 409.383 22.565V21.725C409.383 21.165 409.228 20.765 408.918 20.525C408.608 20.285 408.148 20.165 407.538 20.165C407.128 20.165 406.733 20.22 406.353 20.33C405.983 20.43 405.678 20.555 405.438 20.705L405.393 19.82C405.673 19.66 406.003 19.535 406.383 19.445C406.773 19.355 407.188 19.31 407.628 19.31C408.478 19.31 409.138 19.495 409.608 19.865C410.088 20.225 410.328 20.815 410.328 21.635V26ZM409.383 24.74V23.225C409.173 23.115 408.908 23.03 408.588 22.97C408.278 22.9 407.963 22.865 407.643 22.865C407.083 22.865 406.633 22.97 406.293 23.18C405.963 23.38 405.798 23.71 405.798 24.17C405.798 24.6 405.943 24.91 406.233 25.1C406.523 25.29 406.893 25.385 407.343 25.385C407.733 25.385 408.118 25.32 408.498 25.19C408.878 25.06 409.173 24.91 409.383 24.74ZM411.171 26V25.175L415.311 20.24H411.351V19.4H416.466V20.225L412.326 25.16H416.646V26H411.171ZM418.097 16.64C418.267 16.64 418.412 16.7 418.532 16.82C418.652 16.94 418.712 17.085 418.712 17.255C418.712 17.435 418.652 17.585 418.532 17.705C418.412 17.825 418.267 17.885 418.097 17.885C417.917 17.885 417.762 17.825 417.632 17.705C417.512 17.585 417.452 17.435 417.452 17.255C417.452 17.085 417.512 16.94 417.632 16.82C417.762 16.7 417.917 16.64 418.097 16.64ZM418.562 19.37V26H417.602V19.43L418.562 19.37ZM425.664 26H424.719V21.86C424.719 21.29 424.579 20.87 424.299 20.6C424.019 20.32 423.619 20.18 423.099 20.18C422.739 20.18 422.374 20.255 422.004 20.405C421.634 20.545 421.279 20.735 420.939 20.975V26H419.979V19.43L420.939 19.37V20.18C421.339 19.88 421.739 19.66 422.139 19.52C422.549 19.38 422.949 19.31 423.339 19.31C424.069 19.31 424.639 19.5 425.049 19.88C425.459 20.25 425.664 20.84 425.664 21.65V26ZM432.563 19.25L432.533 20.09H431.168C431.388 20.27 431.563 20.49 431.693 20.75C431.833 21.01 431.903 21.29 431.903 21.59C431.903 22.21 431.688 22.73 431.258 23.15C430.838 23.57 430.263 23.805 429.533 23.855L428.423 25.04C428.523 25.02 428.663 25.005 428.843 24.995C429.023 24.975 429.203 24.96 429.383 24.95C429.573 24.94 429.723 24.935 429.833 24.935C430.773 24.935 431.483 25.09 431.963 25.4C432.453 25.71 432.698 26.185 432.698 26.825C432.698 27.415 432.438 27.9 431.918 28.28C431.408 28.67 430.583 28.865 429.443 28.865C428.833 28.865 428.238 28.8 427.658 28.67C427.088 28.55 426.628 28.385 426.278 28.175L426.368 27.29C426.598 27.43 426.878 27.555 427.208 27.665C427.538 27.785 427.898 27.88 428.288 27.95C428.688 28.02 429.083 28.055 429.473 28.055C430.063 28.055 430.523 28 430.853 27.89C431.183 27.78 431.418 27.63 431.558 27.44C431.698 27.26 431.768 27.06 431.768 26.84C431.768 26.43 431.598 26.145 431.258 25.985C430.928 25.815 430.398 25.73 429.668 25.73C429.338 25.73 428.968 25.745 428.558 25.775C428.158 25.805 427.828 25.85 427.568 25.91V25.145L428.828 23.84C428.148 23.77 427.613 23.525 427.223 23.105C426.833 22.675 426.638 22.17 426.638 21.59C426.638 21.15 426.743 20.76 426.953 20.42C427.173 20.07 427.478 19.8 427.868 19.61C428.268 19.41 428.733 19.31 429.263 19.31C429.613 19.31 429.928 19.355 430.208 19.445L432.563 19.25ZM430.988 21.59C430.988 21.14 430.833 20.77 430.523 20.48C430.213 20.18 429.793 20.03 429.263 20.03C428.743 20.03 428.328 20.175 428.018 20.465C427.708 20.755 427.553 21.13 427.553 21.59C427.553 22.04 427.708 22.41 428.018 22.7C428.328 22.99 428.743 23.135 429.263 23.135C429.793 23.135 430.213 22.995 430.523 22.715C430.833 22.425 430.988 22.05 430.988 21.59ZM445.38 19.4L443.16 26H442.155L440.82 22.34C440.72 22.02 440.63 21.74 440.55 21.5C440.47 21.26 440.405 21.045 440.355 20.855H440.28C440.24 21.045 440.175 21.26 440.085 21.5C440.005 21.74 439.915 22.02 439.815 22.34L438.48 26H437.475L435.255 19.43L436.245 19.37L437.655 23.63C437.725 23.85 437.79 24.08 437.85 24.32C437.92 24.55 437.975 24.765 438.015 24.965H438.075C438.115 24.765 438.17 24.55 438.24 24.32C438.32 24.08 438.395 23.85 438.465 23.63L439.83 19.85H440.835L442.2 23.63C442.27 23.85 442.345 24.08 442.425 24.32C442.505 24.55 442.56 24.765 442.59 24.965H442.665C442.705 24.765 442.755 24.55 442.815 24.32C442.885 24.08 442.95 23.85 443.01 23.63L444.405 19.4H445.38ZM449.727 19.4L449.697 20.315C449.617 20.285 449.512 20.26 449.382 20.24C449.262 20.22 449.152 20.21 449.052 20.21C448.692 20.21 448.342 20.305 448.002 20.495C447.672 20.675 447.382 20.915 447.132 21.215V26H446.172V19.43L447.132 19.37V20.36C447.402 20.04 447.717 19.785 448.077 19.595C448.437 19.405 448.807 19.31 449.187 19.31C449.287 19.31 449.387 19.315 449.487 19.325C449.587 19.335 449.667 19.36 449.727 19.4ZM455.448 26H454.533V25.4C454.253 25.6 453.913 25.765 453.513 25.895C453.113 26.025 452.688 26.09 452.238 26.09C451.488 26.09 450.918 25.92 450.528 25.58C450.138 25.24 449.943 24.775 449.943 24.185C449.943 23.505 450.183 23.005 450.663 22.685C451.153 22.355 451.803 22.19 452.613 22.19C452.953 22.19 453.298 22.225 453.648 22.295C454.008 22.365 454.293 22.455 454.503 22.565V21.725C454.503 21.165 454.348 20.765 454.038 20.525C453.728 20.285 453.268 20.165 452.658 20.165C452.248 20.165 451.853 20.22 451.473 20.33C451.103 20.43 450.798 20.555 450.558 20.705L450.513 19.82C450.793 19.66 451.123 19.535 451.503 19.445C451.893 19.355 452.308 19.31 452.748 19.31C453.598 19.31 454.258 19.495 454.728 19.865C455.208 20.225 455.448 20.815 455.448 21.635V26ZM454.503 24.74V23.225C454.293 23.115 454.028 23.03 453.708 22.97C453.398 22.9 453.083 22.865 452.763 22.865C452.203 22.865 451.753 22.97 451.413 23.18C451.083 23.38 450.918 23.71 450.918 24.17C450.918 24.6 451.063 24.91 451.353 25.1C451.643 25.29 452.013 25.385 452.463 25.385C452.853 25.385 453.238 25.32 453.618 25.19C453.998 25.06 454.293 24.91 454.503 24.74ZM462.964 22.655C462.964 23.315 462.814 23.905 462.514 24.425C462.224 24.945 461.819 25.355 461.299 25.655C460.789 25.945 460.204 26.09 459.544 26.09C458.864 26.09 458.289 25.99 457.819 25.79V28.775H456.859V19.43L457.819 19.37V19.955C458.099 19.735 458.404 19.575 458.734 19.475C459.074 19.365 459.434 19.31 459.814 19.31C460.404 19.31 460.934 19.44 461.404 19.7C461.874 19.96 462.249 20.34 462.529 20.84C462.819 21.34 462.964 21.945 462.964 22.655ZM461.974 22.67C461.974 22.14 461.869 21.685 461.659 21.305C461.459 20.925 461.179 20.64 460.819 20.45C460.469 20.25 460.064 20.15 459.604 20.15C458.924 20.15 458.329 20.35 457.819 20.75V24.935C458.029 25.025 458.269 25.1 458.539 25.16C458.819 25.22 459.109 25.25 459.409 25.25C459.889 25.25 460.319 25.15 460.699 24.95C461.089 24.74 461.399 24.44 461.629 24.05C461.859 23.66 461.974 23.2 461.974 22.67ZM469.956 22.655C469.956 23.315 469.806 23.905 469.506 24.425C469.216 24.945 468.811 25.355 468.291 25.655C467.781 25.945 467.196 26.09 466.536 26.09C465.856 26.09 465.281 25.99 464.811 25.79V28.775H463.851V19.43L464.811 19.37V19.955C465.091 19.735 465.396 19.575 465.726 19.475C466.066 19.365 466.426 19.31 466.806 19.31C467.396 19.31 467.926 19.44 468.396 19.7C468.866 19.96 469.241 20.34 469.521 20.84C469.811 21.34 469.956 21.945 469.956 22.655ZM468.966 22.67C468.966 22.14 468.861 21.685 468.651 21.305C468.451 20.925 468.171 20.64 467.811 20.45C467.461 20.25 467.056 20.15 466.596 20.15C465.916 20.15 465.321 20.35 464.811 20.75V24.935C465.021 25.025 465.261 25.1 465.531 25.16C465.811 25.22 466.101 25.25 466.401 25.25C466.881 25.25 467.311 25.15 467.691 24.95C468.081 24.74 468.391 24.44 468.621 24.05C468.851 23.66 468.966 23.2 468.966 22.67ZM476.212 22.895H471.307C471.347 23.375 471.482 23.79 471.712 24.14C471.952 24.48 472.267 24.75 472.657 24.95C473.047 25.14 473.497 25.235 474.007 25.235C474.427 25.235 474.837 25.175 475.237 25.055C475.647 24.935 475.987 24.765 476.257 24.545L476.302 25.445C476.042 25.645 475.692 25.805 475.252 25.925C474.822 26.035 474.392 26.09 473.962 26.09C473.242 26.09 472.602 25.95 472.042 25.67C471.492 25.39 471.067 24.99 470.767 24.47C470.467 23.95 470.317 23.335 470.317 22.625C470.317 21.965 470.452 21.385 470.722 20.885C470.992 20.385 471.362 20 471.832 19.73C472.312 19.45 472.852 19.31 473.452 19.31C474.002 19.31 474.487 19.425 474.907 19.655C475.337 19.885 475.672 20.21 475.912 20.63C476.152 21.05 476.272 21.54 476.272 22.1C476.272 22.21 476.267 22.34 476.257 22.49C476.247 22.64 476.232 22.775 476.212 22.895ZM473.452 20.06C472.862 20.06 472.367 20.26 471.967 20.66C471.567 21.06 471.342 21.595 471.292 22.265H475.327C475.337 22.225 475.342 22.185 475.342 22.145C475.342 22.095 475.342 22.04 475.342 21.98C475.342 21.42 475.167 20.96 474.817 20.6C474.477 20.24 474.022 20.06 473.452 20.06ZM480.876 19.4L480.846 20.315C480.766 20.285 480.661 20.26 480.531 20.24C480.411 20.22 480.301 20.21 480.201 20.21C479.841 20.21 479.491 20.305 479.151 20.495C478.821 20.675 478.531 20.915 478.281 21.215V26H477.321V19.43L478.281 19.37V20.36C478.551 20.04 478.866 19.785 479.226 19.595C479.586 19.405 479.956 19.31 480.336 19.31C480.436 19.31 480.536 19.315 480.636 19.325C480.736 19.335 480.816 19.36 480.876 19.4ZM487.425 16.565L487.38 17.42C487.31 17.4 487.22 17.385 487.11 17.375C487.01 17.365 486.91 17.36 486.81 17.36C486.41 17.36 486.08 17.475 485.82 17.705C485.57 17.925 485.445 18.335 485.445 18.935V19.4H487.245L487.17 20.24H485.445V26H484.5V20.24H483.54V19.4H484.5V18.905C484.5 18.095 484.705 17.49 485.115 17.09C485.525 16.69 486.065 16.49 486.735 16.49C486.855 16.49 486.975 16.5 487.095 16.52C487.225 16.53 487.335 16.545 487.425 16.565ZM494.136 22.7C494.136 23.36 493.986 23.95 493.686 24.47C493.386 24.98 492.976 25.38 492.456 25.67C491.936 25.95 491.356 26.09 490.716 26.09C490.076 26.09 489.496 25.95 488.976 25.67C488.456 25.38 488.046 24.98 487.746 24.47C487.446 23.95 487.296 23.36 487.296 22.7C487.296 22.03 487.446 21.44 487.746 20.93C488.046 20.42 488.456 20.025 488.976 19.745C489.496 19.455 490.076 19.31 490.716 19.31C491.356 19.31 491.936 19.455 492.456 19.745C492.976 20.025 493.386 20.42 493.686 20.93C493.986 21.44 494.136 22.03 494.136 22.7ZM493.146 22.7C493.146 22.2 493.036 21.76 492.816 21.38C492.596 21 492.301 20.705 491.931 20.495C491.571 20.275 491.166 20.165 490.716 20.165C490.266 20.165 489.856 20.275 489.486 20.495C489.116 20.705 488.821 21 488.601 21.38C488.391 21.76 488.286 22.2 488.286 22.7C488.286 23.19 488.396 23.63 488.616 24.02C488.836 24.4 489.131 24.7 489.501 24.92C489.871 25.13 490.276 25.235 490.716 25.235C491.176 25.235 491.591 25.13 491.961 24.92C492.331 24.7 492.621 24.4 492.831 24.02C493.041 23.63 493.146 23.19 493.146 22.7ZM498.573 19.4L498.543 20.315C498.463 20.285 498.358 20.26 498.228 20.24C498.108 20.22 497.998 20.21 497.898 20.21C497.538 20.21 497.188 20.305 496.848 20.495C496.518 20.675 496.228 20.915 495.978 21.215V26H495.018V19.43L495.978 19.37V20.36C496.248 20.04 496.563 19.785 496.923 19.595C497.283 19.405 497.653 19.31 498.033 19.31C498.133 19.31 498.233 19.315 498.333 19.325C498.433 19.335 498.513 19.36 498.573 19.4ZM508.947 25.415C508.607 25.635 508.197 25.805 507.717 25.925C507.247 26.035 506.742 26.09 506.202 26.09C505.272 26.09 504.442 25.9 503.712 25.52C502.992 25.13 502.427 24.59 502.017 23.9C501.617 23.21 501.417 22.425 501.417 21.545C501.417 20.665 501.607 19.885 501.987 19.205C502.377 18.525 502.912 17.99 503.592 17.6C504.272 17.2 505.052 17 505.932 17C506.542 17 507.067 17.06 507.507 17.18C507.957 17.29 508.367 17.475 508.737 17.735L508.407 18.665C508.117 18.435 507.762 18.255 507.342 18.125C506.922 17.985 506.472 17.915 505.992 17.915C505.292 17.915 504.672 18.075 504.132 18.395C503.602 18.705 503.187 19.13 502.887 19.67C502.587 20.21 502.437 20.835 502.437 21.545C502.437 22.235 502.597 22.855 502.917 23.405C503.247 23.955 503.697 24.39 504.267 24.71C504.837 25.02 505.492 25.175 506.232 25.175C506.722 25.175 507.207 25.11 507.687 24.98C508.177 24.84 508.592 24.65 508.932 24.41L508.947 25.415ZM510.032 26V17.09H511.022V25.1H515.132L515.057 26H510.032ZM517.018 17.09V26H516.028V17.09H517.018ZM525.6 25.415C525.26 25.635 524.85 25.805 524.37 25.925C523.9 26.035 523.395 26.09 522.855 26.09C521.925 26.09 521.095 25.9 520.365 25.52C519.645 25.13 519.08 24.59 518.67 23.9C518.27 23.21 518.07 22.425 518.07 21.545C518.07 20.665 518.26 19.885 518.64 19.205C519.03 18.525 519.565 17.99 520.245 17.6C520.925 17.2 521.705 17 522.585 17C523.195 17 523.72 17.06 524.16 17.18C524.61 17.29 525.02 17.475 525.39 17.735L525.06 18.665C524.77 18.435 524.415 18.255 523.995 18.125C523.575 17.985 523.125 17.915 522.645 17.915C521.945 17.915 521.325 18.075 520.785 18.395C520.255 18.705 519.84 19.13 519.54 19.67C519.24 20.21 519.09 20.835 519.09 21.545C519.09 22.235 519.25 22.855 519.57 23.405C519.9 23.955 520.35 24.39 520.92 24.71C521.49 25.02 522.145 25.175 522.885 25.175C523.375 25.175 523.86 25.11 524.34 24.98C524.83 24.84 525.245 24.65 525.585 24.41L525.6 25.415ZM534.77 25.835V26H533.555L532.43 24.95C532.03 25.3 531.575 25.58 531.065 25.79C530.565 25.99 530.025 26.09 529.445 26.09C528.785 26.09 528.195 25.98 527.675 25.76C527.155 25.53 526.745 25.205 526.445 24.785C526.155 24.365 526.01 23.845 526.01 23.225C526.01 22.535 526.2 21.95 526.58 21.47C526.96 20.98 527.43 20.62 527.99 20.39C527.9 20.21 527.83 20.03 527.78 19.85C527.74 19.67 527.72 19.48 527.72 19.28C527.72 18.9 527.81 18.535 527.99 18.185C528.17 17.835 528.445 17.55 528.815 17.33C529.195 17.11 529.67 17 530.24 17C530.67 17 531.05 17.055 531.38 17.165C531.71 17.275 532 17.445 532.25 17.675L531.95 18.5C531.76 18.3 531.515 18.14 531.215 18.02C530.925 17.9 530.62 17.84 530.3 17.84C529.79 17.84 529.4 17.975 529.13 18.245C528.86 18.515 528.725 18.855 528.725 19.265C528.725 19.535 528.775 19.785 528.875 20.015C528.975 20.235 529.13 20.465 529.34 20.705C529.55 20.945 529.815 21.22 530.135 21.53L532.475 23.705C532.685 23.395 532.845 23.055 532.955 22.685C533.075 22.305 533.135 21.9 533.135 21.47V20.765L534.095 20.705V21.5C534.095 22.03 534.01 22.535 533.84 23.015C533.67 23.495 533.435 23.93 533.135 24.32L534.77 25.835ZM529.46 25.235C529.92 25.235 530.345 25.155 530.735 24.995C531.135 24.835 531.48 24.615 531.77 24.335L529.505 22.22C529.295 22.03 529.1 21.845 528.92 21.665C528.74 21.475 528.585 21.295 528.455 21.125C528.025 21.295 527.675 21.555 527.405 21.905C527.145 22.255 527.015 22.67 527.015 23.15C527.015 23.62 527.13 24.01 527.36 24.32C527.59 24.63 527.89 24.86 528.26 25.01C528.64 25.16 529.04 25.235 529.46 25.235ZM544.465 17.09V26H543.475V18.875H543.415C543.365 19.035 543.3 19.2 543.22 19.37C543.15 19.53 543.06 19.725 542.95 19.955L540.4 24.725H539.425L536.89 19.955C536.78 19.735 536.685 19.54 536.605 19.37C536.535 19.2 536.475 19.035 536.425 18.875H536.365V26H535.42V17.09H536.47L539.395 22.67C539.495 22.87 539.59 23.07 539.68 23.27C539.77 23.46 539.845 23.63 539.905 23.78H539.965C540.025 23.63 540.1 23.455 540.19 23.255C540.29 23.055 540.39 22.86 540.49 22.67L543.415 17.09H544.465ZM547.063 17.09V26H546.073V17.09H547.063ZM556.005 26H554.955L553.86 23.255H549.945L548.85 26H547.83L551.37 17.09H552.48L556.005 26ZM553.56 22.43L552.24 19.115C552.17 18.945 552.11 18.79 552.06 18.65C552.02 18.5 551.98 18.35 551.94 18.2H551.865C551.825 18.35 551.78 18.5 551.73 18.65C551.69 18.79 551.635 18.945 551.565 19.115L550.23 22.43H553.56ZM565.849 17.09V26H564.859V18.875H564.799C564.749 19.035 564.684 19.2 564.604 19.37C564.534 19.53 564.444 19.725 564.334 19.955L561.784 24.725H560.809L558.274 19.955C558.164 19.735 558.069 19.54 557.989 19.37C557.919 19.2 557.859 19.035 557.809 18.875H557.749V26H556.804V17.09H557.854L560.779 22.67C560.879 22.87 560.974 23.07 561.064 23.27C561.154 23.46 561.229 23.63 561.289 23.78H561.349C561.409 23.63 561.484 23.455 561.574 23.255C561.674 23.055 561.774 22.86 561.874 22.67L564.799 17.09H565.849Z" fill="white"/>
</svg>
