<svg width="581" height="43" viewBox="0 0 581 43" fill="none" xmlns="http://www.w3.org/2000/svg">
<rect width="581" height="43" rx="15" fill="#3E271A"/>
<path fill-rule="evenodd" clip-rule="evenodd" d="M25.0098 18.8346L14 18.835V13.123H25.0098V18.835H30.754V29.8771H25.0098V24.5471C22.093 24.5979 19.7442 26.9647 19.7442 29.8771H14C14 23.8103 18.9205 18.8862 25.0098 18.835V18.8346Z" fill="#FFC1A0"/>
<path d="M53.5659 29.076C52.9686 29.468 52.2219 29.7667 51.3259 29.972C50.4486 30.1587 49.5246 30.252 48.5539 30.252C46.7059 30.252 45.1006 29.8787 43.7379 29.132C42.3752 28.3853 41.3206 27.368 40.5739 26.08C39.8272 24.7733 39.4539 23.308 39.4539 21.684C39.4539 20.0227 39.8272 18.5573 40.5739 17.288C41.3206 16 42.3379 14.9827 43.6259 14.236C44.9326 13.4893 46.4072 13.116 48.0499 13.116C49.2259 13.116 50.2526 13.2373 51.1299 13.48C52.0259 13.704 52.8286 14.0587 53.5379 14.544L52.3339 17.932C51.8299 17.5027 51.2419 17.1667 50.5699 16.924C49.8979 16.6813 49.1512 16.56 48.3299 16.56C47.3592 16.56 46.4912 16.7653 45.7259 17.176C44.9606 17.5867 44.3539 18.1747 43.9059 18.94C43.4766 19.7053 43.2619 20.62 43.2619 21.684C43.2619 22.6733 43.4859 23.56 43.9339 24.344C44.3819 25.1093 45.0166 25.716 45.8379 26.164C46.6592 26.5933 47.6112 26.808 48.6939 26.808C49.6646 26.808 50.5606 26.6867 51.3819 26.444C52.2219 26.2013 52.9032 25.8747 53.4259 25.464L53.5659 29.076ZM67.4979 23.84C67.4979 25.072 67.2085 26.1733 66.6299 27.144C66.0699 28.1147 65.2859 28.88 64.2779 29.44C63.2699 29.9813 62.1219 30.252 60.8339 30.252C59.5459 30.252 58.3979 29.9813 57.3899 29.44C56.3819 28.88 55.5885 28.1147 55.0099 27.144C54.4499 26.1733 54.1699 25.072 54.1699 23.84C54.1699 22.5893 54.4499 21.488 55.0099 20.536C55.5885 19.5653 56.3819 18.8093 57.3899 18.268C58.3979 17.708 59.5459 17.428 60.8339 17.428C62.1219 17.428 63.2699 17.708 64.2779 18.268C65.2859 18.8093 66.0699 19.5653 66.6299 20.536C67.2085 21.488 67.4979 22.5893 67.4979 23.84ZM63.8019 23.84C63.8019 23.1867 63.6712 22.6173 63.4099 22.132C63.1485 21.628 62.7939 21.2453 62.3459 20.984C61.8979 20.704 61.3939 20.564 60.8339 20.564C60.2739 20.564 59.7699 20.704 59.3219 20.984C58.8739 21.2453 58.5192 21.628 58.2579 22.132C57.9965 22.6173 57.8659 23.1867 57.8659 23.84C57.8659 24.4933 57.9965 25.072 58.2579 25.576C58.5192 26.0613 58.8739 26.444 59.3219 26.724C59.7885 26.9853 60.2925 27.116 60.8339 27.116C61.4125 27.116 61.9259 26.9853 62.3739 26.724C62.8219 26.444 63.1672 26.0613 63.4099 25.576C63.6712 25.072 63.8019 24.4933 63.8019 23.84ZM76.2781 17.68L76.0261 20.76H72.7501V25.436C72.7501 26.052 72.8994 26.4907 73.1981 26.752C73.4967 26.9947 73.9354 27.116 74.5141 27.116C74.8314 27.116 75.1301 27.0693 75.4101 26.976C75.7087 26.864 75.9607 26.7333 76.1661 26.584L76.3061 29.608C75.6527 30.0373 74.7661 30.252 73.6461 30.252C72.0967 30.252 70.9674 29.8693 70.2581 29.104C69.5487 28.3387 69.1941 27.2467 69.1941 25.828V20.76H67.5141V17.68H69.1941V15.104L72.7501 14.348V17.68H76.2781ZM87.9737 30H84.5858V29.048C84.1377 29.4027 83.5964 29.692 82.9617 29.916C82.3271 30.14 81.6271 30.252 80.8617 30.252C79.4991 30.252 78.4537 29.9253 77.7257 29.272C77.0164 28.6187 76.6617 27.7133 76.6617 26.556C76.6617 25.3053 77.1004 24.3627 77.9777 23.728C78.8551 23.0747 80.0404 22.748 81.5337 22.748C82.0751 22.748 82.6164 22.7947 83.1578 22.888C83.6991 22.9813 84.1377 23.1027 84.4737 23.252V22.58C84.4737 21.852 84.2404 21.3387 83.7737 21.04C83.3257 20.7227 82.6164 20.564 81.6457 20.564C80.9551 20.564 80.2457 20.648 79.5177 20.816C78.8084 20.984 78.2391 21.1987 77.8097 21.46L77.6697 18.324C78.2484 18.044 78.9297 17.8293 79.7137 17.68C80.5164 17.512 81.3377 17.428 82.1777 17.428C84.0444 17.428 85.4724 17.8293 86.4618 18.632C87.4697 19.416 87.9737 20.6573 87.9737 22.356V30ZM84.4737 27.144V25.38C84.2124 25.2493 83.8857 25.1467 83.4937 25.072C83.1204 24.9973 82.7564 24.96 82.4017 24.96C81.6924 24.96 81.1511 25.0907 80.7777 25.352C80.4044 25.5947 80.2177 25.9773 80.2177 26.5C80.2177 26.9853 80.3764 27.34 80.6937 27.564C81.0111 27.7693 81.4777 27.872 82.0937 27.872C82.5231 27.872 82.9617 27.8067 83.4098 27.676C83.8578 27.5267 84.2124 27.3493 84.4737 27.144ZM102.665 18.968C102.665 20.0693 102.357 21.0213 101.741 21.824C101.143 22.608 100.387 23.1587 99.4728 23.476L103.841 30H99.5288L95.8328 24.4H93.7328V30H90.0088V13.368H95.7768C97.2328 13.368 98.4741 13.592 99.5008 14.04C100.527 14.4693 101.311 15.104 101.853 15.944C102.394 16.7653 102.665 17.7733 102.665 18.968ZM98.9128 18.968C98.9128 18.3893 98.7728 17.9133 98.4928 17.54C98.2314 17.148 97.8581 16.868 97.3728 16.7C96.9061 16.5133 96.3368 16.42 95.6648 16.42H93.7328V21.488H95.6648C96.3368 21.488 96.9061 21.404 97.3728 21.236C97.8581 21.0493 98.2314 20.7693 98.4928 20.396C98.7728 20.0227 98.9128 19.5467 98.9128 18.968ZM115.04 24.708H107.144C107.256 25.212 107.48 25.6507 107.816 26.024C108.171 26.3787 108.619 26.6493 109.16 26.836C109.72 27.0227 110.373 27.116 111.12 27.116C111.755 27.116 112.436 27.032 113.164 26.864C113.892 26.6773 114.489 26.444 114.956 26.164L115.096 29.216C114.611 29.552 113.957 29.8133 113.136 30C112.333 30.168 111.577 30.252 110.868 30.252C109.281 30.252 107.919 29.9907 106.78 29.468C105.66 28.9267 104.811 28.1707 104.232 27.2C103.672 26.2293 103.392 25.0907 103.392 23.784C103.392 22.496 103.653 21.3853 104.176 20.452C104.717 19.5 105.455 18.7627 106.388 18.24C107.34 17.6987 108.404 17.428 109.58 17.428C110.663 17.428 111.624 17.6427 112.464 18.072C113.323 18.5013 113.985 19.1267 114.452 19.948C114.937 20.7507 115.18 21.7213 115.18 22.86C115.18 23.1027 115.161 23.4013 115.124 23.756C115.105 24.092 115.077 24.4093 115.04 24.708ZM109.608 20.004C108.88 20.004 108.283 20.2467 107.816 20.732C107.368 21.2173 107.097 21.8613 107.004 22.664H111.848C111.848 22.6267 111.848 22.5707 111.848 22.496C111.848 22.4027 111.848 22.3373 111.848 22.3C111.848 21.6093 111.643 21.0587 111.232 20.648C110.84 20.2187 110.299 20.004 109.608 20.004ZM124.944 18.044L124.412 20.956C124.02 20.7693 123.535 20.62 122.956 20.508C122.396 20.3773 121.827 20.312 121.248 20.312C120.726 20.312 120.334 20.396 120.072 20.564C119.83 20.732 119.708 20.956 119.708 21.236C119.708 21.46 119.848 21.656 120.128 21.824C120.408 21.9733 120.763 22.1133 121.192 22.244C121.64 22.3747 122.107 22.5333 122.592 22.72C123.096 22.9067 123.563 23.14 123.992 23.42C124.44 23.7 124.795 24.0733 125.056 24.54C125.336 24.988 125.476 25.5573 125.476 26.248C125.476 26.9573 125.299 27.62 124.944 28.236C124.608 28.8333 124.048 29.3187 123.264 29.692C122.499 30.0653 121.5 30.252 120.268 30.252C119.428 30.252 118.607 30.1587 117.804 29.972C117.02 29.7853 116.386 29.5427 115.9 29.244L116.124 26.22C116.591 26.5187 117.198 26.7893 117.944 27.032C118.71 27.256 119.466 27.368 120.212 27.368C121.276 27.368 121.808 27.0507 121.808 26.416C121.808 26.1733 121.668 25.9773 121.388 25.828C121.108 25.6787 120.754 25.5387 120.324 25.408C119.895 25.2587 119.428 25.0907 118.924 24.904C118.42 24.7173 117.954 24.484 117.524 24.204C117.095 23.9053 116.74 23.532 116.46 23.084C116.18 22.636 116.04 22.0667 116.04 21.376C116.04 20.6293 116.246 19.9667 116.656 19.388C117.086 18.7907 117.692 18.3147 118.476 17.96C119.26 17.6053 120.194 17.428 121.276 17.428C122.004 17.428 122.695 17.484 123.348 17.596C124.002 17.6893 124.534 17.8387 124.944 18.044ZM134.367 17.68L134.115 20.76H130.839V25.436C130.839 26.052 130.988 26.4907 131.287 26.752C131.586 26.9947 132.024 27.116 132.603 27.116C132.92 27.116 133.219 27.0693 133.499 26.976C133.798 26.864 134.05 26.7333 134.255 26.584L134.395 29.608C133.742 30.0373 132.855 30.252 131.735 30.252C130.186 30.252 129.056 29.8693 128.347 29.104C127.638 28.3387 127.283 27.2467 127.283 25.828V20.76H125.603V17.68H127.283V15.104L130.839 14.348V17.68H134.367ZM146.063 30H142.675V29.048C142.227 29.4027 141.685 29.692 141.051 29.916C140.416 30.14 139.716 30.252 138.951 30.252C137.588 30.252 136.543 29.9253 135.815 29.272C135.105 28.6187 134.751 27.7133 134.751 26.556C134.751 25.3053 135.189 24.3627 136.067 23.728C136.944 23.0747 138.129 22.748 139.623 22.748C140.164 22.748 140.705 22.7947 141.247 22.888C141.788 22.9813 142.227 23.1027 142.563 23.252V22.58C142.563 21.852 142.329 21.3387 141.863 21.04C141.415 20.7227 140.705 20.564 139.735 20.564C139.044 20.564 138.335 20.648 137.607 20.816C136.897 20.984 136.328 21.1987 135.899 21.46L135.759 18.324C136.337 18.044 137.019 17.8293 137.803 17.68C138.605 17.512 139.427 17.428 140.267 17.428C142.133 17.428 143.561 17.8293 144.551 18.632C145.559 19.416 146.063 20.6573 146.063 22.356V30ZM142.563 27.144V25.38C142.301 25.2493 141.975 25.1467 141.583 25.072C141.209 24.9973 140.845 24.96 140.491 24.96C139.781 24.96 139.24 25.0907 138.867 25.352C138.493 25.5947 138.307 25.9773 138.307 26.5C138.307 26.9853 138.465 27.34 138.783 27.564C139.1 27.7693 139.567 27.872 140.183 27.872C140.612 27.872 141.051 27.8067 141.499 27.676C141.947 27.5267 142.301 27.3493 142.563 27.144ZM166.615 17.68L162.975 30H159.167L157.711 25.66C157.45 24.764 157.235 24.0453 157.067 23.504C156.899 22.944 156.759 22.4307 156.647 21.964H156.507C156.414 22.4307 156.274 22.944 156.087 23.504C155.919 24.0453 155.704 24.764 155.443 25.66L153.987 30H150.179L146.539 17.764L150.151 17.596L151.803 23.476C151.896 23.868 151.99 24.3347 152.083 24.876C152.195 25.3987 152.279 25.884 152.335 26.332H152.475C152.531 25.884 152.624 25.3987 152.755 24.876C152.886 24.3347 153.007 23.868 153.119 23.476L154.743 18.604H158.551L160.175 23.476C160.287 23.868 160.408 24.3347 160.539 24.876C160.67 25.3987 160.763 25.884 160.819 26.332H160.959C161.015 25.884 161.09 25.3987 161.183 24.876C161.295 24.3347 161.398 23.868 161.491 23.476L163.087 17.68H166.615Z" fill="#FFC1A0"/>
<path d="M389.91 26H388.995V25.4C388.715 25.6 388.375 25.765 387.975 25.895C387.575 26.025 387.15 26.09 386.7 26.09C385.95 26.09 385.38 25.92 384.99 25.58C384.6 25.24 384.405 24.775 384.405 24.185C384.405 23.505 384.645 23.005 385.125 22.685C385.615 22.355 386.265 22.19 387.075 22.19C387.415 22.19 387.76 22.225 388.11 22.295C388.47 22.365 388.755 22.455 388.965 22.565V21.725C388.965 21.165 388.81 20.765 388.5 20.525C388.19 20.285 387.73 20.165 387.12 20.165C386.71 20.165 386.315 20.22 385.935 20.33C385.565 20.43 385.26 20.555 385.02 20.705L384.975 19.82C385.255 19.66 385.585 19.535 385.965 19.445C386.355 19.355 386.77 19.31 387.21 19.31C388.06 19.31 388.72 19.495 389.19 19.865C389.67 20.225 389.91 20.815 389.91 21.635V26ZM388.965 24.74V23.225C388.755 23.115 388.49 23.03 388.17 22.97C387.86 22.9 387.545 22.865 387.225 22.865C386.665 22.865 386.215 22.97 385.875 23.18C385.545 23.38 385.38 23.71 385.38 24.17C385.38 24.6 385.525 24.91 385.815 25.1C386.105 25.29 386.475 25.385 386.925 25.385C387.315 25.385 387.7 25.32 388.08 25.19C388.46 25.06 388.755 24.91 388.965 24.74ZM399.979 22.655C399.979 23.315 399.829 23.905 399.529 24.425C399.239 24.945 398.834 25.355 398.314 25.655C397.804 25.945 397.219 26.09 396.559 26.09C395.879 26.09 395.304 25.99 394.834 25.79V28.775H393.874V19.43L394.834 19.37V19.955C395.114 19.735 395.419 19.575 395.749 19.475C396.089 19.365 396.449 19.31 396.829 19.31C397.419 19.31 397.949 19.44 398.419 19.7C398.889 19.96 399.264 20.34 399.544 20.84C399.834 21.34 399.979 21.945 399.979 22.655ZM398.989 22.67C398.989 22.14 398.884 21.685 398.674 21.305C398.474 20.925 398.194 20.64 397.834 20.45C397.484 20.25 397.079 20.15 396.619 20.15C395.939 20.15 395.344 20.35 394.834 20.75V24.935C395.044 25.025 395.284 25.1 395.554 25.16C395.834 25.22 396.124 25.25 396.424 25.25C396.904 25.25 397.334 25.15 397.714 24.95C398.104 24.74 398.414 24.44 398.644 24.05C398.874 23.66 398.989 23.2 398.989 22.67ZM405.845 26H404.93V25.4C404.65 25.6 404.31 25.765 403.91 25.895C403.51 26.025 403.085 26.09 402.635 26.09C401.885 26.09 401.315 25.92 400.925 25.58C400.535 25.24 400.34 24.775 400.34 24.185C400.34 23.505 400.58 23.005 401.06 22.685C401.55 22.355 402.2 22.19 403.01 22.19C403.35 22.19 403.695 22.225 404.045 22.295C404.405 22.365 404.69 22.455 404.9 22.565V21.725C404.9 21.165 404.745 20.765 404.435 20.525C404.125 20.285 403.665 20.165 403.055 20.165C402.645 20.165 402.25 20.22 401.87 20.33C401.5 20.43 401.195 20.555 400.955 20.705L400.91 19.82C401.19 19.66 401.52 19.535 401.9 19.445C402.29 19.355 402.705 19.31 403.145 19.31C403.995 19.31 404.655 19.495 405.125 19.865C405.605 20.225 405.845 20.815 405.845 21.635V26ZM404.9 24.74V23.225C404.69 23.115 404.425 23.03 404.105 22.97C403.795 22.9 403.48 22.865 403.16 22.865C402.6 22.865 402.15 22.97 401.81 23.18C401.48 23.38 401.315 23.71 401.315 24.17C401.315 24.6 401.46 24.91 401.75 25.1C402.04 25.29 402.41 25.385 402.86 25.385C403.25 25.385 403.635 25.32 404.015 25.19C404.395 25.06 404.69 24.91 404.9 24.74ZM416.605 19.4L414.385 26H413.38L412.045 22.34C411.945 22.02 411.855 21.74 411.775 21.5C411.695 21.26 411.63 21.045 411.58 20.855H411.505C411.465 21.045 411.4 21.26 411.31 21.5C411.23 21.74 411.14 22.02 411.04 22.34L409.705 26H408.7L406.48 19.43L407.47 19.37L408.88 23.63C408.95 23.85 409.015 24.08 409.075 24.32C409.145 24.55 409.2 24.765 409.24 24.965H409.3C409.34 24.765 409.395 24.55 409.465 24.32C409.545 24.08 409.62 23.85 409.69 23.63L411.055 19.85H412.06L413.425 23.63C413.495 23.85 413.57 24.08 413.65 24.32C413.73 24.55 413.785 24.765 413.815 24.965H413.89C413.93 24.765 413.98 24.55 414.04 24.32C414.11 24.08 414.175 23.85 414.235 23.63L415.63 19.4H416.605ZM420.106 22.235V23.105H416.596V22.235H420.106ZM424.333 16.565L424.288 17.42C424.218 17.4 424.128 17.385 424.018 17.375C423.918 17.365 423.818 17.36 423.718 17.36C423.318 17.36 422.988 17.475 422.728 17.705C422.478 17.925 422.353 18.335 422.353 18.935V19.4H424.153L424.078 20.24H422.353V26H421.408V20.24H420.448V19.4H421.408V18.905C421.408 18.095 421.613 17.49 422.023 17.09C422.433 16.69 422.973 16.49 423.643 16.49C423.763 16.49 423.883 16.5 424.003 16.52C424.133 16.53 424.243 16.545 424.333 16.565ZM430.143 22.895H425.238C425.278 23.375 425.413 23.79 425.643 24.14C425.883 24.48 426.198 24.75 426.588 24.95C426.978 25.14 427.428 25.235 427.938 25.235C428.358 25.235 428.768 25.175 429.168 25.055C429.578 24.935 429.918 24.765 430.188 24.545L430.233 25.445C429.973 25.645 429.623 25.805 429.183 25.925C428.753 26.035 428.323 26.09 427.893 26.09C427.173 26.09 426.533 25.95 425.973 25.67C425.423 25.39 424.998 24.99 424.698 24.47C424.398 23.95 424.248 23.335 424.248 22.625C424.248 21.965 424.383 21.385 424.653 20.885C424.923 20.385 425.293 20 425.763 19.73C426.243 19.45 426.783 19.31 427.383 19.31C427.933 19.31 428.418 19.425 428.838 19.655C429.268 19.885 429.603 20.21 429.843 20.63C430.083 21.05 430.203 21.54 430.203 22.1C430.203 22.21 430.198 22.34 430.188 22.49C430.178 22.64 430.163 22.775 430.143 22.895ZM427.383 20.06C426.793 20.06 426.298 20.26 425.898 20.66C425.498 21.06 425.273 21.595 425.223 22.265H429.258C429.268 22.225 429.273 22.185 429.273 22.145C429.273 22.095 429.273 22.04 429.273 21.98C429.273 21.42 429.098 20.96 428.748 20.6C428.408 20.24 427.953 20.06 427.383 20.06ZM436.232 19.895L435.992 20.78C435.782 20.61 435.512 20.47 435.182 20.36C434.852 20.25 434.527 20.195 434.207 20.195C433.737 20.195 433.312 20.3 432.932 20.51C432.552 20.72 432.252 21.015 432.032 21.395C431.822 21.765 431.717 22.2 431.717 22.7C431.717 23.2 431.827 23.64 432.047 24.02C432.267 24.39 432.572 24.68 432.962 24.89C433.352 25.1 433.797 25.205 434.297 25.205C434.677 25.205 435.047 25.145 435.407 25.025C435.777 24.905 436.092 24.735 436.352 24.515L436.397 25.43C436.137 25.63 435.812 25.79 435.422 25.91C435.032 26.03 434.622 26.09 434.192 26.09C433.542 26.09 432.957 25.955 432.437 25.685C431.917 25.415 431.502 25.025 431.192 24.515C430.882 24.005 430.727 23.4 430.727 22.7C430.727 22.04 430.877 21.455 431.177 20.945C431.487 20.425 431.902 20.025 432.422 19.745C432.942 19.455 433.517 19.31 434.147 19.31C434.587 19.31 434.987 19.365 435.347 19.475C435.707 19.575 436.002 19.715 436.232 19.895ZM440.696 19.4L440.621 20.24H438.551V24.02C438.551 24.45 438.656 24.76 438.866 24.95C439.076 25.14 439.361 25.235 439.721 25.235C439.931 25.235 440.121 25.205 440.291 25.145C440.471 25.075 440.626 24.995 440.756 24.905L440.801 25.745C440.491 25.975 440.076 26.09 439.556 26.09C438.916 26.09 438.426 25.93 438.086 25.61C437.756 25.28 437.591 24.79 437.591 24.14V20.24H436.631V19.4H437.591V17.915L438.551 17.66V19.4H440.696ZM445.129 16.49V26H444.169V16.565L445.129 16.49ZM447.042 16.64C447.212 16.64 447.357 16.7 447.477 16.82C447.597 16.94 447.657 17.085 447.657 17.255C447.657 17.435 447.597 17.585 447.477 17.705C447.357 17.825 447.212 17.885 447.042 17.885C446.862 17.885 446.707 17.825 446.577 17.705C446.457 17.585 446.397 17.435 446.397 17.255C446.397 17.085 446.457 16.94 446.577 16.82C446.707 16.7 446.862 16.64 447.042 16.64ZM447.507 19.37V26H446.547V19.43L447.507 19.37ZM455.029 22.64C455.029 23.31 454.879 23.905 454.579 24.425C454.279 24.945 453.859 25.355 453.319 25.655C452.789 25.945 452.164 26.09 451.444 26.09C450.944 26.09 450.474 26.04 450.034 25.94C449.594 25.83 449.224 25.7 448.924 25.55V16.565L449.884 16.49V19.94C450.184 19.73 450.499 19.575 450.829 19.475C451.159 19.365 451.509 19.31 451.879 19.31C452.469 19.31 452.999 19.44 453.469 19.7C453.949 19.96 454.329 20.34 454.609 20.84C454.889 21.33 455.029 21.93 455.029 22.64ZM454.039 22.67C454.039 22.14 453.934 21.685 453.724 21.305C453.524 20.925 453.244 20.64 452.884 20.45C452.534 20.25 452.129 20.15 451.669 20.15C450.989 20.15 450.394 20.35 449.884 20.75V24.935C450.094 25.025 450.334 25.1 450.604 25.16C450.884 25.22 451.174 25.25 451.474 25.25C451.954 25.25 452.384 25.15 452.764 24.95C453.154 24.74 453.464 24.44 453.694 24.05C453.924 23.66 454.039 23.2 454.039 22.67ZM459.47 19.4L459.44 20.315C459.36 20.285 459.255 20.26 459.125 20.24C459.005 20.22 458.895 20.21 458.795 20.21C458.435 20.21 458.085 20.305 457.745 20.495C457.415 20.675 457.125 20.915 456.875 21.215V26H455.915V19.43L456.875 19.37V20.36C457.145 20.04 457.46 19.785 457.82 19.595C458.18 19.405 458.55 19.31 458.93 19.31C459.03 19.31 459.13 19.315 459.23 19.325C459.33 19.335 459.41 19.36 459.47 19.4ZM465.191 26H464.276V25.4C463.996 25.6 463.656 25.765 463.256 25.895C462.856 26.025 462.431 26.09 461.981 26.09C461.231 26.09 460.661 25.92 460.271 25.58C459.881 25.24 459.686 24.775 459.686 24.185C459.686 23.505 459.926 23.005 460.406 22.685C460.896 22.355 461.546 22.19 462.356 22.19C462.696 22.19 463.041 22.225 463.391 22.295C463.751 22.365 464.036 22.455 464.246 22.565V21.725C464.246 21.165 464.091 20.765 463.781 20.525C463.471 20.285 463.011 20.165 462.401 20.165C461.991 20.165 461.596 20.22 461.216 20.33C460.846 20.43 460.541 20.555 460.301 20.705L460.256 19.82C460.536 19.66 460.866 19.535 461.246 19.445C461.636 19.355 462.051 19.31 462.491 19.31C463.341 19.31 464.001 19.495 464.471 19.865C464.951 20.225 465.191 20.815 465.191 21.635V26ZM464.246 24.74V23.225C464.036 23.115 463.771 23.03 463.451 22.97C463.141 22.9 462.826 22.865 462.506 22.865C461.946 22.865 461.496 22.97 461.156 23.18C460.826 23.38 460.661 23.71 460.661 24.17C460.661 24.6 460.806 24.91 461.096 25.1C461.386 25.29 461.756 25.385 462.206 25.385C462.596 25.385 462.981 25.32 463.361 25.19C463.741 25.06 464.036 24.91 464.246 24.74ZM470.157 19.4L470.127 20.315C470.047 20.285 469.942 20.26 469.812 20.24C469.692 20.22 469.582 20.21 469.482 20.21C469.122 20.21 468.772 20.305 468.432 20.495C468.102 20.675 467.812 20.915 467.562 21.215V26H466.602V19.43L467.562 19.37V20.36C467.832 20.04 468.147 19.785 468.507 19.595C468.867 19.405 469.237 19.31 469.617 19.31C469.717 19.31 469.817 19.315 469.917 19.325C470.017 19.335 470.097 19.36 470.157 19.4ZM476.538 19.4L474.378 24.98C474.068 25.81 473.743 26.49 473.403 27.02C473.063 27.55 472.698 27.96 472.308 28.25C471.928 28.54 471.503 28.745 471.033 28.865L470.613 28.115C471.173 27.945 471.623 27.69 471.963 27.35C472.313 27.01 472.628 26.56 472.908 26L470.148 19.43L471.168 19.37L472.908 23.54C473.018 23.81 473.118 24.075 473.208 24.335C473.308 24.585 473.383 24.795 473.433 24.965H473.493C473.543 24.795 473.608 24.585 473.688 24.335C473.768 24.075 473.858 23.805 473.958 23.525L475.548 19.4H476.538ZM483.038 16.565L482.993 17.42C482.923 17.4 482.833 17.385 482.723 17.375C482.623 17.365 482.523 17.36 482.423 17.36C482.023 17.36 481.693 17.475 481.433 17.705C481.183 17.925 481.058 18.335 481.058 18.935V19.4H482.858L482.783 20.24H481.058V26H480.113V20.24H479.153V19.4H480.113V18.905C480.113 18.095 480.318 17.49 480.728 17.09C481.138 16.69 481.678 16.49 482.348 16.49C482.468 16.49 482.588 16.5 482.708 16.52C482.838 16.53 482.948 16.545 483.038 16.565ZM489.75 22.7C489.75 23.36 489.6 23.95 489.3 24.47C489 24.98 488.59 25.38 488.07 25.67C487.55 25.95 486.97 26.09 486.33 26.09C485.69 26.09 485.11 25.95 484.59 25.67C484.07 25.38 483.66 24.98 483.36 24.47C483.06 23.95 482.91 23.36 482.91 22.7C482.91 22.03 483.06 21.44 483.36 20.93C483.66 20.42 484.07 20.025 484.59 19.745C485.11 19.455 485.69 19.31 486.33 19.31C486.97 19.31 487.55 19.455 488.07 19.745C488.59 20.025 489 20.42 489.3 20.93C489.6 21.44 489.75 22.03 489.75 22.7ZM488.76 22.7C488.76 22.2 488.65 21.76 488.43 21.38C488.21 21 487.915 20.705 487.545 20.495C487.185 20.275 486.78 20.165 486.33 20.165C485.88 20.165 485.47 20.275 485.1 20.495C484.73 20.705 484.435 21 484.215 21.38C484.005 21.76 483.9 22.2 483.9 22.7C483.9 23.19 484.01 23.63 484.23 24.02C484.45 24.4 484.745 24.7 485.115 24.92C485.485 25.13 485.89 25.235 486.33 25.235C486.79 25.235 487.205 25.13 487.575 24.92C487.945 24.7 488.235 24.4 488.445 24.02C488.655 23.63 488.76 23.19 488.76 22.7ZM494.186 19.4L494.156 20.315C494.076 20.285 493.971 20.26 493.841 20.24C493.721 20.22 493.611 20.21 493.511 20.21C493.151 20.21 492.801 20.305 492.461 20.495C492.131 20.675 491.841 20.915 491.591 21.215V26H490.631V19.43L491.591 19.37V20.36C491.861 20.04 492.176 19.785 492.536 19.595C492.896 19.405 493.266 19.31 493.646 19.31C493.746 19.31 493.846 19.315 493.946 19.325C494.046 19.335 494.126 19.36 494.186 19.4ZM504.56 25.415C504.22 25.635 503.81 25.805 503.33 25.925C502.86 26.035 502.355 26.09 501.815 26.09C500.885 26.09 500.055 25.9 499.325 25.52C498.605 25.13 498.04 24.59 497.63 23.9C497.23 23.21 497.03 22.425 497.03 21.545C497.03 20.665 497.22 19.885 497.6 19.205C497.99 18.525 498.525 17.99 499.205 17.6C499.885 17.2 500.665 17 501.545 17C502.155 17 502.68 17.06 503.12 17.18C503.57 17.29 503.98 17.475 504.35 17.735L504.02 18.665C503.73 18.435 503.375 18.255 502.955 18.125C502.535 17.985 502.085 17.915 501.605 17.915C500.905 17.915 500.285 18.075 499.745 18.395C499.215 18.705 498.8 19.13 498.5 19.67C498.2 20.21 498.05 20.835 498.05 21.545C498.05 22.235 498.21 22.855 498.53 23.405C498.86 23.955 499.31 24.39 499.88 24.71C500.45 25.02 501.105 25.175 501.845 25.175C502.335 25.175 502.82 25.11 503.3 24.98C503.79 24.84 504.205 24.65 504.545 24.41L504.56 25.415ZM509.358 17C510.248 17 511.033 17.195 511.713 17.585C512.393 17.975 512.928 18.515 513.318 19.205C513.708 19.885 513.903 20.665 513.903 21.545C513.903 22.415 513.708 23.195 513.318 23.885C512.928 24.565 512.393 25.105 511.713 25.505C511.033 25.895 510.248 26.09 509.358 26.09C508.468 26.09 507.678 25.895 506.988 25.505C506.308 25.105 505.773 24.565 505.383 23.885C505.003 23.195 504.813 22.415 504.813 21.545C504.813 20.665 505.003 19.885 505.383 19.205C505.773 18.525 506.308 17.99 506.988 17.6C507.678 17.2 508.468 17 509.358 17ZM509.358 25.19C510.048 25.19 510.658 25.03 511.188 24.71C511.718 24.39 512.128 23.955 512.418 23.405C512.718 22.855 512.868 22.235 512.868 21.545C512.868 20.865 512.718 20.25 512.418 19.7C512.128 19.14 511.718 18.7 511.188 18.38C510.658 18.06 510.048 17.9 509.358 17.9C508.668 17.9 508.058 18.06 507.528 18.38C506.998 18.7 506.583 19.135 506.283 19.685C505.993 20.225 505.848 20.845 505.848 21.545C505.848 22.225 505.993 22.845 506.283 23.405C506.583 23.955 506.998 24.39 507.528 24.71C508.058 25.03 508.668 25.19 509.358 25.19ZM517.752 26H516.762V17.99H513.867V17.09H520.692L520.617 17.99H517.752V26ZM527.036 17.09L526.961 17.975H522.611V21.065H526.256V21.935H522.611V25.115H527.126V26H521.621V17.09H527.036ZM536.772 19.85C536.772 20.53 536.572 21.08 536.172 21.5C535.772 21.92 535.277 22.2 534.687 22.34L537.267 26H536.082L533.682 22.565H531.672V26H530.682V17.09H533.382C534.062 17.09 534.657 17.195 535.167 17.405C535.677 17.615 536.072 17.925 536.352 18.335C536.632 18.735 536.772 19.24 536.772 19.85ZM535.752 19.85C535.752 19.39 535.642 19.02 535.422 18.74C535.212 18.46 534.922 18.255 534.552 18.125C534.192 17.995 533.777 17.93 533.307 17.93H531.672V21.755H533.307C533.777 21.755 534.192 21.69 534.552 21.56C534.922 21.43 535.212 21.225 535.422 20.945C535.642 20.665 535.752 20.3 535.752 19.85ZM543.645 17.09L543.57 17.975H539.22V21.065H542.865V21.935H539.22V25.115H543.735V26H538.23V17.09H543.645ZM549.868 17.48L549.658 18.365C549.488 18.265 549.283 18.18 549.043 18.11C548.803 18.04 548.548 17.985 548.278 17.945C548.018 17.905 547.758 17.885 547.498 17.885C546.808 17.885 546.278 18.02 545.908 18.29C545.548 18.56 545.368 18.92 545.368 19.37C545.368 19.67 545.453 19.92 545.623 20.12C545.803 20.32 546.038 20.485 546.328 20.615C546.618 20.745 546.933 20.865 547.273 20.975C547.623 21.085 547.973 21.205 548.323 21.335C548.673 21.455 548.993 21.61 549.283 21.8C549.573 21.98 549.803 22.215 549.973 22.505C550.153 22.795 550.243 23.155 550.243 23.585C550.243 24.345 549.968 24.955 549.418 25.415C548.868 25.865 548.048 26.09 546.958 26.09C546.428 26.09 545.918 26.035 545.428 25.925C544.948 25.815 544.558 25.675 544.258 25.505L544.378 24.56C544.588 24.68 544.828 24.79 545.098 24.89C545.378 24.98 545.678 25.055 545.998 25.115C546.318 25.175 546.643 25.205 546.973 25.205C547.753 25.205 548.323 25.07 548.683 24.8C549.043 24.52 549.223 24.145 549.223 23.675C549.223 23.355 549.133 23.095 548.953 22.895C548.783 22.695 548.553 22.53 548.263 22.4C547.973 22.26 547.653 22.14 547.303 22.04C546.963 21.93 546.618 21.815 546.268 21.695C545.918 21.565 545.598 21.41 545.308 21.23C545.018 21.04 544.783 20.805 544.603 20.525C544.433 20.235 544.348 19.87 544.348 19.43C544.348 18.96 544.468 18.545 544.708 18.185C544.948 17.815 545.303 17.525 545.773 17.315C546.243 17.105 546.813 17 547.483 17C547.783 17 548.078 17.02 548.368 17.06C548.658 17.09 548.933 17.14 549.193 17.21C549.453 17.28 549.678 17.37 549.868 17.48ZM554.486 26H553.496V17.99H550.601V17.09H557.426L557.351 17.99H554.486V26ZM561.905 17C562.795 17 563.58 17.195 564.26 17.585C564.94 17.975 565.475 18.515 565.865 19.205C566.255 19.885 566.45 20.665 566.45 21.545C566.45 22.415 566.255 23.195 565.865 23.885C565.475 24.565 564.94 25.105 564.26 25.505C563.58 25.895 562.795 26.09 561.905 26.09C561.015 26.09 560.225 25.895 559.535 25.505C558.855 25.105 558.32 24.565 557.93 23.885C557.55 23.195 557.36 22.415 557.36 21.545C557.36 20.665 557.55 19.885 557.93 19.205C558.32 18.525 558.855 17.99 559.535 17.6C560.225 17.2 561.015 17 561.905 17ZM561.905 25.19C562.595 25.19 563.205 25.03 563.735 24.71C564.265 24.39 564.675 23.955 564.965 23.405C565.265 22.855 565.415 22.235 565.415 21.545C565.415 20.865 565.265 20.25 564.965 19.7C564.675 19.14 564.265 18.7 563.735 18.38C563.205 18.06 562.595 17.9 561.905 17.9C561.215 17.9 560.605 18.06 560.075 18.38C559.545 18.7 559.13 19.135 558.83 19.685C558.54 20.225 558.395 20.845 558.395 21.545C558.395 22.225 558.54 22.845 558.83 23.405C559.13 23.955 559.545 24.39 560.075 24.71C560.605 25.03 561.215 25.19 561.905 25.19Z" fill="white"/>
</svg>
