<svg width="581" height="43" viewBox="0 0 581 43" fill="none" xmlns="http://www.w3.org/2000/svg">
<rect width="581" height="43" rx="15" fill="#443435"/>
<path fill-rule="evenodd" clip-rule="evenodd" d="M25.0098 18.8346L14 18.835V13.123H25.0098V18.835H30.754V29.8771H25.0098V24.5471C22.093 24.5979 19.7442 26.9647 19.7442 29.8771H14C14 23.8103 18.9205 18.8862 25.0098 18.835V18.8346Z" fill="#FFA0A3"/>
<path d="M53.5659 29.076C52.9686 29.468 52.2219 29.7667 51.3259 29.972C50.4486 30.1587 49.5246 30.252 48.5539 30.252C46.7059 30.252 45.1006 29.8787 43.7379 29.132C42.3752 28.3853 41.3206 27.368 40.5739 26.08C39.8272 24.7733 39.4539 23.308 39.4539 21.684C39.4539 20.0227 39.8272 18.5573 40.5739 17.288C41.3206 16 42.3379 14.9827 43.6259 14.236C44.9326 13.4893 46.4072 13.116 48.0499 13.116C49.2259 13.116 50.2526 13.2373 51.1299 13.48C52.0259 13.704 52.8286 14.0587 53.5379 14.544L52.3339 17.932C51.8299 17.5027 51.2419 17.1667 50.5699 16.924C49.8979 16.6813 49.1512 16.56 48.3299 16.56C47.3592 16.56 46.4912 16.7653 45.7259 17.176C44.9606 17.5867 44.3539 18.1747 43.9059 18.94C43.4766 19.7053 43.2619 20.62 43.2619 21.684C43.2619 22.6733 43.4859 23.56 43.9339 24.344C44.3819 25.1093 45.0166 25.716 45.8379 26.164C46.6592 26.5933 47.6112 26.808 48.6939 26.808C49.6646 26.808 50.5606 26.6867 51.3819 26.444C52.2219 26.2013 52.9032 25.8747 53.4259 25.464L53.5659 29.076ZM62.6285 17.568L62.4885 21.012C62.3765 20.956 62.1805 20.9 61.9005 20.844C61.6392 20.788 61.3872 20.76 61.1445 20.76C60.6405 20.76 60.1458 20.8533 59.6605 21.04C59.1938 21.208 58.7645 21.4413 58.3725 21.74V30H54.7885V17.764L58.3725 17.596V19.052C58.9138 18.492 59.4645 18.0813 60.0245 17.82C60.6032 17.5587 61.2005 17.428 61.8165 17.428C61.9472 17.428 62.0872 17.4373 62.2365 17.456C62.4045 17.4747 62.5352 17.512 62.6285 17.568ZM75.9274 23.84C75.9274 25.072 75.6381 26.1733 75.0594 27.144C74.4994 28.1147 73.7154 28.88 72.7074 29.44C71.6994 29.9813 70.5514 30.252 69.2634 30.252C67.9754 30.252 66.8274 29.9813 65.8194 29.44C64.8114 28.88 64.0181 28.1147 63.4394 27.144C62.8794 26.1733 62.5994 25.072 62.5994 23.84C62.5994 22.5893 62.8794 21.488 63.4394 20.536C64.0181 19.5653 64.8114 18.8093 65.8194 18.268C66.8274 17.708 67.9754 17.428 69.2634 17.428C70.5514 17.428 71.6994 17.708 72.7074 18.268C73.7154 18.8093 74.4994 19.5653 75.0594 20.536C75.6381 21.488 75.9274 22.5893 75.9274 23.84ZM72.2314 23.84C72.2314 23.1867 72.1007 22.6173 71.8394 22.132C71.5781 21.628 71.2234 21.2453 70.7754 20.984C70.3274 20.704 69.8234 20.564 69.2634 20.564C68.7034 20.564 68.1994 20.704 67.7514 20.984C67.3034 21.2453 66.9487 21.628 66.6874 22.132C66.4261 22.6173 66.2954 23.1867 66.2954 23.84C66.2954 24.4933 66.4261 25.072 66.6874 25.576C66.9487 26.0613 67.3034 26.444 67.7514 26.724C68.2181 26.9853 68.7221 27.116 69.2634 27.116C69.8421 27.116 70.3554 26.9853 70.8034 26.724C71.2514 26.444 71.5967 26.0613 71.8394 25.576C72.1007 25.072 72.2314 24.4933 72.2314 23.84ZM96.0222 17.68L92.3822 30H88.5742L87.1182 25.66C86.8569 24.764 86.6422 24.0453 86.4742 23.504C86.3062 22.944 86.1662 22.4307 86.0542 21.964H85.9142C85.8209 22.4307 85.6809 22.944 85.4942 23.504C85.3262 24.0453 85.1116 24.764 84.8502 25.66L83.3942 30H79.5862L75.9462 17.764L79.5582 17.596L81.2102 23.476C81.3036 23.868 81.3969 24.3347 81.4902 24.876C81.6022 25.3987 81.6862 25.884 81.7422 26.332H81.8822C81.9382 25.884 82.0316 25.3987 82.1622 24.876C82.2929 24.3347 82.4142 23.868 82.5262 23.476L84.1502 18.604H87.9582L89.5822 23.476C89.6942 23.868 89.8156 24.3347 89.9462 24.876C90.0769 25.3987 90.1702 25.884 90.2262 26.332H90.3662C90.4222 25.884 90.4969 25.3987 90.5902 24.876C90.7022 24.3347 90.8049 23.868 90.8982 23.476L92.4942 17.68H96.0222ZM109.329 23.84C109.329 25.072 109.04 26.1733 108.461 27.144C107.901 28.1147 107.117 28.88 106.109 29.44C105.101 29.9813 103.953 30.252 102.665 30.252C101.377 30.252 100.229 29.9813 99.2214 29.44C98.2134 28.88 97.4201 28.1147 96.8414 27.144C96.2814 26.1733 96.0014 25.072 96.0014 23.84C96.0014 22.5893 96.2814 21.488 96.8414 20.536C97.4201 19.5653 98.2134 18.8093 99.2214 18.268C100.229 17.708 101.377 17.428 102.665 17.428C103.953 17.428 105.101 17.708 106.109 18.268C107.117 18.8093 107.901 19.5653 108.461 20.536C109.04 21.488 109.329 22.5893 109.329 23.84ZM105.633 23.84C105.633 23.1867 105.503 22.6173 105.241 22.132C104.98 21.628 104.625 21.2453 104.177 20.984C103.729 20.704 103.225 20.564 102.665 20.564C102.105 20.564 101.601 20.704 101.153 20.984C100.705 21.2453 100.351 21.628 100.089 22.132C99.8281 22.6173 99.6974 23.1867 99.6974 23.84C99.6974 24.4933 99.8281 25.072 100.089 25.576C100.351 26.0613 100.705 26.444 101.153 26.724C101.62 26.9853 102.124 27.116 102.665 27.116C103.244 27.116 103.757 26.9853 104.205 26.724C104.653 26.444 104.999 26.0613 105.241 25.576C105.503 25.072 105.633 24.4933 105.633 23.84ZM121.918 17.596V30H118.334V28.964C117.755 29.412 117.167 29.7387 116.57 29.944C115.972 30.1493 115.328 30.252 114.638 30.252C113.368 30.252 112.342 29.8973 111.558 29.188C110.774 28.46 110.382 27.3307 110.382 25.8V17.764L113.966 17.596V25.044C113.966 25.772 114.143 26.2947 114.498 26.612C114.852 26.9293 115.338 27.088 115.954 27.088C116.364 27.088 116.775 27.0227 117.186 26.892C117.596 26.7427 117.979 26.556 118.334 26.332V17.764L121.918 17.596ZM132.245 18.044L131.713 20.956C131.321 20.7693 130.836 20.62 130.257 20.508C129.697 20.3773 129.128 20.312 128.549 20.312C128.026 20.312 127.634 20.396 127.373 20.564C127.13 20.732 127.009 20.956 127.009 21.236C127.009 21.46 127.149 21.656 127.429 21.824C127.709 21.9733 128.064 22.1133 128.493 22.244C128.941 22.3747 129.408 22.5333 129.893 22.72C130.397 22.9067 130.864 23.14 131.293 23.42C131.741 23.7 132.096 24.0733 132.357 24.54C132.637 24.988 132.777 25.5573 132.777 26.248C132.777 26.9573 132.6 27.62 132.245 28.236C131.909 28.8333 131.349 29.3187 130.565 29.692C129.8 30.0653 128.801 30.252 127.569 30.252C126.729 30.252 125.908 30.1587 125.105 29.972C124.321 29.7853 123.686 29.5427 123.201 29.244L123.425 26.22C123.892 26.5187 124.498 26.7893 125.245 27.032C126.01 27.256 126.766 27.368 127.513 27.368C128.577 27.368 129.109 27.0507 129.109 26.416C129.109 26.1733 128.969 25.9773 128.689 25.828C128.409 25.6787 128.054 25.5387 127.625 25.408C127.196 25.2587 126.729 25.0907 126.225 24.904C125.721 24.7173 125.254 24.484 124.825 24.204C124.396 23.9053 124.041 23.532 123.761 23.084C123.481 22.636 123.341 22.0667 123.341 21.376C123.341 20.6293 123.546 19.9667 123.957 19.388C124.386 18.7907 124.993 18.3147 125.777 17.96C126.561 17.6053 127.494 17.428 128.577 17.428C129.305 17.428 129.996 17.484 130.649 17.596C131.302 17.6893 131.834 17.8387 132.245 18.044Z" fill="#FFA0A3"/>
<path d="M327.91 26H326.995V25.4C326.715 25.6 326.375 25.765 325.975 25.895C325.575 26.025 325.15 26.09 324.7 26.09C323.95 26.09 323.38 25.92 322.99 25.58C322.6 25.24 322.405 24.775 322.405 24.185C322.405 23.505 322.645 23.005 323.125 22.685C323.615 22.355 324.265 22.19 325.075 22.19C325.415 22.19 325.76 22.225 326.11 22.295C326.47 22.365 326.755 22.455 326.965 22.565V21.725C326.965 21.165 326.81 20.765 326.5 20.525C326.19 20.285 325.73 20.165 325.12 20.165C324.71 20.165 324.315 20.22 323.935 20.33C323.565 20.43 323.26 20.555 323.02 20.705L322.975 19.82C323.255 19.66 323.585 19.535 323.965 19.445C324.355 19.355 324.77 19.31 325.21 19.31C326.06 19.31 326.72 19.495 327.19 19.865C327.67 20.225 327.91 20.815 327.91 21.635V26ZM326.965 24.74V23.225C326.755 23.115 326.49 23.03 326.17 22.97C325.86 22.9 325.545 22.865 325.225 22.865C324.665 22.865 324.215 22.97 323.875 23.18C323.545 23.38 323.38 23.71 323.38 24.17C323.38 24.6 323.525 24.91 323.815 25.1C324.105 25.29 324.475 25.385 324.925 25.385C325.315 25.385 325.7 25.32 326.08 25.19C326.46 25.06 326.755 24.91 326.965 24.74ZM341.384 19.4L339.164 26H338.159L336.824 22.34C336.724 22.02 336.634 21.74 336.554 21.5C336.474 21.26 336.409 21.045 336.359 20.855H336.284C336.244 21.045 336.179 21.26 336.089 21.5C336.009 21.74 335.919 22.02 335.819 22.34L334.484 26H333.479L331.259 19.43L332.249 19.37L333.659 23.63C333.729 23.85 333.794 24.08 333.854 24.32C333.924 24.55 333.979 24.765 334.019 24.965H334.079C334.119 24.765 334.174 24.55 334.244 24.32C334.324 24.08 334.399 23.85 334.469 23.63L335.834 19.85H336.839L338.204 23.63C338.274 23.85 338.349 24.08 338.429 24.32C338.509 24.55 338.564 24.765 338.594 24.965H338.669C338.709 24.765 338.759 24.55 338.819 24.32C338.889 24.08 338.954 23.85 339.014 23.63L340.409 19.4H341.384ZM345.731 19.4L345.701 20.315C345.621 20.285 345.516 20.26 345.386 20.24C345.266 20.22 345.156 20.21 345.056 20.21C344.696 20.21 344.346 20.305 344.006 20.495C343.676 20.675 343.386 20.915 343.136 21.215V26H342.176V19.43L343.136 19.37V20.36C343.406 20.04 343.721 19.785 344.081 19.595C344.441 19.405 344.811 19.31 345.191 19.31C345.291 19.31 345.391 19.315 345.491 19.325C345.591 19.335 345.671 19.36 345.731 19.4ZM351.452 26H350.537V25.4C350.257 25.6 349.917 25.765 349.517 25.895C349.117 26.025 348.692 26.09 348.242 26.09C347.492 26.09 346.922 25.92 346.532 25.58C346.142 25.24 345.947 24.775 345.947 24.185C345.947 23.505 346.187 23.005 346.667 22.685C347.157 22.355 347.807 22.19 348.617 22.19C348.957 22.19 349.302 22.225 349.652 22.295C350.012 22.365 350.297 22.455 350.507 22.565V21.725C350.507 21.165 350.352 20.765 350.042 20.525C349.732 20.285 349.272 20.165 348.662 20.165C348.252 20.165 347.857 20.22 347.477 20.33C347.107 20.43 346.802 20.555 346.562 20.705L346.517 19.82C346.797 19.66 347.127 19.535 347.507 19.445C347.897 19.355 348.312 19.31 348.752 19.31C349.602 19.31 350.262 19.495 350.732 19.865C351.212 20.225 351.452 20.815 351.452 21.635V26ZM350.507 24.74V23.225C350.297 23.115 350.032 23.03 349.712 22.97C349.402 22.9 349.087 22.865 348.767 22.865C348.207 22.865 347.757 22.97 347.417 23.18C347.087 23.38 346.922 23.71 346.922 24.17C346.922 24.6 347.067 24.91 347.357 25.1C347.647 25.29 348.017 25.385 348.467 25.385C348.857 25.385 349.242 25.32 349.622 25.19C350.002 25.06 350.297 24.91 350.507 24.74ZM358.968 22.655C358.968 23.315 358.818 23.905 358.518 24.425C358.228 24.945 357.823 25.355 357.303 25.655C356.793 25.945 356.208 26.09 355.548 26.09C354.868 26.09 354.293 25.99 353.823 25.79V28.775H352.863V19.43L353.823 19.37V19.955C354.103 19.735 354.408 19.575 354.738 19.475C355.078 19.365 355.438 19.31 355.818 19.31C356.408 19.31 356.938 19.44 357.408 19.7C357.878 19.96 358.253 20.34 358.533 20.84C358.823 21.34 358.968 21.945 358.968 22.655ZM357.978 22.67C357.978 22.14 357.873 21.685 357.663 21.305C357.463 20.925 357.183 20.64 356.823 20.45C356.473 20.25 356.068 20.15 355.608 20.15C354.928 20.15 354.333 20.35 353.823 20.75V24.935C354.033 25.025 354.273 25.1 354.543 25.16C354.823 25.22 355.113 25.25 355.413 25.25C355.893 25.25 356.323 25.15 356.703 24.95C357.093 24.74 357.403 24.44 357.633 24.05C357.863 23.66 357.978 23.2 357.978 22.67ZM365.959 22.655C365.959 23.315 365.809 23.905 365.509 24.425C365.219 24.945 364.814 25.355 364.294 25.655C363.784 25.945 363.199 26.09 362.539 26.09C361.859 26.09 361.284 25.99 360.814 25.79V28.775H359.854V19.43L360.814 19.37V19.955C361.094 19.735 361.399 19.575 361.729 19.475C362.069 19.365 362.429 19.31 362.809 19.31C363.399 19.31 363.929 19.44 364.399 19.7C364.869 19.96 365.244 20.34 365.524 20.84C365.814 21.34 365.959 21.945 365.959 22.655ZM364.969 22.67C364.969 22.14 364.864 21.685 364.654 21.305C364.454 20.925 364.174 20.64 363.814 20.45C363.464 20.25 363.059 20.15 362.599 20.15C361.919 20.15 361.324 20.35 360.814 20.75V24.935C361.024 25.025 361.264 25.1 361.534 25.16C361.814 25.22 362.104 25.25 362.404 25.25C362.884 25.25 363.314 25.15 363.694 24.95C364.084 24.74 364.394 24.44 364.624 24.05C364.854 23.66 364.969 23.2 364.969 22.67ZM372.215 22.895H367.31C367.35 23.375 367.485 23.79 367.715 24.14C367.955 24.48 368.27 24.75 368.66 24.95C369.05 25.14 369.5 25.235 370.01 25.235C370.43 25.235 370.84 25.175 371.24 25.055C371.65 24.935 371.99 24.765 372.26 24.545L372.305 25.445C372.045 25.645 371.695 25.805 371.255 25.925C370.825 26.035 370.395 26.09 369.965 26.09C369.245 26.09 368.605 25.95 368.045 25.67C367.495 25.39 367.07 24.99 366.77 24.47C366.47 23.95 366.32 23.335 366.32 22.625C366.32 21.965 366.455 21.385 366.725 20.885C366.995 20.385 367.365 20 367.835 19.73C368.315 19.45 368.855 19.31 369.455 19.31C370.005 19.31 370.49 19.425 370.91 19.655C371.34 19.885 371.675 20.21 371.915 20.63C372.155 21.05 372.275 21.54 372.275 22.1C372.275 22.21 372.27 22.34 372.26 22.49C372.25 22.64 372.235 22.775 372.215 22.895ZM369.455 20.06C368.865 20.06 368.37 20.26 367.97 20.66C367.57 21.06 367.345 21.595 367.295 22.265H371.33C371.34 22.225 371.345 22.185 371.345 22.145C371.345 22.095 371.345 22.04 371.345 21.98C371.345 21.42 371.17 20.96 370.82 20.6C370.48 20.24 370.025 20.06 369.455 20.06ZM376.879 19.4L376.849 20.315C376.769 20.285 376.664 20.26 376.534 20.24C376.414 20.22 376.304 20.21 376.204 20.21C375.844 20.21 375.494 20.305 375.154 20.495C374.824 20.675 374.534 20.915 374.284 21.215V26H373.324V19.43L374.284 19.37V20.36C374.554 20.04 374.869 19.785 375.229 19.595C375.589 19.405 375.959 19.31 376.339 19.31C376.439 19.31 376.539 19.315 376.639 19.325C376.739 19.335 376.819 19.36 376.879 19.4ZM383.428 16.565L383.383 17.42C383.313 17.4 383.223 17.385 383.113 17.375C383.013 17.365 382.913 17.36 382.813 17.36C382.413 17.36 382.083 17.475 381.823 17.705C381.573 17.925 381.448 18.335 381.448 18.935V19.4H383.248L383.173 20.24H381.448V26H380.503V20.24H379.543V19.4H380.503V18.905C380.503 18.095 380.708 17.49 381.118 17.09C381.528 16.69 382.068 16.49 382.738 16.49C382.858 16.49 382.978 16.5 383.098 16.52C383.228 16.53 383.338 16.545 383.428 16.565ZM390.14 22.7C390.14 23.36 389.99 23.95 389.69 24.47C389.39 24.98 388.98 25.38 388.46 25.67C387.94 25.95 387.36 26.09 386.72 26.09C386.08 26.09 385.5 25.95 384.98 25.67C384.46 25.38 384.05 24.98 383.75 24.47C383.45 23.95 383.3 23.36 383.3 22.7C383.3 22.03 383.45 21.44 383.75 20.93C384.05 20.42 384.46 20.025 384.98 19.745C385.5 19.455 386.08 19.31 386.72 19.31C387.36 19.31 387.94 19.455 388.46 19.745C388.98 20.025 389.39 20.42 389.69 20.93C389.99 21.44 390.14 22.03 390.14 22.7ZM389.15 22.7C389.15 22.2 389.04 21.76 388.82 21.38C388.6 21 388.305 20.705 387.935 20.495C387.575 20.275 387.17 20.165 386.72 20.165C386.27 20.165 385.86 20.275 385.49 20.495C385.12 20.705 384.825 21 384.605 21.38C384.395 21.76 384.29 22.2 384.29 22.7C384.29 23.19 384.4 23.63 384.62 24.02C384.84 24.4 385.135 24.7 385.505 24.92C385.875 25.13 386.28 25.235 386.72 25.235C387.18 25.235 387.595 25.13 387.965 24.92C388.335 24.7 388.625 24.4 388.835 24.02C389.045 23.63 389.15 23.19 389.15 22.7ZM394.576 19.4L394.546 20.315C394.466 20.285 394.361 20.26 394.231 20.24C394.111 20.22 394.001 20.21 393.901 20.21C393.541 20.21 393.191 20.305 392.851 20.495C392.521 20.675 392.231 20.915 391.981 21.215V26H391.021V19.43L391.981 19.37V20.36C392.251 20.04 392.566 19.785 392.926 19.595C393.286 19.405 393.656 19.31 394.036 19.31C394.136 19.31 394.236 19.315 394.336 19.325C394.436 19.335 394.516 19.36 394.576 19.4ZM401.29 19.4L401.215 20.24H399.145V24.02C399.145 24.45 399.25 24.76 399.46 24.95C399.67 25.14 399.955 25.235 400.315 25.235C400.525 25.235 400.715 25.205 400.885 25.145C401.065 25.075 401.22 24.995 401.35 24.905L401.395 25.745C401.085 25.975 400.67 26.09 400.15 26.09C399.51 26.09 399.02 25.93 398.68 25.61C398.35 25.28 398.185 24.79 398.185 24.14V20.24H397.225V19.4H398.185V17.915L399.145 17.66V19.4H401.29ZM407.91 26H406.965V21.86C406.965 21.29 406.82 20.87 406.53 20.6C406.25 20.32 405.85 20.18 405.33 20.18C404.97 20.18 404.605 20.255 404.235 20.405C403.865 20.545 403.51 20.735 403.17 20.975V26H402.21V16.565L403.17 16.49V20.18C403.57 19.88 403.975 19.66 404.385 19.52C404.795 19.38 405.195 19.31 405.585 19.31C406.315 19.31 406.885 19.5 407.295 19.88C407.705 20.25 407.91 20.84 407.91 21.65V26ZM414.704 22.895H409.799C409.839 23.375 409.974 23.79 410.204 24.14C410.444 24.48 410.759 24.75 411.149 24.95C411.539 25.14 411.989 25.235 412.499 25.235C412.919 25.235 413.329 25.175 413.729 25.055C414.139 24.935 414.479 24.765 414.749 24.545L414.794 25.445C414.534 25.645 414.184 25.805 413.744 25.925C413.314 26.035 412.884 26.09 412.454 26.09C411.734 26.09 411.094 25.95 410.534 25.67C409.984 25.39 409.559 24.99 409.259 24.47C408.959 23.95 408.809 23.335 408.809 22.625C408.809 21.965 408.944 21.385 409.214 20.885C409.484 20.385 409.854 20 410.324 19.73C410.804 19.45 411.344 19.31 411.944 19.31C412.494 19.31 412.979 19.425 413.399 19.655C413.829 19.885 414.164 20.21 414.404 20.63C414.644 21.05 414.764 21.54 414.764 22.1C414.764 22.21 414.759 22.34 414.749 22.49C414.739 22.64 414.724 22.775 414.704 22.895ZM411.944 20.06C411.354 20.06 410.859 20.26 410.459 20.66C410.059 21.06 409.834 21.595 409.784 22.265H413.819C413.829 22.225 413.834 22.185 413.834 22.145C413.834 22.095 413.834 22.04 413.834 21.98C413.834 21.42 413.659 20.96 413.309 20.6C412.969 20.24 412.514 20.06 411.944 20.06ZM425.445 25.415C425.105 25.635 424.695 25.805 424.215 25.925C423.745 26.035 423.24 26.09 422.7 26.09C421.77 26.09 420.94 25.9 420.21 25.52C419.49 25.13 418.925 24.59 418.515 23.9C418.115 23.21 417.915 22.425 417.915 21.545C417.915 20.665 418.105 19.885 418.485 19.205C418.875 18.525 419.41 17.99 420.09 17.6C420.77 17.2 421.55 17 422.43 17C423.04 17 423.565 17.06 424.005 17.18C424.455 17.29 424.865 17.475 425.235 17.735L424.905 18.665C424.615 18.435 424.26 18.255 423.84 18.125C423.42 17.985 422.97 17.915 422.49 17.915C421.79 17.915 421.17 18.075 420.63 18.395C420.1 18.705 419.685 19.13 419.385 19.67C419.085 20.21 418.935 20.835 418.935 21.545C418.935 22.235 419.095 22.855 419.415 23.405C419.745 23.955 420.195 24.39 420.765 24.71C421.335 25.02 421.99 25.175 422.73 25.175C423.22 25.175 423.705 25.11 424.185 24.98C424.675 24.84 425.09 24.65 425.43 24.41L425.445 25.415ZM432.621 19.85C432.621 20.53 432.421 21.08 432.021 21.5C431.621 21.92 431.126 22.2 430.536 22.34L433.116 26H431.931L429.531 22.565H427.521V26H426.531V17.09H429.231C429.911 17.09 430.506 17.195 431.016 17.405C431.526 17.615 431.921 17.925 432.201 18.335C432.481 18.735 432.621 19.24 432.621 19.85ZM431.601 19.85C431.601 19.39 431.491 19.02 431.271 18.74C431.061 18.46 430.771 18.255 430.401 18.125C430.041 17.995 429.626 17.93 429.156 17.93H427.521V21.755H429.156C429.626 21.755 430.041 21.69 430.401 21.56C430.771 21.43 431.061 21.225 431.271 20.945C431.491 20.665 431.601 20.3 431.601 19.85ZM437.908 17C438.798 17 439.583 17.195 440.263 17.585C440.943 17.975 441.478 18.515 441.868 19.205C442.258 19.885 442.453 20.665 442.453 21.545C442.453 22.415 442.258 23.195 441.868 23.885C441.478 24.565 440.943 25.105 440.263 25.505C439.583 25.895 438.798 26.09 437.908 26.09C437.018 26.09 436.228 25.895 435.538 25.505C434.858 25.105 434.323 24.565 433.933 23.885C433.553 23.195 433.363 22.415 433.363 21.545C433.363 20.665 433.553 19.885 433.933 19.205C434.323 18.525 434.858 17.99 435.538 17.6C436.228 17.2 437.018 17 437.908 17ZM437.908 25.19C438.598 25.19 439.208 25.03 439.738 24.71C440.268 24.39 440.678 23.955 440.968 23.405C441.268 22.855 441.418 22.235 441.418 21.545C441.418 20.865 441.268 20.25 440.968 19.7C440.678 19.14 440.268 18.7 439.738 18.38C439.208 18.06 438.598 17.9 437.908 17.9C437.218 17.9 436.608 18.06 436.078 18.38C435.548 18.7 435.133 19.135 434.833 19.685C434.543 20.225 434.398 20.845 434.398 21.545C434.398 22.225 434.543 22.845 434.833 23.405C435.133 23.955 435.548 24.39 436.078 24.71C436.608 25.03 437.218 25.19 437.908 25.19ZM450.494 17.09V22.295C450.494 23.525 450.179 24.465 449.549 25.115C448.919 25.765 448.039 26.09 446.909 26.09C445.779 26.09 444.899 25.765 444.269 25.115C443.639 24.465 443.324 23.525 443.324 22.295V17.09H444.314V22.205C444.314 23.145 444.529 23.875 444.959 24.395C445.389 24.915 446.044 25.175 446.924 25.175C447.814 25.175 448.469 24.915 448.889 24.395C449.319 23.875 449.534 23.145 449.534 22.205V17.09H450.494ZM457 17.48L456.79 18.365C456.62 18.265 456.415 18.18 456.175 18.11C455.935 18.04 455.68 17.985 455.41 17.945C455.15 17.905 454.89 17.885 454.63 17.885C453.94 17.885 453.41 18.02 453.04 18.29C452.68 18.56 452.5 18.92 452.5 19.37C452.5 19.67 452.585 19.92 452.755 20.12C452.935 20.32 453.17 20.485 453.46 20.615C453.75 20.745 454.065 20.865 454.405 20.975C454.755 21.085 455.105 21.205 455.455 21.335C455.805 21.455 456.125 21.61 456.415 21.8C456.705 21.98 456.935 22.215 457.105 22.505C457.285 22.795 457.375 23.155 457.375 23.585C457.375 24.345 457.1 24.955 456.55 25.415C456 25.865 455.18 26.09 454.09 26.09C453.56 26.09 453.05 26.035 452.56 25.925C452.08 25.815 451.69 25.675 451.39 25.505L451.51 24.56C451.72 24.68 451.96 24.79 452.23 24.89C452.51 24.98 452.81 25.055 453.13 25.115C453.45 25.175 453.775 25.205 454.105 25.205C454.885 25.205 455.455 25.07 455.815 24.8C456.175 24.52 456.355 24.145 456.355 23.675C456.355 23.355 456.265 23.095 456.085 22.895C455.915 22.695 455.685 22.53 455.395 22.4C455.105 22.26 454.785 22.14 454.435 22.04C454.095 21.93 453.75 21.815 453.4 21.695C453.05 21.565 452.73 21.41 452.44 21.23C452.15 21.04 451.915 20.805 451.735 20.525C451.565 20.235 451.48 19.87 451.48 19.43C451.48 18.96 451.6 18.545 451.84 18.185C452.08 17.815 452.435 17.525 452.905 17.315C453.375 17.105 453.945 17 454.615 17C454.915 17 455.21 17.02 455.5 17.06C455.79 17.09 456.065 17.14 456.325 17.21C456.585 17.28 456.81 17.37 457 17.48ZM470.05 17.09V26H469.06V18.875H469C468.95 19.035 468.885 19.2 468.805 19.37C468.735 19.53 468.645 19.725 468.535 19.955L465.985 24.725H465.01L462.475 19.955C462.365 19.735 462.27 19.54 462.19 19.37C462.12 19.2 462.06 19.035 462.01 18.875H461.95V26H461.005V17.09H462.055L464.98 22.67C465.08 22.87 465.175 23.07 465.265 23.27C465.355 23.46 465.43 23.63 465.49 23.78H465.55C465.61 23.63 465.685 23.455 465.775 23.255C465.875 23.055 465.975 22.86 466.075 22.67L469 17.09H470.05ZM475.648 17C476.538 17 477.323 17.195 478.003 17.585C478.683 17.975 479.218 18.515 479.608 19.205C479.998 19.885 480.193 20.665 480.193 21.545C480.193 22.415 479.998 23.195 479.608 23.885C479.218 24.565 478.683 25.105 478.003 25.505C477.323 25.895 476.538 26.09 475.648 26.09C474.758 26.09 473.968 25.895 473.278 25.505C472.598 25.105 472.063 24.565 471.673 23.885C471.293 23.195 471.103 22.415 471.103 21.545C471.103 20.665 471.293 19.885 471.673 19.205C472.063 18.525 472.598 17.99 473.278 17.6C473.968 17.2 474.758 17 475.648 17ZM475.648 25.19C476.338 25.19 476.948 25.03 477.478 24.71C478.008 24.39 478.418 23.955 478.708 23.405C479.008 22.855 479.158 22.235 479.158 21.545C479.158 20.865 479.008 20.25 478.708 19.7C478.418 19.14 478.008 18.7 477.478 18.38C476.948 18.06 476.338 17.9 475.648 17.9C474.958 17.9 474.348 18.06 473.818 18.38C473.288 18.7 472.873 19.135 472.573 19.685C472.283 20.225 472.138 20.845 472.138 21.545C472.138 22.225 472.283 22.845 472.573 23.405C472.873 23.955 473.288 24.39 473.818 24.71C474.348 25.03 474.958 25.19 475.648 25.19ZM487.722 23.54C487.722 24.27 487.457 24.865 486.927 25.325C486.397 25.775 485.612 26 484.572 26H481.257V17.09H484.377C485.377 17.09 486.117 17.3 486.597 17.72C487.087 18.14 487.332 18.705 487.332 19.415C487.332 19.925 487.192 20.355 486.912 20.705C486.642 21.045 486.292 21.275 485.862 21.395C486.412 21.505 486.857 21.745 487.197 22.115C487.547 22.485 487.722 22.96 487.722 23.54ZM486.342 19.52C486.342 19.02 486.172 18.63 485.832 18.35C485.502 18.07 484.967 17.93 484.227 17.93H482.232V21.125H484.362C485.042 21.125 485.542 20.975 485.862 20.675C486.182 20.375 486.342 19.99 486.342 19.52ZM486.717 23.48C486.717 22.97 486.532 22.575 486.162 22.295C485.802 22.015 485.232 21.875 484.452 21.875H482.232V25.16H484.437C485.177 25.16 485.742 25.025 486.132 24.755C486.522 24.475 486.717 24.05 486.717 23.48ZM489.766 17.09V26H488.776V17.09H489.766ZM491.372 26V17.09H492.362V25.1H496.472L496.397 26H491.372ZM502.783 17.09L502.708 17.975H498.358V21.065H502.003V21.935H498.358V25.115H502.873V26H497.368V17.09H502.783ZM506.819 16.64C506.989 16.64 507.134 16.7 507.254 16.82C507.374 16.94 507.434 17.085 507.434 17.255C507.434 17.435 507.374 17.585 507.254 17.705C507.134 17.825 506.989 17.885 506.819 17.885C506.639 17.885 506.484 17.825 506.354 17.705C506.234 17.585 506.174 17.435 506.174 17.255C506.174 17.085 506.234 16.94 506.354 16.82C506.484 16.7 506.639 16.64 506.819 16.64ZM507.284 19.37V26H506.324V19.43L507.284 19.37ZM514.386 26H513.441V21.86C513.441 21.29 513.301 20.87 513.021 20.6C512.741 20.32 512.341 20.18 511.821 20.18C511.461 20.18 511.096 20.255 510.726 20.405C510.356 20.545 510.001 20.735 509.661 20.975V26H508.701V19.43L509.661 19.37V20.18C510.061 19.88 510.461 19.66 510.861 19.52C511.271 19.38 511.671 19.31 512.061 19.31C512.791 19.31 513.361 19.5 513.771 19.88C514.181 20.25 514.386 20.84 514.386 21.65V26ZM519.229 19.4L519.154 20.24H517.084V24.02C517.084 24.45 517.189 24.76 517.399 24.95C517.609 25.14 517.894 25.235 518.254 25.235C518.464 25.235 518.654 25.205 518.824 25.145C519.004 25.075 519.159 24.995 519.289 24.905L519.334 25.745C519.024 25.975 518.609 26.09 518.089 26.09C517.449 26.09 516.959 25.93 516.619 25.61C516.289 25.28 516.124 24.79 516.124 24.14V20.24H515.164V19.4H516.124V17.915L517.084 17.66V19.4H519.229ZM525.52 22.895H520.615C520.655 23.375 520.79 23.79 521.02 24.14C521.26 24.48 521.575 24.75 521.965 24.95C522.355 25.14 522.805 25.235 523.315 25.235C523.735 25.235 524.145 25.175 524.545 25.055C524.955 24.935 525.295 24.765 525.565 24.545L525.61 25.445C525.35 25.645 525 25.805 524.56 25.925C524.13 26.035 523.7 26.09 523.27 26.09C522.55 26.09 521.91 25.95 521.35 25.67C520.8 25.39 520.375 24.99 520.075 24.47C519.775 23.95 519.625 23.335 519.625 22.625C519.625 21.965 519.76 21.385 520.03 20.885C520.3 20.385 520.67 20 521.14 19.73C521.62 19.45 522.16 19.31 522.76 19.31C523.31 19.31 523.795 19.425 524.215 19.655C524.645 19.885 524.98 20.21 525.22 20.63C525.46 21.05 525.58 21.54 525.58 22.1C525.58 22.21 525.575 22.34 525.565 22.49C525.555 22.64 525.54 22.775 525.52 22.895ZM522.76 20.06C522.17 20.06 521.675 20.26 521.275 20.66C520.875 21.06 520.65 21.595 520.6 22.265H524.635C524.645 22.225 524.65 22.185 524.65 22.145C524.65 22.095 524.65 22.04 524.65 21.98C524.65 21.42 524.475 20.96 524.125 20.6C523.785 20.24 523.33 20.06 522.76 20.06ZM530.183 19.4L530.153 20.315C530.073 20.285 529.968 20.26 529.838 20.24C529.718 20.22 529.608 20.21 529.508 20.21C529.148 20.21 528.798 20.305 528.458 20.495C528.128 20.675 527.838 20.915 527.588 21.215V26H526.628V19.43L527.588 19.37V20.36C527.858 20.04 528.173 19.785 528.533 19.595C528.893 19.405 529.263 19.31 529.643 19.31C529.743 19.31 529.843 19.315 529.943 19.325C530.043 19.335 530.123 19.36 530.183 19.4ZM536.609 26H535.664V21.86C535.664 21.29 535.524 20.87 535.244 20.6C534.964 20.32 534.564 20.18 534.044 20.18C533.684 20.18 533.319 20.255 532.949 20.405C532.579 20.545 532.224 20.735 531.884 20.975V26H530.924V19.43L531.884 19.37V20.18C532.284 19.88 532.684 19.66 533.084 19.52C533.494 19.38 533.894 19.31 534.284 19.31C535.014 19.31 535.584 19.5 535.994 19.88C536.404 20.25 536.609 20.84 536.609 21.65V26ZM543.013 26H542.098V25.4C541.818 25.6 541.478 25.765 541.078 25.895C540.678 26.025 540.253 26.09 539.803 26.09C539.053 26.09 538.483 25.92 538.093 25.58C537.703 25.24 537.508 24.775 537.508 24.185C537.508 23.505 537.748 23.005 538.228 22.685C538.718 22.355 539.368 22.19 540.178 22.19C540.518 22.19 540.863 22.225 541.213 22.295C541.573 22.365 541.858 22.455 542.068 22.565V21.725C542.068 21.165 541.913 20.765 541.603 20.525C541.293 20.285 540.833 20.165 540.223 20.165C539.813 20.165 539.418 20.22 539.038 20.33C538.668 20.43 538.363 20.555 538.123 20.705L538.078 19.82C538.358 19.66 538.688 19.535 539.068 19.445C539.458 19.355 539.873 19.31 540.313 19.31C541.163 19.31 541.823 19.495 542.293 19.865C542.773 20.225 543.013 20.815 543.013 21.635V26ZM542.068 24.74V23.225C541.858 23.115 541.593 23.03 541.273 22.97C540.963 22.9 540.648 22.865 540.328 22.865C539.768 22.865 539.318 22.97 538.978 23.18C538.648 23.38 538.483 23.71 538.483 24.17C538.483 24.6 538.628 24.91 538.918 25.1C539.208 25.29 539.578 25.385 540.028 25.385C540.418 25.385 540.803 25.32 541.183 25.19C541.563 25.06 541.858 24.91 542.068 24.74ZM545.384 16.49V26H544.424V16.565L545.384 16.49ZM556.794 26H555.744L554.649 23.255H550.734L549.639 26H548.619L552.159 17.09H553.269L556.794 26ZM554.349 22.43L553.029 19.115C552.959 18.945 552.899 18.79 552.849 18.65C552.809 18.5 552.769 18.35 552.729 18.2H552.654C552.614 18.35 552.569 18.5 552.519 18.65C552.479 18.79 552.424 18.945 552.354 19.115L551.019 22.43H554.349ZM563.758 19.955C563.758 20.605 563.603 21.145 563.293 21.575C562.993 21.995 562.578 22.305 562.048 22.505C561.518 22.705 560.913 22.805 560.233 22.805H558.583V26H557.593V17.09H560.233C560.923 17.09 561.528 17.195 562.048 17.405C562.578 17.605 562.993 17.915 563.293 18.335C563.603 18.755 563.758 19.295 563.758 19.955ZM562.753 19.955C562.753 19.445 562.633 19.045 562.393 18.755C562.153 18.455 561.838 18.245 561.448 18.125C561.058 17.995 560.628 17.93 560.158 17.93H558.583V21.965H560.158C560.628 21.965 561.058 21.905 561.448 21.785C561.838 21.665 562.153 21.46 562.393 21.17C562.633 20.87 562.753 20.465 562.753 19.955ZM565.809 17.09V26H564.819V17.09H565.809Z" fill="white"/>
</svg>
