<svg width="581" height="43" viewBox="0 0 581 43" fill="none" xmlns="http://www.w3.org/2000/svg">
<rect width="581" height="43" rx="15" fill="#1A383E"/>
<path fill-rule="evenodd" clip-rule="evenodd" d="M25.0098 18.8346L14 18.835V13.123H25.0098V18.835H30.754V29.8771H25.0098V24.5471C22.093 24.5979 19.7442 26.9647 19.7442 29.8771H14C14 23.8103 18.9205 18.8862 25.0098 18.835V18.8346Z" fill="#A0EFFF"/>
<path d="M51.4379 13.368L51.1579 16.672H44.0459V20.004H49.8979V23.224H44.0459V26.696H51.5779V30H40.3219V13.368H51.4379ZM64.3844 12.248V30H60.8004V29.244C59.9044 29.916 58.8497 30.252 57.6364 30.252C56.6284 30.252 55.6951 30 54.8364 29.496C53.9964 28.992 53.3244 28.2733 52.8204 27.34C52.3164 26.388 52.0644 25.268 52.0644 23.98C52.0644 22.6547 52.3164 21.5067 52.8204 20.536C53.3431 19.5467 54.0711 18.7813 55.0044 18.24C55.9564 17.6987 57.0671 17.428 58.3364 17.428C58.7844 17.428 59.2231 17.4653 59.6524 17.54C60.0817 17.6147 60.4644 17.7267 60.8004 17.876V12.416L64.3844 12.248ZM60.8004 20.872C60.5764 20.7787 60.2871 20.6947 59.9324 20.62C59.5777 20.5453 59.2324 20.508 58.8964 20.508C58.2617 20.508 57.7017 20.648 57.2164 20.928C56.7497 21.1893 56.3857 21.572 56.1244 22.076C55.8817 22.58 55.7604 23.1773 55.7604 23.868C55.7604 24.54 55.8724 25.128 56.0964 25.632C56.3204 26.1173 56.6471 26.5 57.0764 26.78C57.5244 27.0413 58.0377 27.172 58.6164 27.172C59.4564 27.172 60.1844 26.9573 60.8004 26.528V20.872ZM77.7072 17.596V30H74.1232V28.964C73.5445 29.412 72.9565 29.7387 72.3592 29.944C71.7618 30.1493 71.1178 30.252 70.4272 30.252C69.1578 30.252 68.1312 29.8973 67.3472 29.188C66.5632 28.46 66.1712 27.3307 66.1712 25.8V17.764L69.7552 17.596V25.044C69.7552 25.772 69.9325 26.2947 70.2872 26.612C70.6418 26.9293 71.1272 27.088 71.7432 27.088C72.1538 27.088 72.5645 27.0227 72.9752 26.892C73.3858 26.7427 73.7685 26.556 74.1232 26.332V17.764L77.7072 17.596ZM89.3786 18.52L88.5946 21.768C88.2772 21.4507 87.8572 21.1893 87.3346 20.984C86.8119 20.7787 86.2706 20.676 85.7106 20.676C85.0946 20.676 84.5346 20.8067 84.0306 21.068C83.5452 21.3107 83.1626 21.6653 82.8826 22.132C82.6212 22.5987 82.4906 23.1587 82.4906 23.812C82.4906 24.484 82.6306 25.0627 82.9106 25.548C83.1906 26.0333 83.5919 26.3973 84.1146 26.64C84.6559 26.8827 85.2812 27.004 85.9906 27.004C86.6252 27.004 87.2226 26.9107 87.7826 26.724C88.3612 26.5373 88.8746 26.2947 89.3226 25.996L89.4626 29.188C88.9399 29.5053 88.3426 29.7667 87.6706 29.972C86.9986 30.1587 86.2426 30.252 85.4026 30.252C84.2266 30.252 83.1346 30 82.1266 29.496C81.1186 28.992 80.3066 28.264 79.6906 27.312C79.0932 26.3413 78.7946 25.1747 78.7946 23.812C78.7946 22.58 79.0839 21.488 79.6626 20.536C80.2412 19.5653 81.0252 18.8093 82.0146 18.268C83.0039 17.708 84.1052 17.428 85.3186 17.428C86.2146 17.428 86.9986 17.5307 87.6706 17.736C88.3612 17.9227 88.9306 18.184 89.3786 18.52ZM101.106 30H97.7184V29.048C97.2704 29.4027 96.7291 29.692 96.0944 29.916C95.4597 30.14 94.7597 30.252 93.9944 30.252C92.6317 30.252 91.5864 29.9253 90.8584 29.272C90.1491 28.6187 89.7944 27.7133 89.7944 26.556C89.7944 25.3053 90.2331 24.3627 91.1104 23.728C91.9877 23.0747 93.1731 22.748 94.6664 22.748C95.2077 22.748 95.7491 22.7947 96.2904 22.888C96.8317 22.9813 97.2704 23.1027 97.6064 23.252V22.58C97.6064 21.852 97.3731 21.3387 96.9064 21.04C96.4584 20.7227 95.7491 20.564 94.7784 20.564C94.0877 20.564 93.3784 20.648 92.6504 20.816C91.9411 20.984 91.3717 21.1987 90.9424 21.46L90.8024 18.324C91.3811 18.044 92.0624 17.8293 92.8464 17.68C93.6491 17.512 94.4704 17.428 95.3104 17.428C97.1771 17.428 98.6051 17.8293 99.5944 18.632C100.602 19.416 101.106 20.6573 101.106 22.356V30ZM97.6064 27.144V25.38C97.3451 25.2493 97.0184 25.1467 96.6264 25.072C96.2531 24.9973 95.8891 24.96 95.5344 24.96C94.8251 24.96 94.2837 25.0907 93.9104 25.352C93.5371 25.5947 93.3504 25.9773 93.3504 26.5C93.3504 26.9853 93.5091 27.34 93.8264 27.564C94.1437 27.7693 94.6104 27.872 95.2264 27.872C95.6557 27.872 96.0944 27.8067 96.5424 27.676C96.9904 27.5267 97.3451 27.3493 97.6064 27.144ZM121.659 17.68L118.019 30H114.211L112.755 25.66C112.493 24.764 112.279 24.0453 112.111 23.504C111.943 22.944 111.803 22.4307 111.691 21.964H111.551C111.457 22.4307 111.317 22.944 111.131 23.504C110.963 24.0453 110.748 24.764 110.487 25.66L109.031 30H105.223L101.583 17.764L105.195 17.596L106.847 23.476C106.94 23.868 107.033 24.3347 107.127 24.876C107.239 25.3987 107.323 25.884 107.379 26.332H107.519C107.575 25.884 107.668 25.3987 107.799 24.876C107.929 24.3347 108.051 23.868 108.163 23.476L109.787 18.604H113.595L115.219 23.476C115.331 23.868 115.452 24.3347 115.583 24.876C115.713 25.3987 115.807 25.884 115.863 26.332H116.003C116.059 25.884 116.133 25.3987 116.227 24.876C116.339 24.3347 116.441 23.868 116.535 23.476L118.131 17.68H121.659ZM130.231 17.68L129.979 20.76H126.703V25.436C126.703 26.052 126.852 26.4907 127.151 26.752C127.449 26.9947 127.888 27.116 128.467 27.116C128.784 27.116 129.083 27.0693 129.363 26.976C129.661 26.864 129.913 26.7333 130.119 26.584L130.259 29.608C129.605 30.0373 128.719 30.252 127.599 30.252C126.049 30.252 124.92 29.8693 124.211 29.104C123.501 28.3387 123.147 27.2467 123.147 25.828V20.76H121.467V17.68H123.147V15.104L126.703 14.348V17.68H130.231ZM141.926 30H138.538V29.048C138.09 29.4027 137.549 29.692 136.914 29.916C136.28 30.14 135.58 30.252 134.814 30.252C133.452 30.252 132.406 29.9253 131.678 29.272C130.969 28.6187 130.614 27.7133 130.614 26.556C130.614 25.3053 131.053 24.3627 131.93 23.728C132.808 23.0747 133.993 22.748 135.486 22.748C136.028 22.748 136.569 22.7947 137.11 22.888C137.652 22.9813 138.09 23.1027 138.426 23.252V22.58C138.426 21.852 138.193 21.3387 137.726 21.04C137.278 20.7227 136.569 20.564 135.598 20.564C134.908 20.564 134.198 20.648 133.47 20.816C132.761 20.984 132.192 21.1987 131.762 21.46L131.622 18.324C132.201 18.044 132.882 17.8293 133.666 17.68C134.469 17.512 135.29 17.428 136.13 17.428C137.997 17.428 139.425 17.8293 140.414 18.632C141.422 19.416 141.926 20.6573 141.926 22.356V30ZM138.426 27.144V25.38C138.165 25.2493 137.838 25.1467 137.446 25.072C137.073 24.9973 136.709 24.96 136.354 24.96C135.645 24.96 135.104 25.0907 134.73 25.352C134.357 25.5947 134.17 25.9773 134.17 26.5C134.17 26.9853 134.329 27.34 134.646 27.564C134.964 27.7693 135.43 27.872 136.046 27.872C136.476 27.872 136.914 27.8067 137.362 27.676C137.81 27.5267 138.165 27.3493 138.426 27.144ZM156.029 23.644C156.029 24.9507 155.749 26.108 155.189 27.116C154.629 28.1053 153.827 28.88 152.781 29.44C151.736 29.9813 150.485 30.252 149.029 30.252C148.021 30.252 147.06 30.1493 146.145 29.944C145.231 29.72 144.419 29.44 143.709 29.104V12.416L147.293 12.248V18.436C147.797 18.0813 148.301 17.8293 148.805 17.68C149.328 17.512 149.897 17.428 150.513 17.428C151.559 17.428 152.492 17.68 153.313 18.184C154.153 18.688 154.816 19.4067 155.301 20.34C155.787 21.2547 156.029 22.356 156.029 23.644ZM152.333 23.812C152.333 23.14 152.221 22.5613 151.997 22.076C151.773 21.572 151.437 21.1893 150.989 20.928C150.56 20.648 150.019 20.508 149.365 20.508C148.563 20.508 147.872 20.7227 147.293 21.152V26.836C147.536 26.9293 147.816 27.0133 148.133 27.088C148.469 27.144 148.815 27.172 149.169 27.172C149.823 27.172 150.383 27.0413 150.849 26.78C151.316 26.5 151.68 26.108 151.941 25.604C152.203 25.0813 152.333 24.484 152.333 23.812ZM160.672 12.248V30H157.088V12.416L160.672 12.248ZM173.402 24.708H165.506C165.618 25.212 165.842 25.6507 166.178 26.024C166.533 26.3787 166.981 26.6493 167.522 26.836C168.082 27.0227 168.736 27.116 169.482 27.116C170.117 27.116 170.798 27.032 171.526 26.864C172.254 26.6773 172.852 26.444 173.318 26.164L173.458 29.216C172.973 29.552 172.32 29.8133 171.498 30C170.696 30.168 169.94 30.252 169.23 30.252C167.644 30.252 166.281 29.9907 165.142 29.468C164.022 28.9267 163.173 28.1707 162.594 27.2C162.034 26.2293 161.754 25.0907 161.754 23.784C161.754 22.496 162.016 21.3853 162.538 20.452C163.08 19.5 163.817 18.7627 164.75 18.24C165.702 17.6987 166.766 17.428 167.942 17.428C169.025 17.428 169.986 17.6427 170.826 18.072C171.685 18.5013 172.348 19.1267 172.814 19.948C173.3 20.7507 173.542 21.7213 173.542 22.86C173.542 23.1027 173.524 23.4013 173.486 23.756C173.468 24.092 173.44 24.4093 173.402 24.708ZM167.97 20.004C167.242 20.004 166.645 20.2467 166.178 20.732C165.73 21.2173 165.46 21.8613 165.366 22.664H170.21C170.21 22.6267 170.21 22.5707 170.21 22.496C170.21 22.4027 170.21 22.3373 170.21 22.3C170.21 21.6093 170.005 21.0587 169.594 20.648C169.202 20.2187 168.661 20.004 167.97 20.004Z" fill="#A0EFFF"/>
<path d="M329.91 26H328.995V25.4C328.715 25.6 328.375 25.765 327.975 25.895C327.575 26.025 327.15 26.09 326.7 26.09C325.95 26.09 325.38 25.92 324.99 25.58C324.6 25.24 324.405 24.775 324.405 24.185C324.405 23.505 324.645 23.005 325.125 22.685C325.615 22.355 326.265 22.19 327.075 22.19C327.415 22.19 327.76 22.225 328.11 22.295C328.47 22.365 328.755 22.455 328.965 22.565V21.725C328.965 21.165 328.81 20.765 328.5 20.525C328.19 20.285 327.73 20.165 327.12 20.165C326.71 20.165 326.315 20.22 325.935 20.33C325.565 20.43 325.26 20.555 325.02 20.705L324.975 19.82C325.255 19.66 325.585 19.535 325.965 19.445C326.355 19.355 326.77 19.31 327.21 19.31C328.06 19.31 328.72 19.495 329.19 19.865C329.67 20.225 329.91 20.815 329.91 21.635V26ZM328.965 24.74V23.225C328.755 23.115 328.49 23.03 328.17 22.97C327.86 22.9 327.545 22.865 327.225 22.865C326.665 22.865 326.215 22.97 325.875 23.18C325.545 23.38 325.38 23.71 325.38 24.17C325.38 24.6 325.525 24.91 325.815 25.1C326.105 25.29 326.475 25.385 326.925 25.385C327.315 25.385 327.7 25.32 328.08 25.19C328.46 25.06 328.755 24.91 328.965 24.74ZM337.006 26H336.061V21.86C336.061 21.29 335.921 20.87 335.641 20.6C335.361 20.32 334.961 20.18 334.441 20.18C334.081 20.18 333.716 20.255 333.346 20.405C332.976 20.545 332.621 20.735 332.281 20.975V26H331.321V19.43L332.281 19.37V20.18C332.681 19.88 333.081 19.66 333.481 19.52C333.891 19.38 334.291 19.31 334.681 19.31C335.411 19.31 335.981 19.5 336.391 19.88C336.801 20.25 337.006 20.84 337.006 21.65V26ZM345.962 26H345.047V25.4C344.767 25.6 344.427 25.765 344.027 25.895C343.627 26.025 343.202 26.09 342.752 26.09C342.002 26.09 341.432 25.92 341.042 25.58C340.652 25.24 340.457 24.775 340.457 24.185C340.457 23.505 340.697 23.005 341.177 22.685C341.667 22.355 342.317 22.19 343.127 22.19C343.467 22.19 343.812 22.225 344.162 22.295C344.522 22.365 344.807 22.455 345.017 22.565V21.725C345.017 21.165 344.862 20.765 344.552 20.525C344.242 20.285 343.782 20.165 343.172 20.165C342.762 20.165 342.367 20.22 341.987 20.33C341.617 20.43 341.312 20.555 341.072 20.705L341.027 19.82C341.307 19.66 341.637 19.535 342.017 19.445C342.407 19.355 342.822 19.31 343.262 19.31C344.112 19.31 344.772 19.495 345.242 19.865C345.722 20.225 345.962 20.815 345.962 21.635V26ZM345.017 24.74V23.225C344.807 23.115 344.542 23.03 344.222 22.97C343.912 22.9 343.597 22.865 343.277 22.865C342.717 22.865 342.267 22.97 341.927 23.18C341.597 23.38 341.432 23.71 341.432 24.17C341.432 24.6 341.577 24.91 341.867 25.1C342.157 25.29 342.527 25.385 342.977 25.385C343.367 25.385 343.752 25.32 344.132 25.19C344.512 25.06 344.807 24.91 345.017 24.74ZM356.722 19.4L354.502 26H353.497L352.162 22.34C352.062 22.02 351.972 21.74 351.892 21.5C351.812 21.26 351.747 21.045 351.697 20.855H351.622C351.582 21.045 351.517 21.26 351.427 21.5C351.347 21.74 351.257 22.02 351.157 22.34L349.822 26H348.817L346.597 19.43L347.587 19.37L348.997 23.63C349.067 23.85 349.132 24.08 349.192 24.32C349.262 24.55 349.317 24.765 349.357 24.965H349.417C349.457 24.765 349.512 24.55 349.582 24.32C349.662 24.08 349.737 23.85 349.807 23.63L351.172 19.85H352.177L353.542 23.63C353.612 23.85 353.687 24.08 353.767 24.32C353.847 24.55 353.902 24.765 353.932 24.965H354.007C354.047 24.765 354.097 24.55 354.157 24.32C354.227 24.08 354.292 23.85 354.352 23.63L355.747 19.4H356.722ZM367.519 26H366.559V21.86C366.559 21.72 366.544 21.59 366.514 21.47C366.494 21.34 366.469 21.23 366.439 21.14C366.339 20.8 366.169 20.555 365.929 20.405C365.689 20.255 365.384 20.18 365.014 20.18C364.964 20.18 364.914 20.185 364.864 20.195C364.814 20.195 364.764 20.195 364.714 20.195C364.424 20.225 364.124 20.31 363.814 20.45C363.514 20.58 363.209 20.755 362.899 20.975C362.929 21.095 362.949 21.22 362.959 21.35C362.979 21.47 362.989 21.6 362.989 21.74V26H362.029V21.86C362.029 21.72 362.019 21.59 361.999 21.47C361.979 21.34 361.949 21.23 361.909 21.14C361.819 20.8 361.654 20.555 361.414 20.405C361.174 20.255 360.869 20.18 360.499 20.18C360.169 20.18 359.829 20.255 359.479 20.405C359.139 20.545 358.804 20.735 358.474 20.975V26H357.514V19.43L358.474 19.37V20.18C358.844 19.9 359.199 19.695 359.539 19.565C359.889 19.425 360.219 19.35 360.529 19.34C360.859 19.32 361.174 19.35 361.474 19.43C361.754 19.49 361.999 19.595 362.209 19.745C362.419 19.885 362.584 20.08 362.704 20.33C363.154 19.96 363.594 19.7 364.024 19.55C364.454 19.39 364.859 19.31 365.239 19.31C365.939 19.31 366.494 19.5 366.904 19.88C367.314 20.25 367.519 20.84 367.519 21.65V26ZM373.909 26H372.994V25.4C372.714 25.6 372.374 25.765 371.974 25.895C371.574 26.025 371.149 26.09 370.699 26.09C369.949 26.09 369.379 25.92 368.989 25.58C368.599 25.24 368.404 24.775 368.404 24.185C368.404 23.505 368.644 23.005 369.124 22.685C369.614 22.355 370.264 22.19 371.074 22.19C371.414 22.19 371.759 22.225 372.109 22.295C372.469 22.365 372.754 22.455 372.964 22.565V21.725C372.964 21.165 372.809 20.765 372.499 20.525C372.189 20.285 371.729 20.165 371.119 20.165C370.709 20.165 370.314 20.22 369.934 20.33C369.564 20.43 369.259 20.555 369.019 20.705L368.974 19.82C369.254 19.66 369.584 19.535 369.964 19.445C370.354 19.355 370.769 19.31 371.209 19.31C372.059 19.31 372.719 19.495 373.189 19.865C373.669 20.225 373.909 20.815 373.909 21.635V26ZM372.964 24.74V23.225C372.754 23.115 372.489 23.03 372.169 22.97C371.859 22.9 371.544 22.865 371.224 22.865C370.664 22.865 370.214 22.97 369.874 23.18C369.544 23.38 369.379 23.71 369.379 24.17C369.379 24.6 369.524 24.91 369.814 25.1C370.104 25.29 370.474 25.385 370.924 25.385C371.314 25.385 371.699 25.32 372.079 25.19C372.459 25.06 372.754 24.91 372.964 24.74ZM374.753 26V25.175L378.893 20.24H374.933V19.4H380.048V20.225L375.908 25.16H380.228V26H374.753ZM381.679 16.64C381.849 16.64 381.994 16.7 382.114 16.82C382.234 16.94 382.294 17.085 382.294 17.255C382.294 17.435 382.234 17.585 382.114 17.705C381.994 17.825 381.849 17.885 381.679 17.885C381.499 17.885 381.344 17.825 381.214 17.705C381.094 17.585 381.034 17.435 381.034 17.255C381.034 17.085 381.094 16.94 381.214 16.82C381.344 16.7 381.499 16.64 381.679 16.64ZM382.144 19.37V26H381.184V19.43L382.144 19.37ZM389.246 26H388.301V21.86C388.301 21.29 388.161 20.87 387.881 20.6C387.601 20.32 387.201 20.18 386.681 20.18C386.321 20.18 385.956 20.255 385.586 20.405C385.216 20.545 384.861 20.735 384.521 20.975V26H383.561V19.43L384.521 19.37V20.18C384.921 19.88 385.321 19.66 385.721 19.52C386.131 19.38 386.531 19.31 386.921 19.31C387.651 19.31 388.221 19.5 388.631 19.88C389.041 20.25 389.246 20.84 389.246 21.65V26ZM396.144 19.25L396.114 20.09H394.749C394.969 20.27 395.144 20.49 395.274 20.75C395.414 21.01 395.484 21.29 395.484 21.59C395.484 22.21 395.269 22.73 394.839 23.15C394.419 23.57 393.844 23.805 393.114 23.855L392.004 25.04C392.104 25.02 392.244 25.005 392.424 24.995C392.604 24.975 392.784 24.96 392.964 24.95C393.154 24.94 393.304 24.935 393.414 24.935C394.354 24.935 395.064 25.09 395.544 25.4C396.034 25.71 396.279 26.185 396.279 26.825C396.279 27.415 396.019 27.9 395.499 28.28C394.989 28.67 394.164 28.865 393.024 28.865C392.414 28.865 391.819 28.8 391.239 28.67C390.669 28.55 390.209 28.385 389.859 28.175L389.949 27.29C390.179 27.43 390.459 27.555 390.789 27.665C391.119 27.785 391.479 27.88 391.869 27.95C392.269 28.02 392.664 28.055 393.054 28.055C393.644 28.055 394.104 28 394.434 27.89C394.764 27.78 394.999 27.63 395.139 27.44C395.279 27.26 395.349 27.06 395.349 26.84C395.349 26.43 395.179 26.145 394.839 25.985C394.509 25.815 393.979 25.73 393.249 25.73C392.919 25.73 392.549 25.745 392.139 25.775C391.739 25.805 391.409 25.85 391.149 25.91V25.145L392.409 23.84C391.729 23.77 391.194 23.525 390.804 23.105C390.414 22.675 390.219 22.17 390.219 21.59C390.219 21.15 390.324 20.76 390.534 20.42C390.754 20.07 391.059 19.8 391.449 19.61C391.849 19.41 392.314 19.31 392.844 19.31C393.194 19.31 393.509 19.355 393.789 19.445L396.144 19.25ZM394.569 21.59C394.569 21.14 394.414 20.77 394.104 20.48C393.794 20.18 393.374 20.03 392.844 20.03C392.324 20.03 391.909 20.175 391.599 20.465C391.289 20.755 391.134 21.13 391.134 21.59C391.134 22.04 391.289 22.41 391.599 22.7C391.909 22.99 392.324 23.135 392.844 23.135C393.374 23.135 393.794 22.995 394.104 22.715C394.414 22.425 394.569 22.05 394.569 21.59ZM406.892 26H405.842L404.747 23.255H400.832L399.737 26H398.717L402.257 17.09H403.367L406.892 26ZM404.447 22.43L403.127 19.115C403.057 18.945 402.997 18.79 402.947 18.65C402.907 18.5 402.867 18.35 402.827 18.2H402.752C402.712 18.35 402.667 18.5 402.617 18.65C402.577 18.79 402.522 18.945 402.452 19.115L401.117 22.43H404.447ZM413.856 19.955C413.856 20.605 413.701 21.145 413.391 21.575C413.091 21.995 412.676 22.305 412.146 22.505C411.616 22.705 411.011 22.805 410.331 22.805H408.681V26H407.691V17.09H410.331C411.021 17.09 411.626 17.195 412.146 17.405C412.676 17.605 413.091 17.915 413.391 18.335C413.701 18.755 413.856 19.295 413.856 19.955ZM412.851 19.955C412.851 19.445 412.731 19.045 412.491 18.755C412.251 18.455 411.936 18.245 411.546 18.125C411.156 17.995 410.726 17.93 410.256 17.93H408.681V21.965H410.256C410.726 21.965 411.156 21.905 411.546 21.785C411.936 21.665 412.251 21.46 412.491 21.17C412.731 20.87 412.851 20.465 412.851 19.955ZM415.907 17.09V26H414.917V17.09H415.907ZM429.471 19.4L427.251 26H426.246L424.911 22.34C424.811 22.02 424.721 21.74 424.641 21.5C424.561 21.26 424.496 21.045 424.446 20.855H424.371C424.331 21.045 424.266 21.26 424.176 21.5C424.096 21.74 424.006 22.02 423.906 22.34L422.571 26H421.566L419.346 19.43L420.336 19.37L421.746 23.63C421.816 23.85 421.881 24.08 421.941 24.32C422.011 24.55 422.066 24.765 422.106 24.965H422.166C422.206 24.765 422.261 24.55 422.331 24.32C422.411 24.08 422.486 23.85 422.556 23.63L423.921 19.85H424.926L426.291 23.63C426.361 23.85 426.436 24.08 426.516 24.32C426.596 24.55 426.651 24.765 426.681 24.965H426.756C426.796 24.765 426.846 24.55 426.906 24.32C426.976 24.08 427.041 23.85 427.101 23.63L428.496 19.4H429.471ZM433.818 19.4L433.788 20.315C433.708 20.285 433.603 20.26 433.473 20.24C433.353 20.22 433.243 20.21 433.143 20.21C432.783 20.21 432.433 20.305 432.093 20.495C431.763 20.675 431.473 20.915 431.223 21.215V26H430.263V19.43L431.223 19.37V20.36C431.493 20.04 431.808 19.785 432.168 19.595C432.528 19.405 432.898 19.31 433.278 19.31C433.378 19.31 433.478 19.315 433.578 19.325C433.678 19.335 433.758 19.36 433.818 19.4ZM439.539 26H438.624V25.4C438.344 25.6 438.004 25.765 437.604 25.895C437.204 26.025 436.779 26.09 436.329 26.09C435.579 26.09 435.009 25.92 434.619 25.58C434.229 25.24 434.034 24.775 434.034 24.185C434.034 23.505 434.274 23.005 434.754 22.685C435.244 22.355 435.894 22.19 436.704 22.19C437.044 22.19 437.389 22.225 437.739 22.295C438.099 22.365 438.384 22.455 438.594 22.565V21.725C438.594 21.165 438.439 20.765 438.129 20.525C437.819 20.285 437.359 20.165 436.749 20.165C436.339 20.165 435.944 20.22 435.564 20.33C435.194 20.43 434.889 20.555 434.649 20.705L434.604 19.82C434.884 19.66 435.214 19.535 435.594 19.445C435.984 19.355 436.399 19.31 436.839 19.31C437.689 19.31 438.349 19.495 438.819 19.865C439.299 20.225 439.539 20.815 439.539 21.635V26ZM438.594 24.74V23.225C438.384 23.115 438.119 23.03 437.799 22.97C437.489 22.9 437.174 22.865 436.854 22.865C436.294 22.865 435.844 22.97 435.504 23.18C435.174 23.38 435.009 23.71 435.009 24.17C435.009 24.6 435.154 24.91 435.444 25.1C435.734 25.29 436.104 25.385 436.554 25.385C436.944 25.385 437.329 25.32 437.709 25.19C438.089 25.06 438.384 24.91 438.594 24.74ZM447.055 22.655C447.055 23.315 446.905 23.905 446.605 24.425C446.315 24.945 445.91 25.355 445.39 25.655C444.88 25.945 444.295 26.09 443.635 26.09C442.955 26.09 442.38 25.99 441.91 25.79V28.775H440.95V19.43L441.91 19.37V19.955C442.19 19.735 442.495 19.575 442.825 19.475C443.165 19.365 443.525 19.31 443.905 19.31C444.495 19.31 445.025 19.44 445.495 19.7C445.965 19.96 446.34 20.34 446.62 20.84C446.91 21.34 447.055 21.945 447.055 22.655ZM446.065 22.67C446.065 22.14 445.96 21.685 445.75 21.305C445.55 20.925 445.27 20.64 444.91 20.45C444.56 20.25 444.155 20.15 443.695 20.15C443.015 20.15 442.42 20.35 441.91 20.75V24.935C442.12 25.025 442.36 25.1 442.63 25.16C442.91 25.22 443.2 25.25 443.5 25.25C443.98 25.25 444.41 25.15 444.79 24.95C445.18 24.74 445.49 24.44 445.72 24.05C445.95 23.66 446.065 23.2 446.065 22.67ZM454.047 22.655C454.047 23.315 453.897 23.905 453.597 24.425C453.307 24.945 452.902 25.355 452.382 25.655C451.872 25.945 451.287 26.09 450.627 26.09C449.947 26.09 449.372 25.99 448.902 25.79V28.775H447.942V19.43L448.902 19.37V19.955C449.182 19.735 449.487 19.575 449.817 19.475C450.157 19.365 450.517 19.31 450.897 19.31C451.487 19.31 452.017 19.44 452.487 19.7C452.957 19.96 453.332 20.34 453.612 20.84C453.902 21.34 454.047 21.945 454.047 22.655ZM453.057 22.67C453.057 22.14 452.952 21.685 452.742 21.305C452.542 20.925 452.262 20.64 451.902 20.45C451.552 20.25 451.147 20.15 450.687 20.15C450.007 20.15 449.412 20.35 448.902 20.75V24.935C449.112 25.025 449.352 25.1 449.622 25.16C449.902 25.22 450.192 25.25 450.492 25.25C450.972 25.25 451.402 25.15 451.782 24.95C452.172 24.74 452.482 24.44 452.712 24.05C452.942 23.66 453.057 23.2 453.057 22.67ZM460.303 22.895H455.398C455.438 23.375 455.573 23.79 455.803 24.14C456.043 24.48 456.358 24.75 456.748 24.95C457.138 25.14 457.588 25.235 458.098 25.235C458.518 25.235 458.928 25.175 459.328 25.055C459.738 24.935 460.078 24.765 460.348 24.545L460.393 25.445C460.133 25.645 459.783 25.805 459.343 25.925C458.913 26.035 458.483 26.09 458.053 26.09C457.333 26.09 456.693 25.95 456.133 25.67C455.583 25.39 455.158 24.99 454.858 24.47C454.558 23.95 454.408 23.335 454.408 22.625C454.408 21.965 454.543 21.385 454.813 20.885C455.083 20.385 455.453 20 455.923 19.73C456.403 19.45 456.943 19.31 457.543 19.31C458.093 19.31 458.578 19.425 458.998 19.655C459.428 19.885 459.763 20.21 460.003 20.63C460.243 21.05 460.363 21.54 460.363 22.1C460.363 22.21 460.358 22.34 460.348 22.49C460.338 22.64 460.323 22.775 460.303 22.895ZM457.543 20.06C456.953 20.06 456.458 20.26 456.058 20.66C455.658 21.06 455.433 21.595 455.383 22.265H459.418C459.428 22.225 459.433 22.185 459.433 22.145C459.433 22.095 459.433 22.04 459.433 21.98C459.433 21.42 459.258 20.96 458.908 20.6C458.568 20.24 458.113 20.06 457.543 20.06ZM464.967 19.4L464.937 20.315C464.857 20.285 464.752 20.26 464.622 20.24C464.502 20.22 464.392 20.21 464.292 20.21C463.932 20.21 463.582 20.305 463.242 20.495C462.912 20.675 462.622 20.915 462.372 21.215V26H461.412V19.43L462.372 19.37V20.36C462.642 20.04 462.957 19.785 463.317 19.595C463.677 19.405 464.047 19.31 464.427 19.31C464.527 19.31 464.627 19.315 464.727 19.325C464.827 19.335 464.907 19.36 464.967 19.4ZM471.516 16.565L471.471 17.42C471.401 17.4 471.311 17.385 471.201 17.375C471.101 17.365 471.001 17.36 470.901 17.36C470.501 17.36 470.171 17.475 469.911 17.705C469.661 17.925 469.536 18.335 469.536 18.935V19.4H471.336L471.261 20.24H469.536V26H468.591V20.24H467.631V19.4H468.591V18.905C468.591 18.095 468.796 17.49 469.206 17.09C469.616 16.69 470.156 16.49 470.826 16.49C470.946 16.49 471.066 16.5 471.186 16.52C471.316 16.53 471.426 16.545 471.516 16.565ZM478.227 22.7C478.227 23.36 478.077 23.95 477.777 24.47C477.477 24.98 477.067 25.38 476.547 25.67C476.027 25.95 475.447 26.09 474.807 26.09C474.167 26.09 473.587 25.95 473.067 25.67C472.547 25.38 472.137 24.98 471.837 24.47C471.537 23.95 471.387 23.36 471.387 22.7C471.387 22.03 471.537 21.44 471.837 20.93C472.137 20.42 472.547 20.025 473.067 19.745C473.587 19.455 474.167 19.31 474.807 19.31C475.447 19.31 476.027 19.455 476.547 19.745C477.067 20.025 477.477 20.42 477.777 20.93C478.077 21.44 478.227 22.03 478.227 22.7ZM477.237 22.7C477.237 22.2 477.127 21.76 476.907 21.38C476.687 21 476.392 20.705 476.022 20.495C475.662 20.275 475.257 20.165 474.807 20.165C474.357 20.165 473.947 20.275 473.577 20.495C473.207 20.705 472.912 21 472.692 21.38C472.482 21.76 472.377 22.2 472.377 22.7C472.377 23.19 472.487 23.63 472.707 24.02C472.927 24.4 473.222 24.7 473.592 24.92C473.962 25.13 474.367 25.235 474.807 25.235C475.267 25.235 475.682 25.13 476.052 24.92C476.422 24.7 476.712 24.4 476.922 24.02C477.132 23.63 477.237 23.19 477.237 22.7ZM482.664 19.4L482.634 20.315C482.554 20.285 482.449 20.26 482.319 20.24C482.199 20.22 482.089 20.21 481.989 20.21C481.629 20.21 481.279 20.305 480.939 20.495C480.609 20.675 480.319 20.915 480.069 21.215V26H479.109V19.43L480.069 19.37V20.36C480.339 20.04 480.654 19.785 481.014 19.595C481.374 19.405 481.744 19.31 482.124 19.31C482.224 19.31 482.324 19.315 482.424 19.325C482.524 19.335 482.604 19.36 482.664 19.4ZM491.478 17.09L491.403 17.975H487.053V21.065H490.698V21.935H487.053V25.115H491.568V26H486.063V17.09H491.478ZM500.191 21.545C500.191 22.445 499.991 23.23 499.591 23.9C499.191 24.57 498.621 25.09 497.881 25.46C497.141 25.82 496.256 26 495.226 26H492.571V17.09H495.226C496.256 17.09 497.141 17.275 497.881 17.645C498.621 18.005 499.191 18.52 499.591 19.19C499.991 19.85 500.191 20.635 500.191 21.545ZM499.156 21.545C499.156 20.785 498.996 20.14 498.676 19.61C498.356 19.07 497.901 18.66 497.311 18.38C496.721 18.09 496.026 17.945 495.226 17.945H493.546V25.145H495.226C496.036 25.145 496.731 25.005 497.311 24.725C497.901 24.435 498.356 24.02 498.676 23.48C498.996 22.94 499.156 22.295 499.156 21.545ZM508.239 17.09V22.295C508.239 23.525 507.924 24.465 507.294 25.115C506.664 25.765 505.784 26.09 504.654 26.09C503.524 26.09 502.644 25.765 502.014 25.115C501.384 24.465 501.069 23.525 501.069 22.295V17.09H502.059V22.205C502.059 23.145 502.274 23.875 502.704 24.395C503.134 24.915 503.789 25.175 504.669 25.175C505.559 25.175 506.214 24.915 506.634 24.395C507.064 23.875 507.279 23.145 507.279 22.205V17.09H508.239ZM516.634 25.415C516.294 25.635 515.884 25.805 515.404 25.925C514.934 26.035 514.429 26.09 513.889 26.09C512.959 26.09 512.129 25.9 511.399 25.52C510.679 25.13 510.114 24.59 509.704 23.9C509.304 23.21 509.104 22.425 509.104 21.545C509.104 20.665 509.294 19.885 509.674 19.205C510.064 18.525 510.599 17.99 511.279 17.6C511.959 17.2 512.739 17 513.619 17C514.229 17 514.754 17.06 515.194 17.18C515.644 17.29 516.054 17.475 516.424 17.735L516.094 18.665C515.804 18.435 515.449 18.255 515.029 18.125C514.609 17.985 514.159 17.915 513.679 17.915C512.979 17.915 512.359 18.075 511.819 18.395C511.289 18.705 510.874 19.13 510.574 19.67C510.274 20.21 510.124 20.835 510.124 21.545C510.124 22.235 510.284 22.855 510.604 23.405C510.934 23.955 511.384 24.39 511.954 24.71C512.524 25.02 513.179 25.175 513.919 25.175C514.409 25.175 514.894 25.11 515.374 24.98C515.864 24.84 516.279 24.65 516.619 24.41L516.634 25.415ZM525.055 26H524.005L522.91 23.255H518.995L517.9 26H516.88L520.42 17.09H521.53L525.055 26ZM522.61 22.43L521.29 19.115C521.22 18.945 521.16 18.79 521.11 18.65C521.07 18.5 521.03 18.35 520.99 18.2H520.915C520.875 18.35 520.83 18.5 520.78 18.65C520.74 18.79 520.685 18.945 520.615 19.115L519.28 22.43H522.61ZM531.944 19.85C531.944 20.53 531.744 21.08 531.344 21.5C530.944 21.92 530.449 22.2 529.859 22.34L532.439 26H531.254L528.854 22.565H526.844V26H525.854V17.09H528.554C529.234 17.09 529.829 17.195 530.339 17.405C530.849 17.615 531.244 17.925 531.524 18.335C531.804 18.735 531.944 19.24 531.944 19.85ZM530.924 19.85C530.924 19.39 530.814 19.02 530.594 18.74C530.384 18.46 530.094 18.255 529.724 18.125C529.364 17.995 528.949 17.93 528.479 17.93H526.844V21.755H528.479C528.949 21.755 529.364 21.69 529.724 21.56C530.094 21.43 530.384 21.225 530.594 20.945C530.814 20.665 530.924 20.3 530.924 19.85ZM536.188 26H535.198V17.99H532.303V17.09H539.128L539.053 17.99H536.188V26ZM546.366 26H545.316L544.221 23.255H540.306L539.211 26H538.191L541.731 17.09H542.841L546.366 26ZM543.921 22.43L542.601 19.115C542.531 18.945 542.471 18.79 542.421 18.65C542.381 18.5 542.341 18.35 542.301 18.2H542.226C542.186 18.35 542.141 18.5 542.091 18.65C542.051 18.79 541.996 18.945 541.926 19.115L540.591 22.43H543.921ZM553.63 23.54C553.63 24.27 553.365 24.865 552.835 25.325C552.305 25.775 551.52 26 550.48 26H547.165V17.09H550.285C551.285 17.09 552.025 17.3 552.505 17.72C552.995 18.14 553.24 18.705 553.24 19.415C553.24 19.925 553.1 20.355 552.82 20.705C552.55 21.045 552.2 21.275 551.77 21.395C552.32 21.505 552.765 21.745 553.105 22.115C553.455 22.485 553.63 22.96 553.63 23.54ZM552.25 19.52C552.25 19.02 552.08 18.63 551.74 18.35C551.41 18.07 550.875 17.93 550.135 17.93H548.14V21.125H550.27C550.95 21.125 551.45 20.975 551.77 20.675C552.09 20.375 552.25 19.99 552.25 19.52ZM552.625 23.48C552.625 22.97 552.44 22.575 552.07 22.295C551.71 22.015 551.14 21.875 550.36 21.875H548.14V25.16H550.345C551.085 25.16 551.65 25.025 552.04 24.755C552.43 24.475 552.625 24.05 552.625 23.48ZM554.684 26V17.09H555.674V25.1H559.784L559.709 26H554.684ZM566.094 17.09L566.019 17.975H561.669V21.065H565.314V21.935H561.669V25.115H566.184V26H560.679V17.09H566.094Z" fill="white"/>
</svg>
