<svg width="581" height="43" viewBox="0 0 581 43" fill="none" xmlns="http://www.w3.org/2000/svg">
<rect width="581" height="43" rx="15" fill="#1A333E"/>
<path fill-rule="evenodd" clip-rule="evenodd" d="M25.0098 18.8346L14 18.835V13.123H25.0098V18.835H30.754V29.8771H25.0098V24.5471C22.093 24.5979 19.7442 26.9647 19.7442 29.8771H14C14 23.8103 18.9205 18.8862 25.0098 18.835V18.8346Z" fill="#A0E2FF"/>
<path d="M51.4379 13.368L51.1579 16.672H44.0459V20.004H49.8979V23.224H44.0459V26.696H51.5779V30H40.3219V13.368H51.4379ZM52.2324 30V26.948L58.2524 20.76H52.5684V17.68H62.5084V20.732L56.5164 26.92H62.8444V30H52.2324ZM67.6497 12.248V30H64.0657V12.416L67.6497 12.248ZM81.5561 17.68L77.9161 28.18C77.3934 29.7293 76.7681 31.0173 76.0401 32.044C75.3307 33.0707 74.5467 33.8547 73.6881 34.396C72.8481 34.9373 71.9614 35.2827 71.0281 35.432L69.5161 32.632C70.3934 32.464 71.1307 32.156 71.7281 31.708C72.3441 31.26 72.8387 30.6907 73.2121 30L68.3401 17.764L72.1201 17.596L74.1921 22.944C74.4347 23.6347 74.6494 24.2787 74.8361 24.876C75.0414 25.4733 75.1814 25.9773 75.2561 26.388H75.3961C75.4707 25.9773 75.5827 25.4733 75.7321 24.876C75.8814 24.2787 76.0587 23.6347 76.2641 22.944L77.9441 17.68H81.5561Z" fill="#A0E2FF"/>
<path d="M419.91 26H418.995V25.4C418.715 25.6 418.375 25.765 417.975 25.895C417.575 26.025 417.15 26.09 416.7 26.09C415.95 26.09 415.38 25.92 414.99 25.58C414.6 25.24 414.405 24.775 414.405 24.185C414.405 23.505 414.645 23.005 415.125 22.685C415.615 22.355 416.265 22.19 417.075 22.19C417.415 22.19 417.76 22.225 418.11 22.295C418.47 22.365 418.755 22.455 418.965 22.565V21.725C418.965 21.165 418.81 20.765 418.5 20.525C418.19 20.285 417.73 20.165 417.12 20.165C416.71 20.165 416.315 20.22 415.935 20.33C415.565 20.43 415.26 20.555 415.02 20.705L414.975 19.82C415.255 19.66 415.585 19.535 415.965 19.445C416.355 19.355 416.77 19.31 417.21 19.31C418.06 19.31 418.72 19.495 419.19 19.865C419.67 20.225 419.91 20.815 419.91 21.635V26ZM418.965 24.74V23.225C418.755 23.115 418.49 23.03 418.17 22.97C417.86 22.9 417.545 22.865 417.225 22.865C416.665 22.865 416.215 22.97 415.875 23.18C415.545 23.38 415.38 23.71 415.38 24.17C415.38 24.6 415.525 24.91 415.815 25.1C416.105 25.29 416.475 25.385 416.925 25.385C417.315 25.385 417.7 25.32 418.08 25.19C418.46 25.06 418.755 24.91 418.965 24.74ZM427.006 26H426.061V21.86C426.061 21.29 425.921 20.87 425.641 20.6C425.361 20.32 424.961 20.18 424.441 20.18C424.081 20.18 423.716 20.255 423.346 20.405C422.976 20.545 422.621 20.735 422.281 20.975V26H421.321V19.43L422.281 19.37V20.18C422.681 19.88 423.081 19.66 423.481 19.52C423.891 19.38 424.291 19.31 424.681 19.31C425.411 19.31 425.981 19.5 426.391 19.88C426.801 20.25 427.006 20.84 427.006 21.65V26ZM436.352 22.895H431.447C431.487 23.375 431.622 23.79 431.852 24.14C432.092 24.48 432.407 24.75 432.797 24.95C433.187 25.14 433.637 25.235 434.147 25.235C434.567 25.235 434.977 25.175 435.377 25.055C435.787 24.935 436.127 24.765 436.397 24.545L436.442 25.445C436.182 25.645 435.832 25.805 435.392 25.925C434.962 26.035 434.532 26.09 434.102 26.09C433.382 26.09 432.742 25.95 432.182 25.67C431.632 25.39 431.207 24.99 430.907 24.47C430.607 23.95 430.457 23.335 430.457 22.625C430.457 21.965 430.592 21.385 430.862 20.885C431.132 20.385 431.502 20 431.972 19.73C432.452 19.45 432.992 19.31 433.592 19.31C434.142 19.31 434.627 19.425 435.047 19.655C435.477 19.885 435.812 20.21 436.052 20.63C436.292 21.05 436.412 21.54 436.412 22.1C436.412 22.21 436.407 22.34 436.397 22.49C436.387 22.64 436.372 22.775 436.352 22.895ZM433.592 20.06C433.002 20.06 432.507 20.26 432.107 20.66C431.707 21.06 431.482 21.595 431.432 22.265H435.467C435.477 22.225 435.482 22.185 435.482 22.145C435.482 22.095 435.482 22.04 435.482 21.98C435.482 21.42 435.307 20.96 434.957 20.6C434.617 20.24 434.162 20.06 433.592 20.06ZM442.441 26H441.526V25.4C441.246 25.6 440.906 25.765 440.506 25.895C440.106 26.025 439.681 26.09 439.231 26.09C438.481 26.09 437.911 25.92 437.521 25.58C437.131 25.24 436.936 24.775 436.936 24.185C436.936 23.505 437.176 23.005 437.656 22.685C438.146 22.355 438.796 22.19 439.606 22.19C439.946 22.19 440.291 22.225 440.641 22.295C441.001 22.365 441.286 22.455 441.496 22.565V21.725C441.496 21.165 441.341 20.765 441.031 20.525C440.721 20.285 440.261 20.165 439.651 20.165C439.241 20.165 438.846 20.22 438.466 20.33C438.096 20.43 437.791 20.555 437.551 20.705L437.506 19.82C437.786 19.66 438.116 19.535 438.496 19.445C438.886 19.355 439.301 19.31 439.741 19.31C440.591 19.31 441.251 19.495 441.721 19.865C442.201 20.225 442.441 20.815 442.441 21.635V26ZM441.496 24.74V23.225C441.286 23.115 441.021 23.03 440.701 22.97C440.391 22.9 440.076 22.865 439.756 22.865C439.196 22.865 438.746 22.97 438.406 23.18C438.076 23.38 437.911 23.71 437.911 24.17C437.911 24.6 438.056 24.91 438.346 25.1C438.636 25.29 439.006 25.385 439.456 25.385C439.846 25.385 440.231 25.32 440.611 25.19C440.991 25.06 441.286 24.91 441.496 24.74ZM447.872 19.58L447.737 20.435C447.527 20.345 447.282 20.27 447.002 20.21C446.722 20.15 446.412 20.12 446.072 20.12C445.592 20.12 445.227 20.215 444.977 20.405C444.727 20.585 444.602 20.82 444.602 21.11C444.602 21.33 444.687 21.515 444.857 21.665C445.027 21.805 445.247 21.93 445.517 22.04C445.787 22.14 446.077 22.245 446.387 22.355C446.697 22.455 446.987 22.58 447.257 22.73C447.527 22.87 447.747 23.06 447.917 23.3C448.087 23.53 448.172 23.825 448.172 24.185C448.172 24.525 448.087 24.84 447.917 25.13C447.747 25.42 447.472 25.655 447.092 25.835C446.712 26.005 446.217 26.09 445.607 26.09C445.217 26.09 444.832 26.05 444.452 25.97C444.072 25.88 443.757 25.765 443.507 25.625L443.597 24.77C443.847 24.91 444.157 25.03 444.527 25.13C444.897 25.23 445.257 25.28 445.607 25.28C446.657 25.28 447.182 24.925 447.182 24.215C447.182 23.985 447.097 23.8 446.927 23.66C446.757 23.52 446.537 23.395 446.267 23.285C445.997 23.175 445.707 23.07 445.397 22.97C445.087 22.86 444.797 22.73 444.527 22.58C444.257 22.43 444.037 22.245 443.867 22.025C443.697 21.795 443.612 21.505 443.612 21.155C443.612 20.825 443.702 20.52 443.882 20.24C444.072 19.96 444.352 19.735 444.722 19.565C445.092 19.395 445.547 19.31 446.087 19.31C446.477 19.31 446.817 19.335 447.107 19.385C447.397 19.425 447.652 19.49 447.872 19.58ZM454.887 19.4L452.727 24.98C452.417 25.81 452.092 26.49 451.752 27.02C451.412 27.55 451.047 27.96 450.657 28.25C450.277 28.54 449.852 28.745 449.382 28.865L448.962 28.115C449.522 27.945 449.972 27.69 450.312 27.35C450.662 27.01 450.977 26.56 451.257 26L448.497 19.43L449.517 19.37L451.257 23.54C451.367 23.81 451.467 24.075 451.557 24.335C451.657 24.585 451.732 24.795 451.782 24.965H451.842C451.892 24.795 451.957 24.585 452.037 24.335C452.117 24.075 452.207 23.805 452.307 23.525L453.897 19.4H454.887ZM465.572 26H464.522L463.427 23.255H459.512L458.417 26H457.397L460.937 17.09H462.047L465.572 26ZM463.127 22.43L461.807 19.115C461.737 18.945 461.677 18.79 461.627 18.65C461.587 18.5 461.547 18.35 461.507 18.2H461.432C461.392 18.35 461.347 18.5 461.297 18.65C461.257 18.79 461.202 18.945 461.132 19.115L459.797 22.43H463.127ZM472.536 19.955C472.536 20.605 472.381 21.145 472.071 21.575C471.771 21.995 471.356 22.305 470.826 22.505C470.296 22.705 469.691 22.805 469.011 22.805H467.361V26H466.371V17.09H469.011C469.701 17.09 470.306 17.195 470.826 17.405C471.356 17.605 471.771 17.915 472.071 18.335C472.381 18.755 472.536 19.295 472.536 19.955ZM471.531 19.955C471.531 19.445 471.411 19.045 471.171 18.755C470.931 18.455 470.616 18.245 470.226 18.125C469.836 17.995 469.406 17.93 468.936 17.93H467.361V21.965H468.936C469.406 21.965 469.836 21.905 470.226 21.785C470.616 21.665 470.931 21.46 471.171 21.17C471.411 20.87 471.531 20.465 471.531 19.955ZM474.587 17.09V26H473.597V17.09H474.587ZM488.151 19.4L485.931 26H484.926L483.591 22.34C483.491 22.02 483.401 21.74 483.321 21.5C483.241 21.26 483.176 21.045 483.126 20.855H483.051C483.011 21.045 482.946 21.26 482.856 21.5C482.776 21.74 482.686 22.02 482.586 22.34L481.251 26H480.246L478.026 19.43L479.016 19.37L480.426 23.63C480.496 23.85 480.561 24.08 480.621 24.32C480.691 24.55 480.746 24.765 480.786 24.965H480.846C480.886 24.765 480.941 24.55 481.011 24.32C481.091 24.08 481.166 23.85 481.236 23.63L482.601 19.85H483.606L484.971 23.63C485.041 23.85 485.116 24.08 485.196 24.32C485.276 24.55 485.331 24.765 485.361 24.965H485.436C485.476 24.765 485.526 24.55 485.586 24.32C485.656 24.08 485.721 23.85 485.781 23.63L487.176 19.4H488.151ZM492.498 19.4L492.468 20.315C492.388 20.285 492.283 20.26 492.153 20.24C492.033 20.22 491.923 20.21 491.823 20.21C491.463 20.21 491.113 20.305 490.773 20.495C490.443 20.675 490.153 20.915 489.903 21.215V26H488.943V19.43L489.903 19.37V20.36C490.173 20.04 490.488 19.785 490.848 19.595C491.208 19.405 491.578 19.31 491.958 19.31C492.058 19.31 492.158 19.315 492.258 19.325C492.358 19.335 492.438 19.36 492.498 19.4ZM498.219 26H497.304V25.4C497.024 25.6 496.684 25.765 496.284 25.895C495.884 26.025 495.459 26.09 495.009 26.09C494.259 26.09 493.689 25.92 493.299 25.58C492.909 25.24 492.714 24.775 492.714 24.185C492.714 23.505 492.954 23.005 493.434 22.685C493.924 22.355 494.574 22.19 495.384 22.19C495.724 22.19 496.069 22.225 496.419 22.295C496.779 22.365 497.064 22.455 497.274 22.565V21.725C497.274 21.165 497.119 20.765 496.809 20.525C496.499 20.285 496.039 20.165 495.429 20.165C495.019 20.165 494.624 20.22 494.244 20.33C493.874 20.43 493.569 20.555 493.329 20.705L493.284 19.82C493.564 19.66 493.894 19.535 494.274 19.445C494.664 19.355 495.079 19.31 495.519 19.31C496.369 19.31 497.029 19.495 497.499 19.865C497.979 20.225 498.219 20.815 498.219 21.635V26ZM497.274 24.74V23.225C497.064 23.115 496.799 23.03 496.479 22.97C496.169 22.9 495.854 22.865 495.534 22.865C494.974 22.865 494.524 22.97 494.184 23.18C493.854 23.38 493.689 23.71 493.689 24.17C493.689 24.6 493.834 24.91 494.124 25.1C494.414 25.29 494.784 25.385 495.234 25.385C495.624 25.385 496.009 25.32 496.389 25.19C496.769 25.06 497.064 24.91 497.274 24.74ZM505.735 22.655C505.735 23.315 505.585 23.905 505.285 24.425C504.995 24.945 504.59 25.355 504.07 25.655C503.56 25.945 502.975 26.09 502.315 26.09C501.635 26.09 501.06 25.99 500.59 25.79V28.775H499.63V19.43L500.59 19.37V19.955C500.87 19.735 501.175 19.575 501.505 19.475C501.845 19.365 502.205 19.31 502.585 19.31C503.175 19.31 503.705 19.44 504.175 19.7C504.645 19.96 505.02 20.34 505.3 20.84C505.59 21.34 505.735 21.945 505.735 22.655ZM504.745 22.67C504.745 22.14 504.64 21.685 504.43 21.305C504.23 20.925 503.95 20.64 503.59 20.45C503.24 20.25 502.835 20.15 502.375 20.15C501.695 20.15 501.1 20.35 500.59 20.75V24.935C500.8 25.025 501.04 25.1 501.31 25.16C501.59 25.22 501.88 25.25 502.18 25.25C502.66 25.25 503.09 25.15 503.47 24.95C503.86 24.74 504.17 24.44 504.4 24.05C504.63 23.66 504.745 23.2 504.745 22.67ZM512.727 22.655C512.727 23.315 512.577 23.905 512.277 24.425C511.987 24.945 511.582 25.355 511.062 25.655C510.552 25.945 509.967 26.09 509.307 26.09C508.627 26.09 508.052 25.99 507.582 25.79V28.775H506.622V19.43L507.582 19.37V19.955C507.862 19.735 508.167 19.575 508.497 19.475C508.837 19.365 509.197 19.31 509.577 19.31C510.167 19.31 510.697 19.44 511.167 19.7C511.637 19.96 512.012 20.34 512.292 20.84C512.582 21.34 512.727 21.945 512.727 22.655ZM511.737 22.67C511.737 22.14 511.632 21.685 511.422 21.305C511.222 20.925 510.942 20.64 510.582 20.45C510.232 20.25 509.827 20.15 509.367 20.15C508.687 20.15 508.092 20.35 507.582 20.75V24.935C507.792 25.025 508.032 25.1 508.302 25.16C508.582 25.22 508.872 25.25 509.172 25.25C509.652 25.25 510.082 25.15 510.462 24.95C510.852 24.74 511.162 24.44 511.392 24.05C511.622 23.66 511.737 23.2 511.737 22.67ZM518.983 22.895H514.078C514.118 23.375 514.253 23.79 514.483 24.14C514.723 24.48 515.038 24.75 515.428 24.95C515.818 25.14 516.268 25.235 516.778 25.235C517.198 25.235 517.608 25.175 518.008 25.055C518.418 24.935 518.758 24.765 519.028 24.545L519.073 25.445C518.813 25.645 518.463 25.805 518.023 25.925C517.593 26.035 517.163 26.09 516.733 26.09C516.013 26.09 515.373 25.95 514.813 25.67C514.263 25.39 513.838 24.99 513.538 24.47C513.238 23.95 513.088 23.335 513.088 22.625C513.088 21.965 513.223 21.385 513.493 20.885C513.763 20.385 514.133 20 514.603 19.73C515.083 19.45 515.623 19.31 516.223 19.31C516.773 19.31 517.258 19.425 517.678 19.655C518.108 19.885 518.443 20.21 518.683 20.63C518.923 21.05 519.043 21.54 519.043 22.1C519.043 22.21 519.038 22.34 519.028 22.49C519.018 22.64 519.003 22.775 518.983 22.895ZM516.223 20.06C515.633 20.06 515.138 20.26 514.738 20.66C514.338 21.06 514.113 21.595 514.063 22.265H518.098C518.108 22.225 518.113 22.185 518.113 22.145C518.113 22.095 518.113 22.04 518.113 21.98C518.113 21.42 517.938 20.96 517.588 20.6C517.248 20.24 516.793 20.06 516.223 20.06ZM523.647 19.4L523.617 20.315C523.537 20.285 523.432 20.26 523.302 20.24C523.182 20.22 523.072 20.21 522.972 20.21C522.612 20.21 522.262 20.305 521.922 20.495C521.592 20.675 521.302 20.915 521.052 21.215V26H520.092V19.43L521.052 19.37V20.36C521.322 20.04 521.637 19.785 521.997 19.595C522.357 19.405 522.727 19.31 523.107 19.31C523.207 19.31 523.307 19.315 523.407 19.325C523.507 19.335 523.587 19.36 523.647 19.4ZM530.196 16.565L530.151 17.42C530.081 17.4 529.991 17.385 529.881 17.375C529.781 17.365 529.681 17.36 529.581 17.36C529.181 17.36 528.851 17.475 528.591 17.705C528.341 17.925 528.216 18.335 528.216 18.935V19.4H530.016L529.941 20.24H528.216V26H527.271V20.24H526.311V19.4H527.271V18.905C527.271 18.095 527.476 17.49 527.886 17.09C528.296 16.69 528.836 16.49 529.506 16.49C529.626 16.49 529.746 16.5 529.866 16.52C529.996 16.53 530.106 16.545 530.196 16.565ZM536.907 22.7C536.907 23.36 536.757 23.95 536.457 24.47C536.157 24.98 535.747 25.38 535.227 25.67C534.707 25.95 534.127 26.09 533.487 26.09C532.847 26.09 532.267 25.95 531.747 25.67C531.227 25.38 530.817 24.98 530.517 24.47C530.217 23.95 530.067 23.36 530.067 22.7C530.067 22.03 530.217 21.44 530.517 20.93C530.817 20.42 531.227 20.025 531.747 19.745C532.267 19.455 532.847 19.31 533.487 19.31C534.127 19.31 534.707 19.455 535.227 19.745C535.747 20.025 536.157 20.42 536.457 20.93C536.757 21.44 536.907 22.03 536.907 22.7ZM535.917 22.7C535.917 22.2 535.807 21.76 535.587 21.38C535.367 21 535.072 20.705 534.702 20.495C534.342 20.275 533.937 20.165 533.487 20.165C533.037 20.165 532.627 20.275 532.257 20.495C531.887 20.705 531.592 21 531.372 21.38C531.162 21.76 531.057 22.2 531.057 22.7C531.057 23.19 531.167 23.63 531.387 24.02C531.607 24.4 531.902 24.7 532.272 24.92C532.642 25.13 533.047 25.235 533.487 25.235C533.947 25.235 534.362 25.13 534.732 24.92C535.102 24.7 535.392 24.4 535.602 24.02C535.812 23.63 535.917 23.19 535.917 22.7ZM541.344 19.4L541.314 20.315C541.234 20.285 541.129 20.26 540.999 20.24C540.879 20.22 540.769 20.21 540.669 20.21C540.309 20.21 539.959 20.305 539.619 20.495C539.289 20.675 538.999 20.915 538.749 21.215V26H537.789V19.43L538.749 19.37V20.36C539.019 20.04 539.334 19.785 539.694 19.595C540.054 19.405 540.424 19.31 540.804 19.31C540.904 19.31 541.004 19.315 541.104 19.325C541.204 19.335 541.284 19.36 541.344 19.4ZM545.733 17.09V26H544.743V17.09H545.733ZM553.85 25.1L553.775 26H546.875V25.145L552.425 17.99H547.055V17.09H553.61V17.945L548.045 25.1H553.85ZM554.99 26V17.09H555.98V25.1H560.09L560.015 26H554.99ZM566.447 17.09L563.177 22.565V26H562.187V22.565L558.917 17.09H560.027L562.697 21.62L565.382 17.09H566.447Z" fill="white"/>
</svg>
