<svg width="581" height="43" viewBox="0 0 581 43" fill="none" xmlns="http://www.w3.org/2000/svg">
<rect width="581" height="43" rx="15" fill="#3E1A27"/>
<path fill-rule="evenodd" clip-rule="evenodd" d="M25.0098 18.8346L14 18.835V13.123H25.0098V18.835H30.754V29.8771H25.0098V24.5471C22.093 24.5979 19.7442 26.9647 19.7442 29.8771H14C14 23.8103 18.9205 18.8862 25.0098 18.835V18.8346Z" fill="#FFA0C3"/>
<path d="M54.7979 13.368V30H51.0739V23.308H44.0459V30H40.3219V13.368H44.0459V19.948H51.0739V13.368H54.7979ZM68.9353 17.68L65.2953 28.18C64.7726 29.7293 64.1473 31.0173 63.4193 32.044C62.7099 33.0707 61.9259 33.8547 61.0673 34.396C60.2273 34.9373 59.3406 35.2827 58.4073 35.432L56.8953 32.632C57.7726 32.464 58.5099 32.156 59.1073 31.708C59.7233 31.26 60.2179 30.6907 60.5913 30L55.7193 17.764L59.4993 17.596L61.5713 22.944C61.8139 23.6347 62.0286 24.2787 62.2153 24.876C62.4206 25.4733 62.5606 25.9773 62.6353 26.388H62.7753C62.8499 25.9773 62.9619 25.4733 63.1113 24.876C63.2606 24.2787 63.4379 23.6347 63.6433 22.944L65.3233 17.68H68.9353ZM81.9638 23.7C81.9638 24.9507 81.6931 26.0707 81.1518 27.06C80.6291 28.0493 79.9011 28.8333 78.9678 29.412C78.0531 29.972 76.9891 30.252 75.7758 30.252C74.7305 30.252 73.8811 30.084 73.2278 29.748V35.18H69.6438V17.764L73.2278 17.596V18.492C73.6571 18.1373 74.1331 17.876 74.6558 17.708C75.1785 17.5213 75.7758 17.428 76.4478 17.428C77.4745 17.428 78.3985 17.68 79.2198 18.184C80.0598 18.688 80.7225 19.4067 81.2078 20.34C81.7118 21.2733 81.9638 22.3933 81.9638 23.7ZM78.2678 23.812C78.2678 23.14 78.1558 22.5613 77.9318 22.076C77.7078 21.572 77.3718 21.1893 76.9238 20.928C76.4945 20.648 75.9531 20.508 75.2998 20.508C74.4971 20.508 73.8065 20.7227 73.2278 21.152V26.836C73.4705 26.9293 73.7505 27.0133 74.0678 27.088C74.4038 27.144 74.7491 27.172 75.1038 27.172C75.7571 27.172 76.3171 27.0413 76.7838 26.78C77.2505 26.5 77.6145 26.108 77.8758 25.604C78.1371 25.0813 78.2678 24.484 78.2678 23.812ZM93.9426 24.708H86.0466C86.1586 25.212 86.3826 25.6507 86.7186 26.024C87.0732 26.3787 87.5212 26.6493 88.0626 26.836C88.6226 27.0227 89.2759 27.116 90.0226 27.116C90.6572 27.116 91.3386 27.032 92.0666 26.864C92.7946 26.6773 93.3919 26.444 93.8586 26.164L93.9986 29.216C93.5132 29.552 92.8599 29.8133 92.0386 30C91.2359 30.168 90.4799 30.252 89.7706 30.252C88.1839 30.252 86.8212 29.9907 85.6826 29.468C84.5626 28.9267 83.7132 28.1707 83.1346 27.2C82.5746 26.2293 82.2946 25.0907 82.2946 23.784C82.2946 22.496 82.5559 21.3853 83.0786 20.452C83.6199 19.5 84.3572 18.7627 85.2906 18.24C86.2426 17.6987 87.3066 17.428 88.4826 17.428C89.5652 17.428 90.5266 17.6427 91.3666 18.072C92.2252 18.5013 92.8879 19.1267 93.3546 19.948C93.8399 20.7507 94.0826 21.7213 94.0826 22.86C94.0826 23.1027 94.0639 23.4013 94.0266 23.756C94.0079 24.092 93.9799 24.4093 93.9426 24.708ZM88.5106 20.004C87.7826 20.004 87.1852 20.2467 86.7186 20.732C86.2706 21.2173 85.9999 21.8613 85.9066 22.664H90.7506C90.7506 22.6267 90.7506 22.5707 90.7506 22.496C90.7506 22.4027 90.7506 22.3373 90.7506 22.3C90.7506 21.6093 90.5452 21.0587 90.1346 20.648C89.7426 20.2187 89.2012 20.004 88.5106 20.004ZM103.175 17.568L103.035 21.012C102.923 20.956 102.727 20.9 102.447 20.844C102.186 20.788 101.934 20.76 101.691 20.76C101.187 20.76 100.692 20.8533 100.207 21.04C99.7402 21.208 99.3109 21.4413 98.9189 21.74V30H95.3349V17.764L98.9189 17.596V19.052C99.4602 18.492 100.011 18.0813 100.571 17.82C101.15 17.5587 101.747 17.428 102.363 17.428C102.494 17.428 102.634 17.4373 102.783 17.456C102.951 17.4747 103.082 17.512 103.175 17.568ZM116.303 23.7C116.303 24.9507 116.033 26.0707 115.491 27.06C114.969 28.0493 114.241 28.8333 113.307 29.412C112.393 29.972 111.329 30.252 110.115 30.252C109.07 30.252 108.221 30.084 107.567 29.748V35.18H103.983V17.764L107.567 17.596V18.492C107.997 18.1373 108.473 17.876 108.995 17.708C109.518 17.5213 110.115 17.428 110.787 17.428C111.814 17.428 112.738 17.68 113.559 18.184C114.399 18.688 115.062 19.4067 115.547 20.34C116.051 21.2733 116.303 22.3933 116.303 23.7ZM112.607 23.812C112.607 23.14 112.495 22.5613 112.271 22.076C112.047 21.572 111.711 21.1893 111.263 20.928C110.834 20.648 110.293 20.508 109.639 20.508C108.837 20.508 108.146 20.7227 107.567 21.152V26.836C107.81 26.9293 108.09 27.0133 108.407 27.088C108.743 27.144 109.089 27.172 109.443 27.172C110.097 27.172 110.657 27.0413 111.123 26.78C111.59 26.5 111.954 26.108 112.215 25.604C112.477 25.0813 112.607 24.484 112.607 23.812ZM120.946 12.248V30H117.362V12.416L120.946 12.248ZM133.34 30H129.952V29.048C129.504 29.4027 128.963 29.692 128.328 29.916C127.694 30.14 126.994 30.252 126.228 30.252C124.866 30.252 123.82 29.9253 123.092 29.272C122.383 28.6187 122.028 27.7133 122.028 26.556C122.028 25.3053 122.467 24.3627 123.344 23.728C124.222 23.0747 125.407 22.748 126.9 22.748C127.442 22.748 127.983 22.7947 128.524 22.888C129.066 22.9813 129.504 23.1027 129.84 23.252V22.58C129.84 21.852 129.607 21.3387 129.14 21.04C128.692 20.7227 127.983 20.564 127.012 20.564C126.322 20.564 125.612 20.648 124.884 20.816C124.175 20.984 123.606 21.1987 123.176 21.46L123.036 18.324C123.615 18.044 124.296 17.8293 125.08 17.68C125.883 17.512 126.704 17.428 127.544 17.428C129.411 17.428 130.839 17.8293 131.828 18.632C132.836 19.416 133.34 20.6573 133.34 22.356V30ZM129.84 27.144V25.38C129.579 25.2493 129.252 25.1467 128.86 25.072C128.487 24.9973 128.123 24.96 127.768 24.96C127.059 24.96 126.518 25.0907 126.144 25.352C125.771 25.5947 125.584 25.9773 125.584 26.5C125.584 26.9853 125.743 27.34 126.06 27.564C126.378 27.7693 126.844 27.872 127.46 27.872C127.89 27.872 128.328 27.8067 128.776 27.676C129.224 27.5267 129.579 27.3493 129.84 27.144ZM153.893 17.68L150.253 30H146.445L144.989 25.66C144.727 24.764 144.513 24.0453 144.345 23.504C144.177 22.944 144.037 22.4307 143.925 21.964H143.785C143.691 22.4307 143.551 22.944 143.365 23.504C143.197 24.0453 142.982 24.764 142.721 25.66L141.265 30H137.457L133.817 17.764L137.429 17.596L139.081 23.476C139.174 23.868 139.267 24.3347 139.361 24.876C139.473 25.3987 139.557 25.884 139.613 26.332H139.753C139.809 25.884 139.902 25.3987 140.033 24.876C140.163 24.3347 140.285 23.868 140.397 23.476L142.021 18.604H145.829L147.453 23.476C147.565 23.868 147.686 24.3347 147.817 24.876C147.947 25.3987 148.041 25.884 148.097 26.332H148.237C148.293 25.884 148.367 25.3987 148.461 24.876C148.573 24.3347 148.675 23.868 148.769 23.476L150.365 17.68H153.893ZM166.384 30H162.8V22.636C162.8 21.908 162.623 21.3853 162.268 21.068C161.914 20.7507 161.428 20.592 160.812 20.592C160.402 20.592 159.982 20.6667 159.552 20.816C159.123 20.9467 158.712 21.1333 158.32 21.376V30H154.736V17.764L158.32 17.596V18.744C158.918 18.296 159.524 17.9693 160.14 17.764C160.775 17.54 161.438 17.428 162.128 17.428C163.416 17.428 164.443 17.792 165.208 18.52C165.992 19.2293 166.384 20.3493 166.384 21.88V30ZM170.045 12.024C170.605 12.024 171.063 12.2107 171.417 12.584C171.772 12.9387 171.949 13.3867 171.949 13.928C171.949 14.488 171.772 14.9547 171.417 15.328C171.063 15.6827 170.605 15.86 170.045 15.86C169.467 15.86 168.981 15.6827 168.589 15.328C168.216 14.9547 168.029 14.488 168.029 13.928C168.029 13.3867 168.216 12.9387 168.589 12.584C168.981 12.2107 169.467 12.024 170.045 12.024ZM171.781 17.596V30H168.197V17.764L171.781 17.596ZM185.24 30H181.656V22.636C181.656 21.908 181.478 21.3853 181.124 21.068C180.769 20.7507 180.284 20.592 179.668 20.592C179.257 20.592 178.837 20.6667 178.408 20.816C177.978 20.9467 177.568 21.1333 177.176 21.376V30H173.592V17.764L177.176 17.596V18.744C177.773 18.296 178.38 17.9693 178.996 17.764C179.63 17.54 180.293 17.428 180.984 17.428C182.272 17.428 183.298 17.792 184.064 18.52C184.848 19.2293 185.24 20.3493 185.24 21.88V30ZM198.532 17.26L198.504 20.032H196.656C196.843 20.2747 196.983 20.5547 197.076 20.872C197.188 21.1707 197.244 21.488 197.244 21.824C197.244 23.112 196.796 24.148 195.9 24.932C195.004 25.6973 193.782 26.1173 192.232 26.192L190.944 27.452C191.168 27.4147 191.43 27.3867 191.728 27.368C192.027 27.3307 192.326 27.312 192.624 27.312C192.923 27.2933 193.156 27.284 193.324 27.284C195.06 27.284 196.386 27.62 197.3 28.292C198.234 28.9453 198.7 29.8973 198.7 31.148C198.7 32.38 198.187 33.3973 197.16 34.2C196.152 35.0213 194.519 35.432 192.26 35.432C190.954 35.432 189.731 35.3107 188.592 35.068C187.472 34.8253 186.567 34.4987 185.876 34.088L186.156 31.008C186.548 31.288 187.08 31.54 187.752 31.764C188.424 31.988 189.171 32.1653 189.992 32.296C190.832 32.4453 191.654 32.52 192.456 32.52C193.259 32.52 193.866 32.464 194.276 32.352C194.687 32.2587 194.976 32.1093 195.144 31.904C195.312 31.7173 195.396 31.484 195.396 31.204C195.396 30.7747 195.182 30.4667 194.752 30.28C194.342 30.112 193.567 30.028 192.428 30.028C191.738 30.028 191 30.056 190.216 30.112C189.432 30.168 188.76 30.2613 188.2 30.392V27.9L190.188 26.024C188.994 25.8 188.07 25.3053 187.416 24.54C186.763 23.7747 186.436 22.8693 186.436 21.824C186.436 20.928 186.651 20.1533 187.08 19.5C187.528 18.8467 188.154 18.3427 188.956 17.988C189.778 17.6147 190.739 17.428 191.84 17.428C192.606 17.428 193.315 17.5307 193.968 17.736L198.532 17.26ZM193.968 21.824C193.968 21.2453 193.772 20.7693 193.38 20.396C193.007 20.0227 192.494 19.836 191.84 19.836C191.168 19.836 190.636 20.0227 190.244 20.396C189.871 20.7693 189.684 21.2453 189.684 21.824C189.684 22.384 189.871 22.8507 190.244 23.224C190.636 23.5973 191.168 23.784 191.84 23.784C192.494 23.784 193.007 23.6067 193.38 23.252C193.772 22.8787 193.968 22.4027 193.968 21.824Z" fill="#FFA0C3"/>
<path d="M344.91 26H343.995V25.4C343.715 25.6 343.375 25.765 342.975 25.895C342.575 26.025 342.15 26.09 341.7 26.09C340.95 26.09 340.38 25.92 339.99 25.58C339.6 25.24 339.405 24.775 339.405 24.185C339.405 23.505 339.645 23.005 340.125 22.685C340.615 22.355 341.265 22.19 342.075 22.19C342.415 22.19 342.76 22.225 343.11 22.295C343.47 22.365 343.755 22.455 343.965 22.565V21.725C343.965 21.165 343.81 20.765 343.5 20.525C343.19 20.285 342.73 20.165 342.12 20.165C341.71 20.165 341.315 20.22 340.935 20.33C340.565 20.43 340.26 20.555 340.02 20.705L339.975 19.82C340.255 19.66 340.585 19.535 340.965 19.445C341.355 19.355 341.77 19.31 342.21 19.31C343.06 19.31 343.72 19.495 344.19 19.865C344.67 20.225 344.91 20.815 344.91 21.635V26ZM343.965 24.74V23.225C343.755 23.115 343.49 23.03 343.17 22.97C342.86 22.9 342.545 22.865 342.225 22.865C341.665 22.865 341.215 22.97 340.875 23.18C340.545 23.38 340.38 23.71 340.38 24.17C340.38 24.6 340.525 24.91 340.815 25.1C341.105 25.29 341.475 25.385 341.925 25.385C342.315 25.385 342.7 25.32 343.08 25.19C343.46 25.06 343.755 24.91 343.965 24.74ZM352.006 26H351.061V21.86C351.061 21.29 350.921 20.87 350.641 20.6C350.361 20.32 349.961 20.18 349.441 20.18C349.081 20.18 348.716 20.255 348.346 20.405C347.976 20.545 347.621 20.735 347.281 20.975V26H346.321V19.43L347.281 19.37V20.18C347.681 19.88 348.081 19.66 348.481 19.52C348.891 19.38 349.291 19.31 349.681 19.31C350.411 19.31 350.981 19.5 351.391 19.88C351.801 20.25 352.006 20.84 352.006 21.65V26ZM361.352 22.895H356.447C356.487 23.375 356.622 23.79 356.852 24.14C357.092 24.48 357.407 24.75 357.797 24.95C358.187 25.14 358.637 25.235 359.147 25.235C359.567 25.235 359.977 25.175 360.377 25.055C360.787 24.935 361.127 24.765 361.397 24.545L361.442 25.445C361.182 25.645 360.832 25.805 360.392 25.925C359.962 26.035 359.532 26.09 359.102 26.09C358.382 26.09 357.742 25.95 357.182 25.67C356.632 25.39 356.207 24.99 355.907 24.47C355.607 23.95 355.457 23.335 355.457 22.625C355.457 21.965 355.592 21.385 355.862 20.885C356.132 20.385 356.502 20 356.972 19.73C357.452 19.45 357.992 19.31 358.592 19.31C359.142 19.31 359.627 19.425 360.047 19.655C360.477 19.885 360.812 20.21 361.052 20.63C361.292 21.05 361.412 21.54 361.412 22.1C361.412 22.21 361.407 22.34 361.397 22.49C361.387 22.64 361.372 22.775 361.352 22.895ZM358.592 20.06C358.002 20.06 357.507 20.26 357.107 20.66C356.707 21.06 356.482 21.595 356.432 22.265H360.467C360.477 22.225 360.482 22.185 360.482 22.145C360.482 22.095 360.482 22.04 360.482 21.98C360.482 21.42 360.307 20.96 359.957 20.6C359.617 20.24 359.162 20.06 358.592 20.06ZM367.441 26H366.526V25.4C366.246 25.6 365.906 25.765 365.506 25.895C365.106 26.025 364.681 26.09 364.231 26.09C363.481 26.09 362.911 25.92 362.521 25.58C362.131 25.24 361.936 24.775 361.936 24.185C361.936 23.505 362.176 23.005 362.656 22.685C363.146 22.355 363.796 22.19 364.606 22.19C364.946 22.19 365.291 22.225 365.641 22.295C366.001 22.365 366.286 22.455 366.496 22.565V21.725C366.496 21.165 366.341 20.765 366.031 20.525C365.721 20.285 365.261 20.165 364.651 20.165C364.241 20.165 363.846 20.22 363.466 20.33C363.096 20.43 362.791 20.555 362.551 20.705L362.506 19.82C362.786 19.66 363.116 19.535 363.496 19.445C363.886 19.355 364.301 19.31 364.741 19.31C365.591 19.31 366.251 19.495 366.721 19.865C367.201 20.225 367.441 20.815 367.441 21.635V26ZM366.496 24.74V23.225C366.286 23.115 366.021 23.03 365.701 22.97C365.391 22.9 365.076 22.865 364.756 22.865C364.196 22.865 363.746 22.97 363.406 23.18C363.076 23.38 362.911 23.71 362.911 24.17C362.911 24.6 363.056 24.91 363.346 25.1C363.636 25.29 364.006 25.385 364.456 25.385C364.846 25.385 365.231 25.32 365.611 25.19C365.991 25.06 366.286 24.91 366.496 24.74ZM372.872 19.58L372.737 20.435C372.527 20.345 372.282 20.27 372.002 20.21C371.722 20.15 371.412 20.12 371.072 20.12C370.592 20.12 370.227 20.215 369.977 20.405C369.727 20.585 369.602 20.82 369.602 21.11C369.602 21.33 369.687 21.515 369.857 21.665C370.027 21.805 370.247 21.93 370.517 22.04C370.787 22.14 371.077 22.245 371.387 22.355C371.697 22.455 371.987 22.58 372.257 22.73C372.527 22.87 372.747 23.06 372.917 23.3C373.087 23.53 373.172 23.825 373.172 24.185C373.172 24.525 373.087 24.84 372.917 25.13C372.747 25.42 372.472 25.655 372.092 25.835C371.712 26.005 371.217 26.09 370.607 26.09C370.217 26.09 369.832 26.05 369.452 25.97C369.072 25.88 368.757 25.765 368.507 25.625L368.597 24.77C368.847 24.91 369.157 25.03 369.527 25.13C369.897 25.23 370.257 25.28 370.607 25.28C371.657 25.28 372.182 24.925 372.182 24.215C372.182 23.985 372.097 23.8 371.927 23.66C371.757 23.52 371.537 23.395 371.267 23.285C370.997 23.175 370.707 23.07 370.397 22.97C370.087 22.86 369.797 22.73 369.527 22.58C369.257 22.43 369.037 22.245 368.867 22.025C368.697 21.795 368.612 21.505 368.612 21.155C368.612 20.825 368.702 20.52 368.882 20.24C369.072 19.96 369.352 19.735 369.722 19.565C370.092 19.395 370.547 19.31 371.087 19.31C371.477 19.31 371.817 19.335 372.107 19.385C372.397 19.425 372.652 19.49 372.872 19.58ZM379.887 19.4L377.727 24.98C377.417 25.81 377.092 26.49 376.752 27.02C376.412 27.55 376.047 27.96 375.657 28.25C375.277 28.54 374.852 28.745 374.382 28.865L373.962 28.115C374.522 27.945 374.972 27.69 375.312 27.35C375.662 27.01 375.977 26.56 376.257 26L373.497 19.43L374.517 19.37L376.257 23.54C376.367 23.81 376.467 24.075 376.557 24.335C376.657 24.585 376.732 24.795 376.782 24.965H376.842C376.892 24.795 376.957 24.585 377.037 24.335C377.117 24.075 377.207 23.805 377.307 23.525L378.897 19.4H379.887ZM390.572 26H389.522L388.427 23.255H384.512L383.417 26H382.397L385.937 17.09H387.047L390.572 26ZM388.127 22.43L386.807 19.115C386.737 18.945 386.677 18.79 386.627 18.65C386.587 18.5 386.547 18.35 386.507 18.2H386.432C386.392 18.35 386.347 18.5 386.297 18.65C386.257 18.79 386.202 18.945 386.132 19.115L384.797 22.43H388.127ZM397.536 19.955C397.536 20.605 397.381 21.145 397.071 21.575C396.771 21.995 396.356 22.305 395.826 22.505C395.296 22.705 394.691 22.805 394.011 22.805H392.361V26H391.371V17.09H394.011C394.701 17.09 395.306 17.195 395.826 17.405C396.356 17.605 396.771 17.915 397.071 18.335C397.381 18.755 397.536 19.295 397.536 19.955ZM396.531 19.955C396.531 19.445 396.411 19.045 396.171 18.755C395.931 18.455 395.616 18.245 395.226 18.125C394.836 17.995 394.406 17.93 393.936 17.93H392.361V21.965H393.936C394.406 21.965 394.836 21.905 395.226 21.785C395.616 21.665 395.931 21.46 396.171 21.17C396.411 20.87 396.531 20.465 396.531 19.955ZM399.587 17.09V26H398.597V17.09H399.587ZM413.151 19.4L410.931 26H409.926L408.591 22.34C408.491 22.02 408.401 21.74 408.321 21.5C408.241 21.26 408.176 21.045 408.126 20.855H408.051C408.011 21.045 407.946 21.26 407.856 21.5C407.776 21.74 407.686 22.02 407.586 22.34L406.251 26H405.246L403.026 19.43L404.016 19.37L405.426 23.63C405.496 23.85 405.561 24.08 405.621 24.32C405.691 24.55 405.746 24.765 405.786 24.965H405.846C405.886 24.765 405.941 24.55 406.011 24.32C406.091 24.08 406.166 23.85 406.236 23.63L407.601 19.85H408.606L409.971 23.63C410.041 23.85 410.116 24.08 410.196 24.32C410.276 24.55 410.331 24.765 410.361 24.965H410.436C410.476 24.765 410.526 24.55 410.586 24.32C410.656 24.08 410.721 23.85 410.781 23.63L412.176 19.4H413.151ZM417.498 19.4L417.468 20.315C417.388 20.285 417.283 20.26 417.153 20.24C417.033 20.22 416.923 20.21 416.823 20.21C416.463 20.21 416.113 20.305 415.773 20.495C415.443 20.675 415.153 20.915 414.903 21.215V26H413.943V19.43L414.903 19.37V20.36C415.173 20.04 415.488 19.785 415.848 19.595C416.208 19.405 416.578 19.31 416.958 19.31C417.058 19.31 417.158 19.315 417.258 19.325C417.358 19.335 417.438 19.36 417.498 19.4ZM423.219 26H422.304V25.4C422.024 25.6 421.684 25.765 421.284 25.895C420.884 26.025 420.459 26.09 420.009 26.09C419.259 26.09 418.689 25.92 418.299 25.58C417.909 25.24 417.714 24.775 417.714 24.185C417.714 23.505 417.954 23.005 418.434 22.685C418.924 22.355 419.574 22.19 420.384 22.19C420.724 22.19 421.069 22.225 421.419 22.295C421.779 22.365 422.064 22.455 422.274 22.565V21.725C422.274 21.165 422.119 20.765 421.809 20.525C421.499 20.285 421.039 20.165 420.429 20.165C420.019 20.165 419.624 20.22 419.244 20.33C418.874 20.43 418.569 20.555 418.329 20.705L418.284 19.82C418.564 19.66 418.894 19.535 419.274 19.445C419.664 19.355 420.079 19.31 420.519 19.31C421.369 19.31 422.029 19.495 422.499 19.865C422.979 20.225 423.219 20.815 423.219 21.635V26ZM422.274 24.74V23.225C422.064 23.115 421.799 23.03 421.479 22.97C421.169 22.9 420.854 22.865 420.534 22.865C419.974 22.865 419.524 22.97 419.184 23.18C418.854 23.38 418.689 23.71 418.689 24.17C418.689 24.6 418.834 24.91 419.124 25.1C419.414 25.29 419.784 25.385 420.234 25.385C420.624 25.385 421.009 25.32 421.389 25.19C421.769 25.06 422.064 24.91 422.274 24.74ZM430.735 22.655C430.735 23.315 430.585 23.905 430.285 24.425C429.995 24.945 429.59 25.355 429.07 25.655C428.56 25.945 427.975 26.09 427.315 26.09C426.635 26.09 426.06 25.99 425.59 25.79V28.775H424.63V19.43L425.59 19.37V19.955C425.87 19.735 426.175 19.575 426.505 19.475C426.845 19.365 427.205 19.31 427.585 19.31C428.175 19.31 428.705 19.44 429.175 19.7C429.645 19.96 430.02 20.34 430.3 20.84C430.59 21.34 430.735 21.945 430.735 22.655ZM429.745 22.67C429.745 22.14 429.64 21.685 429.43 21.305C429.23 20.925 428.95 20.64 428.59 20.45C428.24 20.25 427.835 20.15 427.375 20.15C426.695 20.15 426.1 20.35 425.59 20.75V24.935C425.8 25.025 426.04 25.1 426.31 25.16C426.59 25.22 426.88 25.25 427.18 25.25C427.66 25.25 428.09 25.15 428.47 24.95C428.86 24.74 429.17 24.44 429.4 24.05C429.63 23.66 429.745 23.2 429.745 22.67ZM437.727 22.655C437.727 23.315 437.577 23.905 437.277 24.425C436.987 24.945 436.582 25.355 436.062 25.655C435.552 25.945 434.967 26.09 434.307 26.09C433.627 26.09 433.052 25.99 432.582 25.79V28.775H431.622V19.43L432.582 19.37V19.955C432.862 19.735 433.167 19.575 433.497 19.475C433.837 19.365 434.197 19.31 434.577 19.31C435.167 19.31 435.697 19.44 436.167 19.7C436.637 19.96 437.012 20.34 437.292 20.84C437.582 21.34 437.727 21.945 437.727 22.655ZM436.737 22.67C436.737 22.14 436.632 21.685 436.422 21.305C436.222 20.925 435.942 20.64 435.582 20.45C435.232 20.25 434.827 20.15 434.367 20.15C433.687 20.15 433.092 20.35 432.582 20.75V24.935C432.792 25.025 433.032 25.1 433.302 25.16C433.582 25.22 433.872 25.25 434.172 25.25C434.652 25.25 435.082 25.15 435.462 24.95C435.852 24.74 436.162 24.44 436.392 24.05C436.622 23.66 436.737 23.2 436.737 22.67ZM443.983 22.895H439.078C439.118 23.375 439.253 23.79 439.483 24.14C439.723 24.48 440.038 24.75 440.428 24.95C440.818 25.14 441.268 25.235 441.778 25.235C442.198 25.235 442.608 25.175 443.008 25.055C443.418 24.935 443.758 24.765 444.028 24.545L444.073 25.445C443.813 25.645 443.463 25.805 443.023 25.925C442.593 26.035 442.163 26.09 441.733 26.09C441.013 26.09 440.373 25.95 439.813 25.67C439.263 25.39 438.838 24.99 438.538 24.47C438.238 23.95 438.088 23.335 438.088 22.625C438.088 21.965 438.223 21.385 438.493 20.885C438.763 20.385 439.133 20 439.603 19.73C440.083 19.45 440.623 19.31 441.223 19.31C441.773 19.31 442.258 19.425 442.678 19.655C443.108 19.885 443.443 20.21 443.683 20.63C443.923 21.05 444.043 21.54 444.043 22.1C444.043 22.21 444.038 22.34 444.028 22.49C444.018 22.64 444.003 22.775 443.983 22.895ZM441.223 20.06C440.633 20.06 440.138 20.26 439.738 20.66C439.338 21.06 439.113 21.595 439.063 22.265H443.098C443.108 22.225 443.113 22.185 443.113 22.145C443.113 22.095 443.113 22.04 443.113 21.98C443.113 21.42 442.938 20.96 442.588 20.6C442.248 20.24 441.793 20.06 441.223 20.06ZM448.647 19.4L448.617 20.315C448.537 20.285 448.432 20.26 448.302 20.24C448.182 20.22 448.072 20.21 447.972 20.21C447.612 20.21 447.262 20.305 446.922 20.495C446.592 20.675 446.302 20.915 446.052 21.215V26H445.092V19.43L446.052 19.37V20.36C446.322 20.04 446.637 19.785 446.997 19.595C447.357 19.405 447.727 19.31 448.107 19.31C448.207 19.31 448.307 19.315 448.407 19.325C448.507 19.335 448.587 19.36 448.647 19.4ZM455.196 16.565L455.151 17.42C455.081 17.4 454.991 17.385 454.881 17.375C454.781 17.365 454.681 17.36 454.581 17.36C454.181 17.36 453.851 17.475 453.591 17.705C453.341 17.925 453.216 18.335 453.216 18.935V19.4H455.016L454.941 20.24H453.216V26H452.271V20.24H451.311V19.4H452.271V18.905C452.271 18.095 452.476 17.49 452.886 17.09C453.296 16.69 453.836 16.49 454.506 16.49C454.626 16.49 454.746 16.5 454.866 16.52C454.996 16.53 455.106 16.545 455.196 16.565ZM461.907 22.7C461.907 23.36 461.757 23.95 461.457 24.47C461.157 24.98 460.747 25.38 460.227 25.67C459.707 25.95 459.127 26.09 458.487 26.09C457.847 26.09 457.267 25.95 456.747 25.67C456.227 25.38 455.817 24.98 455.517 24.47C455.217 23.95 455.067 23.36 455.067 22.7C455.067 22.03 455.217 21.44 455.517 20.93C455.817 20.42 456.227 20.025 456.747 19.745C457.267 19.455 457.847 19.31 458.487 19.31C459.127 19.31 459.707 19.455 460.227 19.745C460.747 20.025 461.157 20.42 461.457 20.93C461.757 21.44 461.907 22.03 461.907 22.7ZM460.917 22.7C460.917 22.2 460.807 21.76 460.587 21.38C460.367 21 460.072 20.705 459.702 20.495C459.342 20.275 458.937 20.165 458.487 20.165C458.037 20.165 457.627 20.275 457.257 20.495C456.887 20.705 456.592 21 456.372 21.38C456.162 21.76 456.057 22.2 456.057 22.7C456.057 23.19 456.167 23.63 456.387 24.02C456.607 24.4 456.902 24.7 457.272 24.92C457.642 25.13 458.047 25.235 458.487 25.235C458.947 25.235 459.362 25.13 459.732 24.92C460.102 24.7 460.392 24.4 460.602 24.02C460.812 23.63 460.917 23.19 460.917 22.7ZM466.344 19.4L466.314 20.315C466.234 20.285 466.129 20.26 465.999 20.24C465.879 20.22 465.769 20.21 465.669 20.21C465.309 20.21 464.959 20.305 464.619 20.495C464.289 20.675 463.999 20.915 463.749 21.215V26H462.789V19.43L463.749 19.37V20.36C464.019 20.04 464.334 19.785 464.694 19.595C465.054 19.405 465.424 19.31 465.804 19.31C465.904 19.31 466.004 19.315 466.104 19.325C466.204 19.335 466.284 19.36 466.344 19.4ZM476.928 17.09V26H475.938V21.95H470.733V26H469.743V17.09H470.733V21.05H475.938V17.09H476.928ZM485.301 17.09L482.031 22.565V26H481.041V22.565L477.771 17.09H478.881L481.551 21.62L484.236 17.09H485.301ZM492.322 19.955C492.322 20.605 492.167 21.145 491.857 21.575C491.557 21.995 491.142 22.305 490.612 22.505C490.082 22.705 489.477 22.805 488.797 22.805H487.147V26H486.157V17.09H488.797C489.487 17.09 490.092 17.195 490.612 17.405C491.142 17.605 491.557 17.915 491.857 18.335C492.167 18.755 492.322 19.295 492.322 19.955ZM491.317 19.955C491.317 19.445 491.197 19.045 490.957 18.755C490.717 18.455 490.402 18.245 490.012 18.125C489.622 17.995 489.192 17.93 488.722 17.93H487.147V21.965H488.722C489.192 21.965 489.622 21.905 490.012 21.785C490.402 21.665 490.717 21.46 490.957 21.17C491.197 20.87 491.317 20.465 491.317 19.955ZM498.798 17.09L498.723 17.975H494.373V21.065H498.018V21.935H494.373V25.115H498.888V26H493.383V17.09H498.798ZM505.981 19.85C505.981 20.53 505.781 21.08 505.381 21.5C504.981 21.92 504.486 22.2 503.896 22.34L506.476 26H505.291L502.891 22.565H500.881V26H499.891V17.09H502.591C503.271 17.09 503.866 17.195 504.376 17.405C504.886 17.615 505.281 17.925 505.561 18.335C505.841 18.735 505.981 19.24 505.981 19.85ZM504.961 19.85C504.961 19.39 504.851 19.02 504.631 18.74C504.421 18.46 504.131 18.255 503.761 18.125C503.401 17.995 502.986 17.93 502.516 17.93H500.881V21.755H502.516C502.986 21.755 503.401 21.69 503.761 21.56C504.131 21.43 504.421 21.225 504.631 20.945C504.851 20.665 504.961 20.3 504.961 19.85ZM513.604 19.955C513.604 20.605 513.449 21.145 513.139 21.575C512.839 21.995 512.424 22.305 511.894 22.505C511.364 22.705 510.759 22.805 510.079 22.805H508.429V26H507.439V17.09H510.079C510.769 17.09 511.374 17.195 511.894 17.405C512.424 17.605 512.839 17.915 513.139 18.335C513.449 18.755 513.604 19.295 513.604 19.955ZM512.599 19.955C512.599 19.445 512.479 19.045 512.239 18.755C511.999 18.455 511.684 18.245 511.294 18.125C510.904 17.995 510.474 17.93 510.004 17.93H508.429V21.965H510.004C510.474 21.965 510.904 21.905 511.294 21.785C511.684 21.665 511.999 21.46 512.239 21.17C512.479 20.87 512.599 20.465 512.599 19.955ZM514.665 26V17.09H515.655V25.1H519.765L519.69 26H514.665ZM527.995 26H526.945L525.85 23.255H521.935L520.84 26H519.82L523.36 17.09H524.47L527.995 26ZM525.55 22.43L524.23 19.115C524.16 18.945 524.1 18.79 524.05 18.65C524.01 18.5 523.97 18.35 523.93 18.2H523.855C523.815 18.35 523.77 18.5 523.72 18.65C523.68 18.79 523.625 18.945 523.555 19.115L522.22 22.43H525.55ZM535.979 17.09V26H535.079L530.414 19.565C530.284 19.385 530.164 19.215 530.054 19.055C529.954 18.885 529.869 18.74 529.799 18.62H529.739V26H528.794V17.09H529.769L534.359 23.42C534.479 23.59 534.594 23.76 534.704 23.93C534.814 24.09 534.904 24.235 534.974 24.365H535.019V17.09H535.979ZM544.772 17.09V26H543.872L539.207 19.565C539.077 19.385 538.957 19.215 538.847 19.055C538.747 18.885 538.662 18.74 538.592 18.62H538.532V26H537.587V17.09H538.562L543.152 23.42C543.272 23.59 543.387 23.76 543.497 23.93C543.607 24.09 543.697 24.235 543.767 24.365H543.812V17.09H544.772ZM547.371 17.09V26H546.381V17.09H547.371ZM556.162 17.09V26H555.262L550.597 19.565C550.467 19.385 550.347 19.215 550.237 19.055C550.137 18.885 550.052 18.74 549.982 18.62H549.922V26H548.977V17.09H549.952L554.542 23.42C554.662 23.59 554.777 23.76 554.887 23.93C554.997 24.09 555.087 24.235 555.157 24.365H555.202V17.09H556.162ZM564.821 17.735L564.491 18.665C564.201 18.435 563.826 18.255 563.366 18.125C562.916 17.985 562.426 17.915 561.896 17.915C561.186 17.915 560.556 18.065 560.006 18.365C559.456 18.665 559.021 19.09 558.701 19.64C558.391 20.18 558.236 20.815 558.236 21.545C558.236 22.235 558.396 22.855 558.716 23.405C559.046 23.955 559.496 24.39 560.066 24.71C560.636 25.02 561.291 25.175 562.031 25.175C562.471 25.175 562.861 25.135 563.201 25.055C563.541 24.975 563.826 24.885 564.056 24.785V21.755L565.046 21.725V25.37C564.676 25.6 564.231 25.78 563.711 25.91C563.201 26.03 562.631 26.09 562.001 26.09C561.061 26.09 560.231 25.9 559.511 25.52C558.791 25.13 558.226 24.59 557.816 23.9C557.416 23.21 557.216 22.425 557.216 21.545C557.216 20.655 557.411 19.87 557.801 19.19C558.201 18.5 558.746 17.965 559.436 17.585C560.136 17.195 560.941 17 561.851 17C562.511 17 563.076 17.06 563.546 17.18C564.026 17.29 564.451 17.475 564.821 17.735Z" fill="white"/>
</svg>
