<svg width="581" height="43" viewBox="0 0 581 43" fill="none" xmlns="http://www.w3.org/2000/svg">
<rect width="581" height="43" rx="15" fill="#3E1C1A"/>
<path fill-rule="evenodd" clip-rule="evenodd" d="M25.0098 18.8346L14 18.835V13.123H25.0098V18.835H30.754V29.8771H25.0098V24.5471C22.093 24.5979 19.7442 26.9647 19.7442 29.8771H14C14 23.8103 18.9205 18.8862 25.0098 18.835V18.8346Z" fill="#FFA5A0"/>
<path d="M41.9179 12.024C42.4779 12.024 42.9352 12.2107 43.2899 12.584C43.6446 12.9387 43.8219 13.3867 43.8219 13.928C43.8219 14.488 43.6446 14.9547 43.2899 15.328C42.9352 15.6827 42.4779 15.86 41.9179 15.86C41.3392 15.86 40.8539 15.6827 40.4619 15.328C40.0886 14.9547 39.9019 14.488 39.9019 13.928C39.9019 13.3867 40.0886 12.9387 40.4619 12.584C40.8539 12.2107 41.3392 12.024 41.9179 12.024ZM43.6539 17.596V30H40.0699V17.764L43.6539 17.596ZM56.8323 13.368L56.5523 16.672H49.4403V20.004H55.2923V23.224H49.4403V26.696H56.9723V30H45.7163V13.368H56.8323ZM72.9148 13.368V30H69.7228L63.3948 21.124C63.1521 20.788 62.9188 20.452 62.6948 20.116C62.4894 19.7613 62.3028 19.4253 62.1348 19.108H61.9948V30H58.4388V13.368H62.0508L67.9588 21.684C68.2014 22.0013 68.4254 22.3373 68.6308 22.692C68.8548 23.028 69.0508 23.3547 69.2188 23.672H69.3588V13.368H72.9148ZM82.5722 30H78.8482V16.728H74.0882V13.368H87.4722L87.1922 16.728H82.5722V30Z" fill="#FFA5A0"/>
<path d="M406.91 26H405.995V25.4C405.715 25.6 405.375 25.765 404.975 25.895C404.575 26.025 404.15 26.09 403.7 26.09C402.95 26.09 402.38 25.92 401.99 25.58C401.6 25.24 401.405 24.775 401.405 24.185C401.405 23.505 401.645 23.005 402.125 22.685C402.615 22.355 403.265 22.19 404.075 22.19C404.415 22.19 404.76 22.225 405.11 22.295C405.47 22.365 405.755 22.455 405.965 22.565V21.725C405.965 21.165 405.81 20.765 405.5 20.525C405.19 20.285 404.73 20.165 404.12 20.165C403.71 20.165 403.315 20.22 402.935 20.33C402.565 20.43 402.26 20.555 402.02 20.705L401.975 19.82C402.255 19.66 402.585 19.535 402.965 19.445C403.355 19.355 403.77 19.31 404.21 19.31C405.06 19.31 405.72 19.495 406.19 19.865C406.67 20.225 406.91 20.815 406.91 21.635V26ZM405.965 24.74V23.225C405.755 23.115 405.49 23.03 405.17 22.97C404.86 22.9 404.545 22.865 404.225 22.865C403.665 22.865 403.215 22.97 402.875 23.18C402.545 23.38 402.38 23.71 402.38 24.17C402.38 24.6 402.525 24.91 402.815 25.1C403.105 25.29 403.475 25.385 403.925 25.385C404.315 25.385 404.7 25.32 405.08 25.19C405.46 25.06 405.755 24.91 405.965 24.74ZM414.006 26H413.061V21.86C413.061 21.29 412.921 20.87 412.641 20.6C412.361 20.32 411.961 20.18 411.441 20.18C411.081 20.18 410.716 20.255 410.346 20.405C409.976 20.545 409.621 20.735 409.281 20.975V26H408.321V19.43L409.281 19.37V20.18C409.681 19.88 410.081 19.66 410.481 19.52C410.891 19.38 411.291 19.31 411.681 19.31C412.411 19.31 412.981 19.5 413.391 19.88C413.801 20.25 414.006 20.84 414.006 21.65V26ZM422.962 26H422.047V25.4C421.767 25.6 421.427 25.765 421.027 25.895C420.627 26.025 420.202 26.09 419.752 26.09C419.002 26.09 418.432 25.92 418.042 25.58C417.652 25.24 417.457 24.775 417.457 24.185C417.457 23.505 417.697 23.005 418.177 22.685C418.667 22.355 419.317 22.19 420.127 22.19C420.467 22.19 420.812 22.225 421.162 22.295C421.522 22.365 421.807 22.455 422.017 22.565V21.725C422.017 21.165 421.862 20.765 421.552 20.525C421.242 20.285 420.782 20.165 420.172 20.165C419.762 20.165 419.367 20.22 418.987 20.33C418.617 20.43 418.312 20.555 418.072 20.705L418.027 19.82C418.307 19.66 418.637 19.535 419.017 19.445C419.407 19.355 419.822 19.31 420.262 19.31C421.112 19.31 421.772 19.495 422.242 19.865C422.722 20.225 422.962 20.815 422.962 21.635V26ZM422.017 24.74V23.225C421.807 23.115 421.542 23.03 421.222 22.97C420.912 22.9 420.597 22.865 420.277 22.865C419.717 22.865 419.267 22.97 418.927 23.18C418.597 23.38 418.432 23.71 418.432 24.17C418.432 24.6 418.577 24.91 418.867 25.1C419.157 25.29 419.527 25.385 419.977 25.385C420.367 25.385 420.752 25.32 421.132 25.19C421.512 25.06 421.807 24.91 422.017 24.74ZM433.722 19.4L431.502 26H430.497L429.162 22.34C429.062 22.02 428.972 21.74 428.892 21.5C428.812 21.26 428.747 21.045 428.697 20.855H428.622C428.582 21.045 428.517 21.26 428.427 21.5C428.347 21.74 428.257 22.02 428.157 22.34L426.822 26H425.817L423.597 19.43L424.587 19.37L425.997 23.63C426.067 23.85 426.132 24.08 426.192 24.32C426.262 24.55 426.317 24.765 426.357 24.965H426.417C426.457 24.765 426.512 24.55 426.582 24.32C426.662 24.08 426.737 23.85 426.807 23.63L428.172 19.85H429.177L430.542 23.63C430.612 23.85 430.687 24.08 430.767 24.32C430.847 24.55 430.902 24.765 430.932 24.965H431.007C431.047 24.765 431.097 24.55 431.157 24.32C431.227 24.08 431.292 23.85 431.352 23.63L432.747 19.4H433.722ZM444.519 26H443.559V21.86C443.559 21.72 443.544 21.59 443.514 21.47C443.494 21.34 443.469 21.23 443.439 21.14C443.339 20.8 443.169 20.555 442.929 20.405C442.689 20.255 442.384 20.18 442.014 20.18C441.964 20.18 441.914 20.185 441.864 20.195C441.814 20.195 441.764 20.195 441.714 20.195C441.424 20.225 441.124 20.31 440.814 20.45C440.514 20.58 440.209 20.755 439.899 20.975C439.929 21.095 439.949 21.22 439.959 21.35C439.979 21.47 439.989 21.6 439.989 21.74V26H439.029V21.86C439.029 21.72 439.019 21.59 438.999 21.47C438.979 21.34 438.949 21.23 438.909 21.14C438.819 20.8 438.654 20.555 438.414 20.405C438.174 20.255 437.869 20.18 437.499 20.18C437.169 20.18 436.829 20.255 436.479 20.405C436.139 20.545 435.804 20.735 435.474 20.975V26H434.514V19.43L435.474 19.37V20.18C435.844 19.9 436.199 19.695 436.539 19.565C436.889 19.425 437.219 19.35 437.529 19.34C437.859 19.32 438.174 19.35 438.474 19.43C438.754 19.49 438.999 19.595 439.209 19.745C439.419 19.885 439.584 20.08 439.704 20.33C440.154 19.96 440.594 19.7 441.024 19.55C441.454 19.39 441.859 19.31 442.239 19.31C442.939 19.31 443.494 19.5 443.904 19.88C444.314 20.25 444.519 20.84 444.519 21.65V26ZM450.909 26H449.994V25.4C449.714 25.6 449.374 25.765 448.974 25.895C448.574 26.025 448.149 26.09 447.699 26.09C446.949 26.09 446.379 25.92 445.989 25.58C445.599 25.24 445.404 24.775 445.404 24.185C445.404 23.505 445.644 23.005 446.124 22.685C446.614 22.355 447.264 22.19 448.074 22.19C448.414 22.19 448.759 22.225 449.109 22.295C449.469 22.365 449.754 22.455 449.964 22.565V21.725C449.964 21.165 449.809 20.765 449.499 20.525C449.189 20.285 448.729 20.165 448.119 20.165C447.709 20.165 447.314 20.22 446.934 20.33C446.564 20.43 446.259 20.555 446.019 20.705L445.974 19.82C446.254 19.66 446.584 19.535 446.964 19.445C447.354 19.355 447.769 19.31 448.209 19.31C449.059 19.31 449.719 19.495 450.189 19.865C450.669 20.225 450.909 20.815 450.909 21.635V26ZM449.964 24.74V23.225C449.754 23.115 449.489 23.03 449.169 22.97C448.859 22.9 448.544 22.865 448.224 22.865C447.664 22.865 447.214 22.97 446.874 23.18C446.544 23.38 446.379 23.71 446.379 24.17C446.379 24.6 446.524 24.91 446.814 25.1C447.104 25.29 447.474 25.385 447.924 25.385C448.314 25.385 448.699 25.32 449.079 25.19C449.459 25.06 449.754 24.91 449.964 24.74ZM451.753 26V25.175L455.893 20.24H451.933V19.4H457.048V20.225L452.908 25.16H457.228V26H451.753ZM458.679 16.64C458.849 16.64 458.994 16.7 459.114 16.82C459.234 16.94 459.294 17.085 459.294 17.255C459.294 17.435 459.234 17.585 459.114 17.705C458.994 17.825 458.849 17.885 458.679 17.885C458.499 17.885 458.344 17.825 458.214 17.705C458.094 17.585 458.034 17.435 458.034 17.255C458.034 17.085 458.094 16.94 458.214 16.82C458.344 16.7 458.499 16.64 458.679 16.64ZM459.144 19.37V26H458.184V19.43L459.144 19.37ZM466.246 26H465.301V21.86C465.301 21.29 465.161 20.87 464.881 20.6C464.601 20.32 464.201 20.18 463.681 20.18C463.321 20.18 462.956 20.255 462.586 20.405C462.216 20.545 461.861 20.735 461.521 20.975V26H460.561V19.43L461.521 19.37V20.18C461.921 19.88 462.321 19.66 462.721 19.52C463.131 19.38 463.531 19.31 463.921 19.31C464.651 19.31 465.221 19.5 465.631 19.88C466.041 20.25 466.246 20.84 466.246 21.65V26ZM473.144 19.25L473.114 20.09H471.749C471.969 20.27 472.144 20.49 472.274 20.75C472.414 21.01 472.484 21.29 472.484 21.59C472.484 22.21 472.269 22.73 471.839 23.15C471.419 23.57 470.844 23.805 470.114 23.855L469.004 25.04C469.104 25.02 469.244 25.005 469.424 24.995C469.604 24.975 469.784 24.96 469.964 24.95C470.154 24.94 470.304 24.935 470.414 24.935C471.354 24.935 472.064 25.09 472.544 25.4C473.034 25.71 473.279 26.185 473.279 26.825C473.279 27.415 473.019 27.9 472.499 28.28C471.989 28.67 471.164 28.865 470.024 28.865C469.414 28.865 468.819 28.8 468.239 28.67C467.669 28.55 467.209 28.385 466.859 28.175L466.949 27.29C467.179 27.43 467.459 27.555 467.789 27.665C468.119 27.785 468.479 27.88 468.869 27.95C469.269 28.02 469.664 28.055 470.054 28.055C470.644 28.055 471.104 28 471.434 27.89C471.764 27.78 471.999 27.63 472.139 27.44C472.279 27.26 472.349 27.06 472.349 26.84C472.349 26.43 472.179 26.145 471.839 25.985C471.509 25.815 470.979 25.73 470.249 25.73C469.919 25.73 469.549 25.745 469.139 25.775C468.739 25.805 468.409 25.85 468.149 25.91V25.145L469.409 23.84C468.729 23.77 468.194 23.525 467.804 23.105C467.414 22.675 467.219 22.17 467.219 21.59C467.219 21.15 467.324 20.76 467.534 20.42C467.754 20.07 468.059 19.8 468.449 19.61C468.849 19.41 469.314 19.31 469.844 19.31C470.194 19.31 470.509 19.355 470.789 19.445L473.144 19.25ZM471.569 21.59C471.569 21.14 471.414 20.77 471.104 20.48C470.794 20.18 470.374 20.03 469.844 20.03C469.324 20.03 468.909 20.175 468.599 20.465C468.289 20.755 468.134 21.13 468.134 21.59C468.134 22.04 468.289 22.41 468.599 22.7C468.909 22.99 469.324 23.135 469.844 23.135C470.374 23.135 470.794 22.995 471.104 22.715C471.414 22.425 471.569 22.05 471.569 21.59ZM485.962 19.4L483.742 26H482.737L481.402 22.34C481.302 22.02 481.212 21.74 481.132 21.5C481.052 21.26 480.987 21.045 480.937 20.855H480.862C480.822 21.045 480.757 21.26 480.667 21.5C480.587 21.74 480.497 22.02 480.397 22.34L479.062 26H478.057L475.837 19.43L476.827 19.37L478.237 23.63C478.307 23.85 478.372 24.08 478.432 24.32C478.502 24.55 478.557 24.765 478.597 24.965H478.657C478.697 24.765 478.752 24.55 478.822 24.32C478.902 24.08 478.977 23.85 479.047 23.63L480.412 19.85H481.417L482.782 23.63C482.852 23.85 482.927 24.08 483.007 24.32C483.087 24.55 483.142 24.765 483.172 24.965H483.247C483.287 24.765 483.337 24.55 483.397 24.32C483.467 24.08 483.532 23.85 483.592 23.63L484.987 19.4H485.962ZM490.309 19.4L490.279 20.315C490.199 20.285 490.094 20.26 489.964 20.24C489.844 20.22 489.734 20.21 489.634 20.21C489.274 20.21 488.924 20.305 488.584 20.495C488.254 20.675 487.964 20.915 487.714 21.215V26H486.754V19.43L487.714 19.37V20.36C487.984 20.04 488.299 19.785 488.659 19.595C489.019 19.405 489.389 19.31 489.769 19.31C489.869 19.31 489.969 19.315 490.069 19.325C490.169 19.335 490.249 19.36 490.309 19.4ZM496.03 26H495.115V25.4C494.835 25.6 494.495 25.765 494.095 25.895C493.695 26.025 493.27 26.09 492.82 26.09C492.07 26.09 491.5 25.92 491.11 25.58C490.72 25.24 490.525 24.775 490.525 24.185C490.525 23.505 490.765 23.005 491.245 22.685C491.735 22.355 492.385 22.19 493.195 22.19C493.535 22.19 493.88 22.225 494.23 22.295C494.59 22.365 494.875 22.455 495.085 22.565V21.725C495.085 21.165 494.93 20.765 494.62 20.525C494.31 20.285 493.85 20.165 493.24 20.165C492.83 20.165 492.435 20.22 492.055 20.33C491.685 20.43 491.38 20.555 491.14 20.705L491.095 19.82C491.375 19.66 491.705 19.535 492.085 19.445C492.475 19.355 492.89 19.31 493.33 19.31C494.18 19.31 494.84 19.495 495.31 19.865C495.79 20.225 496.03 20.815 496.03 21.635V26ZM495.085 24.74V23.225C494.875 23.115 494.61 23.03 494.29 22.97C493.98 22.9 493.665 22.865 493.345 22.865C492.785 22.865 492.335 22.97 491.995 23.18C491.665 23.38 491.5 23.71 491.5 24.17C491.5 24.6 491.645 24.91 491.935 25.1C492.225 25.29 492.595 25.385 493.045 25.385C493.435 25.385 493.82 25.32 494.2 25.19C494.58 25.06 494.875 24.91 495.085 24.74ZM503.546 22.655C503.546 23.315 503.396 23.905 503.096 24.425C502.806 24.945 502.401 25.355 501.881 25.655C501.371 25.945 500.786 26.09 500.126 26.09C499.446 26.09 498.871 25.99 498.401 25.79V28.775H497.441V19.43L498.401 19.37V19.955C498.681 19.735 498.986 19.575 499.316 19.475C499.656 19.365 500.016 19.31 500.396 19.31C500.986 19.31 501.516 19.44 501.986 19.7C502.456 19.96 502.831 20.34 503.111 20.84C503.401 21.34 503.546 21.945 503.546 22.655ZM502.556 22.67C502.556 22.14 502.451 21.685 502.241 21.305C502.041 20.925 501.761 20.64 501.401 20.45C501.051 20.25 500.646 20.15 500.186 20.15C499.506 20.15 498.911 20.35 498.401 20.75V24.935C498.611 25.025 498.851 25.1 499.121 25.16C499.401 25.22 499.691 25.25 499.991 25.25C500.471 25.25 500.901 25.15 501.281 24.95C501.671 24.74 501.981 24.44 502.211 24.05C502.441 23.66 502.556 23.2 502.556 22.67ZM510.537 22.655C510.537 23.315 510.387 23.905 510.087 24.425C509.797 24.945 509.392 25.355 508.872 25.655C508.362 25.945 507.777 26.09 507.117 26.09C506.437 26.09 505.862 25.99 505.392 25.79V28.775H504.432V19.43L505.392 19.37V19.955C505.672 19.735 505.977 19.575 506.307 19.475C506.647 19.365 507.007 19.31 507.387 19.31C507.977 19.31 508.507 19.44 508.977 19.7C509.447 19.96 509.822 20.34 510.102 20.84C510.392 21.34 510.537 21.945 510.537 22.655ZM509.547 22.67C509.547 22.14 509.442 21.685 509.232 21.305C509.032 20.925 508.752 20.64 508.392 20.45C508.042 20.25 507.637 20.15 507.177 20.15C506.497 20.15 505.902 20.35 505.392 20.75V24.935C505.602 25.025 505.842 25.1 506.112 25.16C506.392 25.22 506.682 25.25 506.982 25.25C507.462 25.25 507.892 25.15 508.272 24.95C508.662 24.74 508.972 24.44 509.202 24.05C509.432 23.66 509.547 23.2 509.547 22.67ZM516.794 22.895H511.889C511.929 23.375 512.064 23.79 512.294 24.14C512.534 24.48 512.849 24.75 513.239 24.95C513.629 25.14 514.079 25.235 514.589 25.235C515.009 25.235 515.419 25.175 515.819 25.055C516.229 24.935 516.569 24.765 516.839 24.545L516.884 25.445C516.624 25.645 516.274 25.805 515.834 25.925C515.404 26.035 514.974 26.09 514.544 26.09C513.824 26.09 513.184 25.95 512.624 25.67C512.074 25.39 511.649 24.99 511.349 24.47C511.049 23.95 510.899 23.335 510.899 22.625C510.899 21.965 511.034 21.385 511.304 20.885C511.574 20.385 511.944 20 512.414 19.73C512.894 19.45 513.434 19.31 514.034 19.31C514.584 19.31 515.069 19.425 515.489 19.655C515.919 19.885 516.254 20.21 516.494 20.63C516.734 21.05 516.854 21.54 516.854 22.1C516.854 22.21 516.849 22.34 516.839 22.49C516.829 22.64 516.814 22.775 516.794 22.895ZM514.034 20.06C513.444 20.06 512.949 20.26 512.549 20.66C512.149 21.06 511.924 21.595 511.874 22.265H515.909C515.919 22.225 515.924 22.185 515.924 22.145C515.924 22.095 515.924 22.04 515.924 21.98C515.924 21.42 515.749 20.96 515.399 20.6C515.059 20.24 514.604 20.06 514.034 20.06ZM521.457 19.4L521.427 20.315C521.347 20.285 521.242 20.26 521.112 20.24C520.992 20.22 520.882 20.21 520.782 20.21C520.422 20.21 520.072 20.305 519.732 20.495C519.402 20.675 519.112 20.915 518.862 21.215V26H517.902V19.43L518.862 19.37V20.36C519.132 20.04 519.447 19.785 519.807 19.595C520.167 19.405 520.537 19.31 520.917 19.31C521.017 19.31 521.117 19.315 521.217 19.325C521.317 19.335 521.397 19.36 521.457 19.4ZM528.006 16.565L527.961 17.42C527.891 17.4 527.801 17.385 527.691 17.375C527.591 17.365 527.491 17.36 527.391 17.36C526.991 17.36 526.661 17.475 526.401 17.705C526.151 17.925 526.026 18.335 526.026 18.935V19.4H527.826L527.751 20.24H526.026V26H525.081V20.24H524.121V19.4H525.081V18.905C525.081 18.095 525.286 17.49 525.696 17.09C526.106 16.69 526.646 16.49 527.316 16.49C527.436 16.49 527.556 16.5 527.676 16.52C527.806 16.53 527.916 16.545 528.006 16.565ZM534.718 22.7C534.718 23.36 534.568 23.95 534.268 24.47C533.968 24.98 533.558 25.38 533.038 25.67C532.518 25.95 531.938 26.09 531.298 26.09C530.658 26.09 530.078 25.95 529.558 25.67C529.038 25.38 528.628 24.98 528.328 24.47C528.028 23.95 527.878 23.36 527.878 22.7C527.878 22.03 528.028 21.44 528.328 20.93C528.628 20.42 529.038 20.025 529.558 19.745C530.078 19.455 530.658 19.31 531.298 19.31C531.938 19.31 532.518 19.455 533.038 19.745C533.558 20.025 533.968 20.42 534.268 20.93C534.568 21.44 534.718 22.03 534.718 22.7ZM533.728 22.7C533.728 22.2 533.618 21.76 533.398 21.38C533.178 21 532.883 20.705 532.513 20.495C532.153 20.275 531.748 20.165 531.298 20.165C530.848 20.165 530.438 20.275 530.068 20.495C529.698 20.705 529.403 21 529.183 21.38C528.973 21.76 528.868 22.2 528.868 22.7C528.868 23.19 528.978 23.63 529.198 24.02C529.418 24.4 529.713 24.7 530.083 24.92C530.453 25.13 530.858 25.235 531.298 25.235C531.758 25.235 532.173 25.13 532.543 24.92C532.913 24.7 533.203 24.4 533.413 24.02C533.623 23.63 533.728 23.19 533.728 22.7ZM539.154 19.4L539.124 20.315C539.044 20.285 538.939 20.26 538.809 20.24C538.689 20.22 538.579 20.21 538.479 20.21C538.119 20.21 537.769 20.305 537.429 20.495C537.099 20.675 536.809 20.915 536.559 21.215V26H535.599V19.43L536.559 19.37V20.36C536.829 20.04 537.144 19.785 537.504 19.595C537.864 19.405 538.234 19.31 538.614 19.31C538.714 19.31 538.814 19.315 538.914 19.325C539.014 19.335 539.094 19.36 539.154 19.4ZM542.943 16.64C543.113 16.64 543.258 16.7 543.378 16.82C543.498 16.94 543.558 17.085 543.558 17.255C543.558 17.435 543.498 17.585 543.378 17.705C543.258 17.825 543.113 17.885 542.943 17.885C542.763 17.885 542.608 17.825 542.478 17.705C542.358 17.585 542.298 17.435 542.298 17.255C542.298 17.085 542.358 16.94 542.478 16.82C542.608 16.7 542.763 16.64 542.943 16.64ZM543.408 19.37V26H542.448V19.43L543.408 19.37ZM550.346 17.09L550.271 17.975H545.921V21.065H549.566V21.935H545.921V25.115H550.436V26H544.931V17.09H550.346ZM558.624 17.09V26H557.724L553.059 19.565C552.929 19.385 552.809 19.215 552.699 19.055C552.599 18.885 552.514 18.74 552.444 18.62H552.384V26H551.439V17.09H552.414L557.004 23.42C557.124 23.59 557.239 23.76 557.349 23.93C557.459 24.09 557.549 24.235 557.619 24.365H557.664V17.09H558.624ZM563.457 26H562.467V17.99H559.572V17.09H566.397L566.322 17.99H563.457V26Z" fill="white"/>
</svg>
