<svg width="581" height="38" viewBox="0 0 581 38" fill="none" xmlns="http://www.w3.org/2000/svg">
<path d="M19.72 10.94C20.9333 10.94 22.0067 11.2067 22.94 11.74C23.8733 12.2733 24.6067 13 25.14 13.92C25.6733 14.8267 25.94 15.8733 25.94 17.06C25.94 18.2333 25.6733 19.28 25.14 20.2C24.6067 21.12 23.8733 21.8467 22.94 22.38C22.0067 22.9133 20.9333 23.18 19.72 23.18C18.52 23.18 17.4533 22.9133 16.52 22.38C15.5867 21.8467 14.8467 21.12 14.3 20.2C13.7667 19.28 13.5 18.2333 13.5 17.06C13.5 15.8733 13.7667 14.8267 14.3 13.92C14.8467 13 15.5867 12.2733 16.52 11.74C17.4533 11.2067 18.52 10.94 19.72 10.94ZM19.72 20.8C20.4 20.8 21 20.64 21.52 20.32C22.04 20 22.4467 19.56 22.74 19C23.0333 18.4267 23.18 17.78 23.18 17.06C23.18 16.34 23.0333 15.7 22.74 15.14C22.4467 14.58 22.04 14.14 21.52 13.82C21 13.4867 20.4 13.32 19.72 13.32C19.0533 13.32 18.4533 13.48 17.92 13.8C17.4 14.12 16.9933 14.56 16.7 15.12C16.4067 15.68 16.26 16.3267 16.26 17.06C16.26 17.7667 16.4067 18.4067 16.7 18.98C16.9933 19.54 17.4 19.9867 17.92 20.32C18.4533 20.64 19.0533 20.8 19.72 20.8ZM35.037 14.14V23H32.477V22.26C32.0637 22.58 31.6437 22.8133 31.217 22.96C30.7904 23.1067 30.3304 23.18 29.837 23.18C28.9304 23.18 28.197 22.9267 27.637 22.42C27.077 21.9 26.797 21.0933 26.797 20V14.26L29.357 14.14V19.46C29.357 19.98 29.4837 20.3533 29.737 20.58C29.9904 20.8067 30.337 20.92 30.777 20.92C31.0704 20.92 31.3637 20.8733 31.657 20.78C31.9504 20.6733 32.2237 20.54 32.477 20.38V14.26L35.037 14.14ZM41.9337 14.12L41.8337 16.58C41.7537 16.54 41.6137 16.5 41.4137 16.46C41.2271 16.42 41.0471 16.4 40.8737 16.4C40.5137 16.4 40.1604 16.4667 39.8137 16.6C39.4804 16.72 39.1737 16.8867 38.8937 17.1V23H36.3337V14.26L38.8937 14.14V15.18C39.2804 14.78 39.6737 14.4867 40.0737 14.3C40.4871 14.1133 40.9137 14.02 41.3537 14.02C41.4471 14.02 41.5471 14.0267 41.6537 14.04C41.7737 14.0533 41.8671 14.08 41.9337 14.12ZM59.595 14.2L56.995 23H54.275L53.235 19.9C53.0483 19.26 52.895 18.7467 52.775 18.36C52.655 17.96 52.555 17.5933 52.475 17.26H52.375C52.3083 17.5933 52.2083 17.96 52.075 18.36C51.955 18.7467 51.8017 19.26 51.615 19.9L50.575 23H47.855L45.255 14.26L47.835 14.14L49.015 18.34C49.0817 18.62 49.1483 18.9533 49.215 19.34C49.295 19.7133 49.355 20.06 49.395 20.38H49.495C49.535 20.06 49.6017 19.7133 49.695 19.34C49.7883 18.9533 49.875 18.62 49.955 18.34L51.115 14.86H53.835L54.995 18.34C55.075 18.62 55.1617 18.9533 55.255 19.34C55.3483 19.7133 55.415 20.06 55.455 20.38H55.555C55.595 20.06 55.6483 19.7133 55.715 19.34C55.795 18.9533 55.8683 18.62 55.935 18.34L57.075 14.2H59.595ZM69.1002 18.6C69.1002 19.48 68.8935 20.2667 68.4802 20.96C68.0802 21.6533 67.5202 22.2 66.8002 22.6C66.0802 22.9867 65.2602 23.18 64.3402 23.18C63.4202 23.18 62.6002 22.9867 61.8802 22.6C61.1602 22.2 60.5935 21.6533 60.1802 20.96C59.7802 20.2667 59.5802 19.48 59.5802 18.6C59.5802 17.7067 59.7802 16.92 60.1802 16.24C60.5935 15.5467 61.1602 15.0067 61.8802 14.62C62.6002 14.22 63.4202 14.02 64.3402 14.02C65.2602 14.02 66.0802 14.22 66.8002 14.62C67.5202 15.0067 68.0802 15.5467 68.4802 16.24C68.8935 16.92 69.1002 17.7067 69.1002 18.6ZM66.4602 18.6C66.4602 18.1333 66.3668 17.7267 66.1802 17.38C65.9935 17.02 65.7402 16.7467 65.4202 16.56C65.1002 16.36 64.7402 16.26 64.3402 16.26C63.9402 16.26 63.5802 16.36 63.2602 16.56C62.9402 16.7467 62.6868 17.02 62.5002 17.38C62.3135 17.7267 62.2202 18.1333 62.2202 18.6C62.2202 19.0667 62.3135 19.48 62.5002 19.84C62.6868 20.1867 62.9402 20.46 63.2602 20.66C63.5935 20.8467 63.9535 20.94 64.3402 20.94C64.7535 20.94 65.1202 20.8467 65.4402 20.66C65.7602 20.46 66.0068 20.1867 66.1802 19.84C66.3668 19.48 66.4602 19.0667 66.4602 18.6ZM75.4517 14.12L75.3517 16.58C75.2717 16.54 75.1317 16.5 74.9317 16.46C74.7451 16.42 74.5651 16.4 74.3917 16.4C74.0317 16.4 73.6784 16.4667 73.3317 16.6C72.9984 16.72 72.6917 16.8867 72.4117 17.1V23H69.8517V14.26L72.4117 14.14V15.18C72.7984 14.78 73.1917 14.4867 73.5917 14.3C74.0051 14.1133 74.4317 14.02 74.8717 14.02C74.9651 14.02 75.0651 14.0267 75.1717 14.04C75.2917 14.0533 75.3851 14.08 75.4517 14.12ZM84.6891 14.26L81.5891 17.86L84.8491 23H81.9091L79.6291 19.64L78.5891 20.84V23H76.0291V10.44L78.5891 10.32V18.42H78.6891C78.8357 18.1267 79.0291 17.8 79.2691 17.44C79.5091 17.0667 79.7957 16.6667 80.1291 16.24L81.9491 14.14L84.6891 14.26Z" fill="black"/>
</svg>
