<svg width="581" height="43" viewBox="0 0 581 43" fill="none" xmlns="http://www.w3.org/2000/svg">
<rect width="581" height="43" rx="15" fill="#3E2B1A"/>
<path fill-rule="evenodd" clip-rule="evenodd" d="M25.0098 18.8346L14 18.835V13.123H25.0098V18.835H30.754V29.8771H25.0098V24.5471C22.093 24.5979 19.7442 26.9647 19.7442 29.8771H14C14 23.8103 18.9205 18.8862 25.0098 18.835V18.8346Z" fill="#FFCCA0"/>
<path d="M58.2699 13.368V30H54.5459V19.808H54.4059C54.3312 20.1813 54.2286 20.5547 54.0979 20.928C53.9672 21.3013 53.7992 21.712 53.5939 22.16L50.9619 27.62H47.4619L44.8299 22.16C44.6432 21.7493 44.4846 21.348 44.3539 20.956C44.2232 20.564 44.1112 20.1813 44.0179 19.808H43.8779V30H40.3219V13.368H44.2699L48.2459 21.712C48.4326 22.1227 48.6192 22.5613 48.8059 23.028C48.9926 23.476 49.1326 23.868 49.2259 24.204H49.3659C49.4592 23.868 49.5992 23.4667 49.7859 23C49.9726 22.5333 50.1592 22.104 50.3459 21.712L54.2939 13.368H58.2699ZM71.2319 24.708H63.3359C63.4479 25.212 63.6719 25.6507 64.0079 26.024C64.3626 26.3787 64.8106 26.6493 65.3519 26.836C65.9119 27.0227 66.5653 27.116 67.3119 27.116C67.9466 27.116 68.6279 27.032 69.3559 26.864C70.0839 26.6773 70.6813 26.444 71.1479 26.164L71.2879 29.216C70.8026 29.552 70.1493 29.8133 69.3279 30C68.5253 30.168 67.7693 30.252 67.0599 30.252C65.4733 30.252 64.1106 29.9907 62.9719 29.468C61.8519 28.9267 61.0026 28.1707 60.4239 27.2C59.8639 26.2293 59.5839 25.0907 59.5839 23.784C59.5839 22.496 59.8453 21.3853 60.3679 20.452C60.9093 19.5 61.6466 18.7627 62.5799 18.24C63.5319 17.6987 64.5959 17.428 65.7719 17.428C66.8546 17.428 67.8159 17.6427 68.6559 18.072C69.5146 18.5013 70.1773 19.1267 70.6439 19.948C71.1293 20.7507 71.3719 21.7213 71.3719 22.86C71.3719 23.1027 71.3533 23.4013 71.3159 23.756C71.2973 24.092 71.2693 24.4093 71.2319 24.708ZM65.7999 20.004C65.0719 20.004 64.4746 20.2467 64.0079 20.732C63.5599 21.2173 63.2893 21.8613 63.1959 22.664H68.0399C68.0399 22.6267 68.0399 22.5707 68.0399 22.496C68.0399 22.4027 68.0399 22.3373 68.0399 22.3C68.0399 21.6093 67.8346 21.0587 67.4239 20.648C67.0319 20.2187 66.4906 20.004 65.7999 20.004ZM85.2243 23.84C85.2243 25.072 84.9349 26.1733 84.3563 27.144C83.7963 28.1147 83.0123 28.88 82.0043 29.44C80.9963 29.9813 79.8483 30.252 78.5603 30.252C77.2723 30.252 76.1243 29.9813 75.1163 29.44C74.1083 28.88 73.3149 28.1147 72.7363 27.144C72.1763 26.1733 71.8963 25.072 71.8963 23.84C71.8963 22.5893 72.1763 21.488 72.7363 20.536C73.3149 19.5653 74.1083 18.8093 75.1163 18.268C76.1243 17.708 77.2723 17.428 78.5603 17.428C79.8483 17.428 80.9963 17.708 82.0043 18.268C83.0123 18.8093 83.7963 19.5653 84.3563 20.536C84.9349 21.488 85.2243 22.5893 85.2243 23.84ZM81.5283 23.84C81.5283 23.1867 81.3976 22.6173 81.1363 22.132C80.8749 21.628 80.5203 21.2453 80.0723 20.984C79.6243 20.704 79.1203 20.564 78.5603 20.564C78.0003 20.564 77.4963 20.704 77.0483 20.984C76.6003 21.2453 76.2456 21.628 75.9843 22.132C75.7229 22.6173 75.5923 23.1867 75.5923 23.84C75.5923 24.4933 75.7229 25.072 75.9843 25.576C76.2456 26.0613 76.6003 26.444 77.0483 26.724C77.5149 26.9853 78.0189 27.116 78.5603 27.116C79.1389 27.116 79.6523 26.9853 80.1003 26.724C80.5483 26.444 80.8936 26.0613 81.1363 25.576C81.3976 25.072 81.5283 24.4933 81.5283 23.84ZM105.319 17.68L101.679 30H97.8711L96.4151 25.66C96.1538 24.764 95.9391 24.0453 95.7711 23.504C95.6031 22.944 95.4631 22.4307 95.3511 21.964H95.2111C95.1178 22.4307 94.9778 22.944 94.7911 23.504C94.6231 24.0453 94.4084 24.764 94.1471 25.66L92.6911 30H88.8831L85.2431 17.764L88.8551 17.596L90.5071 23.476C90.6004 23.868 90.6938 24.3347 90.7871 24.876C90.8991 25.3987 90.9831 25.884 91.0391 26.332H91.1791C91.2351 25.884 91.3284 25.3987 91.4591 24.876C91.5898 24.3347 91.7111 23.868 91.8231 23.476L93.4471 18.604H97.2551L98.8791 23.476C98.9911 23.868 99.1124 24.3347 99.2431 24.876C99.3738 25.3987 99.4671 25.884 99.5231 26.332H99.6631C99.7191 25.884 99.7938 25.3987 99.8871 24.876C99.9991 24.3347 100.102 23.868 100.195 23.476L101.791 17.68H105.319ZM117.646 12.248V30H114.062V29.244C113.166 29.916 112.111 30.252 110.898 30.252C109.89 30.252 108.956 30 108.098 29.496C107.258 28.992 106.586 28.2733 106.082 27.34C105.578 26.388 105.326 25.268 105.326 23.98C105.326 22.6547 105.578 21.5067 106.082 20.536C106.604 19.5467 107.332 18.7813 108.266 18.24C109.218 17.6987 110.328 17.428 111.598 17.428C112.046 17.428 112.484 17.4653 112.914 17.54C113.343 17.6147 113.726 17.7267 114.062 17.876V12.416L117.646 12.248ZM114.062 20.872C113.838 20.7787 113.548 20.6947 113.194 20.62C112.839 20.5453 112.494 20.508 112.158 20.508C111.523 20.508 110.963 20.648 110.478 20.928C110.011 21.1893 109.647 21.572 109.386 22.076C109.143 22.58 109.022 23.1773 109.022 23.868C109.022 24.54 109.134 25.128 109.358 25.632C109.582 26.1173 109.908 26.5 110.338 26.78C110.786 27.0413 111.299 27.172 111.878 27.172C112.718 27.172 113.446 26.9573 114.062 26.528V20.872ZM123.016 12.248V30H119.432V12.416L123.016 12.248ZM135.747 24.708H127.851C127.963 25.212 128.187 25.6507 128.523 26.024C128.877 26.3787 129.325 26.6493 129.867 26.836C130.427 27.0227 131.08 27.116 131.827 27.116C132.461 27.116 133.143 27.032 133.871 26.864C134.599 26.6773 135.196 26.444 135.663 26.164L135.803 29.216C135.317 29.552 134.664 29.8133 133.843 30C133.04 30.168 132.284 30.252 131.575 30.252C129.988 30.252 128.625 29.9907 127.487 29.468C126.367 28.9267 125.517 28.1707 124.939 27.2C124.379 26.2293 124.099 25.0907 124.099 23.784C124.099 22.496 124.36 21.3853 124.883 20.452C125.424 19.5 126.161 18.7627 127.095 18.24C128.047 17.6987 129.111 17.428 130.287 17.428C131.369 17.428 132.331 17.6427 133.171 18.072C134.029 18.5013 134.692 19.1267 135.159 19.948C135.644 20.7507 135.887 21.7213 135.887 22.86C135.887 23.1027 135.868 23.4013 135.831 23.756C135.812 24.092 135.784 24.4093 135.747 24.708ZM130.315 20.004C129.587 20.004 128.989 20.2467 128.523 20.732C128.075 21.2173 127.804 21.8613 127.711 22.664H132.555C132.555 22.6267 132.555 22.5707 132.555 22.496C132.555 22.4027 132.555 22.3373 132.555 22.3C132.555 21.6093 132.349 21.0587 131.939 20.648C131.547 20.2187 131.005 20.004 130.315 20.004Z" fill="#FFCCA0"/>
<path d="M379.91 26H378.995V25.4C378.715 25.6 378.375 25.765 377.975 25.895C377.575 26.025 377.15 26.09 376.7 26.09C375.95 26.09 375.38 25.92 374.99 25.58C374.6 25.24 374.405 24.775 374.405 24.185C374.405 23.505 374.645 23.005 375.125 22.685C375.615 22.355 376.265 22.19 377.075 22.19C377.415 22.19 377.76 22.225 378.11 22.295C378.47 22.365 378.755 22.455 378.965 22.565V21.725C378.965 21.165 378.81 20.765 378.5 20.525C378.19 20.285 377.73 20.165 377.12 20.165C376.71 20.165 376.315 20.22 375.935 20.33C375.565 20.43 375.26 20.555 375.02 20.705L374.975 19.82C375.255 19.66 375.585 19.535 375.965 19.445C376.355 19.355 376.77 19.31 377.21 19.31C378.06 19.31 378.72 19.495 379.19 19.865C379.67 20.225 379.91 20.815 379.91 21.635V26ZM378.965 24.74V23.225C378.755 23.115 378.49 23.03 378.17 22.97C377.86 22.9 377.545 22.865 377.225 22.865C376.665 22.865 376.215 22.97 375.875 23.18C375.545 23.38 375.38 23.71 375.38 24.17C375.38 24.6 375.525 24.91 375.815 25.1C376.105 25.29 376.475 25.385 376.925 25.385C377.315 25.385 377.7 25.32 378.08 25.19C378.46 25.06 378.755 24.91 378.965 24.74ZM389.979 22.655C389.979 23.315 389.829 23.905 389.529 24.425C389.239 24.945 388.834 25.355 388.314 25.655C387.804 25.945 387.219 26.09 386.559 26.09C385.879 26.09 385.304 25.99 384.834 25.79V28.775H383.874V19.43L384.834 19.37V19.955C385.114 19.735 385.419 19.575 385.749 19.475C386.089 19.365 386.449 19.31 386.829 19.31C387.419 19.31 387.949 19.44 388.419 19.7C388.889 19.96 389.264 20.34 389.544 20.84C389.834 21.34 389.979 21.945 389.979 22.655ZM388.989 22.67C388.989 22.14 388.884 21.685 388.674 21.305C388.474 20.925 388.194 20.64 387.834 20.45C387.484 20.25 387.079 20.15 386.619 20.15C385.939 20.15 385.344 20.35 384.834 20.75V24.935C385.044 25.025 385.284 25.1 385.554 25.16C385.834 25.22 386.124 25.25 386.424 25.25C386.904 25.25 387.334 25.15 387.714 24.95C388.104 24.74 388.414 24.44 388.644 24.05C388.874 23.66 388.989 23.2 388.989 22.67ZM396.49 19.37V26H395.545V25.235C395.135 25.525 394.73 25.74 394.33 25.88C393.94 26.02 393.555 26.09 393.175 26.09C392.465 26.09 391.9 25.905 391.48 25.535C391.07 25.155 390.865 24.56 390.865 23.75V19.43L391.825 19.37V23.54C391.825 24.11 391.96 24.535 392.23 24.815C392.51 25.085 392.905 25.22 393.415 25.22C393.765 25.22 394.125 25.15 394.495 25.01C394.865 24.87 395.215 24.68 395.545 24.44V19.43L396.49 19.37ZM401.47 19.4L401.44 20.315C401.36 20.285 401.255 20.26 401.125 20.24C401.005 20.22 400.895 20.21 400.795 20.21C400.435 20.21 400.085 20.305 399.745 20.495C399.415 20.675 399.125 20.915 398.875 21.215V26H397.915V19.43L398.875 19.37V20.36C399.145 20.04 399.46 19.785 399.82 19.595C400.18 19.405 400.55 19.31 400.93 19.31C401.03 19.31 401.13 19.315 401.23 19.325C401.33 19.335 401.41 19.36 401.47 19.4ZM405.766 19.4L405.736 20.315C405.656 20.285 405.551 20.26 405.421 20.24C405.301 20.22 405.191 20.21 405.091 20.21C404.731 20.21 404.381 20.305 404.041 20.495C403.711 20.675 403.421 20.915 403.171 21.215V26H402.211V19.43L403.171 19.37V20.36C403.441 20.04 403.756 19.785 404.116 19.595C404.476 19.405 404.846 19.31 405.226 19.31C405.326 19.31 405.426 19.315 405.526 19.325C405.626 19.335 405.706 19.36 405.766 19.4ZM409.762 16.565L409.717 17.42C409.647 17.4 409.557 17.385 409.447 17.375C409.347 17.365 409.247 17.36 409.147 17.36C408.747 17.36 408.417 17.475 408.157 17.705C407.907 17.925 407.782 18.335 407.782 18.935V19.4H409.582L409.507 20.24H407.782V26H406.837V20.24H405.877V19.4H406.837V18.905C406.837 18.095 407.042 17.49 407.452 17.09C407.862 16.69 408.402 16.49 409.072 16.49C409.192 16.49 409.312 16.5 409.432 16.52C409.562 16.53 409.672 16.545 409.762 16.565ZM415.573 22.895H410.668C410.708 23.375 410.843 23.79 411.073 24.14C411.313 24.48 411.628 24.75 412.018 24.95C412.408 25.14 412.858 25.235 413.368 25.235C413.788 25.235 414.198 25.175 414.598 25.055C415.008 24.935 415.348 24.765 415.618 24.545L415.663 25.445C415.403 25.645 415.053 25.805 414.613 25.925C414.183 26.035 413.753 26.09 413.323 26.09C412.603 26.09 411.963 25.95 411.403 25.67C410.853 25.39 410.428 24.99 410.128 24.47C409.828 23.95 409.678 23.335 409.678 22.625C409.678 21.965 409.813 21.385 410.083 20.885C410.353 20.385 410.723 20 411.193 19.73C411.673 19.45 412.213 19.31 412.813 19.31C413.363 19.31 413.848 19.425 414.268 19.655C414.698 19.885 415.033 20.21 415.273 20.63C415.513 21.05 415.633 21.54 415.633 22.1C415.633 22.21 415.628 22.34 415.618 22.49C415.608 22.64 415.593 22.775 415.573 22.895ZM412.813 20.06C412.223 20.06 411.728 20.26 411.328 20.66C410.928 21.06 410.703 21.595 410.653 22.265H414.688C414.698 22.225 414.703 22.185 414.703 22.145C414.703 22.095 414.703 22.04 414.703 21.98C414.703 21.42 414.528 20.96 414.178 20.6C413.838 20.24 413.383 20.06 412.813 20.06ZM421.662 19.895L421.422 20.78C421.212 20.61 420.942 20.47 420.612 20.36C420.282 20.25 419.957 20.195 419.637 20.195C419.167 20.195 418.742 20.3 418.362 20.51C417.982 20.72 417.682 21.015 417.462 21.395C417.252 21.765 417.147 22.2 417.147 22.7C417.147 23.2 417.257 23.64 417.477 24.02C417.697 24.39 418.002 24.68 418.392 24.89C418.782 25.1 419.227 25.205 419.727 25.205C420.107 25.205 420.477 25.145 420.837 25.025C421.207 24.905 421.522 24.735 421.782 24.515L421.827 25.43C421.567 25.63 421.242 25.79 420.852 25.91C420.462 26.03 420.052 26.09 419.622 26.09C418.972 26.09 418.387 25.955 417.867 25.685C417.347 25.415 416.932 25.025 416.622 24.515C416.312 24.005 416.157 23.4 416.157 22.7C416.157 22.04 416.307 21.455 416.607 20.945C416.917 20.425 417.332 20.025 417.852 19.745C418.372 19.455 418.947 19.31 419.577 19.31C420.017 19.31 420.417 19.365 420.777 19.475C421.137 19.575 421.432 19.715 421.662 19.895ZM426.126 19.4L426.051 20.24H423.981V24.02C423.981 24.45 424.086 24.76 424.296 24.95C424.506 25.14 424.791 25.235 425.151 25.235C425.361 25.235 425.551 25.205 425.721 25.145C425.901 25.075 426.056 24.995 426.186 24.905L426.231 25.745C425.921 25.975 425.506 26.09 424.986 26.09C424.346 26.09 423.856 25.93 423.516 25.61C423.186 25.28 423.021 24.79 423.021 24.14V20.24H422.061V19.4H423.021V17.915L423.981 17.66V19.4H426.126ZM437.039 26H435.989L434.894 23.255H430.979L429.884 26H428.864L432.404 17.09H433.514L437.039 26ZM434.594 22.43L433.274 19.115C433.204 18.945 433.144 18.79 433.094 18.65C433.054 18.5 433.014 18.35 432.974 18.2H432.899C432.859 18.35 432.814 18.5 432.764 18.65C432.724 18.79 432.669 18.945 432.599 19.115L431.264 22.43H434.594ZM444.003 19.955C444.003 20.605 443.848 21.145 443.538 21.575C443.238 21.995 442.823 22.305 442.293 22.505C441.763 22.705 441.158 22.805 440.478 22.805H438.828V26H437.838V17.09H440.478C441.168 17.09 441.773 17.195 442.293 17.405C442.823 17.605 443.238 17.915 443.538 18.335C443.848 18.755 444.003 19.295 444.003 19.955ZM442.998 19.955C442.998 19.445 442.878 19.045 442.638 18.755C442.398 18.455 442.083 18.245 441.693 18.125C441.303 17.995 440.873 17.93 440.403 17.93H438.828V21.965H440.403C440.873 21.965 441.303 21.905 441.693 21.785C442.083 21.665 442.398 21.46 442.638 21.17C442.878 20.87 442.998 20.465 442.998 19.955ZM446.054 17.09V26H445.064V17.09H446.054ZM459.619 19.4L457.399 26H456.394L455.059 22.34C454.959 22.02 454.869 21.74 454.789 21.5C454.709 21.26 454.644 21.045 454.594 20.855H454.519C454.479 21.045 454.414 21.26 454.324 21.5C454.244 21.74 454.154 22.02 454.054 22.34L452.719 26H451.714L449.494 19.43L450.484 19.37L451.894 23.63C451.964 23.85 452.029 24.08 452.089 24.32C452.159 24.55 452.214 24.765 452.254 24.965H452.314C452.354 24.765 452.409 24.55 452.479 24.32C452.559 24.08 452.634 23.85 452.704 23.63L454.069 19.85H455.074L456.439 23.63C456.509 23.85 456.584 24.08 456.664 24.32C456.744 24.55 456.799 24.765 456.829 24.965H456.904C456.944 24.765 456.994 24.55 457.054 24.32C457.124 24.08 457.189 23.85 457.249 23.63L458.644 19.4H459.619ZM463.966 19.4L463.936 20.315C463.856 20.285 463.751 20.26 463.621 20.24C463.501 20.22 463.391 20.21 463.291 20.21C462.931 20.21 462.581 20.305 462.241 20.495C461.911 20.675 461.621 20.915 461.371 21.215V26H460.411V19.43L461.371 19.37V20.36C461.641 20.04 461.956 19.785 462.316 19.595C462.676 19.405 463.046 19.31 463.426 19.31C463.526 19.31 463.626 19.315 463.726 19.325C463.826 19.335 463.906 19.36 463.966 19.4ZM469.687 26H468.772V25.4C468.492 25.6 468.152 25.765 467.752 25.895C467.352 26.025 466.927 26.09 466.477 26.09C465.727 26.09 465.157 25.92 464.767 25.58C464.377 25.24 464.182 24.775 464.182 24.185C464.182 23.505 464.422 23.005 464.902 22.685C465.392 22.355 466.042 22.19 466.852 22.19C467.192 22.19 467.537 22.225 467.887 22.295C468.247 22.365 468.532 22.455 468.742 22.565V21.725C468.742 21.165 468.587 20.765 468.277 20.525C467.967 20.285 467.507 20.165 466.897 20.165C466.487 20.165 466.092 20.22 465.712 20.33C465.342 20.43 465.037 20.555 464.797 20.705L464.752 19.82C465.032 19.66 465.362 19.535 465.742 19.445C466.132 19.355 466.547 19.31 466.987 19.31C467.837 19.31 468.497 19.495 468.967 19.865C469.447 20.225 469.687 20.815 469.687 21.635V26ZM468.742 24.74V23.225C468.532 23.115 468.267 23.03 467.947 22.97C467.637 22.9 467.322 22.865 467.002 22.865C466.442 22.865 465.992 22.97 465.652 23.18C465.322 23.38 465.157 23.71 465.157 24.17C465.157 24.6 465.302 24.91 465.592 25.1C465.882 25.29 466.252 25.385 466.702 25.385C467.092 25.385 467.477 25.32 467.857 25.19C468.237 25.06 468.532 24.91 468.742 24.74ZM477.203 22.655C477.203 23.315 477.053 23.905 476.753 24.425C476.463 24.945 476.058 25.355 475.538 25.655C475.028 25.945 474.443 26.09 473.783 26.09C473.103 26.09 472.528 25.99 472.058 25.79V28.775H471.098V19.43L472.058 19.37V19.955C472.338 19.735 472.643 19.575 472.973 19.475C473.313 19.365 473.673 19.31 474.053 19.31C474.643 19.31 475.173 19.44 475.643 19.7C476.113 19.96 476.488 20.34 476.768 20.84C477.058 21.34 477.203 21.945 477.203 22.655ZM476.213 22.67C476.213 22.14 476.108 21.685 475.898 21.305C475.698 20.925 475.418 20.64 475.058 20.45C474.708 20.25 474.303 20.15 473.843 20.15C473.163 20.15 472.568 20.35 472.058 20.75V24.935C472.268 25.025 472.508 25.1 472.778 25.16C473.058 25.22 473.348 25.25 473.648 25.25C474.128 25.25 474.558 25.15 474.938 24.95C475.328 24.74 475.638 24.44 475.868 24.05C476.098 23.66 476.213 23.2 476.213 22.67ZM484.194 22.655C484.194 23.315 484.044 23.905 483.744 24.425C483.454 24.945 483.049 25.355 482.529 25.655C482.019 25.945 481.434 26.09 480.774 26.09C480.094 26.09 479.519 25.99 479.049 25.79V28.775H478.089V19.43L479.049 19.37V19.955C479.329 19.735 479.634 19.575 479.964 19.475C480.304 19.365 480.664 19.31 481.044 19.31C481.634 19.31 482.164 19.44 482.634 19.7C483.104 19.96 483.479 20.34 483.759 20.84C484.049 21.34 484.194 21.945 484.194 22.655ZM483.204 22.67C483.204 22.14 483.099 21.685 482.889 21.305C482.689 20.925 482.409 20.64 482.049 20.45C481.699 20.25 481.294 20.15 480.834 20.15C480.154 20.15 479.559 20.35 479.049 20.75V24.935C479.259 25.025 479.499 25.1 479.769 25.16C480.049 25.22 480.339 25.25 480.639 25.25C481.119 25.25 481.549 25.15 481.929 24.95C482.319 24.74 482.629 24.44 482.859 24.05C483.089 23.66 483.204 23.2 483.204 22.67ZM490.45 22.895H485.545C485.585 23.375 485.72 23.79 485.95 24.14C486.19 24.48 486.505 24.75 486.895 24.95C487.285 25.14 487.735 25.235 488.245 25.235C488.665 25.235 489.075 25.175 489.475 25.055C489.885 24.935 490.225 24.765 490.495 24.545L490.54 25.445C490.28 25.645 489.93 25.805 489.49 25.925C489.06 26.035 488.63 26.09 488.2 26.09C487.48 26.09 486.84 25.95 486.28 25.67C485.73 25.39 485.305 24.99 485.005 24.47C484.705 23.95 484.555 23.335 484.555 22.625C484.555 21.965 484.69 21.385 484.96 20.885C485.23 20.385 485.6 20 486.07 19.73C486.55 19.45 487.09 19.31 487.69 19.31C488.24 19.31 488.725 19.425 489.145 19.655C489.575 19.885 489.91 20.21 490.15 20.63C490.39 21.05 490.51 21.54 490.51 22.1C490.51 22.21 490.505 22.34 490.495 22.49C490.485 22.64 490.47 22.775 490.45 22.895ZM487.69 20.06C487.1 20.06 486.605 20.26 486.205 20.66C485.805 21.06 485.58 21.595 485.53 22.265H489.565C489.575 22.225 489.58 22.185 489.58 22.145C489.58 22.095 489.58 22.04 489.58 21.98C489.58 21.42 489.405 20.96 489.055 20.6C488.715 20.24 488.26 20.06 487.69 20.06ZM495.114 19.4L495.084 20.315C495.004 20.285 494.899 20.26 494.769 20.24C494.649 20.22 494.539 20.21 494.439 20.21C494.079 20.21 493.729 20.305 493.389 20.495C493.059 20.675 492.769 20.915 492.519 21.215V26H491.559V19.43L492.519 19.37V20.36C492.789 20.04 493.104 19.785 493.464 19.595C493.824 19.405 494.194 19.31 494.574 19.31C494.674 19.31 494.774 19.315 494.874 19.325C494.974 19.335 495.054 19.36 495.114 19.4ZM501.663 16.565L501.618 17.42C501.548 17.4 501.458 17.385 501.348 17.375C501.248 17.365 501.148 17.36 501.048 17.36C500.648 17.36 500.318 17.475 500.058 17.705C499.808 17.925 499.683 18.335 499.683 18.935V19.4H501.483L501.408 20.24H499.683V26H498.738V20.24H497.778V19.4H498.738V18.905C498.738 18.095 498.943 17.49 499.353 17.09C499.763 16.69 500.303 16.49 500.973 16.49C501.093 16.49 501.213 16.5 501.333 16.52C501.463 16.53 501.573 16.545 501.663 16.565ZM508.375 22.7C508.375 23.36 508.225 23.95 507.925 24.47C507.625 24.98 507.215 25.38 506.695 25.67C506.175 25.95 505.595 26.09 504.955 26.09C504.315 26.09 503.735 25.95 503.215 25.67C502.695 25.38 502.285 24.98 501.985 24.47C501.685 23.95 501.535 23.36 501.535 22.7C501.535 22.03 501.685 21.44 501.985 20.93C502.285 20.42 502.695 20.025 503.215 19.745C503.735 19.455 504.315 19.31 504.955 19.31C505.595 19.31 506.175 19.455 506.695 19.745C507.215 20.025 507.625 20.42 507.925 20.93C508.225 21.44 508.375 22.03 508.375 22.7ZM507.385 22.7C507.385 22.2 507.275 21.76 507.055 21.38C506.835 21 506.54 20.705 506.17 20.495C505.81 20.275 505.405 20.165 504.955 20.165C504.505 20.165 504.095 20.275 503.725 20.495C503.355 20.705 503.06 21 502.84 21.38C502.63 21.76 502.525 22.2 502.525 22.7C502.525 23.19 502.635 23.63 502.855 24.02C503.075 24.4 503.37 24.7 503.74 24.92C504.11 25.13 504.515 25.235 504.955 25.235C505.415 25.235 505.83 25.13 506.2 24.92C506.57 24.7 506.86 24.4 507.07 24.02C507.28 23.63 507.385 23.19 507.385 22.7ZM512.811 19.4L512.781 20.315C512.701 20.285 512.596 20.26 512.466 20.24C512.346 20.22 512.236 20.21 512.136 20.21C511.776 20.21 511.426 20.305 511.086 20.495C510.756 20.675 510.466 20.915 510.216 21.215V26H509.256V19.43L510.216 19.37V20.36C510.486 20.04 510.801 19.785 511.161 19.595C511.521 19.405 511.891 19.31 512.271 19.31C512.371 19.31 512.471 19.315 512.571 19.325C512.671 19.335 512.751 19.36 512.811 19.4ZM525.255 17.09V26H524.265V18.875H524.205C524.155 19.035 524.09 19.2 524.01 19.37C523.94 19.53 523.85 19.725 523.74 19.955L521.19 24.725H520.215L517.68 19.955C517.57 19.735 517.475 19.54 517.395 19.37C517.325 19.2 517.265 19.035 517.215 18.875H517.155V26H516.21V17.09H517.26L520.185 22.67C520.285 22.87 520.38 23.07 520.47 23.27C520.56 23.46 520.635 23.63 520.695 23.78H520.755C520.815 23.63 520.89 23.455 520.98 23.255C521.08 23.055 521.18 22.86 521.28 22.67L524.205 17.09H525.255ZM530.854 17C531.744 17 532.529 17.195 533.209 17.585C533.889 17.975 534.424 18.515 534.814 19.205C535.204 19.885 535.399 20.665 535.399 21.545C535.399 22.415 535.204 23.195 534.814 23.885C534.424 24.565 533.889 25.105 533.209 25.505C532.529 25.895 531.744 26.09 530.854 26.09C529.964 26.09 529.174 25.895 528.484 25.505C527.804 25.105 527.269 24.565 526.879 23.885C526.499 23.195 526.309 22.415 526.309 21.545C526.309 20.665 526.499 19.885 526.879 19.205C527.269 18.525 527.804 17.99 528.484 17.6C529.174 17.2 529.964 17 530.854 17ZM530.854 25.19C531.544 25.19 532.154 25.03 532.684 24.71C533.214 24.39 533.624 23.955 533.914 23.405C534.214 22.855 534.364 22.235 534.364 21.545C534.364 20.865 534.214 20.25 533.914 19.7C533.624 19.14 533.214 18.7 532.684 18.38C532.154 18.06 531.544 17.9 530.854 17.9C530.164 17.9 529.554 18.06 529.024 18.38C528.494 18.7 528.079 19.135 527.779 19.685C527.489 20.225 527.344 20.845 527.344 21.545C527.344 22.225 527.489 22.845 527.779 23.405C528.079 23.955 528.494 24.39 529.024 24.71C529.554 25.03 530.164 25.19 530.854 25.19ZM540.453 17C541.343 17 542.128 17.195 542.808 17.585C543.488 17.975 544.023 18.515 544.413 19.205C544.803 19.885 544.998 20.665 544.998 21.545C544.998 22.415 544.803 23.195 544.413 23.885C544.023 24.565 543.488 25.105 542.808 25.505C542.128 25.895 541.343 26.09 540.453 26.09C539.563 26.09 538.773 25.895 538.083 25.505C537.403 25.105 536.868 24.565 536.478 23.885C536.098 23.195 535.908 22.415 535.908 21.545C535.908 20.665 536.098 19.885 536.478 19.205C536.868 18.525 537.403 17.99 538.083 17.6C538.773 17.2 539.563 17 540.453 17ZM540.453 25.19C541.143 25.19 541.753 25.03 542.283 24.71C542.813 24.39 543.223 23.955 543.513 23.405C543.813 22.855 543.963 22.235 543.963 21.545C543.963 20.865 543.813 20.25 543.513 19.7C543.223 19.14 542.813 18.7 542.283 18.38C541.753 18.06 541.143 17.9 540.453 17.9C539.763 17.9 539.153 18.06 538.623 18.38C538.093 18.7 537.678 19.135 537.378 19.685C537.088 20.225 536.943 20.845 536.943 21.545C536.943 22.225 537.088 22.845 537.378 23.405C537.678 23.955 538.093 24.39 538.623 24.71C539.153 25.03 539.763 25.19 540.453 25.19ZM553.681 21.545C553.681 22.445 553.481 23.23 553.081 23.9C552.681 24.57 552.111 25.09 551.371 25.46C550.631 25.82 549.746 26 548.716 26H546.061V17.09H548.716C549.746 17.09 550.631 17.275 551.371 17.645C552.111 18.005 552.681 18.52 553.081 19.19C553.481 19.85 553.681 20.635 553.681 21.545ZM552.646 21.545C552.646 20.785 552.486 20.14 552.166 19.61C551.846 19.07 551.391 18.66 550.801 18.38C550.211 18.09 549.516 17.945 548.716 17.945H547.036V25.145H548.716C549.526 25.145 550.221 25.005 550.801 24.725C551.391 24.435 551.846 24.02 552.166 23.48C552.486 22.94 552.646 22.295 552.646 21.545ZM554.752 26V17.09H555.742V25.1H559.852L559.777 26H554.752ZM566.162 17.09L566.087 17.975H561.737V21.065H565.382V21.935H561.737V25.115H566.252V26H560.747V17.09H566.162Z" fill="white"/>
</svg>
