<svg width="581" height="43" viewBox="0 0 581 43" fill="none" xmlns="http://www.w3.org/2000/svg">
<rect width="581" height="43" rx="15" fill="#323E1A"/>
<path fill-rule="evenodd" clip-rule="evenodd" d="M25.0098 18.8346L14 18.835V13.123H25.0098V18.835H30.754V29.8771H25.0098V24.5471C22.093 24.5979 19.7442 26.9647 19.7442 29.8771H14C14 23.8103 18.9205 18.8862 25.0098 18.835V18.8346Z" fill="#DFFFA0"/>
<path d="M54.7979 13.368V30H51.6059L45.2779 21.124C45.0352 20.788 44.8019 20.452 44.5779 20.116C44.3726 19.7613 44.1859 19.4253 44.0179 19.108H43.8779V30H40.3219V13.368H43.9339L49.8419 21.684C50.0846 22.0013 50.3086 22.3373 50.5139 22.692C50.7379 23.028 50.9339 23.3547 51.1019 23.672H51.2419V13.368H54.7979ZM67.7593 24.708H59.8633C59.9753 25.212 60.1993 25.6507 60.5353 26.024C60.8899 26.3787 61.3379 26.6493 61.8793 26.836C62.4393 27.0227 63.0926 27.116 63.8393 27.116C64.4739 27.116 65.1553 27.032 65.8833 26.864C66.6113 26.6773 67.2086 26.444 67.6753 26.164L67.8153 29.216C67.3299 29.552 66.6766 29.8133 65.8553 30C65.0526 30.168 64.2966 30.252 63.5873 30.252C62.0006 30.252 60.6379 29.9907 59.4993 29.468C58.3793 28.9267 57.5299 28.1707 56.9513 27.2C56.3913 26.2293 56.1113 25.0907 56.1113 23.784C56.1113 22.496 56.3726 21.3853 56.8953 20.452C57.4366 19.5 58.1739 18.7627 59.1073 18.24C60.0593 17.6987 61.1233 17.428 62.2993 17.428C63.3819 17.428 64.3433 17.6427 65.1833 18.072C66.0419 18.5013 66.7046 19.1267 67.1713 19.948C67.6566 20.7507 67.8993 21.7213 67.8993 22.86C67.8993 23.1027 67.8806 23.4013 67.8433 23.756C67.8246 24.092 67.7966 24.4093 67.7593 24.708ZM62.3273 20.004C61.5993 20.004 61.0019 20.2467 60.5353 20.732C60.0873 21.2173 59.8166 21.8613 59.7233 22.664H64.5673C64.5673 22.6267 64.5673 22.5707 64.5673 22.496C64.5673 22.4027 64.5673 22.3373 64.5673 22.3C64.5673 21.6093 64.3619 21.0587 63.9513 20.648C63.5593 20.2187 63.0179 20.004 62.3273 20.004ZM76.8796 17.68L76.6276 20.76H73.3516V25.436C73.3516 26.052 73.501 26.4907 73.7996 26.752C74.0983 26.9947 74.537 27.116 75.1156 27.116C75.433 27.116 75.7316 27.0693 76.0116 26.976C76.3103 26.864 76.5623 26.7333 76.7676 26.584L76.9076 29.608C76.2543 30.0373 75.3676 30.252 74.2476 30.252C72.6983 30.252 71.569 29.8693 70.8596 29.104C70.1503 28.3387 69.7956 27.2467 69.7956 25.828V20.76H68.1156V17.68H69.7956V15.104L73.3516 14.348V17.68H76.8796ZM90.0873 17.68L86.4473 28.18C85.9246 29.7293 85.2993 31.0173 84.5713 32.044C83.862 33.0707 83.078 33.8547 82.2193 34.396C81.3793 34.9373 80.4926 35.2827 79.5593 35.432L78.0473 32.632C78.9246 32.464 79.662 32.156 80.2593 31.708C80.8753 31.26 81.37 30.6907 81.7433 30L76.8713 17.764L80.6513 17.596L82.7233 22.944C82.966 23.6347 83.1806 24.2787 83.3673 24.876C83.5726 25.4733 83.7126 25.9773 83.7873 26.388H83.9273C84.002 25.9773 84.114 25.4733 84.2633 24.876C84.4126 24.2787 84.59 23.6347 84.7953 22.944L86.4753 17.68H90.0873ZM103.116 23.7C103.116 24.9507 102.845 26.0707 102.304 27.06C101.781 28.0493 101.053 28.8333 100.12 29.412C99.2052 29.972 98.1412 30.252 96.9278 30.252C95.8825 30.252 95.0332 30.084 94.3798 29.748V35.18H90.7958V17.764L94.3798 17.596V18.492C94.8092 18.1373 95.2852 17.876 95.8078 17.708C96.3305 17.5213 96.9278 17.428 97.5998 17.428C98.6265 17.428 99.5505 17.68 100.372 18.184C101.212 18.688 101.875 19.4067 102.36 20.34C102.864 21.2733 103.116 22.3933 103.116 23.7ZM99.4198 23.812C99.4198 23.14 99.3078 22.5613 99.0838 22.076C98.8598 21.572 98.5238 21.1893 98.0758 20.928C97.6465 20.648 97.1052 20.508 96.4518 20.508C95.6492 20.508 94.9585 20.7227 94.3798 21.152V26.836C94.6225 26.9293 94.9025 27.0133 95.2198 27.088C95.5558 27.144 95.9012 27.172 96.2558 27.172C96.9092 27.172 97.4692 27.0413 97.9358 26.78C98.4025 26.5 98.7665 26.108 99.0278 25.604C99.2892 25.0813 99.4198 24.484 99.4198 23.812ZM114.759 30H111.371V29.048C110.923 29.4027 110.381 29.692 109.747 29.916C109.112 30.14 108.412 30.252 107.647 30.252C106.284 30.252 105.239 29.9253 104.511 29.272C103.801 28.6187 103.447 27.7133 103.447 26.556C103.447 25.3053 103.885 24.3627 104.763 23.728C105.64 23.0747 106.825 22.748 108.319 22.748C108.86 22.748 109.401 22.7947 109.943 22.888C110.484 22.9813 110.923 23.1027 111.259 23.252V22.58C111.259 21.852 111.025 21.3387 110.559 21.04C110.111 20.7227 109.401 20.564 108.431 20.564C107.74 20.564 107.031 20.648 106.303 20.816C105.593 20.984 105.024 21.1987 104.595 21.46L104.455 18.324C105.033 18.044 105.715 17.8293 106.499 17.68C107.301 17.512 108.123 17.428 108.963 17.428C110.829 17.428 112.257 17.8293 113.247 18.632C114.255 19.416 114.759 20.6573 114.759 22.356V30ZM111.259 27.144V25.38C110.997 25.2493 110.671 25.1467 110.279 25.072C109.905 24.9973 109.541 24.96 109.187 24.96C108.477 24.96 107.936 25.0907 107.563 25.352C107.189 25.5947 107.003 25.9773 107.003 26.5C107.003 26.9853 107.161 27.34 107.479 27.564C107.796 27.7693 108.263 27.872 108.879 27.872C109.308 27.872 109.747 27.8067 110.195 27.676C110.643 27.5267 110.997 27.3493 111.259 27.144ZM124.382 17.568L124.242 21.012C124.13 20.956 123.934 20.9 123.654 20.844C123.392 20.788 123.14 20.76 122.898 20.76C122.394 20.76 121.899 20.8533 121.414 21.04C120.947 21.208 120.518 21.4413 120.126 21.74V30H116.542V17.764L120.126 17.596V19.052C120.667 18.492 121.218 18.0813 121.778 17.82C122.356 17.5587 122.954 17.428 123.57 17.428C123.7 17.428 123.84 17.4373 123.99 17.456C124.158 17.4747 124.288 17.512 124.382 17.568ZM135.774 30H132.386V29.048C131.938 29.4027 131.397 29.692 130.762 29.916C130.127 30.14 129.427 30.252 128.662 30.252C127.299 30.252 126.254 29.9253 125.526 29.272C124.817 28.6187 124.462 27.7133 124.462 26.556C124.462 25.3053 124.901 24.3627 125.778 23.728C126.655 23.0747 127.841 22.748 129.334 22.748C129.875 22.748 130.417 22.7947 130.958 22.888C131.499 22.9813 131.938 23.1027 132.274 23.252V22.58C132.274 21.852 132.041 21.3387 131.574 21.04C131.126 20.7227 130.417 20.564 129.446 20.564C128.755 20.564 128.046 20.648 127.318 20.816C126.609 20.984 126.039 21.1987 125.61 21.46L125.47 18.324C126.049 18.044 126.73 17.8293 127.514 17.68C128.317 17.512 129.138 17.428 129.978 17.428C131.845 17.428 133.273 17.8293 134.262 18.632C135.27 19.416 135.774 20.6573 135.774 22.356V30ZM132.274 27.144V25.38C132.013 25.2493 131.686 25.1467 131.294 25.072C130.921 24.9973 130.557 24.96 130.202 24.96C129.493 24.96 128.951 25.0907 128.578 25.352C128.205 25.5947 128.018 25.9773 128.018 26.5C128.018 26.9853 128.177 27.34 128.494 27.564C128.811 27.7693 129.278 27.872 129.894 27.872C130.323 27.872 130.762 27.8067 131.21 27.676C131.658 27.5267 132.013 27.3493 132.274 27.144ZM156.326 17.68L152.686 30H148.878L147.422 25.66C147.161 24.764 146.946 24.0453 146.778 23.504C146.61 22.944 146.47 22.4307 146.358 21.964H146.218C146.125 22.4307 145.985 22.944 145.798 23.504C145.63 24.0453 145.415 24.764 145.154 25.66L143.698 30H139.89L136.25 17.764L139.862 17.596L141.514 23.476C141.607 23.868 141.701 24.3347 141.794 24.876C141.906 25.3987 141.99 25.884 142.046 26.332H142.186C142.242 25.884 142.335 25.3987 142.466 24.876C142.597 24.3347 142.718 23.868 142.83 23.476L144.454 18.604H148.262L149.886 23.476C149.998 23.868 150.119 24.3347 150.25 24.876C150.381 25.3987 150.474 25.884 150.53 26.332H150.67C150.726 25.884 150.801 25.3987 150.894 24.876C151.006 24.3347 151.109 23.868 151.202 23.476L152.798 17.68H156.326Z" fill="#DFFFA0"/>
<path d="M348.91 26H347.995V25.4C347.715 25.6 347.375 25.765 346.975 25.895C346.575 26.025 346.15 26.09 345.7 26.09C344.95 26.09 344.38 25.92 343.99 25.58C343.6 25.24 343.405 24.775 343.405 24.185C343.405 23.505 343.645 23.005 344.125 22.685C344.615 22.355 345.265 22.19 346.075 22.19C346.415 22.19 346.76 22.225 347.11 22.295C347.47 22.365 347.755 22.455 347.965 22.565V21.725C347.965 21.165 347.81 20.765 347.5 20.525C347.19 20.285 346.73 20.165 346.12 20.165C345.71 20.165 345.315 20.22 344.935 20.33C344.565 20.43 344.26 20.555 344.02 20.705L343.975 19.82C344.255 19.66 344.585 19.535 344.965 19.445C345.355 19.355 345.77 19.31 346.21 19.31C347.06 19.31 347.72 19.495 348.19 19.865C348.67 20.225 348.91 20.815 348.91 21.635V26ZM347.965 24.74V23.225C347.755 23.115 347.49 23.03 347.17 22.97C346.86 22.9 346.545 22.865 346.225 22.865C345.665 22.865 345.215 22.97 344.875 23.18C344.545 23.38 344.38 23.71 344.38 24.17C344.38 24.6 344.525 24.91 344.815 25.1C345.105 25.29 345.475 25.385 345.925 25.385C346.315 25.385 346.7 25.32 347.08 25.19C347.46 25.06 347.755 24.91 347.965 24.74ZM356.006 26H355.061V21.86C355.061 21.29 354.921 20.87 354.641 20.6C354.361 20.32 353.961 20.18 353.441 20.18C353.081 20.18 352.716 20.255 352.346 20.405C351.976 20.545 351.621 20.735 351.281 20.975V26H350.321V19.43L351.281 19.37V20.18C351.681 19.88 352.081 19.66 352.481 19.52C352.891 19.38 353.291 19.31 353.681 19.31C354.411 19.31 354.981 19.5 355.391 19.88C355.801 20.25 356.006 20.84 356.006 21.65V26ZM364.962 26H364.047V25.4C363.767 25.6 363.427 25.765 363.027 25.895C362.627 26.025 362.202 26.09 361.752 26.09C361.002 26.09 360.432 25.92 360.042 25.58C359.652 25.24 359.457 24.775 359.457 24.185C359.457 23.505 359.697 23.005 360.177 22.685C360.667 22.355 361.317 22.19 362.127 22.19C362.467 22.19 362.812 22.225 363.162 22.295C363.522 22.365 363.807 22.455 364.017 22.565V21.725C364.017 21.165 363.862 20.765 363.552 20.525C363.242 20.285 362.782 20.165 362.172 20.165C361.762 20.165 361.367 20.22 360.987 20.33C360.617 20.43 360.312 20.555 360.072 20.705L360.027 19.82C360.307 19.66 360.637 19.535 361.017 19.445C361.407 19.355 361.822 19.31 362.262 19.31C363.112 19.31 363.772 19.495 364.242 19.865C364.722 20.225 364.962 20.815 364.962 21.635V26ZM364.017 24.74V23.225C363.807 23.115 363.542 23.03 363.222 22.97C362.912 22.9 362.597 22.865 362.277 22.865C361.717 22.865 361.267 22.97 360.927 23.18C360.597 23.38 360.432 23.71 360.432 24.17C360.432 24.6 360.577 24.91 360.867 25.1C361.157 25.29 361.527 25.385 361.977 25.385C362.367 25.385 362.752 25.32 363.132 25.19C363.512 25.06 363.807 24.91 364.017 24.74ZM375.722 19.4L373.502 26H372.497L371.162 22.34C371.062 22.02 370.972 21.74 370.892 21.5C370.812 21.26 370.747 21.045 370.697 20.855H370.622C370.582 21.045 370.517 21.26 370.427 21.5C370.347 21.74 370.257 22.02 370.157 22.34L368.822 26H367.817L365.597 19.43L366.587 19.37L367.997 23.63C368.067 23.85 368.132 24.08 368.192 24.32C368.262 24.55 368.317 24.765 368.357 24.965H368.417C368.457 24.765 368.512 24.55 368.582 24.32C368.662 24.08 368.737 23.85 368.807 23.63L370.172 19.85H371.177L372.542 23.63C372.612 23.85 372.687 24.08 372.767 24.32C372.847 24.55 372.902 24.765 372.932 24.965H373.007C373.047 24.765 373.097 24.55 373.157 24.32C373.227 24.08 373.292 23.85 373.352 23.63L374.747 19.4H375.722ZM386.519 26H385.559V21.86C385.559 21.72 385.544 21.59 385.514 21.47C385.494 21.34 385.469 21.23 385.439 21.14C385.339 20.8 385.169 20.555 384.929 20.405C384.689 20.255 384.384 20.18 384.014 20.18C383.964 20.18 383.914 20.185 383.864 20.195C383.814 20.195 383.764 20.195 383.714 20.195C383.424 20.225 383.124 20.31 382.814 20.45C382.514 20.58 382.209 20.755 381.899 20.975C381.929 21.095 381.949 21.22 381.959 21.35C381.979 21.47 381.989 21.6 381.989 21.74V26H381.029V21.86C381.029 21.72 381.019 21.59 380.999 21.47C380.979 21.34 380.949 21.23 380.909 21.14C380.819 20.8 380.654 20.555 380.414 20.405C380.174 20.255 379.869 20.18 379.499 20.18C379.169 20.18 378.829 20.255 378.479 20.405C378.139 20.545 377.804 20.735 377.474 20.975V26H376.514V19.43L377.474 19.37V20.18C377.844 19.9 378.199 19.695 378.539 19.565C378.889 19.425 379.219 19.35 379.529 19.34C379.859 19.32 380.174 19.35 380.474 19.43C380.754 19.49 380.999 19.595 381.209 19.745C381.419 19.885 381.584 20.08 381.704 20.33C382.154 19.96 382.594 19.7 383.024 19.55C383.454 19.39 383.859 19.31 384.239 19.31C384.939 19.31 385.494 19.5 385.904 19.88C386.314 20.25 386.519 20.84 386.519 21.65V26ZM392.909 26H391.994V25.4C391.714 25.6 391.374 25.765 390.974 25.895C390.574 26.025 390.149 26.09 389.699 26.09C388.949 26.09 388.379 25.92 387.989 25.58C387.599 25.24 387.404 24.775 387.404 24.185C387.404 23.505 387.644 23.005 388.124 22.685C388.614 22.355 389.264 22.19 390.074 22.19C390.414 22.19 390.759 22.225 391.109 22.295C391.469 22.365 391.754 22.455 391.964 22.565V21.725C391.964 21.165 391.809 20.765 391.499 20.525C391.189 20.285 390.729 20.165 390.119 20.165C389.709 20.165 389.314 20.22 388.934 20.33C388.564 20.43 388.259 20.555 388.019 20.705L387.974 19.82C388.254 19.66 388.584 19.535 388.964 19.445C389.354 19.355 389.769 19.31 390.209 19.31C391.059 19.31 391.719 19.495 392.189 19.865C392.669 20.225 392.909 20.815 392.909 21.635V26ZM391.964 24.74V23.225C391.754 23.115 391.489 23.03 391.169 22.97C390.859 22.9 390.544 22.865 390.224 22.865C389.664 22.865 389.214 22.97 388.874 23.18C388.544 23.38 388.379 23.71 388.379 24.17C388.379 24.6 388.524 24.91 388.814 25.1C389.104 25.29 389.474 25.385 389.924 25.385C390.314 25.385 390.699 25.32 391.079 25.19C391.459 25.06 391.754 24.91 391.964 24.74ZM393.753 26V25.175L397.893 20.24H393.933V19.4H399.048V20.225L394.908 25.16H399.228V26H393.753ZM400.679 16.64C400.849 16.64 400.994 16.7 401.114 16.82C401.234 16.94 401.294 17.085 401.294 17.255C401.294 17.435 401.234 17.585 401.114 17.705C400.994 17.825 400.849 17.885 400.679 17.885C400.499 17.885 400.344 17.825 400.214 17.705C400.094 17.585 400.034 17.435 400.034 17.255C400.034 17.085 400.094 16.94 400.214 16.82C400.344 16.7 400.499 16.64 400.679 16.64ZM401.144 19.37V26H400.184V19.43L401.144 19.37ZM408.246 26H407.301V21.86C407.301 21.29 407.161 20.87 406.881 20.6C406.601 20.32 406.201 20.18 405.681 20.18C405.321 20.18 404.956 20.255 404.586 20.405C404.216 20.545 403.861 20.735 403.521 20.975V26H402.561V19.43L403.521 19.37V20.18C403.921 19.88 404.321 19.66 404.721 19.52C405.131 19.38 405.531 19.31 405.921 19.31C406.651 19.31 407.221 19.5 407.631 19.88C408.041 20.25 408.246 20.84 408.246 21.65V26ZM415.144 19.25L415.114 20.09H413.749C413.969 20.27 414.144 20.49 414.274 20.75C414.414 21.01 414.484 21.29 414.484 21.59C414.484 22.21 414.269 22.73 413.839 23.15C413.419 23.57 412.844 23.805 412.114 23.855L411.004 25.04C411.104 25.02 411.244 25.005 411.424 24.995C411.604 24.975 411.784 24.96 411.964 24.95C412.154 24.94 412.304 24.935 412.414 24.935C413.354 24.935 414.064 25.09 414.544 25.4C415.034 25.71 415.279 26.185 415.279 26.825C415.279 27.415 415.019 27.9 414.499 28.28C413.989 28.67 413.164 28.865 412.024 28.865C411.414 28.865 410.819 28.8 410.239 28.67C409.669 28.55 409.209 28.385 408.859 28.175L408.949 27.29C409.179 27.43 409.459 27.555 409.789 27.665C410.119 27.785 410.479 27.88 410.869 27.95C411.269 28.02 411.664 28.055 412.054 28.055C412.644 28.055 413.104 28 413.434 27.89C413.764 27.78 413.999 27.63 414.139 27.44C414.279 27.26 414.349 27.06 414.349 26.84C414.349 26.43 414.179 26.145 413.839 25.985C413.509 25.815 412.979 25.73 412.249 25.73C411.919 25.73 411.549 25.745 411.139 25.775C410.739 25.805 410.409 25.85 410.149 25.91V25.145L411.409 23.84C410.729 23.77 410.194 23.525 409.804 23.105C409.414 22.675 409.219 22.17 409.219 21.59C409.219 21.15 409.324 20.76 409.534 20.42C409.754 20.07 410.059 19.8 410.449 19.61C410.849 19.41 411.314 19.31 411.844 19.31C412.194 19.31 412.509 19.355 412.789 19.445L415.144 19.25ZM413.569 21.59C413.569 21.14 413.414 20.77 413.104 20.48C412.794 20.18 412.374 20.03 411.844 20.03C411.324 20.03 410.909 20.175 410.599 20.465C410.289 20.755 410.134 21.13 410.134 21.59C410.134 22.04 410.289 22.41 410.599 22.7C410.909 22.99 411.324 23.135 411.844 23.135C412.374 23.135 412.794 22.995 413.104 22.715C413.414 22.425 413.569 22.05 413.569 21.59ZM425.892 26H424.842L423.747 23.255H419.832L418.737 26H417.717L421.257 17.09H422.367L425.892 26ZM423.447 22.43L422.127 19.115C422.057 18.945 421.997 18.79 421.947 18.65C421.907 18.5 421.867 18.35 421.827 18.2H421.752C421.712 18.35 421.667 18.5 421.617 18.65C421.577 18.79 421.522 18.945 421.452 19.115L420.117 22.43H423.447ZM432.856 19.955C432.856 20.605 432.701 21.145 432.391 21.575C432.091 21.995 431.676 22.305 431.146 22.505C430.616 22.705 430.011 22.805 429.331 22.805H427.681V26H426.691V17.09H429.331C430.021 17.09 430.626 17.195 431.146 17.405C431.676 17.605 432.091 17.915 432.391 18.335C432.701 18.755 432.856 19.295 432.856 19.955ZM431.851 19.955C431.851 19.445 431.731 19.045 431.491 18.755C431.251 18.455 430.936 18.245 430.546 18.125C430.156 17.995 429.726 17.93 429.256 17.93H427.681V21.965H429.256C429.726 21.965 430.156 21.905 430.546 21.785C430.936 21.665 431.251 21.46 431.491 21.17C431.731 20.87 431.851 20.465 431.851 19.955ZM434.907 17.09V26H433.917V17.09H434.907ZM448.471 19.4L446.251 26H445.246L443.911 22.34C443.811 22.02 443.721 21.74 443.641 21.5C443.561 21.26 443.496 21.045 443.446 20.855H443.371C443.331 21.045 443.266 21.26 443.176 21.5C443.096 21.74 443.006 22.02 442.906 22.34L441.571 26H440.566L438.346 19.43L439.336 19.37L440.746 23.63C440.816 23.85 440.881 24.08 440.941 24.32C441.011 24.55 441.066 24.765 441.106 24.965H441.166C441.206 24.765 441.261 24.55 441.331 24.32C441.411 24.08 441.486 23.85 441.556 23.63L442.921 19.85H443.926L445.291 23.63C445.361 23.85 445.436 24.08 445.516 24.32C445.596 24.55 445.651 24.765 445.681 24.965H445.756C445.796 24.765 445.846 24.55 445.906 24.32C445.976 24.08 446.041 23.85 446.101 23.63L447.496 19.4H448.471ZM452.818 19.4L452.788 20.315C452.708 20.285 452.603 20.26 452.473 20.24C452.353 20.22 452.243 20.21 452.143 20.21C451.783 20.21 451.433 20.305 451.093 20.495C450.763 20.675 450.473 20.915 450.223 21.215V26H449.263V19.43L450.223 19.37V20.36C450.493 20.04 450.808 19.785 451.168 19.595C451.528 19.405 451.898 19.31 452.278 19.31C452.378 19.31 452.478 19.315 452.578 19.325C452.678 19.335 452.758 19.36 452.818 19.4ZM458.539 26H457.624V25.4C457.344 25.6 457.004 25.765 456.604 25.895C456.204 26.025 455.779 26.09 455.329 26.09C454.579 26.09 454.009 25.92 453.619 25.58C453.229 25.24 453.034 24.775 453.034 24.185C453.034 23.505 453.274 23.005 453.754 22.685C454.244 22.355 454.894 22.19 455.704 22.19C456.044 22.19 456.389 22.225 456.739 22.295C457.099 22.365 457.384 22.455 457.594 22.565V21.725C457.594 21.165 457.439 20.765 457.129 20.525C456.819 20.285 456.359 20.165 455.749 20.165C455.339 20.165 454.944 20.22 454.564 20.33C454.194 20.43 453.889 20.555 453.649 20.705L453.604 19.82C453.884 19.66 454.214 19.535 454.594 19.445C454.984 19.355 455.399 19.31 455.839 19.31C456.689 19.31 457.349 19.495 457.819 19.865C458.299 20.225 458.539 20.815 458.539 21.635V26ZM457.594 24.74V23.225C457.384 23.115 457.119 23.03 456.799 22.97C456.489 22.9 456.174 22.865 455.854 22.865C455.294 22.865 454.844 22.97 454.504 23.18C454.174 23.38 454.009 23.71 454.009 24.17C454.009 24.6 454.154 24.91 454.444 25.1C454.734 25.29 455.104 25.385 455.554 25.385C455.944 25.385 456.329 25.32 456.709 25.19C457.089 25.06 457.384 24.91 457.594 24.74ZM466.055 22.655C466.055 23.315 465.905 23.905 465.605 24.425C465.315 24.945 464.91 25.355 464.39 25.655C463.88 25.945 463.295 26.09 462.635 26.09C461.955 26.09 461.38 25.99 460.91 25.79V28.775H459.95V19.43L460.91 19.37V19.955C461.19 19.735 461.495 19.575 461.825 19.475C462.165 19.365 462.525 19.31 462.905 19.31C463.495 19.31 464.025 19.44 464.495 19.7C464.965 19.96 465.34 20.34 465.62 20.84C465.91 21.34 466.055 21.945 466.055 22.655ZM465.065 22.67C465.065 22.14 464.96 21.685 464.75 21.305C464.55 20.925 464.27 20.64 463.91 20.45C463.56 20.25 463.155 20.15 462.695 20.15C462.015 20.15 461.42 20.35 460.91 20.75V24.935C461.12 25.025 461.36 25.1 461.63 25.16C461.91 25.22 462.2 25.25 462.5 25.25C462.98 25.25 463.41 25.15 463.79 24.95C464.18 24.74 464.49 24.44 464.72 24.05C464.95 23.66 465.065 23.2 465.065 22.67ZM473.047 22.655C473.047 23.315 472.897 23.905 472.597 24.425C472.307 24.945 471.902 25.355 471.382 25.655C470.872 25.945 470.287 26.09 469.627 26.09C468.947 26.09 468.372 25.99 467.902 25.79V28.775H466.942V19.43L467.902 19.37V19.955C468.182 19.735 468.487 19.575 468.817 19.475C469.157 19.365 469.517 19.31 469.897 19.31C470.487 19.31 471.017 19.44 471.487 19.7C471.957 19.96 472.332 20.34 472.612 20.84C472.902 21.34 473.047 21.945 473.047 22.655ZM472.057 22.67C472.057 22.14 471.952 21.685 471.742 21.305C471.542 20.925 471.262 20.64 470.902 20.45C470.552 20.25 470.147 20.15 469.687 20.15C469.007 20.15 468.412 20.35 467.902 20.75V24.935C468.112 25.025 468.352 25.1 468.622 25.16C468.902 25.22 469.192 25.25 469.492 25.25C469.972 25.25 470.402 25.15 470.782 24.95C471.172 24.74 471.482 24.44 471.712 24.05C471.942 23.66 472.057 23.2 472.057 22.67ZM479.303 22.895H474.398C474.438 23.375 474.573 23.79 474.803 24.14C475.043 24.48 475.358 24.75 475.748 24.95C476.138 25.14 476.588 25.235 477.098 25.235C477.518 25.235 477.928 25.175 478.328 25.055C478.738 24.935 479.078 24.765 479.348 24.545L479.393 25.445C479.133 25.645 478.783 25.805 478.343 25.925C477.913 26.035 477.483 26.09 477.053 26.09C476.333 26.09 475.693 25.95 475.133 25.67C474.583 25.39 474.158 24.99 473.858 24.47C473.558 23.95 473.408 23.335 473.408 22.625C473.408 21.965 473.543 21.385 473.813 20.885C474.083 20.385 474.453 20 474.923 19.73C475.403 19.45 475.943 19.31 476.543 19.31C477.093 19.31 477.578 19.425 477.998 19.655C478.428 19.885 478.763 20.21 479.003 20.63C479.243 21.05 479.363 21.54 479.363 22.1C479.363 22.21 479.358 22.34 479.348 22.49C479.338 22.64 479.323 22.775 479.303 22.895ZM476.543 20.06C475.953 20.06 475.458 20.26 475.058 20.66C474.658 21.06 474.433 21.595 474.383 22.265H478.418C478.428 22.225 478.433 22.185 478.433 22.145C478.433 22.095 478.433 22.04 478.433 21.98C478.433 21.42 478.258 20.96 477.908 20.6C477.568 20.24 477.113 20.06 476.543 20.06ZM483.967 19.4L483.937 20.315C483.857 20.285 483.752 20.26 483.622 20.24C483.502 20.22 483.392 20.21 483.292 20.21C482.932 20.21 482.582 20.305 482.242 20.495C481.912 20.675 481.622 20.915 481.372 21.215V26H480.412V19.43L481.372 19.37V20.36C481.642 20.04 481.957 19.785 482.317 19.595C482.677 19.405 483.047 19.31 483.427 19.31C483.527 19.31 483.627 19.315 483.727 19.325C483.827 19.335 483.907 19.36 483.967 19.4ZM490.516 16.565L490.471 17.42C490.401 17.4 490.311 17.385 490.201 17.375C490.101 17.365 490.001 17.36 489.901 17.36C489.501 17.36 489.171 17.475 488.911 17.705C488.661 17.925 488.536 18.335 488.536 18.935V19.4H490.336L490.261 20.24H488.536V26H487.591V20.24H486.631V19.4H487.591V18.905C487.591 18.095 487.796 17.49 488.206 17.09C488.616 16.69 489.156 16.49 489.826 16.49C489.946 16.49 490.066 16.5 490.186 16.52C490.316 16.53 490.426 16.545 490.516 16.565ZM497.227 22.7C497.227 23.36 497.077 23.95 496.777 24.47C496.477 24.98 496.067 25.38 495.547 25.67C495.027 25.95 494.447 26.09 493.807 26.09C493.167 26.09 492.587 25.95 492.067 25.67C491.547 25.38 491.137 24.98 490.837 24.47C490.537 23.95 490.387 23.36 490.387 22.7C490.387 22.03 490.537 21.44 490.837 20.93C491.137 20.42 491.547 20.025 492.067 19.745C492.587 19.455 493.167 19.31 493.807 19.31C494.447 19.31 495.027 19.455 495.547 19.745C496.067 20.025 496.477 20.42 496.777 20.93C497.077 21.44 497.227 22.03 497.227 22.7ZM496.237 22.7C496.237 22.2 496.127 21.76 495.907 21.38C495.687 21 495.392 20.705 495.022 20.495C494.662 20.275 494.257 20.165 493.807 20.165C493.357 20.165 492.947 20.275 492.577 20.495C492.207 20.705 491.912 21 491.692 21.38C491.482 21.76 491.377 22.2 491.377 22.7C491.377 23.19 491.487 23.63 491.707 24.02C491.927 24.4 492.222 24.7 492.592 24.92C492.962 25.13 493.367 25.235 493.807 25.235C494.267 25.235 494.682 25.13 495.052 24.92C495.422 24.7 495.712 24.4 495.922 24.02C496.132 23.63 496.237 23.19 496.237 22.7ZM501.664 19.4L501.634 20.315C501.554 20.285 501.449 20.26 501.319 20.24C501.199 20.22 501.089 20.21 500.989 20.21C500.629 20.21 500.279 20.305 499.939 20.495C499.609 20.675 499.319 20.915 499.069 21.215V26H498.109V19.43L499.069 19.37V20.36C499.339 20.04 499.654 19.785 500.014 19.595C500.374 19.405 500.744 19.31 501.124 19.31C501.224 19.31 501.324 19.315 501.424 19.325C501.524 19.335 501.604 19.36 501.664 19.4ZM512.248 17.09V26H511.348L506.683 19.565C506.553 19.385 506.433 19.215 506.323 19.055C506.223 18.885 506.138 18.74 506.068 18.62H506.008V26H505.063V17.09H506.038L510.628 23.42C510.748 23.59 510.863 23.76 510.973 23.93C511.083 24.09 511.173 24.235 511.243 24.365H511.288V17.09H512.248ZM519.271 17.09L519.196 17.975H514.846V21.065H518.491V21.935H514.846V25.115H519.361V26H513.856V17.09H519.271ZM523.589 26H522.599V17.99H519.704V17.09H526.529L526.454 17.99H523.589V26ZM534.223 17.09L530.953 22.565V26H529.963V22.565L526.693 17.09H527.803L530.473 21.62L533.158 17.09H534.223ZM541.244 19.955C541.244 20.605 541.089 21.145 540.779 21.575C540.479 21.995 540.064 22.305 539.534 22.505C539.004 22.705 538.399 22.805 537.719 22.805H536.069V26H535.079V17.09H537.719C538.409 17.09 539.014 17.195 539.534 17.405C540.064 17.605 540.479 17.915 540.779 18.335C541.089 18.755 541.244 19.295 541.244 19.955ZM540.239 19.955C540.239 19.445 540.119 19.045 539.879 18.755C539.639 18.455 539.324 18.245 538.934 18.125C538.544 17.995 538.114 17.93 537.644 17.93H536.069V21.965H537.644C538.114 21.965 538.544 21.905 538.934 21.785C539.324 21.665 539.639 21.46 539.879 21.17C540.119 20.87 540.239 20.465 540.239 19.955ZM548.937 26H547.887L546.792 23.255H542.877L541.782 26H540.762L544.302 17.09H545.412L548.937 26ZM546.492 22.43L545.172 19.115C545.102 18.945 545.042 18.79 544.992 18.65C544.952 18.5 544.912 18.35 544.872 18.2H544.797C544.757 18.35 544.712 18.5 544.662 18.65C544.622 18.79 544.567 18.945 544.497 19.115L543.162 22.43H546.492ZM555.826 19.85C555.826 20.53 555.626 21.08 555.226 21.5C554.826 21.92 554.331 22.2 553.741 22.34L556.321 26H555.136L552.736 22.565H550.726V26H549.736V17.09H552.436C553.116 17.09 553.711 17.195 554.221 17.405C554.731 17.615 555.126 17.925 555.406 18.335C555.686 18.735 555.826 19.24 555.826 19.85ZM554.806 19.85C554.806 19.39 554.696 19.02 554.476 18.74C554.266 18.46 553.976 18.255 553.606 18.125C553.246 17.995 552.831 17.93 552.361 17.93H550.726V21.755H552.361C552.831 21.755 553.246 21.69 553.606 21.56C553.976 21.43 554.266 21.225 554.476 20.945C554.696 20.665 554.806 20.3 554.806 19.85ZM561.113 17C562.003 17 562.788 17.195 563.468 17.585C564.148 17.975 564.683 18.515 565.073 19.205C565.463 19.885 565.658 20.665 565.658 21.545C565.658 22.415 565.463 23.195 565.073 23.885C564.683 24.565 564.148 25.105 563.468 25.505C562.788 25.895 562.003 26.09 561.113 26.09C560.223 26.09 559.433 25.895 558.743 25.505C558.063 25.105 557.528 24.565 557.138 23.885C556.758 23.195 556.568 22.415 556.568 21.545C556.568 20.665 556.758 19.885 557.138 19.205C557.528 18.525 558.063 17.99 558.743 17.6C559.433 17.2 560.223 17 561.113 17ZM561.113 25.19C561.803 25.19 562.413 25.03 562.943 24.71C563.473 24.39 563.883 23.955 564.173 23.405C564.473 22.855 564.623 22.235 564.623 21.545C564.623 20.865 564.473 20.25 564.173 19.7C563.883 19.14 563.473 18.7 562.943 18.38C562.413 18.06 561.803 17.9 561.113 17.9C560.423 17.9 559.813 18.06 559.283 18.38C558.753 18.7 558.338 19.135 558.038 19.685C557.748 20.225 557.603 20.845 557.603 21.545C557.603 22.225 557.748 22.845 558.038 23.405C558.338 23.955 558.753 24.39 559.283 24.71C559.813 25.03 560.423 25.19 561.113 25.19Z" fill="white"/>
</svg>
