<svg width="581" height="43" viewBox="0 0 581 43" fill="none" xmlns="http://www.w3.org/2000/svg">
<rect width="581" height="43" rx="15" fill="#343544"/>
<path fill-rule="evenodd" clip-rule="evenodd" d="M25.0098 18.8346L14 18.835V13.123H25.0098V18.835H30.754V29.8771H25.0098V24.5471C22.093 24.5979 19.7442 26.9647 19.7442 29.8771H14C14 23.8103 18.9205 18.8862 25.0098 18.835V18.8346Z" fill="#A0A2FF"/>
<path d="M53.0059 19.08C53.0059 20.312 52.7259 21.3573 52.1659 22.216C51.6246 23.0747 50.8312 23.7187 49.7859 24.148C48.7406 24.5773 47.4806 24.792 46.0059 24.792H44.0459V30H40.3219V13.368H46.0339C47.5086 13.368 48.7592 13.592 49.7859 14.04C50.8312 14.488 51.6246 15.132 52.1659 15.972C52.7259 16.812 53.0059 17.848 53.0059 19.08ZM49.2819 19.08C49.2819 18.464 49.1419 17.96 48.8619 17.568C48.6006 17.176 48.2179 16.8867 47.7139 16.7C47.2286 16.5133 46.6406 16.42 45.9499 16.42H44.0459V21.74H45.9499C46.6406 21.74 47.2286 21.6467 47.7139 21.46C48.2179 21.2733 48.6006 20.984 48.8619 20.592C49.1419 20.2 49.2819 19.696 49.2819 19.08ZM64.6069 30H61.2189V29.048C60.7709 29.4027 60.2295 29.692 59.5949 29.916C58.9602 30.14 58.2602 30.252 57.4949 30.252C56.1322 30.252 55.0869 29.9253 54.3589 29.272C53.6495 28.6187 53.2949 27.7133 53.2949 26.556C53.2949 25.3053 53.7335 24.3627 54.6109 23.728C55.4882 23.0747 56.6735 22.748 58.1669 22.748C58.7082 22.748 59.2495 22.7947 59.7909 22.888C60.3322 22.9813 60.7709 23.1027 61.1069 23.252V22.58C61.1069 21.852 60.8735 21.3387 60.4069 21.04C59.9589 20.7227 59.2495 20.564 58.2789 20.564C57.5882 20.564 56.8789 20.648 56.1509 20.816C55.4415 20.984 54.8722 21.1987 54.4429 21.46L54.3029 18.324C54.8815 18.044 55.5629 17.8293 56.3469 17.68C57.1495 17.512 57.9709 17.428 58.8109 17.428C60.6775 17.428 62.1055 17.8293 63.0949 18.632C64.1029 19.416 64.6069 20.6573 64.6069 22.356V30ZM61.1069 27.144V25.38C60.8455 25.2493 60.5189 25.1467 60.1269 25.072C59.7535 24.9973 59.3895 24.96 59.0349 24.96C58.3255 24.96 57.7842 25.0907 57.4109 25.352C57.0375 25.5947 56.8509 25.9773 56.8509 26.5C56.8509 26.9853 57.0095 27.34 57.3269 27.564C57.6442 27.7693 58.1109 27.872 58.7269 27.872C59.1562 27.872 59.5949 27.8067 60.0429 27.676C60.4909 27.5267 60.8455 27.3493 61.1069 27.144ZM85.1591 17.68L81.5191 30H77.7111L76.2551 25.66C75.9938 24.764 75.7791 24.0453 75.6111 23.504C75.4431 22.944 75.3031 22.4307 75.1911 21.964H75.0511C74.9578 22.4307 74.8178 22.944 74.6311 23.504C74.4631 24.0453 74.2484 24.764 73.9871 25.66L72.5311 30H68.7231L65.0831 17.764L68.6951 17.596L70.3471 23.476C70.4404 23.868 70.5338 24.3347 70.6271 24.876C70.7391 25.3987 70.8231 25.884 70.8791 26.332H71.0191C71.0751 25.884 71.1684 25.3987 71.2991 24.876C71.4298 24.3347 71.5511 23.868 71.6631 23.476L73.2871 18.604H77.0951L78.7191 23.476C78.8311 23.868 78.9524 24.3347 79.0831 24.876C79.2138 25.3987 79.3071 25.884 79.3631 26.332H79.5031C79.5591 25.884 79.6338 25.3987 79.7271 24.876C79.8391 24.3347 79.9418 23.868 80.0351 23.476L81.6311 17.68H85.1591ZM97.4857 12.248V30H93.9017V29.244C93.0057 29.916 91.951 30.252 90.7377 30.252C89.7297 30.252 88.7963 30 87.9377 29.496C87.0977 28.992 86.4257 28.2733 85.9217 27.34C85.4177 26.388 85.1657 25.268 85.1657 23.98C85.1657 22.6547 85.4177 21.5067 85.9217 20.536C86.4443 19.5467 87.1723 18.7813 88.1057 18.24C89.0577 17.6987 90.1683 17.428 91.4377 17.428C91.8857 17.428 92.3243 17.4653 92.7537 17.54C93.183 17.6147 93.5657 17.7267 93.9017 17.876V12.416L97.4857 12.248ZM93.9017 20.872C93.6777 20.7787 93.3883 20.6947 93.0337 20.62C92.679 20.5453 92.3337 20.508 91.9977 20.508C91.363 20.508 90.803 20.648 90.3177 20.928C89.851 21.1893 89.487 21.572 89.2257 22.076C88.983 22.58 88.8617 23.1773 88.8617 23.868C88.8617 24.54 88.9737 25.128 89.1977 25.632C89.4217 26.1173 89.7483 26.5 90.1777 26.78C90.6257 27.0413 91.139 27.172 91.7177 27.172C92.5577 27.172 93.2857 26.9573 93.9017 26.528V20.872ZM101.12 12.024C101.68 12.024 102.138 12.2107 102.492 12.584C102.847 12.9387 103.024 13.3867 103.024 13.928C103.024 14.488 102.847 14.9547 102.492 15.328C102.138 15.6827 101.68 15.86 101.12 15.86C100.542 15.86 100.056 15.6827 99.6644 15.328C99.2911 14.9547 99.1044 14.488 99.1044 13.928C99.1044 13.3867 99.2911 12.9387 99.6644 12.584C100.056 12.2107 100.542 12.024 101.12 12.024ZM102.856 17.596V30H99.2724V17.764L102.856 17.596ZM112.507 17.568L112.367 21.012C112.255 20.956 112.059 20.9 111.779 20.844C111.517 20.788 111.265 20.76 111.023 20.76C110.519 20.76 110.024 20.8533 109.539 21.04C109.072 21.208 108.643 21.4413 108.251 21.74V30H104.667V17.764L108.251 17.596V19.052C108.792 18.492 109.343 18.0813 109.903 17.82C110.481 17.5587 111.079 17.428 111.695 17.428C111.825 17.428 111.965 17.4373 112.115 17.456C112.283 17.4747 112.413 17.512 112.507 17.568ZM124.153 24.708H116.257C116.369 25.212 116.593 25.6507 116.929 26.024C117.284 26.3787 117.732 26.6493 118.273 26.836C118.833 27.0227 119.486 27.116 120.233 27.116C120.868 27.116 121.549 27.032 122.277 26.864C123.005 26.6773 123.602 26.444 124.069 26.164L124.209 29.216C123.724 29.552 123.07 29.8133 122.249 30C121.446 30.168 120.69 30.252 119.981 30.252C118.394 30.252 117.032 29.9907 115.893 29.468C114.773 28.9267 113.924 28.1707 113.345 27.2C112.785 26.2293 112.505 25.0907 112.505 23.784C112.505 22.496 112.766 21.3853 113.289 20.452C113.83 19.5 114.568 18.7627 115.501 18.24C116.453 17.6987 117.517 17.428 118.693 17.428C119.776 17.428 120.737 17.6427 121.577 18.072C122.436 18.5013 123.098 19.1267 123.565 19.948C124.05 20.7507 124.293 21.7213 124.293 22.86C124.293 23.1027 124.274 23.4013 124.237 23.756C124.218 24.092 124.19 24.4093 124.153 24.708ZM118.721 20.004C117.993 20.004 117.396 20.2467 116.929 20.732C116.481 21.2173 116.21 21.8613 116.117 22.664H120.961C120.961 22.6267 120.961 22.5707 120.961 22.496C120.961 22.4027 120.961 22.3373 120.961 22.3C120.961 21.6093 120.756 21.0587 120.345 20.648C119.953 20.2187 119.412 20.004 118.721 20.004ZM135.401 18.52L134.617 21.768C134.3 21.4507 133.88 21.1893 133.357 20.984C132.835 20.7787 132.293 20.676 131.733 20.676C131.117 20.676 130.557 20.8067 130.053 21.068C129.568 21.3107 129.185 21.6653 128.905 22.132C128.644 22.5987 128.513 23.1587 128.513 23.812C128.513 24.484 128.653 25.0627 128.933 25.548C129.213 26.0333 129.615 26.3973 130.137 26.64C130.679 26.8827 131.304 27.004 132.013 27.004C132.648 27.004 133.245 26.9107 133.805 26.724C134.384 26.5373 134.897 26.2947 135.345 25.996L135.485 29.188C134.963 29.5053 134.365 29.7667 133.693 29.972C133.021 30.1587 132.265 30.252 131.425 30.252C130.249 30.252 129.157 30 128.149 29.496C127.141 28.992 126.329 28.264 125.713 27.312C125.116 26.3413 124.817 25.1747 124.817 23.812C124.817 22.58 125.107 21.488 125.685 20.536C126.264 19.5653 127.048 18.8093 128.037 18.268C129.027 17.708 130.128 17.428 131.341 17.428C132.237 17.428 133.021 17.5307 133.693 17.736C134.384 17.9227 134.953 18.184 135.401 18.52ZM144.273 17.68L144.021 20.76H140.745V25.436C140.745 26.052 140.895 26.4907 141.193 26.752C141.492 26.9947 141.931 27.116 142.509 27.116C142.827 27.116 143.125 27.0693 143.405 26.976C143.704 26.864 143.956 26.7333 144.161 26.584L144.301 29.608C143.648 30.0373 142.761 30.252 141.641 30.252C140.092 30.252 138.963 29.8693 138.253 29.104C137.544 28.3387 137.189 27.2467 137.189 25.828V20.76H135.509V17.68H137.189V15.104L140.745 14.348V17.68H144.273ZM156.305 24.708H148.409C148.521 25.212 148.745 25.6507 149.081 26.024C149.436 26.3787 149.884 26.6493 150.425 26.836C150.985 27.0227 151.638 27.116 152.385 27.116C153.02 27.116 153.701 27.032 154.429 26.864C155.157 26.6773 155.754 26.444 156.221 26.164L156.361 29.216C155.876 29.552 155.222 29.8133 154.401 30C153.598 30.168 152.842 30.252 152.133 30.252C150.546 30.252 149.184 29.9907 148.045 29.468C146.925 28.9267 146.076 28.1707 145.497 27.2C144.937 26.2293 144.657 25.0907 144.657 23.784C144.657 22.496 144.918 21.3853 145.441 20.452C145.982 19.5 146.72 18.7627 147.653 18.24C148.605 17.6987 149.669 17.428 150.845 17.428C151.928 17.428 152.889 17.6427 153.729 18.072C154.588 18.5013 155.25 19.1267 155.717 19.948C156.202 20.7507 156.445 21.7213 156.445 22.86C156.445 23.1027 156.426 23.4013 156.389 23.756C156.37 24.092 156.342 24.4093 156.305 24.708ZM150.873 20.004C150.145 20.004 149.548 20.2467 149.081 20.732C148.633 21.2173 148.362 21.8613 148.269 22.664H153.113C153.113 22.6267 153.113 22.5707 153.113 22.496C153.113 22.4027 153.113 22.3373 153.113 22.3C153.113 21.6093 152.908 21.0587 152.497 20.648C152.105 20.2187 151.564 20.004 150.873 20.004Z" fill="#A0A2FF"/>
<path d="M344.91 26H343.995V25.4C343.715 25.6 343.375 25.765 342.975 25.895C342.575 26.025 342.15 26.09 341.7 26.09C340.95 26.09 340.38 25.92 339.99 25.58C339.6 25.24 339.405 24.775 339.405 24.185C339.405 23.505 339.645 23.005 340.125 22.685C340.615 22.355 341.265 22.19 342.075 22.19C342.415 22.19 342.76 22.225 343.11 22.295C343.47 22.365 343.755 22.455 343.965 22.565V21.725C343.965 21.165 343.81 20.765 343.5 20.525C343.19 20.285 342.73 20.165 342.12 20.165C341.71 20.165 341.315 20.22 340.935 20.33C340.565 20.43 340.26 20.555 340.02 20.705L339.975 19.82C340.255 19.66 340.585 19.535 340.965 19.445C341.355 19.355 341.77 19.31 342.21 19.31C343.06 19.31 343.72 19.495 344.19 19.865C344.67 20.225 344.91 20.815 344.91 21.635V26ZM343.965 24.74V23.225C343.755 23.115 343.49 23.03 343.17 22.97C342.86 22.9 342.545 22.865 342.225 22.865C341.665 22.865 341.215 22.97 340.875 23.18C340.545 23.38 340.38 23.71 340.38 24.17C340.38 24.6 340.525 24.91 340.815 25.1C341.105 25.29 341.475 25.385 341.925 25.385C342.315 25.385 342.7 25.32 343.08 25.19C343.46 25.06 343.755 24.91 343.965 24.74ZM354.979 22.655C354.979 23.315 354.829 23.905 354.529 24.425C354.239 24.945 353.834 25.355 353.314 25.655C352.804 25.945 352.219 26.09 351.559 26.09C350.879 26.09 350.304 25.99 349.834 25.79V28.775H348.874V19.43L349.834 19.37V19.955C350.114 19.735 350.419 19.575 350.749 19.475C351.089 19.365 351.449 19.31 351.829 19.31C352.419 19.31 352.949 19.44 353.419 19.7C353.889 19.96 354.264 20.34 354.544 20.84C354.834 21.34 354.979 21.945 354.979 22.655ZM353.989 22.67C353.989 22.14 353.884 21.685 353.674 21.305C353.474 20.925 353.194 20.64 352.834 20.45C352.484 20.25 352.079 20.15 351.619 20.15C350.939 20.15 350.344 20.35 349.834 20.75V24.935C350.044 25.025 350.284 25.1 350.554 25.16C350.834 25.22 351.124 25.25 351.424 25.25C351.904 25.25 352.334 25.15 352.714 24.95C353.104 24.74 353.414 24.44 353.644 24.05C353.874 23.66 353.989 23.2 353.989 22.67ZM361.49 19.37V26H360.545V25.235C360.135 25.525 359.73 25.74 359.33 25.88C358.94 26.02 358.555 26.09 358.175 26.09C357.465 26.09 356.9 25.905 356.48 25.535C356.07 25.155 355.865 24.56 355.865 23.75V19.43L356.825 19.37V23.54C356.825 24.11 356.96 24.535 357.23 24.815C357.51 25.085 357.905 25.22 358.415 25.22C358.765 25.22 359.125 25.15 359.495 25.01C359.865 24.87 360.215 24.68 360.545 24.44V19.43L361.49 19.37ZM368.54 19.37V26H367.595V25.235C367.185 25.525 366.78 25.74 366.38 25.88C365.99 26.02 365.605 26.09 365.225 26.09C364.515 26.09 363.95 25.905 363.53 25.535C363.12 25.155 362.915 24.56 362.915 23.75V19.43L363.875 19.37V23.54C363.875 24.11 364.01 24.535 364.28 24.815C364.56 25.085 364.955 25.22 365.465 25.22C365.815 25.22 366.175 25.15 366.545 25.01C366.915 24.87 367.265 24.68 367.595 24.44V19.43L368.54 19.37ZM373.52 19.4L373.49 20.315C373.41 20.285 373.305 20.26 373.175 20.24C373.055 20.22 372.945 20.21 372.845 20.21C372.485 20.21 372.135 20.305 371.795 20.495C371.465 20.675 371.175 20.915 370.925 21.215V26H369.965V19.43L370.925 19.37V20.36C371.195 20.04 371.51 19.785 371.87 19.595C372.23 19.405 372.6 19.31 372.98 19.31C373.08 19.31 373.18 19.315 373.28 19.325C373.38 19.335 373.46 19.36 373.52 19.4ZM377.516 16.565L377.471 17.42C377.401 17.4 377.311 17.385 377.201 17.375C377.101 17.365 377.001 17.36 376.901 17.36C376.501 17.36 376.171 17.475 375.911 17.705C375.661 17.925 375.536 18.335 375.536 18.935V19.4H377.336L377.261 20.24H375.536V26H374.591V20.24H373.631V19.4H374.591V18.905C374.591 18.095 374.796 17.49 375.206 17.09C375.616 16.69 376.156 16.49 376.826 16.49C376.946 16.49 377.066 16.5 377.186 16.52C377.316 16.53 377.426 16.545 377.516 16.565ZM383.327 22.895H378.422C378.462 23.375 378.597 23.79 378.827 24.14C379.067 24.48 379.382 24.75 379.772 24.95C380.162 25.14 380.612 25.235 381.122 25.235C381.542 25.235 381.952 25.175 382.352 25.055C382.762 24.935 383.102 24.765 383.372 24.545L383.417 25.445C383.157 25.645 382.807 25.805 382.367 25.925C381.937 26.035 381.507 26.09 381.077 26.09C380.357 26.09 379.717 25.95 379.157 25.67C378.607 25.39 378.182 24.99 377.882 24.47C377.582 23.95 377.432 23.335 377.432 22.625C377.432 21.965 377.567 21.385 377.837 20.885C378.107 20.385 378.477 20 378.947 19.73C379.427 19.45 379.967 19.31 380.567 19.31C381.117 19.31 381.602 19.425 382.022 19.655C382.452 19.885 382.787 20.21 383.027 20.63C383.267 21.05 383.387 21.54 383.387 22.1C383.387 22.21 383.382 22.34 383.372 22.49C383.362 22.64 383.347 22.775 383.327 22.895ZM380.567 20.06C379.977 20.06 379.482 20.26 379.082 20.66C378.682 21.06 378.457 21.595 378.407 22.265H382.442C382.452 22.225 382.457 22.185 382.457 22.145C382.457 22.095 382.457 22.04 382.457 21.98C382.457 21.42 382.282 20.96 381.932 20.6C381.592 20.24 381.137 20.06 380.567 20.06ZM389.415 19.895L389.175 20.78C388.965 20.61 388.695 20.47 388.365 20.36C388.035 20.25 387.71 20.195 387.39 20.195C386.92 20.195 386.495 20.3 386.115 20.51C385.735 20.72 385.435 21.015 385.215 21.395C385.005 21.765 384.9 22.2 384.9 22.7C384.9 23.2 385.01 23.64 385.23 24.02C385.45 24.39 385.755 24.68 386.145 24.89C386.535 25.1 386.98 25.205 387.48 25.205C387.86 25.205 388.23 25.145 388.59 25.025C388.96 24.905 389.275 24.735 389.535 24.515L389.58 25.43C389.32 25.63 388.995 25.79 388.605 25.91C388.215 26.03 387.805 26.09 387.375 26.09C386.725 26.09 386.14 25.955 385.62 25.685C385.1 25.415 384.685 25.025 384.375 24.515C384.065 24.005 383.91 23.4 383.91 22.7C383.91 22.04 384.06 21.455 384.36 20.945C384.67 20.425 385.085 20.025 385.605 19.745C386.125 19.455 386.7 19.31 387.33 19.31C387.77 19.31 388.17 19.365 388.53 19.475C388.89 19.575 389.185 19.715 389.415 19.895ZM393.88 19.4L393.805 20.24H391.735V24.02C391.735 24.45 391.84 24.76 392.05 24.95C392.26 25.14 392.545 25.235 392.905 25.235C393.115 25.235 393.305 25.205 393.475 25.145C393.655 25.075 393.81 24.995 393.94 24.905L393.985 25.745C393.675 25.975 393.26 26.09 392.74 26.09C392.1 26.09 391.61 25.93 391.27 25.61C390.94 25.28 390.775 24.79 390.775 24.14V20.24H389.815V19.4H390.775V17.915L391.735 17.66V19.4H393.88ZM404.793 26H403.743L402.648 23.255H398.733L397.638 26H396.618L400.158 17.09H401.268L404.793 26ZM402.348 22.43L401.028 19.115C400.958 18.945 400.898 18.79 400.848 18.65C400.808 18.5 400.768 18.35 400.728 18.2H400.653C400.613 18.35 400.568 18.5 400.518 18.65C400.478 18.79 400.423 18.945 400.353 19.115L399.018 22.43H402.348ZM411.757 19.955C411.757 20.605 411.602 21.145 411.292 21.575C410.992 21.995 410.577 22.305 410.047 22.505C409.517 22.705 408.912 22.805 408.232 22.805H406.582V26H405.592V17.09H408.232C408.922 17.09 409.527 17.195 410.047 17.405C410.577 17.605 410.992 17.915 411.292 18.335C411.602 18.755 411.757 19.295 411.757 19.955ZM410.752 19.955C410.752 19.445 410.632 19.045 410.392 18.755C410.152 18.455 409.837 18.245 409.447 18.125C409.057 17.995 408.627 17.93 408.157 17.93H406.582V21.965H408.157C408.627 21.965 409.057 21.905 409.447 21.785C409.837 21.665 410.152 21.46 410.392 21.17C410.632 20.87 410.752 20.465 410.752 19.955ZM413.808 17.09V26H412.818V17.09H413.808ZM427.373 19.4L425.153 26H424.148L422.813 22.34C422.713 22.02 422.623 21.74 422.543 21.5C422.463 21.26 422.398 21.045 422.348 20.855H422.273C422.233 21.045 422.168 21.26 422.078 21.5C421.998 21.74 421.908 22.02 421.808 22.34L420.473 26H419.468L417.248 19.43L418.238 19.37L419.648 23.63C419.718 23.85 419.783 24.08 419.843 24.32C419.913 24.55 419.968 24.765 420.008 24.965H420.068C420.108 24.765 420.163 24.55 420.233 24.32C420.313 24.08 420.388 23.85 420.458 23.63L421.823 19.85H422.828L424.193 23.63C424.263 23.85 424.338 24.08 424.418 24.32C424.498 24.55 424.553 24.765 424.583 24.965H424.658C424.698 24.765 424.748 24.55 424.808 24.32C424.878 24.08 424.943 23.85 425.003 23.63L426.398 19.4H427.373ZM431.72 19.4L431.69 20.315C431.61 20.285 431.505 20.26 431.375 20.24C431.255 20.22 431.145 20.21 431.045 20.21C430.685 20.21 430.335 20.305 429.995 20.495C429.665 20.675 429.375 20.915 429.125 21.215V26H428.165V19.43L429.125 19.37V20.36C429.395 20.04 429.71 19.785 430.07 19.595C430.43 19.405 430.8 19.31 431.18 19.31C431.28 19.31 431.38 19.315 431.48 19.325C431.58 19.335 431.66 19.36 431.72 19.4ZM437.441 26H436.526V25.4C436.246 25.6 435.906 25.765 435.506 25.895C435.106 26.025 434.681 26.09 434.231 26.09C433.481 26.09 432.911 25.92 432.521 25.58C432.131 25.24 431.936 24.775 431.936 24.185C431.936 23.505 432.176 23.005 432.656 22.685C433.146 22.355 433.796 22.19 434.606 22.19C434.946 22.19 435.291 22.225 435.641 22.295C436.001 22.365 436.286 22.455 436.496 22.565V21.725C436.496 21.165 436.341 20.765 436.031 20.525C435.721 20.285 435.261 20.165 434.651 20.165C434.241 20.165 433.846 20.22 433.466 20.33C433.096 20.43 432.791 20.555 432.551 20.705L432.506 19.82C432.786 19.66 433.116 19.535 433.496 19.445C433.886 19.355 434.301 19.31 434.741 19.31C435.591 19.31 436.251 19.495 436.721 19.865C437.201 20.225 437.441 20.815 437.441 21.635V26ZM436.496 24.74V23.225C436.286 23.115 436.021 23.03 435.701 22.97C435.391 22.9 435.076 22.865 434.756 22.865C434.196 22.865 433.746 22.97 433.406 23.18C433.076 23.38 432.911 23.71 432.911 24.17C432.911 24.6 433.056 24.91 433.346 25.1C433.636 25.29 434.006 25.385 434.456 25.385C434.846 25.385 435.231 25.32 435.611 25.19C435.991 25.06 436.286 24.91 436.496 24.74ZM444.956 22.655C444.956 23.315 444.806 23.905 444.506 24.425C444.216 24.945 443.811 25.355 443.291 25.655C442.781 25.945 442.196 26.09 441.536 26.09C440.856 26.09 440.281 25.99 439.811 25.79V28.775H438.851V19.43L439.811 19.37V19.955C440.091 19.735 440.396 19.575 440.726 19.475C441.066 19.365 441.426 19.31 441.806 19.31C442.396 19.31 442.926 19.44 443.396 19.7C443.866 19.96 444.241 20.34 444.521 20.84C444.811 21.34 444.956 21.945 444.956 22.655ZM443.966 22.67C443.966 22.14 443.861 21.685 443.651 21.305C443.451 20.925 443.171 20.64 442.811 20.45C442.461 20.25 442.056 20.15 441.596 20.15C440.916 20.15 440.321 20.35 439.811 20.75V24.935C440.021 25.025 440.261 25.1 440.531 25.16C440.811 25.22 441.101 25.25 441.401 25.25C441.881 25.25 442.311 25.15 442.691 24.95C443.081 24.74 443.391 24.44 443.621 24.05C443.851 23.66 443.966 23.2 443.966 22.67ZM451.948 22.655C451.948 23.315 451.798 23.905 451.498 24.425C451.208 24.945 450.803 25.355 450.283 25.655C449.773 25.945 449.188 26.09 448.528 26.09C447.848 26.09 447.273 25.99 446.803 25.79V28.775H445.843V19.43L446.803 19.37V19.955C447.083 19.735 447.388 19.575 447.718 19.475C448.058 19.365 448.418 19.31 448.798 19.31C449.388 19.31 449.918 19.44 450.388 19.7C450.858 19.96 451.233 20.34 451.513 20.84C451.803 21.34 451.948 21.945 451.948 22.655ZM450.958 22.67C450.958 22.14 450.853 21.685 450.643 21.305C450.443 20.925 450.163 20.64 449.803 20.45C449.453 20.25 449.048 20.15 448.588 20.15C447.908 20.15 447.313 20.35 446.803 20.75V24.935C447.013 25.025 447.253 25.1 447.523 25.16C447.803 25.22 448.093 25.25 448.393 25.25C448.873 25.25 449.303 25.15 449.683 24.95C450.073 24.74 450.383 24.44 450.613 24.05C450.843 23.66 450.958 23.2 450.958 22.67ZM458.204 22.895H453.299C453.339 23.375 453.474 23.79 453.704 24.14C453.944 24.48 454.259 24.75 454.649 24.95C455.039 25.14 455.489 25.235 455.999 25.235C456.419 25.235 456.829 25.175 457.229 25.055C457.639 24.935 457.979 24.765 458.249 24.545L458.294 25.445C458.034 25.645 457.684 25.805 457.244 25.925C456.814 26.035 456.384 26.09 455.954 26.09C455.234 26.09 454.594 25.95 454.034 25.67C453.484 25.39 453.059 24.99 452.759 24.47C452.459 23.95 452.309 23.335 452.309 22.625C452.309 21.965 452.444 21.385 452.714 20.885C452.984 20.385 453.354 20 453.824 19.73C454.304 19.45 454.844 19.31 455.444 19.31C455.994 19.31 456.479 19.425 456.899 19.655C457.329 19.885 457.664 20.21 457.904 20.63C458.144 21.05 458.264 21.54 458.264 22.1C458.264 22.21 458.259 22.34 458.249 22.49C458.239 22.64 458.224 22.775 458.204 22.895ZM455.444 20.06C454.854 20.06 454.359 20.26 453.959 20.66C453.559 21.06 453.334 21.595 453.284 22.265H457.319C457.329 22.225 457.334 22.185 457.334 22.145C457.334 22.095 457.334 22.04 457.334 21.98C457.334 21.42 457.159 20.96 456.809 20.6C456.469 20.24 456.014 20.06 455.444 20.06ZM462.868 19.4L462.838 20.315C462.758 20.285 462.653 20.26 462.523 20.24C462.403 20.22 462.293 20.21 462.193 20.21C461.833 20.21 461.483 20.305 461.143 20.495C460.813 20.675 460.523 20.915 460.273 21.215V26H459.313V19.43L460.273 19.37V20.36C460.543 20.04 460.858 19.785 461.218 19.595C461.578 19.405 461.948 19.31 462.328 19.31C462.428 19.31 462.528 19.315 462.628 19.325C462.728 19.335 462.808 19.36 462.868 19.4ZM469.417 16.565L469.372 17.42C469.302 17.4 469.212 17.385 469.102 17.375C469.002 17.365 468.902 17.36 468.802 17.36C468.402 17.36 468.072 17.475 467.812 17.705C467.562 17.925 467.437 18.335 467.437 18.935V19.4H469.237L469.162 20.24H467.437V26H466.492V20.24H465.532V19.4H466.492V18.905C466.492 18.095 466.697 17.49 467.107 17.09C467.517 16.69 468.057 16.49 468.727 16.49C468.847 16.49 468.967 16.5 469.087 16.52C469.217 16.53 469.327 16.545 469.417 16.565ZM476.129 22.7C476.129 23.36 475.979 23.95 475.679 24.47C475.379 24.98 474.969 25.38 474.449 25.67C473.929 25.95 473.349 26.09 472.709 26.09C472.069 26.09 471.489 25.95 470.969 25.67C470.449 25.38 470.039 24.98 469.739 24.47C469.439 23.95 469.289 23.36 469.289 22.7C469.289 22.03 469.439 21.44 469.739 20.93C470.039 20.42 470.449 20.025 470.969 19.745C471.489 19.455 472.069 19.31 472.709 19.31C473.349 19.31 473.929 19.455 474.449 19.745C474.969 20.025 475.379 20.42 475.679 20.93C475.979 21.44 476.129 22.03 476.129 22.7ZM475.139 22.7C475.139 22.2 475.029 21.76 474.809 21.38C474.589 21 474.294 20.705 473.924 20.495C473.564 20.275 473.159 20.165 472.709 20.165C472.259 20.165 471.849 20.275 471.479 20.495C471.109 20.705 470.814 21 470.594 21.38C470.384 21.76 470.279 22.2 470.279 22.7C470.279 23.19 470.389 23.63 470.609 24.02C470.829 24.4 471.124 24.7 471.494 24.92C471.864 25.13 472.269 25.235 472.709 25.235C473.169 25.235 473.584 25.13 473.954 24.92C474.324 24.7 474.614 24.4 474.824 24.02C475.034 23.63 475.139 23.19 475.139 22.7ZM480.565 19.4L480.535 20.315C480.455 20.285 480.35 20.26 480.22 20.24C480.1 20.22 479.99 20.21 479.89 20.21C479.53 20.21 479.18 20.305 478.84 20.495C478.51 20.675 478.22 20.915 477.97 21.215V26H477.01V19.43L477.97 19.37V20.36C478.24 20.04 478.555 19.785 478.915 19.595C479.275 19.405 479.645 19.31 480.025 19.31C480.125 19.31 480.225 19.315 480.325 19.325C480.425 19.335 480.505 19.36 480.565 19.4ZM489.379 17.09L489.304 17.975H484.954V21.065H488.599V21.935H484.954V25.115H489.469V26H483.964V17.09H489.379ZM497.169 25.415C496.829 25.635 496.419 25.805 495.939 25.925C495.469 26.035 494.964 26.09 494.424 26.09C493.494 26.09 492.664 25.9 491.934 25.52C491.214 25.13 490.649 24.59 490.239 23.9C489.839 23.21 489.639 22.425 489.639 21.545C489.639 20.665 489.829 19.885 490.209 19.205C490.599 18.525 491.134 17.99 491.814 17.6C492.494 17.2 493.274 17 494.154 17C494.764 17 495.289 17.06 495.729 17.18C496.179 17.29 496.589 17.475 496.959 17.735L496.629 18.665C496.339 18.435 495.984 18.255 495.564 18.125C495.144 17.985 494.694 17.915 494.214 17.915C493.514 17.915 492.894 18.075 492.354 18.395C491.824 18.705 491.409 19.13 491.109 19.67C490.809 20.21 490.659 20.835 490.659 21.545C490.659 22.235 490.819 22.855 491.139 23.405C491.469 23.955 491.919 24.39 492.489 24.71C493.059 25.02 493.714 25.175 494.454 25.175C494.944 25.175 495.429 25.11 495.909 24.98C496.399 24.84 496.814 24.65 497.154 24.41L497.169 25.415ZM501.966 17C502.856 17 503.641 17.195 504.321 17.585C505.001 17.975 505.536 18.515 505.926 19.205C506.316 19.885 506.511 20.665 506.511 21.545C506.511 22.415 506.316 23.195 505.926 23.885C505.536 24.565 505.001 25.105 504.321 25.505C503.641 25.895 502.856 26.09 501.966 26.09C501.076 26.09 500.286 25.895 499.596 25.505C498.916 25.105 498.381 24.565 497.991 23.885C497.611 23.195 497.421 22.415 497.421 21.545C497.421 20.665 497.611 19.885 497.991 19.205C498.381 18.525 498.916 17.99 499.596 17.6C500.286 17.2 501.076 17 501.966 17ZM501.966 25.19C502.656 25.19 503.266 25.03 503.796 24.71C504.326 24.39 504.736 23.955 505.026 23.405C505.326 22.855 505.476 22.235 505.476 21.545C505.476 20.865 505.326 20.25 505.026 19.7C504.736 19.14 504.326 18.7 503.796 18.38C503.266 18.06 502.656 17.9 501.966 17.9C501.276 17.9 500.666 18.06 500.136 18.38C499.606 18.7 499.191 19.135 498.891 19.685C498.601 20.225 498.456 20.845 498.456 21.545C498.456 22.225 498.601 22.845 498.891 23.405C499.191 23.955 499.606 24.39 500.136 24.71C500.666 25.03 501.276 25.19 501.966 25.19ZM507.575 26V17.09H508.565V25.1H512.675L512.6 26H507.575ZM518.985 17.09L518.91 17.975H514.56V21.065H518.205V21.935H514.56V25.115H519.075V26H513.57V17.09H518.985ZM527.698 21.545C527.698 22.445 527.498 23.23 527.098 23.9C526.698 24.57 526.128 25.09 525.388 25.46C524.648 25.82 523.763 26 522.733 26H520.078V17.09H522.733C523.763 17.09 524.648 17.275 525.388 17.645C526.128 18.005 526.698 18.52 527.098 19.19C527.498 19.85 527.698 20.635 527.698 21.545ZM526.663 21.545C526.663 20.785 526.503 20.14 526.183 19.61C525.863 19.07 525.408 18.66 524.818 18.38C524.228 18.09 523.533 17.945 522.733 17.945H521.053V25.145H522.733C523.543 25.145 524.238 25.005 524.818 24.725C525.408 24.435 525.863 24.02 526.183 23.48C526.503 22.94 526.663 22.295 526.663 21.545ZM529.759 17.09V26H528.769V17.09H529.759ZM537.456 19.85C537.456 20.53 537.256 21.08 536.856 21.5C536.456 21.92 535.961 22.2 535.371 22.34L537.951 26H536.766L534.366 22.565H532.356V26H531.366V17.09H534.066C534.746 17.09 535.341 17.195 535.851 17.405C536.361 17.615 536.756 17.925 537.036 18.335C537.316 18.735 537.456 19.24 537.456 19.85ZM536.436 19.85C536.436 19.39 536.326 19.02 536.106 18.74C535.896 18.46 535.606 18.255 535.236 18.125C534.876 17.995 534.461 17.93 533.991 17.93H532.356V21.755H533.991C534.461 21.755 534.876 21.69 535.236 21.56C535.606 21.43 535.896 21.225 536.106 20.945C536.326 20.665 536.436 20.3 536.436 19.85ZM544.329 17.09L544.254 17.975H539.904V21.065H543.549V21.935H539.904V25.115H544.419V26H538.914V17.09H544.329ZM552.119 25.415C551.779 25.635 551.369 25.805 550.889 25.925C550.419 26.035 549.914 26.09 549.374 26.09C548.444 26.09 547.614 25.9 546.884 25.52C546.164 25.13 545.599 24.59 545.189 23.9C544.789 23.21 544.589 22.425 544.589 21.545C544.589 20.665 544.779 19.885 545.159 19.205C545.549 18.525 546.084 17.99 546.764 17.6C547.444 17.2 548.224 17 549.104 17C549.714 17 550.239 17.06 550.679 17.18C551.129 17.29 551.539 17.475 551.909 17.735L551.579 18.665C551.289 18.435 550.934 18.255 550.514 18.125C550.094 17.985 549.644 17.915 549.164 17.915C548.464 17.915 547.844 18.075 547.304 18.395C546.774 18.705 546.359 19.13 546.059 19.67C545.759 20.21 545.609 20.835 545.609 21.545C545.609 22.235 545.769 22.855 546.089 23.405C546.419 23.955 546.869 24.39 547.439 24.71C548.009 25.02 548.664 25.175 549.404 25.175C549.894 25.175 550.379 25.11 550.859 24.98C551.349 24.84 551.764 24.65 552.104 24.41L552.119 25.415ZM556.429 26H555.439V17.99H552.544V17.09H559.369L559.294 17.99H556.429V26ZM565.713 17.09L565.638 17.975H561.288V21.065H564.933V21.935H561.288V25.115H565.803V26H560.298V17.09H565.713Z" fill="white"/>
</svg>
