<svg width="581" height="43" viewBox="0 0 581 43" fill="none" xmlns="http://www.w3.org/2000/svg">
<rect width="581" height="43" rx="15" fill="#223026"/>
<path fill-rule="evenodd" clip-rule="evenodd" d="M25.0098 18.8346L14 18.835V13.123H25.0098V18.835H30.754V29.8771H25.0098V24.5471C22.093 24.5979 19.7442 26.9647 19.7442 29.8771H14C14 23.8103 18.9205 18.8862 25.0098 18.835V18.8346Z" fill="#A0FFC0"/>
<path d="M53.0059 19.08C53.0059 20.312 52.7259 21.3573 52.1659 22.216C51.6246 23.0747 50.8312 23.7187 49.7859 24.148C48.7406 24.5773 47.4806 24.792 46.0059 24.792H44.0459V30H40.3219V13.368H46.0339C47.5086 13.368 48.7592 13.592 49.7859 14.04C50.8312 14.488 51.6246 15.132 52.1659 15.972C52.7259 16.812 53.0059 17.848 53.0059 19.08ZM49.2819 19.08C49.2819 18.464 49.1419 17.96 48.8619 17.568C48.6006 17.176 48.2179 16.8867 47.7139 16.7C47.2286 16.5133 46.6406 16.42 45.9499 16.42H44.0459V21.74H45.9499C46.6406 21.74 47.2286 21.6467 47.7139 21.46C48.2179 21.2733 48.6006 20.984 48.8619 20.592C49.1419 20.2 49.2819 19.696 49.2819 19.08ZM64.6069 30H61.2189V29.048C60.7709 29.4027 60.2295 29.692 59.5949 29.916C58.9602 30.14 58.2602 30.252 57.4949 30.252C56.1322 30.252 55.0869 29.9253 54.3589 29.272C53.6495 28.6187 53.2949 27.7133 53.2949 26.556C53.2949 25.3053 53.7335 24.3627 54.6109 23.728C55.4882 23.0747 56.6735 22.748 58.1669 22.748C58.7082 22.748 59.2495 22.7947 59.7909 22.888C60.3322 22.9813 60.7709 23.1027 61.1069 23.252V22.58C61.1069 21.852 60.8735 21.3387 60.4069 21.04C59.9589 20.7227 59.2495 20.564 58.2789 20.564C57.5882 20.564 56.8789 20.648 56.1509 20.816C55.4415 20.984 54.8722 21.1987 54.4429 21.46L54.3029 18.324C54.8815 18.044 55.5629 17.8293 56.3469 17.68C57.1495 17.512 57.9709 17.428 58.8109 17.428C60.6775 17.428 62.1055 17.8293 63.0949 18.632C64.1029 19.416 64.6069 20.6573 64.6069 22.356V30ZM61.1069 27.144V25.38C60.8455 25.2493 60.5189 25.1467 60.1269 25.072C59.7535 24.9973 59.3895 24.96 59.0349 24.96C58.3255 24.96 57.7842 25.0907 57.4109 25.352C57.0375 25.5947 56.8509 25.9773 56.8509 26.5C56.8509 26.9853 57.0095 27.34 57.3269 27.564C57.6442 27.7693 58.1109 27.872 58.7269 27.872C59.1562 27.872 59.5949 27.8067 60.0429 27.676C60.4909 27.5267 60.8455 27.3493 61.1069 27.144ZM85.1591 17.68L81.5191 30H77.7111L76.2551 25.66C75.9938 24.764 75.7791 24.0453 75.6111 23.504C75.4431 22.944 75.3031 22.4307 75.1911 21.964H75.0511C74.9578 22.4307 74.8178 22.944 74.6311 23.504C74.4631 24.0453 74.2484 24.764 73.9871 25.66L72.5311 30H68.7231L65.0831 17.764L68.6951 17.596L70.3471 23.476C70.4404 23.868 70.5338 24.3347 70.6271 24.876C70.7391 25.3987 70.8231 25.884 70.8791 26.332H71.0191C71.0751 25.884 71.1684 25.3987 71.2991 24.876C71.4298 24.3347 71.5511 23.868 71.6631 23.476L73.2871 18.604H77.0951L78.7191 23.476C78.8311 23.868 78.9524 24.3347 79.0831 24.876C79.2138 25.3987 79.3071 25.884 79.3631 26.332H79.5031C79.5591 25.884 79.6338 25.3987 79.7271 24.876C79.8391 24.3347 79.9418 23.868 80.0351 23.476L81.6311 17.68H85.1591ZM97.651 30H94.067V22.636C94.067 21.908 93.8897 21.3853 93.535 21.068C93.1804 20.7507 92.695 20.592 92.079 20.592C91.6684 20.592 91.2484 20.6667 90.819 20.816C90.3897 20.9467 89.979 21.1333 89.587 21.376V30H86.003V17.764L89.587 17.596V18.744C90.1844 18.296 90.791 17.9693 91.407 17.764C92.0417 17.54 92.7044 17.428 93.395 17.428C94.683 17.428 95.7097 17.792 96.475 18.52C97.259 19.2293 97.651 20.3493 97.651 21.88V30ZM112.064 23.84C112.064 25.072 111.774 26.1733 111.196 27.144C110.636 28.1147 109.852 28.88 108.844 29.44C107.836 29.9813 106.688 30.252 105.4 30.252C104.112 30.252 102.964 29.9813 101.956 29.44C100.948 28.88 100.154 28.1147 99.5758 27.144C99.0158 26.1733 98.7358 25.072 98.7358 23.84C98.7358 22.5893 99.0158 21.488 99.5758 20.536C100.154 19.5653 100.948 18.8093 101.956 18.268C102.964 17.708 104.112 17.428 105.4 17.428C106.688 17.428 107.836 17.708 108.844 18.268C109.852 18.8093 110.636 19.5653 111.196 20.536C111.774 21.488 112.064 22.5893 112.064 23.84ZM108.368 23.84C108.368 23.1867 108.237 22.6173 107.976 22.132C107.714 21.628 107.36 21.2453 106.912 20.984C106.464 20.704 105.96 20.564 105.4 20.564C104.84 20.564 104.336 20.704 103.888 20.984C103.44 21.2453 103.085 21.628 102.824 22.132C102.562 22.6173 102.432 23.1867 102.432 23.84C102.432 24.4933 102.562 25.072 102.824 25.576C103.085 26.0613 103.44 26.444 103.888 26.724C104.354 26.9853 104.858 27.116 105.4 27.116C105.978 27.116 106.492 26.9853 106.94 26.724C107.388 26.444 107.733 26.0613 107.976 25.576C108.237 25.072 108.368 24.4933 108.368 23.84ZM120.844 17.68L120.592 20.76H117.316V25.436C117.316 26.052 117.465 26.4907 117.764 26.752C118.063 26.9947 118.501 27.116 119.08 27.116C119.397 27.116 119.696 27.0693 119.976 26.976C120.275 26.864 120.527 26.7333 120.732 26.584L120.872 29.608C120.219 30.0373 119.332 30.252 118.212 30.252C116.663 30.252 115.533 29.8693 114.824 29.104C114.115 28.3387 113.76 27.2467 113.76 25.828V20.76H112.08V17.68H113.76V15.104L117.316 14.348V17.68H120.844ZM132.876 24.708H124.98C125.092 25.212 125.316 25.6507 125.652 26.024C126.006 26.3787 126.454 26.6493 126.996 26.836C127.556 27.0227 128.209 27.116 128.956 27.116C129.59 27.116 130.272 27.032 131 26.864C131.728 26.6773 132.325 26.444 132.792 26.164L132.932 29.216C132.446 29.552 131.793 29.8133 130.972 30C130.169 30.168 129.413 30.252 128.704 30.252C127.117 30.252 125.754 29.9907 124.616 29.468C123.496 28.9267 122.646 28.1707 122.068 27.2C121.508 26.2293 121.228 25.0907 121.228 23.784C121.228 22.496 121.489 21.3853 122.012 20.452C122.553 19.5 123.29 18.7627 124.224 18.24C125.176 17.6987 126.24 17.428 127.416 17.428C128.498 17.428 129.46 17.6427 130.3 18.072C131.158 18.5013 131.821 19.1267 132.288 19.948C132.773 20.7507 133.016 21.7213 133.016 22.86C133.016 23.1027 132.997 23.4013 132.96 23.756C132.941 24.092 132.913 24.4093 132.876 24.708ZM127.444 20.004C126.716 20.004 126.118 20.2467 125.652 20.732C125.204 21.2173 124.933 21.8613 124.84 22.664H129.684C129.684 22.6267 129.684 22.5707 129.684 22.496C129.684 22.4027 129.684 22.3373 129.684 22.3C129.684 21.6093 129.478 21.0587 129.068 20.648C128.676 20.2187 128.134 20.004 127.444 20.004Z" fill="#A0FFC0"/>
<path d="M371.91 26H370.995V25.4C370.715 25.6 370.375 25.765 369.975 25.895C369.575 26.025 369.15 26.09 368.7 26.09C367.95 26.09 367.38 25.92 366.99 25.58C366.6 25.24 366.405 24.775 366.405 24.185C366.405 23.505 366.645 23.005 367.125 22.685C367.615 22.355 368.265 22.19 369.075 22.19C369.415 22.19 369.76 22.225 370.11 22.295C370.47 22.365 370.755 22.455 370.965 22.565V21.725C370.965 21.165 370.81 20.765 370.5 20.525C370.19 20.285 369.73 20.165 369.12 20.165C368.71 20.165 368.315 20.22 367.935 20.33C367.565 20.43 367.26 20.555 367.02 20.705L366.975 19.82C367.255 19.66 367.585 19.535 367.965 19.445C368.355 19.355 368.77 19.31 369.21 19.31C370.06 19.31 370.72 19.495 371.19 19.865C371.67 20.225 371.91 20.815 371.91 21.635V26ZM370.965 24.74V23.225C370.755 23.115 370.49 23.03 370.17 22.97C369.86 22.9 369.545 22.865 369.225 22.865C368.665 22.865 368.215 22.97 367.875 23.18C367.545 23.38 367.38 23.71 367.38 24.17C367.38 24.6 367.525 24.91 367.815 25.1C368.105 25.29 368.475 25.385 368.925 25.385C369.315 25.385 369.7 25.32 370.08 25.19C370.46 25.06 370.755 24.91 370.965 24.74ZM381.979 22.655C381.979 23.315 381.829 23.905 381.529 24.425C381.239 24.945 380.834 25.355 380.314 25.655C379.804 25.945 379.219 26.09 378.559 26.09C377.879 26.09 377.304 25.99 376.834 25.79V28.775H375.874V19.43L376.834 19.37V19.955C377.114 19.735 377.419 19.575 377.749 19.475C378.089 19.365 378.449 19.31 378.829 19.31C379.419 19.31 379.949 19.44 380.419 19.7C380.889 19.96 381.264 20.34 381.544 20.84C381.834 21.34 381.979 21.945 381.979 22.655ZM380.989 22.67C380.989 22.14 380.884 21.685 380.674 21.305C380.474 20.925 380.194 20.64 379.834 20.45C379.484 20.25 379.079 20.15 378.619 20.15C377.939 20.15 377.344 20.35 376.834 20.75V24.935C377.044 25.025 377.284 25.1 377.554 25.16C377.834 25.22 378.124 25.25 378.424 25.25C378.904 25.25 379.334 25.15 379.714 24.95C380.104 24.74 380.414 24.44 380.644 24.05C380.874 23.66 380.989 23.2 380.989 22.67ZM388.49 19.37V26H387.545V25.235C387.135 25.525 386.73 25.74 386.33 25.88C385.94 26.02 385.555 26.09 385.175 26.09C384.465 26.09 383.9 25.905 383.48 25.535C383.07 25.155 382.865 24.56 382.865 23.75V19.43L383.825 19.37V23.54C383.825 24.11 383.96 24.535 384.23 24.815C384.51 25.085 384.905 25.22 385.415 25.22C385.765 25.22 386.125 25.15 386.495 25.01C386.865 24.87 387.215 24.68 387.545 24.44V19.43L388.49 19.37ZM395.54 19.37V26H394.595V25.235C394.185 25.525 393.78 25.74 393.38 25.88C392.99 26.02 392.605 26.09 392.225 26.09C391.515 26.09 390.95 25.905 390.53 25.535C390.12 25.155 389.915 24.56 389.915 23.75V19.43L390.875 19.37V23.54C390.875 24.11 391.01 24.535 391.28 24.815C391.56 25.085 391.955 25.22 392.465 25.22C392.815 25.22 393.175 25.15 393.545 25.01C393.915 24.87 394.265 24.68 394.595 24.44V19.43L395.54 19.37ZM400.52 19.4L400.49 20.315C400.41 20.285 400.305 20.26 400.175 20.24C400.055 20.22 399.945 20.21 399.845 20.21C399.485 20.21 399.135 20.305 398.795 20.495C398.465 20.675 398.175 20.915 397.925 21.215V26H396.965V19.43L397.925 19.37V20.36C398.195 20.04 398.51 19.785 398.87 19.595C399.23 19.405 399.6 19.31 399.98 19.31C400.08 19.31 400.18 19.315 400.28 19.325C400.38 19.335 400.46 19.36 400.52 19.4ZM404.516 16.565L404.471 17.42C404.401 17.4 404.311 17.385 404.201 17.375C404.101 17.365 404.001 17.36 403.901 17.36C403.501 17.36 403.171 17.475 402.911 17.705C402.661 17.925 402.536 18.335 402.536 18.935V19.4H404.336L404.261 20.24H402.536V26H401.591V20.24H400.631V19.4H401.591V18.905C401.591 18.095 401.796 17.49 402.206 17.09C402.616 16.69 403.156 16.49 403.826 16.49C403.946 16.49 404.066 16.5 404.186 16.52C404.316 16.53 404.426 16.545 404.516 16.565ZM410.327 22.895H405.422C405.462 23.375 405.597 23.79 405.827 24.14C406.067 24.48 406.382 24.75 406.772 24.95C407.162 25.14 407.612 25.235 408.122 25.235C408.542 25.235 408.952 25.175 409.352 25.055C409.762 24.935 410.102 24.765 410.372 24.545L410.417 25.445C410.157 25.645 409.807 25.805 409.367 25.925C408.937 26.035 408.507 26.09 408.077 26.09C407.357 26.09 406.717 25.95 406.157 25.67C405.607 25.39 405.182 24.99 404.882 24.47C404.582 23.95 404.432 23.335 404.432 22.625C404.432 21.965 404.567 21.385 404.837 20.885C405.107 20.385 405.477 20 405.947 19.73C406.427 19.45 406.967 19.31 407.567 19.31C408.117 19.31 408.602 19.425 409.022 19.655C409.452 19.885 409.787 20.21 410.027 20.63C410.267 21.05 410.387 21.54 410.387 22.1C410.387 22.21 410.382 22.34 410.372 22.49C410.362 22.64 410.347 22.775 410.327 22.895ZM407.567 20.06C406.977 20.06 406.482 20.26 406.082 20.66C405.682 21.06 405.457 21.595 405.407 22.265H409.442C409.452 22.225 409.457 22.185 409.457 22.145C409.457 22.095 409.457 22.04 409.457 21.98C409.457 21.42 409.282 20.96 408.932 20.6C408.592 20.24 408.137 20.06 407.567 20.06ZM416.415 19.895L416.175 20.78C415.965 20.61 415.695 20.47 415.365 20.36C415.035 20.25 414.71 20.195 414.39 20.195C413.92 20.195 413.495 20.3 413.115 20.51C412.735 20.72 412.435 21.015 412.215 21.395C412.005 21.765 411.9 22.2 411.9 22.7C411.9 23.2 412.01 23.64 412.23 24.02C412.45 24.39 412.755 24.68 413.145 24.89C413.535 25.1 413.98 25.205 414.48 25.205C414.86 25.205 415.23 25.145 415.59 25.025C415.96 24.905 416.275 24.735 416.535 24.515L416.58 25.43C416.32 25.63 415.995 25.79 415.605 25.91C415.215 26.03 414.805 26.09 414.375 26.09C413.725 26.09 413.14 25.955 412.62 25.685C412.1 25.415 411.685 25.025 411.375 24.515C411.065 24.005 410.91 23.4 410.91 22.7C410.91 22.04 411.06 21.455 411.36 20.945C411.67 20.425 412.085 20.025 412.605 19.745C413.125 19.455 413.7 19.31 414.33 19.31C414.77 19.31 415.17 19.365 415.53 19.475C415.89 19.575 416.185 19.715 416.415 19.895ZM420.88 19.4L420.805 20.24H418.735V24.02C418.735 24.45 418.84 24.76 419.05 24.95C419.26 25.14 419.545 25.235 419.905 25.235C420.115 25.235 420.305 25.205 420.475 25.145C420.655 25.075 420.81 24.995 420.94 24.905L420.985 25.745C420.675 25.975 420.26 26.09 419.74 26.09C419.1 26.09 418.61 25.93 418.27 25.61C417.94 25.28 417.775 24.79 417.775 24.14V20.24H416.815V19.4H417.775V17.915L418.735 17.66V19.4H420.88ZM431.793 26H430.743L429.648 23.255H425.733L424.638 26H423.618L427.158 17.09H428.268L431.793 26ZM429.348 22.43L428.028 19.115C427.958 18.945 427.898 18.79 427.848 18.65C427.808 18.5 427.768 18.35 427.728 18.2H427.653C427.613 18.35 427.568 18.5 427.518 18.65C427.478 18.79 427.423 18.945 427.353 19.115L426.018 22.43H429.348ZM438.757 19.955C438.757 20.605 438.602 21.145 438.292 21.575C437.992 21.995 437.577 22.305 437.047 22.505C436.517 22.705 435.912 22.805 435.232 22.805H433.582V26H432.592V17.09H435.232C435.922 17.09 436.527 17.195 437.047 17.405C437.577 17.605 437.992 17.915 438.292 18.335C438.602 18.755 438.757 19.295 438.757 19.955ZM437.752 19.955C437.752 19.445 437.632 19.045 437.392 18.755C437.152 18.455 436.837 18.245 436.447 18.125C436.057 17.995 435.627 17.93 435.157 17.93H433.582V21.965H435.157C435.627 21.965 436.057 21.905 436.447 21.785C436.837 21.665 437.152 21.46 437.392 21.17C437.632 20.87 437.752 20.465 437.752 19.955ZM440.808 17.09V26H439.818V17.09H440.808ZM454.373 19.4L452.153 26H451.148L449.813 22.34C449.713 22.02 449.623 21.74 449.543 21.5C449.463 21.26 449.398 21.045 449.348 20.855H449.273C449.233 21.045 449.168 21.26 449.078 21.5C448.998 21.74 448.908 22.02 448.808 22.34L447.473 26H446.468L444.248 19.43L445.238 19.37L446.648 23.63C446.718 23.85 446.783 24.08 446.843 24.32C446.913 24.55 446.968 24.765 447.008 24.965H447.068C447.108 24.765 447.163 24.55 447.233 24.32C447.313 24.08 447.388 23.85 447.458 23.63L448.823 19.85H449.828L451.193 23.63C451.263 23.85 451.338 24.08 451.418 24.32C451.498 24.55 451.553 24.765 451.583 24.965H451.658C451.698 24.765 451.748 24.55 451.808 24.32C451.878 24.08 451.943 23.85 452.003 23.63L453.398 19.4H454.373ZM458.72 19.4L458.69 20.315C458.61 20.285 458.505 20.26 458.375 20.24C458.255 20.22 458.145 20.21 458.045 20.21C457.685 20.21 457.335 20.305 456.995 20.495C456.665 20.675 456.375 20.915 456.125 21.215V26H455.165V19.43L456.125 19.37V20.36C456.395 20.04 456.71 19.785 457.07 19.595C457.43 19.405 457.8 19.31 458.18 19.31C458.28 19.31 458.38 19.315 458.48 19.325C458.58 19.335 458.66 19.36 458.72 19.4ZM464.441 26H463.526V25.4C463.246 25.6 462.906 25.765 462.506 25.895C462.106 26.025 461.681 26.09 461.231 26.09C460.481 26.09 459.911 25.92 459.521 25.58C459.131 25.24 458.936 24.775 458.936 24.185C458.936 23.505 459.176 23.005 459.656 22.685C460.146 22.355 460.796 22.19 461.606 22.19C461.946 22.19 462.291 22.225 462.641 22.295C463.001 22.365 463.286 22.455 463.496 22.565V21.725C463.496 21.165 463.341 20.765 463.031 20.525C462.721 20.285 462.261 20.165 461.651 20.165C461.241 20.165 460.846 20.22 460.466 20.33C460.096 20.43 459.791 20.555 459.551 20.705L459.506 19.82C459.786 19.66 460.116 19.535 460.496 19.445C460.886 19.355 461.301 19.31 461.741 19.31C462.591 19.31 463.251 19.495 463.721 19.865C464.201 20.225 464.441 20.815 464.441 21.635V26ZM463.496 24.74V23.225C463.286 23.115 463.021 23.03 462.701 22.97C462.391 22.9 462.076 22.865 461.756 22.865C461.196 22.865 460.746 22.97 460.406 23.18C460.076 23.38 459.911 23.71 459.911 24.17C459.911 24.6 460.056 24.91 460.346 25.1C460.636 25.29 461.006 25.385 461.456 25.385C461.846 25.385 462.231 25.32 462.611 25.19C462.991 25.06 463.286 24.91 463.496 24.74ZM471.956 22.655C471.956 23.315 471.806 23.905 471.506 24.425C471.216 24.945 470.811 25.355 470.291 25.655C469.781 25.945 469.196 26.09 468.536 26.09C467.856 26.09 467.281 25.99 466.811 25.79V28.775H465.851V19.43L466.811 19.37V19.955C467.091 19.735 467.396 19.575 467.726 19.475C468.066 19.365 468.426 19.31 468.806 19.31C469.396 19.31 469.926 19.44 470.396 19.7C470.866 19.96 471.241 20.34 471.521 20.84C471.811 21.34 471.956 21.945 471.956 22.655ZM470.966 22.67C470.966 22.14 470.861 21.685 470.651 21.305C470.451 20.925 470.171 20.64 469.811 20.45C469.461 20.25 469.056 20.15 468.596 20.15C467.916 20.15 467.321 20.35 466.811 20.75V24.935C467.021 25.025 467.261 25.1 467.531 25.16C467.811 25.22 468.101 25.25 468.401 25.25C468.881 25.25 469.311 25.15 469.691 24.95C470.081 24.74 470.391 24.44 470.621 24.05C470.851 23.66 470.966 23.2 470.966 22.67ZM478.948 22.655C478.948 23.315 478.798 23.905 478.498 24.425C478.208 24.945 477.803 25.355 477.283 25.655C476.773 25.945 476.188 26.09 475.528 26.09C474.848 26.09 474.273 25.99 473.803 25.79V28.775H472.843V19.43L473.803 19.37V19.955C474.083 19.735 474.388 19.575 474.718 19.475C475.058 19.365 475.418 19.31 475.798 19.31C476.388 19.31 476.918 19.44 477.388 19.7C477.858 19.96 478.233 20.34 478.513 20.84C478.803 21.34 478.948 21.945 478.948 22.655ZM477.958 22.67C477.958 22.14 477.853 21.685 477.643 21.305C477.443 20.925 477.163 20.64 476.803 20.45C476.453 20.25 476.048 20.15 475.588 20.15C474.908 20.15 474.313 20.35 473.803 20.75V24.935C474.013 25.025 474.253 25.1 474.523 25.16C474.803 25.22 475.093 25.25 475.393 25.25C475.873 25.25 476.303 25.15 476.683 24.95C477.073 24.74 477.383 24.44 477.613 24.05C477.843 23.66 477.958 23.2 477.958 22.67ZM485.204 22.895H480.299C480.339 23.375 480.474 23.79 480.704 24.14C480.944 24.48 481.259 24.75 481.649 24.95C482.039 25.14 482.489 25.235 482.999 25.235C483.419 25.235 483.829 25.175 484.229 25.055C484.639 24.935 484.979 24.765 485.249 24.545L485.294 25.445C485.034 25.645 484.684 25.805 484.244 25.925C483.814 26.035 483.384 26.09 482.954 26.09C482.234 26.09 481.594 25.95 481.034 25.67C480.484 25.39 480.059 24.99 479.759 24.47C479.459 23.95 479.309 23.335 479.309 22.625C479.309 21.965 479.444 21.385 479.714 20.885C479.984 20.385 480.354 20 480.824 19.73C481.304 19.45 481.844 19.31 482.444 19.31C482.994 19.31 483.479 19.425 483.899 19.655C484.329 19.885 484.664 20.21 484.904 20.63C485.144 21.05 485.264 21.54 485.264 22.1C485.264 22.21 485.259 22.34 485.249 22.49C485.239 22.64 485.224 22.775 485.204 22.895ZM482.444 20.06C481.854 20.06 481.359 20.26 480.959 20.66C480.559 21.06 480.334 21.595 480.284 22.265H484.319C484.329 22.225 484.334 22.185 484.334 22.145C484.334 22.095 484.334 22.04 484.334 21.98C484.334 21.42 484.159 20.96 483.809 20.6C483.469 20.24 483.014 20.06 482.444 20.06ZM489.868 19.4L489.838 20.315C489.758 20.285 489.653 20.26 489.523 20.24C489.403 20.22 489.293 20.21 489.193 20.21C488.833 20.21 488.483 20.305 488.143 20.495C487.813 20.675 487.523 20.915 487.273 21.215V26H486.313V19.43L487.273 19.37V20.36C487.543 20.04 487.858 19.785 488.218 19.595C488.578 19.405 488.948 19.31 489.328 19.31C489.428 19.31 489.528 19.315 489.628 19.325C489.728 19.335 489.808 19.36 489.868 19.4ZM496.417 16.565L496.372 17.42C496.302 17.4 496.212 17.385 496.102 17.375C496.002 17.365 495.902 17.36 495.802 17.36C495.402 17.36 495.072 17.475 494.812 17.705C494.562 17.925 494.437 18.335 494.437 18.935V19.4H496.237L496.162 20.24H494.437V26H493.492V20.24H492.532V19.4H493.492V18.905C493.492 18.095 493.697 17.49 494.107 17.09C494.517 16.69 495.057 16.49 495.727 16.49C495.847 16.49 495.967 16.5 496.087 16.52C496.217 16.53 496.327 16.545 496.417 16.565ZM503.129 22.7C503.129 23.36 502.979 23.95 502.679 24.47C502.379 24.98 501.969 25.38 501.449 25.67C500.929 25.95 500.349 26.09 499.709 26.09C499.069 26.09 498.489 25.95 497.969 25.67C497.449 25.38 497.039 24.98 496.739 24.47C496.439 23.95 496.289 23.36 496.289 22.7C496.289 22.03 496.439 21.44 496.739 20.93C497.039 20.42 497.449 20.025 497.969 19.745C498.489 19.455 499.069 19.31 499.709 19.31C500.349 19.31 500.929 19.455 501.449 19.745C501.969 20.025 502.379 20.42 502.679 20.93C502.979 21.44 503.129 22.03 503.129 22.7ZM502.139 22.7C502.139 22.2 502.029 21.76 501.809 21.38C501.589 21 501.294 20.705 500.924 20.495C500.564 20.275 500.159 20.165 499.709 20.165C499.259 20.165 498.849 20.275 498.479 20.495C498.109 20.705 497.814 21 497.594 21.38C497.384 21.76 497.279 22.2 497.279 22.7C497.279 23.19 497.389 23.63 497.609 24.02C497.829 24.4 498.124 24.7 498.494 24.92C498.864 25.13 499.269 25.235 499.709 25.235C500.169 25.235 500.584 25.13 500.954 24.92C501.324 24.7 501.614 24.4 501.824 24.02C502.034 23.63 502.139 23.19 502.139 22.7ZM507.565 19.4L507.535 20.315C507.455 20.285 507.35 20.26 507.22 20.24C507.1 20.22 506.99 20.21 506.89 20.21C506.53 20.21 506.18 20.305 505.84 20.495C505.51 20.675 505.22 20.915 504.97 21.215V26H504.01V19.43L504.97 19.37V20.36C505.24 20.04 505.555 19.785 505.915 19.595C506.275 19.405 506.645 19.31 507.025 19.31C507.125 19.31 507.225 19.315 507.325 19.325C507.425 19.335 507.505 19.36 507.565 19.4ZM517.129 19.955C517.129 20.605 516.974 21.145 516.664 21.575C516.364 21.995 515.949 22.305 515.419 22.505C514.889 22.705 514.284 22.805 513.604 22.805H511.954V26H510.964V17.09H513.604C514.294 17.09 514.899 17.195 515.419 17.405C515.949 17.605 516.364 17.915 516.664 18.335C516.974 18.755 517.129 19.295 517.129 19.955ZM516.124 19.955C516.124 19.445 516.004 19.045 515.764 18.755C515.524 18.455 515.209 18.245 514.819 18.125C514.429 17.995 513.999 17.93 513.529 17.93H511.954V21.965H513.529C513.999 21.965 514.429 21.905 514.819 21.785C515.209 21.665 515.524 21.46 515.764 21.17C516.004 20.87 516.124 20.465 516.124 19.955ZM524.28 19.85C524.28 20.53 524.08 21.08 523.68 21.5C523.28 21.92 522.785 22.2 522.195 22.34L524.775 26H523.59L521.19 22.565H519.18V26H518.19V17.09H520.89C521.57 17.09 522.165 17.195 522.675 17.405C523.185 17.615 523.58 17.925 523.86 18.335C524.14 18.735 524.28 19.24 524.28 19.85ZM523.26 19.85C523.26 19.39 523.15 19.02 522.93 18.74C522.72 18.46 522.43 18.255 522.06 18.125C521.7 17.995 521.285 17.93 520.815 17.93H519.18V21.755H520.815C521.285 21.755 521.7 21.69 522.06 21.56C522.43 21.43 522.72 21.225 522.93 20.945C523.15 20.665 523.26 20.3 523.26 19.85ZM529.567 17C530.457 17 531.242 17.195 531.922 17.585C532.602 17.975 533.137 18.515 533.527 19.205C533.917 19.885 534.112 20.665 534.112 21.545C534.112 22.415 533.917 23.195 533.527 23.885C533.137 24.565 532.602 25.105 531.922 25.505C531.242 25.895 530.457 26.09 529.567 26.09C528.677 26.09 527.887 25.895 527.197 25.505C526.517 25.105 525.982 24.565 525.592 23.885C525.212 23.195 525.022 22.415 525.022 21.545C525.022 20.665 525.212 19.885 525.592 19.205C525.982 18.525 526.517 17.99 527.197 17.6C527.887 17.2 528.677 17 529.567 17ZM529.567 25.19C530.257 25.19 530.867 25.03 531.397 24.71C531.927 24.39 532.337 23.955 532.627 23.405C532.927 22.855 533.077 22.235 533.077 21.545C533.077 20.865 532.927 20.25 532.627 19.7C532.337 19.14 531.927 18.7 531.397 18.38C530.867 18.06 530.257 17.9 529.567 17.9C528.877 17.9 528.267 18.06 527.737 18.38C527.207 18.7 526.792 19.135 526.492 19.685C526.202 20.225 526.057 20.845 526.057 21.545C526.057 22.225 526.202 22.845 526.492 23.405C526.792 23.955 527.207 24.39 527.737 24.71C528.267 25.03 528.877 25.19 529.567 25.19ZM542.361 17.09V26H541.461L536.796 19.565C536.666 19.385 536.546 19.215 536.436 19.055C536.336 18.885 536.251 18.74 536.181 18.62H536.121V26H535.176V17.09H536.151L540.741 23.42C540.861 23.59 540.976 23.76 541.086 23.93C541.196 24.09 541.286 24.235 541.356 24.365H541.401V17.09H542.361ZM547.959 17C548.849 17 549.634 17.195 550.314 17.585C550.994 17.975 551.529 18.515 551.919 19.205C552.309 19.885 552.504 20.665 552.504 21.545C552.504 22.415 552.309 23.195 551.919 23.885C551.529 24.565 550.994 25.105 550.314 25.505C549.634 25.895 548.849 26.09 547.959 26.09C547.069 26.09 546.279 25.895 545.589 25.505C544.909 25.105 544.374 24.565 543.984 23.885C543.604 23.195 543.414 22.415 543.414 21.545C543.414 20.665 543.604 19.885 543.984 19.205C544.374 18.525 544.909 17.99 545.589 17.6C546.279 17.2 547.069 17 547.959 17ZM547.959 25.19C548.649 25.19 549.259 25.03 549.789 24.71C550.319 24.39 550.729 23.955 551.019 23.405C551.319 22.855 551.469 22.235 551.469 21.545C551.469 20.865 551.319 20.25 551.019 19.7C550.729 19.14 550.319 18.7 549.789 18.38C549.259 18.06 548.649 17.9 547.959 17.9C547.269 17.9 546.659 18.06 546.129 18.38C545.599 18.7 545.184 19.135 544.884 19.685C544.594 20.225 544.449 20.845 544.449 21.545C544.449 22.225 544.594 22.845 544.884 23.405C545.184 23.955 545.599 24.39 546.129 24.71C546.659 25.03 547.269 25.19 547.959 25.19ZM556.353 26H555.363V17.99H552.468V17.09H559.293L559.218 17.99H556.353V26ZM565.637 17.09L565.562 17.975H561.212V21.065H564.857V21.935H561.212V25.115H565.727V26H560.222V17.09H565.637Z" fill="white"/>
</svg>
