<svg width="581" height="43" viewBox="0 0 581 43" fill="none" xmlns="http://www.w3.org/2000/svg">
<rect width="581" height="43" rx="15" fill="#441B27"/>
<path fill-rule="evenodd" clip-rule="evenodd" d="M25.0098 18.8346L14 18.835V13.123H25.0098V18.835H30.754V29.8771H25.0098V24.5471C22.093 24.5979 19.7442 26.9647 19.7442 29.8771H14C14 23.8103 18.9205 18.8862 25.0098 18.835V18.8346Z" fill="#BD0F41"/>
<path d="M53.0059 19.08C53.0059 20.312 52.7259 21.3573 52.1659 22.216C51.6246 23.0747 50.8312 23.7187 49.7859 24.148C48.7406 24.5773 47.4806 24.792 46.0059 24.792H44.0459V30H40.3219V13.368H46.0339C47.5086 13.368 48.7592 13.592 49.7859 14.04C50.8312 14.488 51.6246 15.132 52.1659 15.972C52.7259 16.812 53.0059 17.848 53.0059 19.08ZM49.2819 19.08C49.2819 18.464 49.1419 17.96 48.8619 17.568C48.6006 17.176 48.2179 16.8867 47.7139 16.7C47.2286 16.5133 46.6406 16.42 45.9499 16.42H44.0459V21.74H45.9499C46.6406 21.74 47.2286 21.6467 47.7139 21.46C48.2179 21.2733 48.6006 20.984 48.8619 20.592C49.1419 20.2 49.2819 19.696 49.2819 19.08ZM64.6069 30H61.2189V29.048C60.7709 29.4027 60.2295 29.692 59.5949 29.916C58.9602 30.14 58.2602 30.252 57.4949 30.252C56.1322 30.252 55.0869 29.9253 54.3589 29.272C53.6495 28.6187 53.2949 27.7133 53.2949 26.556C53.2949 25.3053 53.7335 24.3627 54.6109 23.728C55.4882 23.0747 56.6735 22.748 58.1669 22.748C58.7082 22.748 59.2495 22.7947 59.7909 22.888C60.3322 22.9813 60.7709 23.1027 61.1069 23.252V22.58C61.1069 21.852 60.8735 21.3387 60.4069 21.04C59.9589 20.7227 59.2495 20.564 58.2789 20.564C57.5882 20.564 56.8789 20.648 56.1509 20.816C55.4415 20.984 54.8722 21.1987 54.4429 21.46L54.3029 18.324C54.8815 18.044 55.5629 17.8293 56.3469 17.68C57.1495 17.512 57.9709 17.428 58.8109 17.428C60.6775 17.428 62.1055 17.8293 63.0949 18.632C64.1029 19.416 64.6069 20.6573 64.6069 22.356V30ZM61.1069 27.144V25.38C60.8455 25.2493 60.5189 25.1467 60.1269 25.072C59.7535 24.9973 59.3895 24.96 59.0349 24.96C58.3255 24.96 57.7842 25.0907 57.4109 25.352C57.0375 25.5947 56.8509 25.9773 56.8509 26.5C56.8509 26.9853 57.0095 27.34 57.3269 27.564C57.6442 27.7693 58.1109 27.872 58.7269 27.872C59.1562 27.872 59.5949 27.8067 60.0429 27.676C60.4909 27.5267 60.8455 27.3493 61.1069 27.144ZM85.1591 17.68L81.5191 30H77.7111L76.2551 25.66C75.9938 24.764 75.7791 24.0453 75.6111 23.504C75.4431 22.944 75.3031 22.4307 75.1911 21.964H75.0511C74.9578 22.4307 74.8178 22.944 74.6311 23.504C74.4631 24.0453 74.2484 24.764 73.9871 25.66L72.5311 30H68.7231L65.0831 17.764L68.6951 17.596L70.3471 23.476C70.4404 23.868 70.5338 24.3347 70.6271 24.876C70.7391 25.3987 70.8231 25.884 70.8791 26.332H71.0191C71.0751 25.884 71.1684 25.3987 71.2991 24.876C71.4298 24.3347 71.5511 23.868 71.6631 23.476L73.2871 18.604H77.0951L78.7191 23.476C78.8311 23.868 78.9524 24.3347 79.0831 24.876C79.2138 25.3987 79.3071 25.884 79.3631 26.332H79.5031C79.5591 25.884 79.6338 25.3987 79.7271 24.876C79.8391 24.3347 79.9418 23.868 80.0351 23.476L81.6311 17.68H85.1591ZM97.651 30H94.067V22.636C94.067 21.908 93.8897 21.3853 93.535 21.068C93.1804 20.7507 92.695 20.592 92.079 20.592C91.6684 20.592 91.2484 20.6667 90.819 20.816C90.3897 20.9467 89.979 21.1333 89.587 21.376V30H86.003V17.764L89.587 17.596V18.744C90.1844 18.296 90.791 17.9693 91.407 17.764C92.0417 17.54 92.7044 17.428 93.395 17.428C94.683 17.428 95.7097 17.792 96.475 18.52C97.259 19.2293 97.651 20.3493 97.651 21.88V30ZM101.312 12.024C101.872 12.024 102.329 12.2107 102.684 12.584C103.038 12.9387 103.216 13.3867 103.216 13.928C103.216 14.488 103.038 14.9547 102.684 15.328C102.329 15.6827 101.872 15.86 101.312 15.86C100.733 15.86 100.248 15.6827 99.8558 15.328C99.4825 14.9547 99.2958 14.488 99.2958 13.928C99.2958 13.3867 99.4825 12.9387 99.8558 12.584C100.248 12.2107 100.733 12.024 101.312 12.024ZM103.048 17.596V30H99.4638V17.764L103.048 17.596ZM108.442 12.248V30H104.858V12.416L108.442 12.248ZM112.101 12.024C112.661 12.024 113.118 12.2107 113.473 12.584C113.827 12.9387 114.005 13.3867 114.005 13.928C114.005 14.488 113.827 14.9547 113.473 15.328C113.118 15.6827 112.661 15.86 112.101 15.86C111.522 15.86 111.037 15.6827 110.645 15.328C110.271 14.9547 110.085 14.488 110.085 13.928C110.085 13.3867 110.271 12.9387 110.645 12.584C111.037 12.2107 111.522 12.024 112.101 12.024ZM113.837 17.596V30H110.253V17.764L113.837 17.596ZM134.771 30H131.187V22.636C131.187 22.5427 131.178 22.4587 131.159 22.384C131.14 22.3093 131.122 22.2347 131.103 22.16C131.047 21.6 130.86 21.1987 130.543 20.956C130.226 20.7133 129.815 20.592 129.311 20.592C129.292 20.592 129.264 20.6013 129.227 20.62C129.19 20.62 129.162 20.62 129.143 20.62C128.788 20.6387 128.415 20.7133 128.023 20.844C127.65 20.9747 127.286 21.152 126.931 21.376C126.95 21.544 126.959 21.712 126.959 21.88C126.978 22.048 126.987 22.2253 126.987 22.412V30H123.431V22.636C123.431 22.5427 123.422 22.4587 123.403 22.384C123.384 22.3093 123.366 22.2347 123.347 22.16C123.291 21.6 123.104 21.1987 122.787 20.956C122.47 20.7133 122.059 20.592 121.555 20.592C121.2 20.592 120.808 20.6667 120.379 20.816C119.968 20.9467 119.586 21.1333 119.231 21.376V30H115.647V17.764L119.231 17.596V18.744C119.642 18.4267 120.052 18.1747 120.463 17.988C120.892 17.7827 121.312 17.652 121.723 17.596C122.208 17.484 122.722 17.456 123.263 17.512C123.935 17.5493 124.542 17.708 125.083 17.988C125.624 18.268 126.054 18.688 126.371 19.248C127.024 18.6133 127.696 18.156 128.387 17.876C129.096 17.5773 129.815 17.428 130.543 17.428C131.794 17.428 132.811 17.792 133.595 18.52C134.379 19.2293 134.771 20.3493 134.771 21.88V30Z" fill="#BD0F41"/>
<path d="M391.91 26H390.995V25.4C390.715 25.6 390.375 25.765 389.975 25.895C389.575 26.025 389.15 26.09 388.7 26.09C387.95 26.09 387.38 25.92 386.99 25.58C386.6 25.24 386.405 24.775 386.405 24.185C386.405 23.505 386.645 23.005 387.125 22.685C387.615 22.355 388.265 22.19 389.075 22.19C389.415 22.19 389.76 22.225 390.11 22.295C390.47 22.365 390.755 22.455 390.965 22.565V21.725C390.965 21.165 390.81 20.765 390.5 20.525C390.19 20.285 389.73 20.165 389.12 20.165C388.71 20.165 388.315 20.22 387.935 20.33C387.565 20.43 387.26 20.555 387.02 20.705L386.975 19.82C387.255 19.66 387.585 19.535 387.965 19.445C388.355 19.355 388.77 19.31 389.21 19.31C390.06 19.31 390.72 19.495 391.19 19.865C391.67 20.225 391.91 20.815 391.91 21.635V26ZM390.965 24.74V23.225C390.755 23.115 390.49 23.03 390.17 22.97C389.86 22.9 389.545 22.865 389.225 22.865C388.665 22.865 388.215 22.97 387.875 23.18C387.545 23.38 387.38 23.71 387.38 24.17C387.38 24.6 387.525 24.91 387.815 25.1C388.105 25.29 388.475 25.385 388.925 25.385C389.315 25.385 389.7 25.32 390.08 25.19C390.46 25.06 390.755 24.91 390.965 24.74ZM401.979 22.655C401.979 23.315 401.829 23.905 401.529 24.425C401.239 24.945 400.834 25.355 400.314 25.655C399.804 25.945 399.219 26.09 398.559 26.09C397.879 26.09 397.304 25.99 396.834 25.79V28.775H395.874V19.43L396.834 19.37V19.955C397.114 19.735 397.419 19.575 397.749 19.475C398.089 19.365 398.449 19.31 398.829 19.31C399.419 19.31 399.949 19.44 400.419 19.7C400.889 19.96 401.264 20.34 401.544 20.84C401.834 21.34 401.979 21.945 401.979 22.655ZM400.989 22.67C400.989 22.14 400.884 21.685 400.674 21.305C400.474 20.925 400.194 20.64 399.834 20.45C399.484 20.25 399.079 20.15 398.619 20.15C397.939 20.15 397.344 20.35 396.834 20.75V24.935C397.044 25.025 397.284 25.1 397.554 25.16C397.834 25.22 398.124 25.25 398.424 25.25C398.904 25.25 399.334 25.15 399.714 24.95C400.104 24.74 400.414 24.44 400.644 24.05C400.874 23.66 400.989 23.2 400.989 22.67ZM408.49 19.37V26H407.545V25.235C407.135 25.525 406.73 25.74 406.33 25.88C405.94 26.02 405.555 26.09 405.175 26.09C404.465 26.09 403.9 25.905 403.48 25.535C403.07 25.155 402.865 24.56 402.865 23.75V19.43L403.825 19.37V23.54C403.825 24.11 403.96 24.535 404.23 24.815C404.51 25.085 404.905 25.22 405.415 25.22C405.765 25.22 406.125 25.15 406.495 25.01C406.865 24.87 407.215 24.68 407.545 24.44V19.43L408.49 19.37ZM413.47 19.4L413.44 20.315C413.36 20.285 413.255 20.26 413.125 20.24C413.005 20.22 412.895 20.21 412.795 20.21C412.435 20.21 412.085 20.305 411.745 20.495C411.415 20.675 411.125 20.915 410.875 21.215V26H409.915V19.43L410.875 19.37V20.36C411.145 20.04 411.46 19.785 411.82 19.595C412.18 19.405 412.55 19.31 412.93 19.31C413.03 19.31 413.13 19.315 413.23 19.325C413.33 19.335 413.41 19.36 413.47 19.4ZM417.766 19.4L417.736 20.315C417.656 20.285 417.551 20.26 417.421 20.24C417.301 20.22 417.191 20.21 417.091 20.21C416.731 20.21 416.381 20.305 416.041 20.495C415.711 20.675 415.421 20.915 415.171 21.215V26H414.211V19.43L415.171 19.37V20.36C415.441 20.04 415.756 19.785 416.116 19.595C416.476 19.405 416.846 19.31 417.226 19.31C417.326 19.31 417.426 19.315 417.526 19.325C417.626 19.335 417.706 19.36 417.766 19.4ZM421.762 16.565L421.717 17.42C421.647 17.4 421.557 17.385 421.447 17.375C421.347 17.365 421.247 17.36 421.147 17.36C420.747 17.36 420.417 17.475 420.157 17.705C419.907 17.925 419.782 18.335 419.782 18.935V19.4H421.582L421.507 20.24H419.782V26H418.837V20.24H417.877V19.4H418.837V18.905C418.837 18.095 419.042 17.49 419.452 17.09C419.862 16.69 420.402 16.49 421.072 16.49C421.192 16.49 421.312 16.5 421.432 16.52C421.562 16.53 421.672 16.545 421.762 16.565ZM427.573 22.895H422.668C422.708 23.375 422.843 23.79 423.073 24.14C423.313 24.48 423.628 24.75 424.018 24.95C424.408 25.14 424.858 25.235 425.368 25.235C425.788 25.235 426.198 25.175 426.598 25.055C427.008 24.935 427.348 24.765 427.618 24.545L427.663 25.445C427.403 25.645 427.053 25.805 426.613 25.925C426.183 26.035 425.753 26.09 425.323 26.09C424.603 26.09 423.963 25.95 423.403 25.67C422.853 25.39 422.428 24.99 422.128 24.47C421.828 23.95 421.678 23.335 421.678 22.625C421.678 21.965 421.813 21.385 422.083 20.885C422.353 20.385 422.723 20 423.193 19.73C423.673 19.45 424.213 19.31 424.813 19.31C425.363 19.31 425.848 19.425 426.268 19.655C426.698 19.885 427.033 20.21 427.273 20.63C427.513 21.05 427.633 21.54 427.633 22.1C427.633 22.21 427.628 22.34 427.618 22.49C427.608 22.64 427.593 22.775 427.573 22.895ZM424.813 20.06C424.223 20.06 423.728 20.26 423.328 20.66C422.928 21.06 422.703 21.595 422.653 22.265H426.688C426.698 22.225 426.703 22.185 426.703 22.145C426.703 22.095 426.703 22.04 426.703 21.98C426.703 21.42 426.528 20.96 426.178 20.6C425.838 20.24 425.383 20.06 424.813 20.06ZM433.662 19.895L433.422 20.78C433.212 20.61 432.942 20.47 432.612 20.36C432.282 20.25 431.957 20.195 431.637 20.195C431.167 20.195 430.742 20.3 430.362 20.51C429.982 20.72 429.682 21.015 429.462 21.395C429.252 21.765 429.147 22.2 429.147 22.7C429.147 23.2 429.257 23.64 429.477 24.02C429.697 24.39 430.002 24.68 430.392 24.89C430.782 25.1 431.227 25.205 431.727 25.205C432.107 25.205 432.477 25.145 432.837 25.025C433.207 24.905 433.522 24.735 433.782 24.515L433.827 25.43C433.567 25.63 433.242 25.79 432.852 25.91C432.462 26.03 432.052 26.09 431.622 26.09C430.972 26.09 430.387 25.955 429.867 25.685C429.347 25.415 428.932 25.025 428.622 24.515C428.312 24.005 428.157 23.4 428.157 22.7C428.157 22.04 428.307 21.455 428.607 20.945C428.917 20.425 429.332 20.025 429.852 19.745C430.372 19.455 430.947 19.31 431.577 19.31C432.017 19.31 432.417 19.365 432.777 19.475C433.137 19.575 433.432 19.715 433.662 19.895ZM438.126 19.4L438.051 20.24H435.981V24.02C435.981 24.45 436.086 24.76 436.296 24.95C436.506 25.14 436.791 25.235 437.151 25.235C437.361 25.235 437.551 25.205 437.721 25.145C437.901 25.075 438.056 24.995 438.186 24.905L438.231 25.745C437.921 25.975 437.506 26.09 436.986 26.09C436.346 26.09 435.856 25.93 435.516 25.61C435.186 25.28 435.021 24.79 435.021 24.14V20.24H434.061V19.4H435.021V17.915L435.981 17.66V19.4H438.126ZM449.039 26H447.989L446.894 23.255H442.979L441.884 26H440.864L444.404 17.09H445.514L449.039 26ZM446.594 22.43L445.274 19.115C445.204 18.945 445.144 18.79 445.094 18.65C445.054 18.5 445.014 18.35 444.974 18.2H444.899C444.859 18.35 444.814 18.5 444.764 18.65C444.724 18.79 444.669 18.945 444.599 19.115L443.264 22.43H446.594ZM456.003 19.955C456.003 20.605 455.848 21.145 455.538 21.575C455.238 21.995 454.823 22.305 454.293 22.505C453.763 22.705 453.158 22.805 452.478 22.805H450.828V26H449.838V17.09H452.478C453.168 17.09 453.773 17.195 454.293 17.405C454.823 17.605 455.238 17.915 455.538 18.335C455.848 18.755 456.003 19.295 456.003 19.955ZM454.998 19.955C454.998 19.445 454.878 19.045 454.638 18.755C454.398 18.455 454.083 18.245 453.693 18.125C453.303 17.995 452.873 17.93 452.403 17.93H450.828V21.965H452.403C452.873 21.965 453.303 21.905 453.693 21.785C454.083 21.665 454.398 21.46 454.638 21.17C454.878 20.87 454.998 20.465 454.998 19.955ZM458.054 17.09V26H457.064V17.09H458.054ZM471.619 19.4L469.399 26H468.394L467.059 22.34C466.959 22.02 466.869 21.74 466.789 21.5C466.709 21.26 466.644 21.045 466.594 20.855H466.519C466.479 21.045 466.414 21.26 466.324 21.5C466.244 21.74 466.154 22.02 466.054 22.34L464.719 26H463.714L461.494 19.43L462.484 19.37L463.894 23.63C463.964 23.85 464.029 24.08 464.089 24.32C464.159 24.55 464.214 24.765 464.254 24.965H464.314C464.354 24.765 464.409 24.55 464.479 24.32C464.559 24.08 464.634 23.85 464.704 23.63L466.069 19.85H467.074L468.439 23.63C468.509 23.85 468.584 24.08 468.664 24.32C468.744 24.55 468.799 24.765 468.829 24.965H468.904C468.944 24.765 468.994 24.55 469.054 24.32C469.124 24.08 469.189 23.85 469.249 23.63L470.644 19.4H471.619ZM475.966 19.4L475.936 20.315C475.856 20.285 475.751 20.26 475.621 20.24C475.501 20.22 475.391 20.21 475.291 20.21C474.931 20.21 474.581 20.305 474.241 20.495C473.911 20.675 473.621 20.915 473.371 21.215V26H472.411V19.43L473.371 19.37V20.36C473.641 20.04 473.956 19.785 474.316 19.595C474.676 19.405 475.046 19.31 475.426 19.31C475.526 19.31 475.626 19.315 475.726 19.325C475.826 19.335 475.906 19.36 475.966 19.4ZM481.687 26H480.772V25.4C480.492 25.6 480.152 25.765 479.752 25.895C479.352 26.025 478.927 26.09 478.477 26.09C477.727 26.09 477.157 25.92 476.767 25.58C476.377 25.24 476.182 24.775 476.182 24.185C476.182 23.505 476.422 23.005 476.902 22.685C477.392 22.355 478.042 22.19 478.852 22.19C479.192 22.19 479.537 22.225 479.887 22.295C480.247 22.365 480.532 22.455 480.742 22.565V21.725C480.742 21.165 480.587 20.765 480.277 20.525C479.967 20.285 479.507 20.165 478.897 20.165C478.487 20.165 478.092 20.22 477.712 20.33C477.342 20.43 477.037 20.555 476.797 20.705L476.752 19.82C477.032 19.66 477.362 19.535 477.742 19.445C478.132 19.355 478.547 19.31 478.987 19.31C479.837 19.31 480.497 19.495 480.967 19.865C481.447 20.225 481.687 20.815 481.687 21.635V26ZM480.742 24.74V23.225C480.532 23.115 480.267 23.03 479.947 22.97C479.637 22.9 479.322 22.865 479.002 22.865C478.442 22.865 477.992 22.97 477.652 23.18C477.322 23.38 477.157 23.71 477.157 24.17C477.157 24.6 477.302 24.91 477.592 25.1C477.882 25.29 478.252 25.385 478.702 25.385C479.092 25.385 479.477 25.32 479.857 25.19C480.237 25.06 480.532 24.91 480.742 24.74ZM489.203 22.655C489.203 23.315 489.053 23.905 488.753 24.425C488.463 24.945 488.058 25.355 487.538 25.655C487.028 25.945 486.443 26.09 485.783 26.09C485.103 26.09 484.528 25.99 484.058 25.79V28.775H483.098V19.43L484.058 19.37V19.955C484.338 19.735 484.643 19.575 484.973 19.475C485.313 19.365 485.673 19.31 486.053 19.31C486.643 19.31 487.173 19.44 487.643 19.7C488.113 19.96 488.488 20.34 488.768 20.84C489.058 21.34 489.203 21.945 489.203 22.655ZM488.213 22.67C488.213 22.14 488.108 21.685 487.898 21.305C487.698 20.925 487.418 20.64 487.058 20.45C486.708 20.25 486.303 20.15 485.843 20.15C485.163 20.15 484.568 20.35 484.058 20.75V24.935C484.268 25.025 484.508 25.1 484.778 25.16C485.058 25.22 485.348 25.25 485.648 25.25C486.128 25.25 486.558 25.15 486.938 24.95C487.328 24.74 487.638 24.44 487.868 24.05C488.098 23.66 488.213 23.2 488.213 22.67ZM496.194 22.655C496.194 23.315 496.044 23.905 495.744 24.425C495.454 24.945 495.049 25.355 494.529 25.655C494.019 25.945 493.434 26.09 492.774 26.09C492.094 26.09 491.519 25.99 491.049 25.79V28.775H490.089V19.43L491.049 19.37V19.955C491.329 19.735 491.634 19.575 491.964 19.475C492.304 19.365 492.664 19.31 493.044 19.31C493.634 19.31 494.164 19.44 494.634 19.7C495.104 19.96 495.479 20.34 495.759 20.84C496.049 21.34 496.194 21.945 496.194 22.655ZM495.204 22.67C495.204 22.14 495.099 21.685 494.889 21.305C494.689 20.925 494.409 20.64 494.049 20.45C493.699 20.25 493.294 20.15 492.834 20.15C492.154 20.15 491.559 20.35 491.049 20.75V24.935C491.259 25.025 491.499 25.1 491.769 25.16C492.049 25.22 492.339 25.25 492.639 25.25C493.119 25.25 493.549 25.15 493.929 24.95C494.319 24.74 494.629 24.44 494.859 24.05C495.089 23.66 495.204 23.2 495.204 22.67ZM502.45 22.895H497.545C497.585 23.375 497.72 23.79 497.95 24.14C498.19 24.48 498.505 24.75 498.895 24.95C499.285 25.14 499.735 25.235 500.245 25.235C500.665 25.235 501.075 25.175 501.475 25.055C501.885 24.935 502.225 24.765 502.495 24.545L502.54 25.445C502.28 25.645 501.93 25.805 501.49 25.925C501.06 26.035 500.63 26.09 500.2 26.09C499.48 26.09 498.84 25.95 498.28 25.67C497.73 25.39 497.305 24.99 497.005 24.47C496.705 23.95 496.555 23.335 496.555 22.625C496.555 21.965 496.69 21.385 496.96 20.885C497.23 20.385 497.6 20 498.07 19.73C498.55 19.45 499.09 19.31 499.69 19.31C500.24 19.31 500.725 19.425 501.145 19.655C501.575 19.885 501.91 20.21 502.15 20.63C502.39 21.05 502.51 21.54 502.51 22.1C502.51 22.21 502.505 22.34 502.495 22.49C502.485 22.64 502.47 22.775 502.45 22.895ZM499.69 20.06C499.1 20.06 498.605 20.26 498.205 20.66C497.805 21.06 497.58 21.595 497.53 22.265H501.565C501.575 22.225 501.58 22.185 501.58 22.145C501.58 22.095 501.58 22.04 501.58 21.98C501.58 21.42 501.405 20.96 501.055 20.6C500.715 20.24 500.26 20.06 499.69 20.06ZM507.114 19.4L507.084 20.315C507.004 20.285 506.899 20.26 506.769 20.24C506.649 20.22 506.539 20.21 506.439 20.21C506.079 20.21 505.729 20.305 505.389 20.495C505.059 20.675 504.769 20.915 504.519 21.215V26H503.559V19.43L504.519 19.37V20.36C504.789 20.04 505.104 19.785 505.464 19.595C505.824 19.405 506.194 19.31 506.574 19.31C506.674 19.31 506.774 19.315 506.874 19.325C506.974 19.335 507.054 19.36 507.114 19.4ZM513.663 16.565L513.618 17.42C513.548 17.4 513.458 17.385 513.348 17.375C513.248 17.365 513.148 17.36 513.048 17.36C512.648 17.36 512.318 17.475 512.058 17.705C511.808 17.925 511.683 18.335 511.683 18.935V19.4H513.483L513.408 20.24H511.683V26H510.738V20.24H509.778V19.4H510.738V18.905C510.738 18.095 510.943 17.49 511.353 17.09C511.763 16.69 512.303 16.49 512.973 16.49C513.093 16.49 513.213 16.5 513.333 16.52C513.463 16.53 513.573 16.545 513.663 16.565ZM520.375 22.7C520.375 23.36 520.225 23.95 519.925 24.47C519.625 24.98 519.215 25.38 518.695 25.67C518.175 25.95 517.595 26.09 516.955 26.09C516.315 26.09 515.735 25.95 515.215 25.67C514.695 25.38 514.285 24.98 513.985 24.47C513.685 23.95 513.535 23.36 513.535 22.7C513.535 22.03 513.685 21.44 513.985 20.93C514.285 20.42 514.695 20.025 515.215 19.745C515.735 19.455 516.315 19.31 516.955 19.31C517.595 19.31 518.175 19.455 518.695 19.745C519.215 20.025 519.625 20.42 519.925 20.93C520.225 21.44 520.375 22.03 520.375 22.7ZM519.385 22.7C519.385 22.2 519.275 21.76 519.055 21.38C518.835 21 518.54 20.705 518.17 20.495C517.81 20.275 517.405 20.165 516.955 20.165C516.505 20.165 516.095 20.275 515.725 20.495C515.355 20.705 515.06 21 514.84 21.38C514.63 21.76 514.525 22.2 514.525 22.7C514.525 23.19 514.635 23.63 514.855 24.02C515.075 24.4 515.37 24.7 515.74 24.92C516.11 25.13 516.515 25.235 516.955 25.235C517.415 25.235 517.83 25.13 518.2 24.92C518.57 24.7 518.86 24.4 519.07 24.02C519.28 23.63 519.385 23.19 519.385 22.7ZM524.811 19.4L524.781 20.315C524.701 20.285 524.596 20.26 524.466 20.24C524.346 20.22 524.236 20.21 524.136 20.21C523.776 20.21 523.426 20.305 523.086 20.495C522.756 20.675 522.466 20.915 522.216 21.215V26H521.256V19.43L522.216 19.37V20.36C522.486 20.04 522.801 19.785 523.161 19.595C523.521 19.405 523.891 19.31 524.271 19.31C524.371 19.31 524.471 19.315 524.571 19.325C524.671 19.335 524.751 19.36 524.811 19.4ZM535.305 17.09V22.295C535.305 23.525 534.99 24.465 534.36 25.115C533.73 25.765 532.85 26.09 531.72 26.09C530.59 26.09 529.71 25.765 529.08 25.115C528.45 24.465 528.135 23.525 528.135 22.295V17.09H529.125V22.205C529.125 23.145 529.34 23.875 529.77 24.395C530.2 24.915 530.855 25.175 531.735 25.175C532.625 25.175 533.28 24.915 533.7 24.395C534.13 23.875 534.345 23.145 534.345 22.205V17.09H535.305ZM544.027 17.09V26H543.127L538.462 19.565C538.332 19.385 538.212 19.215 538.102 19.055C538.002 18.885 537.917 18.74 537.847 18.62H537.787V26H536.842V17.09H537.817L542.407 23.42C542.527 23.59 542.642 23.76 542.752 23.93C542.862 24.09 542.952 24.235 543.022 24.365H543.067V17.09H544.027ZM546.625 17.09V26H545.635V17.09H546.625ZM548.232 26V17.09H549.222V25.1H553.332L553.257 26H548.232ZM555.218 17.09V26H554.228V17.09H555.218ZM565.869 17.09V26H564.879V18.875H564.819C564.769 19.035 564.704 19.2 564.624 19.37C564.554 19.53 564.464 19.725 564.354 19.955L561.804 24.725H560.829L558.294 19.955C558.184 19.735 558.089 19.54 558.009 19.37C557.939 19.2 557.879 19.035 557.829 18.875H557.769V26H556.824V17.09H557.874L560.799 22.67C560.899 22.87 560.994 23.07 561.084 23.27C561.174 23.46 561.249 23.63 561.309 23.78H561.369C561.429 23.63 561.504 23.455 561.594 23.255C561.694 23.055 561.794 22.86 561.894 22.67L564.819 17.09H565.869Z" fill="white"/>
</svg>
