<svg width="581" height="43" viewBox="0 0 581 43" fill="none" xmlns="http://www.w3.org/2000/svg">
<rect width="581" height="43" rx="15" fill="#1A3E38"/>
<path fill-rule="evenodd" clip-rule="evenodd" d="M25.0098 18.8346L14 18.835V13.123H25.0098V18.835H30.754V29.8771H25.0098V24.5471C22.093 24.5979 19.7442 26.9647 19.7442 29.8771H14C14 23.8103 18.9205 18.8862 25.0098 18.835V18.8346Z" fill="#A0FFEF"/>
<path d="M53.0059 19.08C53.0059 20.312 52.7259 21.3573 52.1659 22.216C51.6246 23.0747 50.8312 23.7187 49.7859 24.148C48.7406 24.5773 47.4806 24.792 46.0059 24.792H44.0459V30H40.3219V13.368H46.0339C47.5086 13.368 48.7592 13.592 49.7859 14.04C50.8312 14.488 51.6246 15.132 52.1659 15.972C52.7259 16.812 53.0059 17.848 53.0059 19.08ZM49.2819 19.08C49.2819 18.464 49.1419 17.96 48.8619 17.568C48.6006 17.176 48.2179 16.8867 47.7139 16.7C47.2286 16.5133 46.6406 16.42 45.9499 16.42H44.0459V21.74H45.9499C46.6406 21.74 47.2286 21.6467 47.7139 21.46C48.2179 21.2733 48.6006 20.984 48.8619 20.592C49.1419 20.2 49.2819 19.696 49.2819 19.08ZM64.6069 30H61.2189V29.048C60.7709 29.4027 60.2295 29.692 59.5949 29.916C58.9602 30.14 58.2602 30.252 57.4949 30.252C56.1322 30.252 55.0869 29.9253 54.3589 29.272C53.6495 28.6187 53.2949 27.7133 53.2949 26.556C53.2949 25.3053 53.7335 24.3627 54.6109 23.728C55.4882 23.0747 56.6735 22.748 58.1669 22.748C58.7082 22.748 59.2495 22.7947 59.7909 22.888C60.3322 22.9813 60.7709 23.1027 61.1069 23.252V22.58C61.1069 21.852 60.8735 21.3387 60.4069 21.04C59.9589 20.7227 59.2495 20.564 58.2789 20.564C57.5882 20.564 56.8789 20.648 56.1509 20.816C55.4415 20.984 54.8722 21.1987 54.4429 21.46L54.3029 18.324C54.8815 18.044 55.5629 17.8293 56.3469 17.68C57.1495 17.512 57.9709 17.428 58.8109 17.428C60.6775 17.428 62.1055 17.8293 63.0949 18.632C64.1029 19.416 64.6069 20.6573 64.6069 22.356V30ZM61.1069 27.144V25.38C60.8455 25.2493 60.5189 25.1467 60.1269 25.072C59.7535 24.9973 59.3895 24.96 59.0349 24.96C58.3255 24.96 57.7842 25.0907 57.4109 25.352C57.0375 25.5947 56.8509 25.9773 56.8509 26.5C56.8509 26.9853 57.0095 27.34 57.3269 27.564C57.6442 27.7693 58.1109 27.872 58.7269 27.872C59.1562 27.872 59.5949 27.8067 60.0429 27.676C60.4909 27.5267 60.8455 27.3493 61.1069 27.144ZM85.1591 17.68L81.5191 30H77.7111L76.2551 25.66C75.9938 24.764 75.7791 24.0453 75.6111 23.504C75.4431 22.944 75.3031 22.4307 75.1911 21.964H75.0511C74.9578 22.4307 74.8178 22.944 74.6311 23.504C74.4631 24.0453 74.2484 24.764 73.9871 25.66L72.5311 30H68.7231L65.0831 17.764L68.6951 17.596L70.3471 23.476C70.4404 23.868 70.5338 24.3347 70.6271 24.876C70.7391 25.3987 70.8231 25.884 70.8791 26.332H71.0191C71.0751 25.884 71.1684 25.3987 71.2991 24.876C71.4298 24.3347 71.5511 23.868 71.6631 23.476L73.2871 18.604H77.0951L78.7191 23.476C78.8311 23.868 78.9524 24.3347 79.0831 24.876C79.2138 25.3987 79.3071 25.884 79.3631 26.332H79.5031C79.5591 25.884 79.6338 25.3987 79.7271 24.876C79.8391 24.3347 79.9418 23.868 80.0351 23.476L81.6311 17.68H85.1591ZM98.911 18.968C98.911 20.0693 98.603 21.0213 97.987 21.824C97.3897 22.608 96.6337 23.1587 95.719 23.476L100.087 30H95.775L92.079 24.4H89.979V30H86.255V13.368H92.023C93.479 13.368 94.7204 13.592 95.747 14.04C96.7737 14.4693 97.5577 15.104 98.099 15.944C98.6404 16.7653 98.911 17.7733 98.911 18.968ZM95.159 18.968C95.159 18.3893 95.019 17.9133 94.739 17.54C94.4777 17.148 94.1044 16.868 93.619 16.7C93.1524 16.5133 92.583 16.42 91.911 16.42H89.979V21.488H91.911C92.583 21.488 93.1524 21.404 93.619 21.236C94.1044 21.0493 94.4777 20.7693 94.739 20.396C95.019 20.0227 95.159 19.5467 95.159 18.968ZM116.176 21.684C116.176 23.308 115.803 24.7453 115.056 25.996C114.31 27.2467 113.246 28.2267 111.864 28.936C110.502 29.6453 108.868 30 106.964 30H101.028V13.368H106.964C108.868 13.368 110.502 13.7227 111.864 14.432C113.246 15.1413 114.31 16.1213 115.056 17.372C115.803 18.604 116.176 20.0413 116.176 21.684ZM112.312 21.684C112.312 20.6013 112.098 19.6773 111.668 18.912C111.239 18.1467 110.623 17.5587 109.82 17.148C109.018 16.7187 108.066 16.504 106.964 16.504H104.724V26.864H106.964C108.066 26.864 109.018 26.6587 109.82 26.248C110.623 25.8187 111.239 25.2213 111.668 24.456C112.098 23.672 112.312 22.748 112.312 21.684Z" fill="#A0FFEF"/>
<path d="M360.91 26H359.995V25.4C359.715 25.6 359.375 25.765 358.975 25.895C358.575 26.025 358.15 26.09 357.7 26.09C356.95 26.09 356.38 25.92 355.99 25.58C355.6 25.24 355.405 24.775 355.405 24.185C355.405 23.505 355.645 23.005 356.125 22.685C356.615 22.355 357.265 22.19 358.075 22.19C358.415 22.19 358.76 22.225 359.11 22.295C359.47 22.365 359.755 22.455 359.965 22.565V21.725C359.965 21.165 359.81 20.765 359.5 20.525C359.19 20.285 358.73 20.165 358.12 20.165C357.71 20.165 357.315 20.22 356.935 20.33C356.565 20.43 356.26 20.555 356.02 20.705L355.975 19.82C356.255 19.66 356.585 19.535 356.965 19.445C357.355 19.355 357.77 19.31 358.21 19.31C359.06 19.31 359.72 19.495 360.19 19.865C360.67 20.225 360.91 20.815 360.91 21.635V26ZM359.965 24.74V23.225C359.755 23.115 359.49 23.03 359.17 22.97C358.86 22.9 358.545 22.865 358.225 22.865C357.665 22.865 357.215 22.97 356.875 23.18C356.545 23.38 356.38 23.71 356.38 24.17C356.38 24.6 356.525 24.91 356.815 25.1C357.105 25.29 357.475 25.385 357.925 25.385C358.315 25.385 358.7 25.32 359.08 25.19C359.46 25.06 359.755 24.91 359.965 24.74ZM368.006 26H367.061V21.86C367.061 21.29 366.921 20.87 366.641 20.6C366.361 20.32 365.961 20.18 365.441 20.18C365.081 20.18 364.716 20.255 364.346 20.405C363.976 20.545 363.621 20.735 363.281 20.975V26H362.321V19.43L363.281 19.37V20.18C363.681 19.88 364.081 19.66 364.481 19.52C364.891 19.38 365.291 19.31 365.681 19.31C366.411 19.31 366.981 19.5 367.391 19.88C367.801 20.25 368.006 20.84 368.006 21.65V26ZM376.962 26H376.047V25.4C375.767 25.6 375.427 25.765 375.027 25.895C374.627 26.025 374.202 26.09 373.752 26.09C373.002 26.09 372.432 25.92 372.042 25.58C371.652 25.24 371.457 24.775 371.457 24.185C371.457 23.505 371.697 23.005 372.177 22.685C372.667 22.355 373.317 22.19 374.127 22.19C374.467 22.19 374.812 22.225 375.162 22.295C375.522 22.365 375.807 22.455 376.017 22.565V21.725C376.017 21.165 375.862 20.765 375.552 20.525C375.242 20.285 374.782 20.165 374.172 20.165C373.762 20.165 373.367 20.22 372.987 20.33C372.617 20.43 372.312 20.555 372.072 20.705L372.027 19.82C372.307 19.66 372.637 19.535 373.017 19.445C373.407 19.355 373.822 19.31 374.262 19.31C375.112 19.31 375.772 19.495 376.242 19.865C376.722 20.225 376.962 20.815 376.962 21.635V26ZM376.017 24.74V23.225C375.807 23.115 375.542 23.03 375.222 22.97C374.912 22.9 374.597 22.865 374.277 22.865C373.717 22.865 373.267 22.97 372.927 23.18C372.597 23.38 372.432 23.71 372.432 24.17C372.432 24.6 372.577 24.91 372.867 25.1C373.157 25.29 373.527 25.385 373.977 25.385C374.367 25.385 374.752 25.32 375.132 25.19C375.512 25.06 375.807 24.91 376.017 24.74ZM387.722 19.4L385.502 26H384.497L383.162 22.34C383.062 22.02 382.972 21.74 382.892 21.5C382.812 21.26 382.747 21.045 382.697 20.855H382.622C382.582 21.045 382.517 21.26 382.427 21.5C382.347 21.74 382.257 22.02 382.157 22.34L380.822 26H379.817L377.597 19.43L378.587 19.37L379.997 23.63C380.067 23.85 380.132 24.08 380.192 24.32C380.262 24.55 380.317 24.765 380.357 24.965H380.417C380.457 24.765 380.512 24.55 380.582 24.32C380.662 24.08 380.737 23.85 380.807 23.63L382.172 19.85H383.177L384.542 23.63C384.612 23.85 384.687 24.08 384.767 24.32C384.847 24.55 384.902 24.765 384.932 24.965H385.007C385.047 24.765 385.097 24.55 385.157 24.32C385.227 24.08 385.292 23.85 385.352 23.63L386.747 19.4H387.722ZM398.519 26H397.559V21.86C397.559 21.72 397.544 21.59 397.514 21.47C397.494 21.34 397.469 21.23 397.439 21.14C397.339 20.8 397.169 20.555 396.929 20.405C396.689 20.255 396.384 20.18 396.014 20.18C395.964 20.18 395.914 20.185 395.864 20.195C395.814 20.195 395.764 20.195 395.714 20.195C395.424 20.225 395.124 20.31 394.814 20.45C394.514 20.58 394.209 20.755 393.899 20.975C393.929 21.095 393.949 21.22 393.959 21.35C393.979 21.47 393.989 21.6 393.989 21.74V26H393.029V21.86C393.029 21.72 393.019 21.59 392.999 21.47C392.979 21.34 392.949 21.23 392.909 21.14C392.819 20.8 392.654 20.555 392.414 20.405C392.174 20.255 391.869 20.18 391.499 20.18C391.169 20.18 390.829 20.255 390.479 20.405C390.139 20.545 389.804 20.735 389.474 20.975V26H388.514V19.43L389.474 19.37V20.18C389.844 19.9 390.199 19.695 390.539 19.565C390.889 19.425 391.219 19.35 391.529 19.34C391.859 19.32 392.174 19.35 392.474 19.43C392.754 19.49 392.999 19.595 393.209 19.745C393.419 19.885 393.584 20.08 393.704 20.33C394.154 19.96 394.594 19.7 395.024 19.55C395.454 19.39 395.859 19.31 396.239 19.31C396.939 19.31 397.494 19.5 397.904 19.88C398.314 20.25 398.519 20.84 398.519 21.65V26ZM404.909 26H403.994V25.4C403.714 25.6 403.374 25.765 402.974 25.895C402.574 26.025 402.149 26.09 401.699 26.09C400.949 26.09 400.379 25.92 399.989 25.58C399.599 25.24 399.404 24.775 399.404 24.185C399.404 23.505 399.644 23.005 400.124 22.685C400.614 22.355 401.264 22.19 402.074 22.19C402.414 22.19 402.759 22.225 403.109 22.295C403.469 22.365 403.754 22.455 403.964 22.565V21.725C403.964 21.165 403.809 20.765 403.499 20.525C403.189 20.285 402.729 20.165 402.119 20.165C401.709 20.165 401.314 20.22 400.934 20.33C400.564 20.43 400.259 20.555 400.019 20.705L399.974 19.82C400.254 19.66 400.584 19.535 400.964 19.445C401.354 19.355 401.769 19.31 402.209 19.31C403.059 19.31 403.719 19.495 404.189 19.865C404.669 20.225 404.909 20.815 404.909 21.635V26ZM403.964 24.74V23.225C403.754 23.115 403.489 23.03 403.169 22.97C402.859 22.9 402.544 22.865 402.224 22.865C401.664 22.865 401.214 22.97 400.874 23.18C400.544 23.38 400.379 23.71 400.379 24.17C400.379 24.6 400.524 24.91 400.814 25.1C401.104 25.29 401.474 25.385 401.924 25.385C402.314 25.385 402.699 25.32 403.079 25.19C403.459 25.06 403.754 24.91 403.964 24.74ZM405.753 26V25.175L409.893 20.24H405.933V19.4H411.048V20.225L406.908 25.16H411.228V26H405.753ZM412.679 16.64C412.849 16.64 412.994 16.7 413.114 16.82C413.234 16.94 413.294 17.085 413.294 17.255C413.294 17.435 413.234 17.585 413.114 17.705C412.994 17.825 412.849 17.885 412.679 17.885C412.499 17.885 412.344 17.825 412.214 17.705C412.094 17.585 412.034 17.435 412.034 17.255C412.034 17.085 412.094 16.94 412.214 16.82C412.344 16.7 412.499 16.64 412.679 16.64ZM413.144 19.37V26H412.184V19.43L413.144 19.37ZM420.246 26H419.301V21.86C419.301 21.29 419.161 20.87 418.881 20.6C418.601 20.32 418.201 20.18 417.681 20.18C417.321 20.18 416.956 20.255 416.586 20.405C416.216 20.545 415.861 20.735 415.521 20.975V26H414.561V19.43L415.521 19.37V20.18C415.921 19.88 416.321 19.66 416.721 19.52C417.131 19.38 417.531 19.31 417.921 19.31C418.651 19.31 419.221 19.5 419.631 19.88C420.041 20.25 420.246 20.84 420.246 21.65V26ZM427.144 19.25L427.114 20.09H425.749C425.969 20.27 426.144 20.49 426.274 20.75C426.414 21.01 426.484 21.29 426.484 21.59C426.484 22.21 426.269 22.73 425.839 23.15C425.419 23.57 424.844 23.805 424.114 23.855L423.004 25.04C423.104 25.02 423.244 25.005 423.424 24.995C423.604 24.975 423.784 24.96 423.964 24.95C424.154 24.94 424.304 24.935 424.414 24.935C425.354 24.935 426.064 25.09 426.544 25.4C427.034 25.71 427.279 26.185 427.279 26.825C427.279 27.415 427.019 27.9 426.499 28.28C425.989 28.67 425.164 28.865 424.024 28.865C423.414 28.865 422.819 28.8 422.239 28.67C421.669 28.55 421.209 28.385 420.859 28.175L420.949 27.29C421.179 27.43 421.459 27.555 421.789 27.665C422.119 27.785 422.479 27.88 422.869 27.95C423.269 28.02 423.664 28.055 424.054 28.055C424.644 28.055 425.104 28 425.434 27.89C425.764 27.78 425.999 27.63 426.139 27.44C426.279 27.26 426.349 27.06 426.349 26.84C426.349 26.43 426.179 26.145 425.839 25.985C425.509 25.815 424.979 25.73 424.249 25.73C423.919 25.73 423.549 25.745 423.139 25.775C422.739 25.805 422.409 25.85 422.149 25.91V25.145L423.409 23.84C422.729 23.77 422.194 23.525 421.804 23.105C421.414 22.675 421.219 22.17 421.219 21.59C421.219 21.15 421.324 20.76 421.534 20.42C421.754 20.07 422.059 19.8 422.449 19.61C422.849 19.41 423.314 19.31 423.844 19.31C424.194 19.31 424.509 19.355 424.789 19.445L427.144 19.25ZM425.569 21.59C425.569 21.14 425.414 20.77 425.104 20.48C424.794 20.18 424.374 20.03 423.844 20.03C423.324 20.03 422.909 20.175 422.599 20.465C422.289 20.755 422.134 21.13 422.134 21.59C422.134 22.04 422.289 22.41 422.599 22.7C422.909 22.99 423.324 23.135 423.844 23.135C424.374 23.135 424.794 22.995 425.104 22.715C425.414 22.425 425.569 22.05 425.569 21.59ZM437.892 26H436.842L435.747 23.255H431.832L430.737 26H429.717L433.257 17.09H434.367L437.892 26ZM435.447 22.43L434.127 19.115C434.057 18.945 433.997 18.79 433.947 18.65C433.907 18.5 433.867 18.35 433.827 18.2H433.752C433.712 18.35 433.667 18.5 433.617 18.65C433.577 18.79 433.522 18.945 433.452 19.115L432.117 22.43H435.447ZM444.856 19.955C444.856 20.605 444.701 21.145 444.391 21.575C444.091 21.995 443.676 22.305 443.146 22.505C442.616 22.705 442.011 22.805 441.331 22.805H439.681V26H438.691V17.09H441.331C442.021 17.09 442.626 17.195 443.146 17.405C443.676 17.605 444.091 17.915 444.391 18.335C444.701 18.755 444.856 19.295 444.856 19.955ZM443.851 19.955C443.851 19.445 443.731 19.045 443.491 18.755C443.251 18.455 442.936 18.245 442.546 18.125C442.156 17.995 441.726 17.93 441.256 17.93H439.681V21.965H441.256C441.726 21.965 442.156 21.905 442.546 21.785C442.936 21.665 443.251 21.46 443.491 21.17C443.731 20.87 443.851 20.465 443.851 19.955ZM446.907 17.09V26H445.917V17.09H446.907ZM460.471 19.4L458.251 26H457.246L455.911 22.34C455.811 22.02 455.721 21.74 455.641 21.5C455.561 21.26 455.496 21.045 455.446 20.855H455.371C455.331 21.045 455.266 21.26 455.176 21.5C455.096 21.74 455.006 22.02 454.906 22.34L453.571 26H452.566L450.346 19.43L451.336 19.37L452.746 23.63C452.816 23.85 452.881 24.08 452.941 24.32C453.011 24.55 453.066 24.765 453.106 24.965H453.166C453.206 24.765 453.261 24.55 453.331 24.32C453.411 24.08 453.486 23.85 453.556 23.63L454.921 19.85H455.926L457.291 23.63C457.361 23.85 457.436 24.08 457.516 24.32C457.596 24.55 457.651 24.765 457.681 24.965H457.756C457.796 24.765 457.846 24.55 457.906 24.32C457.976 24.08 458.041 23.85 458.101 23.63L459.496 19.4H460.471ZM464.818 19.4L464.788 20.315C464.708 20.285 464.603 20.26 464.473 20.24C464.353 20.22 464.243 20.21 464.143 20.21C463.783 20.21 463.433 20.305 463.093 20.495C462.763 20.675 462.473 20.915 462.223 21.215V26H461.263V19.43L462.223 19.37V20.36C462.493 20.04 462.808 19.785 463.168 19.595C463.528 19.405 463.898 19.31 464.278 19.31C464.378 19.31 464.478 19.315 464.578 19.325C464.678 19.335 464.758 19.36 464.818 19.4ZM470.539 26H469.624V25.4C469.344 25.6 469.004 25.765 468.604 25.895C468.204 26.025 467.779 26.09 467.329 26.09C466.579 26.09 466.009 25.92 465.619 25.58C465.229 25.24 465.034 24.775 465.034 24.185C465.034 23.505 465.274 23.005 465.754 22.685C466.244 22.355 466.894 22.19 467.704 22.19C468.044 22.19 468.389 22.225 468.739 22.295C469.099 22.365 469.384 22.455 469.594 22.565V21.725C469.594 21.165 469.439 20.765 469.129 20.525C468.819 20.285 468.359 20.165 467.749 20.165C467.339 20.165 466.944 20.22 466.564 20.33C466.194 20.43 465.889 20.555 465.649 20.705L465.604 19.82C465.884 19.66 466.214 19.535 466.594 19.445C466.984 19.355 467.399 19.31 467.839 19.31C468.689 19.31 469.349 19.495 469.819 19.865C470.299 20.225 470.539 20.815 470.539 21.635V26ZM469.594 24.74V23.225C469.384 23.115 469.119 23.03 468.799 22.97C468.489 22.9 468.174 22.865 467.854 22.865C467.294 22.865 466.844 22.97 466.504 23.18C466.174 23.38 466.009 23.71 466.009 24.17C466.009 24.6 466.154 24.91 466.444 25.1C466.734 25.29 467.104 25.385 467.554 25.385C467.944 25.385 468.329 25.32 468.709 25.19C469.089 25.06 469.384 24.91 469.594 24.74ZM478.055 22.655C478.055 23.315 477.905 23.905 477.605 24.425C477.315 24.945 476.91 25.355 476.39 25.655C475.88 25.945 475.295 26.09 474.635 26.09C473.955 26.09 473.38 25.99 472.91 25.79V28.775H471.95V19.43L472.91 19.37V19.955C473.19 19.735 473.495 19.575 473.825 19.475C474.165 19.365 474.525 19.31 474.905 19.31C475.495 19.31 476.025 19.44 476.495 19.7C476.965 19.96 477.34 20.34 477.62 20.84C477.91 21.34 478.055 21.945 478.055 22.655ZM477.065 22.67C477.065 22.14 476.96 21.685 476.75 21.305C476.55 20.925 476.27 20.64 475.91 20.45C475.56 20.25 475.155 20.15 474.695 20.15C474.015 20.15 473.42 20.35 472.91 20.75V24.935C473.12 25.025 473.36 25.1 473.63 25.16C473.91 25.22 474.2 25.25 474.5 25.25C474.98 25.25 475.41 25.15 475.79 24.95C476.18 24.74 476.49 24.44 476.72 24.05C476.95 23.66 477.065 23.2 477.065 22.67ZM485.047 22.655C485.047 23.315 484.897 23.905 484.597 24.425C484.307 24.945 483.902 25.355 483.382 25.655C482.872 25.945 482.287 26.09 481.627 26.09C480.947 26.09 480.372 25.99 479.902 25.79V28.775H478.942V19.43L479.902 19.37V19.955C480.182 19.735 480.487 19.575 480.817 19.475C481.157 19.365 481.517 19.31 481.897 19.31C482.487 19.31 483.017 19.44 483.487 19.7C483.957 19.96 484.332 20.34 484.612 20.84C484.902 21.34 485.047 21.945 485.047 22.655ZM484.057 22.67C484.057 22.14 483.952 21.685 483.742 21.305C483.542 20.925 483.262 20.64 482.902 20.45C482.552 20.25 482.147 20.15 481.687 20.15C481.007 20.15 480.412 20.35 479.902 20.75V24.935C480.112 25.025 480.352 25.1 480.622 25.16C480.902 25.22 481.192 25.25 481.492 25.25C481.972 25.25 482.402 25.15 482.782 24.95C483.172 24.74 483.482 24.44 483.712 24.05C483.942 23.66 484.057 23.2 484.057 22.67ZM491.303 22.895H486.398C486.438 23.375 486.573 23.79 486.803 24.14C487.043 24.48 487.358 24.75 487.748 24.95C488.138 25.14 488.588 25.235 489.098 25.235C489.518 25.235 489.928 25.175 490.328 25.055C490.738 24.935 491.078 24.765 491.348 24.545L491.393 25.445C491.133 25.645 490.783 25.805 490.343 25.925C489.913 26.035 489.483 26.09 489.053 26.09C488.333 26.09 487.693 25.95 487.133 25.67C486.583 25.39 486.158 24.99 485.858 24.47C485.558 23.95 485.408 23.335 485.408 22.625C485.408 21.965 485.543 21.385 485.813 20.885C486.083 20.385 486.453 20 486.923 19.73C487.403 19.45 487.943 19.31 488.543 19.31C489.093 19.31 489.578 19.425 489.998 19.655C490.428 19.885 490.763 20.21 491.003 20.63C491.243 21.05 491.363 21.54 491.363 22.1C491.363 22.21 491.358 22.34 491.348 22.49C491.338 22.64 491.323 22.775 491.303 22.895ZM488.543 20.06C487.953 20.06 487.458 20.26 487.058 20.66C486.658 21.06 486.433 21.595 486.383 22.265H490.418C490.428 22.225 490.433 22.185 490.433 22.145C490.433 22.095 490.433 22.04 490.433 21.98C490.433 21.42 490.258 20.96 489.908 20.6C489.568 20.24 489.113 20.06 488.543 20.06ZM495.967 19.4L495.937 20.315C495.857 20.285 495.752 20.26 495.622 20.24C495.502 20.22 495.392 20.21 495.292 20.21C494.932 20.21 494.582 20.305 494.242 20.495C493.912 20.675 493.622 20.915 493.372 21.215V26H492.412V19.43L493.372 19.37V20.36C493.642 20.04 493.957 19.785 494.317 19.595C494.677 19.405 495.047 19.31 495.427 19.31C495.527 19.31 495.627 19.315 495.727 19.325C495.827 19.335 495.907 19.36 495.967 19.4ZM502.516 16.565L502.471 17.42C502.401 17.4 502.311 17.385 502.201 17.375C502.101 17.365 502.001 17.36 501.901 17.36C501.501 17.36 501.171 17.475 500.911 17.705C500.661 17.925 500.536 18.335 500.536 18.935V19.4H502.336L502.261 20.24H500.536V26H499.591V20.24H498.631V19.4H499.591V18.905C499.591 18.095 499.796 17.49 500.206 17.09C500.616 16.69 501.156 16.49 501.826 16.49C501.946 16.49 502.066 16.5 502.186 16.52C502.316 16.53 502.426 16.545 502.516 16.565ZM509.227 22.7C509.227 23.36 509.077 23.95 508.777 24.47C508.477 24.98 508.067 25.38 507.547 25.67C507.027 25.95 506.447 26.09 505.807 26.09C505.167 26.09 504.587 25.95 504.067 25.67C503.547 25.38 503.137 24.98 502.837 24.47C502.537 23.95 502.387 23.36 502.387 22.7C502.387 22.03 502.537 21.44 502.837 20.93C503.137 20.42 503.547 20.025 504.067 19.745C504.587 19.455 505.167 19.31 505.807 19.31C506.447 19.31 507.027 19.455 507.547 19.745C508.067 20.025 508.477 20.42 508.777 20.93C509.077 21.44 509.227 22.03 509.227 22.7ZM508.237 22.7C508.237 22.2 508.127 21.76 507.907 21.38C507.687 21 507.392 20.705 507.022 20.495C506.662 20.275 506.257 20.165 505.807 20.165C505.357 20.165 504.947 20.275 504.577 20.495C504.207 20.705 503.912 21 503.692 21.38C503.482 21.76 503.377 22.2 503.377 22.7C503.377 23.19 503.487 23.63 503.707 24.02C503.927 24.4 504.222 24.7 504.592 24.92C504.962 25.13 505.367 25.235 505.807 25.235C506.267 25.235 506.682 25.13 507.052 24.92C507.422 24.7 507.712 24.4 507.922 24.02C508.132 23.63 508.237 23.19 508.237 22.7ZM513.664 19.4L513.634 20.315C513.554 20.285 513.449 20.26 513.319 20.24C513.199 20.22 513.089 20.21 512.989 20.21C512.629 20.21 512.279 20.305 511.939 20.495C511.609 20.675 511.319 20.915 511.069 21.215V26H510.109V19.43L511.069 19.37V20.36C511.339 20.04 511.654 19.785 512.014 19.595C512.374 19.405 512.744 19.31 513.124 19.31C513.224 19.31 513.324 19.315 513.424 19.325C513.524 19.335 513.604 19.36 513.664 19.4ZM524.398 26H523.348L522.253 23.255H518.338L517.243 26H516.223L519.763 17.09H520.873L524.398 26ZM521.953 22.43L520.633 19.115C520.563 18.945 520.503 18.79 520.453 18.65C520.413 18.5 520.373 18.35 520.333 18.2H520.258C520.218 18.35 520.173 18.5 520.123 18.65C520.083 18.79 520.028 18.945 519.958 19.115L518.623 22.43H521.953ZM531.287 19.85C531.287 20.53 531.087 21.08 530.687 21.5C530.287 21.92 529.792 22.2 529.202 22.34L531.782 26H530.597L528.197 22.565H526.187V26H525.197V17.09H527.897C528.577 17.09 529.172 17.195 529.682 17.405C530.192 17.615 530.587 17.925 530.867 18.335C531.147 18.735 531.287 19.24 531.287 19.85ZM530.267 19.85C530.267 19.39 530.157 19.02 529.937 18.74C529.727 18.46 529.437 18.255 529.067 18.125C528.707 17.995 528.292 17.93 527.822 17.93H526.187V21.755H527.822C528.292 21.755 528.707 21.69 529.067 21.56C529.437 21.43 529.727 21.225 529.937 20.945C530.157 20.665 530.267 20.3 530.267 19.85ZM540.365 21.545C540.365 22.445 540.165 23.23 539.765 23.9C539.365 24.57 538.795 25.09 538.055 25.46C537.315 25.82 536.43 26 535.4 26H532.745V17.09H535.4C536.43 17.09 537.315 17.275 538.055 17.645C538.795 18.005 539.365 18.52 539.765 19.19C540.165 19.85 540.365 20.635 540.365 21.545ZM539.33 21.545C539.33 20.785 539.17 20.14 538.85 19.61C538.53 19.07 538.075 18.66 537.485 18.38C536.895 18.09 536.2 17.945 535.4 17.945H533.72V25.145H535.4C536.21 25.145 536.905 25.005 537.485 24.725C538.075 24.435 538.53 24.02 538.85 23.48C539.17 22.94 539.33 22.295 539.33 21.545ZM551.039 17.735L550.709 18.665C550.419 18.435 550.044 18.255 549.584 18.125C549.134 17.985 548.644 17.915 548.114 17.915C547.404 17.915 546.774 18.065 546.224 18.365C545.674 18.665 545.239 19.09 544.919 19.64C544.609 20.18 544.454 20.815 544.454 21.545C544.454 22.235 544.614 22.855 544.934 23.405C545.264 23.955 545.714 24.39 546.284 24.71C546.854 25.02 547.509 25.175 548.249 25.175C548.689 25.175 549.079 25.135 549.419 25.055C549.759 24.975 550.044 24.885 550.274 24.785V21.755L551.264 21.725V25.37C550.894 25.6 550.449 25.78 549.929 25.91C549.419 26.03 548.849 26.09 548.219 26.09C547.279 26.09 546.449 25.9 545.729 25.52C545.009 25.13 544.444 24.59 544.034 23.9C543.634 23.21 543.434 22.425 543.434 21.545C543.434 20.655 543.629 19.87 544.019 19.19C544.419 18.5 544.964 17.965 545.654 17.585C546.354 17.195 547.159 17 548.069 17C548.729 17 549.294 17.06 549.764 17.18C550.244 17.29 550.669 17.475 551.039 17.735ZM558.255 17.09L558.18 17.975H553.83V21.065H557.475V21.935H553.83V25.115H558.345V26H552.84V17.09H558.255ZM566.045 25.415C565.705 25.635 565.295 25.805 564.815 25.925C564.345 26.035 563.84 26.09 563.3 26.09C562.37 26.09 561.54 25.9 560.81 25.52C560.09 25.13 559.525 24.59 559.115 23.9C558.715 23.21 558.515 22.425 558.515 21.545C558.515 20.665 558.705 19.885 559.085 19.205C559.475 18.525 560.01 17.99 560.69 17.6C561.37 17.2 562.15 17 563.03 17C563.64 17 564.165 17.06 564.605 17.18C565.055 17.29 565.465 17.475 565.835 17.735L565.505 18.665C565.215 18.435 564.86 18.255 564.44 18.125C564.02 17.985 563.57 17.915 563.09 17.915C562.39 17.915 561.77 18.075 561.23 18.395C560.7 18.705 560.285 19.13 559.985 19.67C559.685 20.21 559.535 20.835 559.535 21.545C559.535 22.235 559.695 22.855 560.015 23.405C560.345 23.955 560.795 24.39 561.365 24.71C561.935 25.02 562.59 25.175 563.33 25.175C563.82 25.175 564.305 25.11 564.785 24.98C565.275 24.84 565.69 24.65 566.03 24.41L566.045 25.415Z" fill="white"/>
</svg>
