<svg width="581" height="43" viewBox="0 0 581 43" fill="none" xmlns="http://www.w3.org/2000/svg">
<rect width="581" height="43" rx="15" fill="#1A313E"/>
<path fill-rule="evenodd" clip-rule="evenodd" d="M25.0098 18.8346L14 18.835V13.123H25.0098V18.835H30.754V29.8771H25.0098V24.5471C22.093 24.5979 19.7442 26.9647 19.7442 29.8771H14C14 23.8103 18.9205 18.8862 25.0098 18.835V18.8346Z" fill="#A0DCFF"/>
<path d="M52.9779 18.968C52.9779 20.0693 52.6699 21.0213 52.0539 21.824C51.4566 22.608 50.7006 23.1587 49.7859 23.476L54.1539 30H49.8419L46.1459 24.4H44.0459V30H40.3219V13.368H46.0899C47.5459 13.368 48.7872 13.592 49.8139 14.04C50.8406 14.4693 51.6246 15.104 52.1659 15.944C52.7072 16.7653 52.9779 17.7733 52.9779 18.968ZM49.2259 18.968C49.2259 18.3893 49.0859 17.9133 48.8059 17.54C48.5446 17.148 48.1712 16.868 47.6859 16.7C47.2192 16.5133 46.6499 16.42 45.9779 16.42H44.0459V21.488H45.9779C46.6499 21.488 47.2192 21.404 47.6859 21.236C48.1712 21.0493 48.5446 20.7693 48.8059 20.396C49.0859 20.0227 49.2259 19.5467 49.2259 18.968ZM65.353 24.708H57.457C57.569 25.212 57.793 25.6507 58.129 26.024C58.4837 26.3787 58.9317 26.6493 59.473 26.836C60.033 27.0227 60.6864 27.116 61.433 27.116C62.0677 27.116 62.749 27.032 63.477 26.864C64.205 26.6773 64.8024 26.444 65.269 26.164L65.409 29.216C64.9237 29.552 64.2704 29.8133 63.449 30C62.6464 30.168 61.8904 30.252 61.181 30.252C59.5944 30.252 58.2317 29.9907 57.093 29.468C55.973 28.9267 55.1237 28.1707 54.545 27.2C53.985 26.2293 53.705 25.0907 53.705 23.784C53.705 22.496 53.9664 21.3853 54.489 20.452C55.0304 19.5 55.7677 18.7627 56.701 18.24C57.653 17.6987 58.717 17.428 59.893 17.428C60.9757 17.428 61.937 17.6427 62.777 18.072C63.6357 18.5013 64.2984 19.1267 64.765 19.948C65.2504 20.7507 65.493 21.7213 65.493 22.86C65.493 23.1027 65.4744 23.4013 65.437 23.756C65.4184 24.092 65.3904 24.4093 65.353 24.708ZM59.921 20.004C59.193 20.004 58.5957 20.2467 58.129 20.732C57.681 21.2173 57.4104 21.8613 57.317 22.664H62.161C62.161 22.6267 62.161 22.5707 62.161 22.496C62.161 22.4027 62.161 22.3373 62.161 22.3C62.161 21.6093 61.9557 21.0587 61.545 20.648C61.153 20.2187 60.6117 20.004 59.921 20.004ZM78.3934 30H74.8094V22.636C74.8094 21.908 74.632 21.3853 74.2774 21.068C73.9227 20.7507 73.4374 20.592 72.8214 20.592C72.4107 20.592 71.9907 20.6667 71.5614 20.816C71.132 20.9467 70.7214 21.1333 70.3294 21.376V30H66.7454V17.764L70.3294 17.596V18.744C70.9267 18.296 71.5334 17.9693 72.1494 17.764C72.784 17.54 73.4467 17.428 74.1374 17.428C75.4254 17.428 76.452 17.792 77.2174 18.52C78.0014 19.2293 78.3934 20.3493 78.3934 21.88V30ZM90.7902 30H87.4022V29.048C86.9542 29.4027 86.4128 29.692 85.7782 29.916C85.1435 30.14 84.4435 30.252 83.6782 30.252C82.3155 30.252 81.2702 29.9253 80.5422 29.272C79.8328 28.6187 79.4782 27.7133 79.4782 26.556C79.4782 25.3053 79.9168 24.3627 80.7942 23.728C81.6715 23.0747 82.8568 22.748 84.3502 22.748C84.8915 22.748 85.4328 22.7947 85.9742 22.888C86.5155 22.9813 86.9542 23.1027 87.2902 23.252V22.58C87.2902 21.852 87.0568 21.3387 86.5902 21.04C86.1422 20.7227 85.4328 20.564 84.4622 20.564C83.7715 20.564 83.0622 20.648 82.3342 20.816C81.6248 20.984 81.0555 21.1987 80.6262 21.46L80.4862 18.324C81.0648 18.044 81.7462 17.8293 82.5302 17.68C83.3328 17.512 84.1542 17.428 84.9942 17.428C86.8608 17.428 88.2888 17.8293 89.2782 18.632C90.2862 19.416 90.7902 20.6573 90.7902 22.356V30ZM87.2902 27.144V25.38C87.0288 25.2493 86.7022 25.1467 86.3102 25.072C85.9368 24.9973 85.5728 24.96 85.2182 24.96C84.5088 24.96 83.9675 25.0907 83.5942 25.352C83.2208 25.5947 83.0342 25.9773 83.0342 26.5C83.0342 26.9853 83.1928 27.34 83.5102 27.564C83.8275 27.7693 84.2942 27.872 84.9102 27.872C85.3395 27.872 85.7782 27.8067 86.2262 27.676C86.6742 27.5267 87.0288 27.3493 87.2902 27.144ZM100.301 17.68L100.049 20.76H96.7732V25.436C96.7732 26.052 96.9225 26.4907 97.2212 26.752C97.5199 26.9947 97.9585 27.116 98.5372 27.116C98.8545 27.116 99.1532 27.0693 99.4332 26.976C99.7319 26.864 99.9839 26.7333 100.189 26.584L100.329 29.608C99.6759 30.0373 98.7892 30.252 97.6692 30.252C96.1199 30.252 94.9905 29.8693 94.2812 29.104C93.5719 28.3387 93.2172 27.2467 93.2172 25.828V20.76H91.5372V17.68H93.2172V15.104L96.7732 14.348V17.68H100.301ZM112.333 24.708H104.437C104.549 25.212 104.773 25.6507 105.109 26.024C105.464 26.3787 105.912 26.6493 106.453 26.836C107.013 27.0227 107.666 27.116 108.413 27.116C109.048 27.116 109.729 27.032 110.457 26.864C111.185 26.6773 111.782 26.444 112.249 26.164L112.389 29.216C111.904 29.552 111.25 29.8133 110.429 30C109.626 30.168 108.87 30.252 108.161 30.252C106.574 30.252 105.212 29.9907 104.073 29.468C102.953 28.9267 102.104 28.1707 101.525 27.2C100.965 26.2293 100.685 25.0907 100.685 23.784C100.685 22.496 100.946 21.3853 101.469 20.452C102.01 19.5 102.748 18.7627 103.681 18.24C104.633 17.6987 105.697 17.428 106.873 17.428C107.956 17.428 108.917 17.6427 109.757 18.072C110.616 18.5013 111.278 19.1267 111.745 19.948C112.23 20.7507 112.473 21.7213 112.473 22.86C112.473 23.1027 112.454 23.4013 112.417 23.756C112.398 24.092 112.37 24.4093 112.333 24.708ZM106.901 20.004C106.173 20.004 105.576 20.2467 105.109 20.732C104.661 21.2173 104.39 21.8613 104.297 22.664H109.141C109.141 22.6267 109.141 22.5707 109.141 22.496C109.141 22.4027 109.141 22.3373 109.141 22.3C109.141 21.6093 108.936 21.0587 108.525 20.648C108.133 20.2187 107.592 20.004 106.901 20.004ZM121.565 17.568L121.425 21.012C121.313 20.956 121.117 20.9 120.837 20.844C120.576 20.788 120.324 20.76 120.081 20.76C119.577 20.76 119.083 20.8533 118.597 21.04C118.131 21.208 117.701 21.4413 117.309 21.74V30H113.725V17.764L117.309 17.596V19.052C117.851 18.492 118.401 18.0813 118.961 17.82C119.54 17.5587 120.137 17.428 120.753 17.428C120.884 17.428 121.024 17.4373 121.173 17.456C121.341 17.4747 121.472 17.512 121.565 17.568Z" fill="#A0DCFF"/>
<path d="M407.91 26H406.995V25.4C406.715 25.6 406.375 25.765 405.975 25.895C405.575 26.025 405.15 26.09 404.7 26.09C403.95 26.09 403.38 25.92 402.99 25.58C402.6 25.24 402.405 24.775 402.405 24.185C402.405 23.505 402.645 23.005 403.125 22.685C403.615 22.355 404.265 22.19 405.075 22.19C405.415 22.19 405.76 22.225 406.11 22.295C406.47 22.365 406.755 22.455 406.965 22.565V21.725C406.965 21.165 406.81 20.765 406.5 20.525C406.19 20.285 405.73 20.165 405.12 20.165C404.71 20.165 404.315 20.22 403.935 20.33C403.565 20.43 403.26 20.555 403.02 20.705L402.975 19.82C403.255 19.66 403.585 19.535 403.965 19.445C404.355 19.355 404.77 19.31 405.21 19.31C406.06 19.31 406.72 19.495 407.19 19.865C407.67 20.225 407.91 20.815 407.91 21.635V26ZM406.965 24.74V23.225C406.755 23.115 406.49 23.03 406.17 22.97C405.86 22.9 405.545 22.865 405.225 22.865C404.665 22.865 404.215 22.97 403.875 23.18C403.545 23.38 403.38 23.71 403.38 24.17C403.38 24.6 403.525 24.91 403.815 25.1C404.105 25.29 404.475 25.385 404.925 25.385C405.315 25.385 405.7 25.32 406.08 25.19C406.46 25.06 406.755 24.91 406.965 24.74ZM417.979 22.655C417.979 23.315 417.829 23.905 417.529 24.425C417.239 24.945 416.834 25.355 416.314 25.655C415.804 25.945 415.219 26.09 414.559 26.09C413.879 26.09 413.304 25.99 412.834 25.79V28.775H411.874V19.43L412.834 19.37V19.955C413.114 19.735 413.419 19.575 413.749 19.475C414.089 19.365 414.449 19.31 414.829 19.31C415.419 19.31 415.949 19.44 416.419 19.7C416.889 19.96 417.264 20.34 417.544 20.84C417.834 21.34 417.979 21.945 417.979 22.655ZM416.989 22.67C416.989 22.14 416.884 21.685 416.674 21.305C416.474 20.925 416.194 20.64 415.834 20.45C415.484 20.25 415.079 20.15 414.619 20.15C413.939 20.15 413.344 20.35 412.834 20.75V24.935C413.044 25.025 413.284 25.1 413.554 25.16C413.834 25.22 414.124 25.25 414.424 25.25C414.904 25.25 415.334 25.15 415.714 24.95C416.104 24.74 416.414 24.44 416.644 24.05C416.874 23.66 416.989 23.2 416.989 22.67ZM423.845 26H422.93V25.4C422.65 25.6 422.31 25.765 421.91 25.895C421.51 26.025 421.085 26.09 420.635 26.09C419.885 26.09 419.315 25.92 418.925 25.58C418.535 25.24 418.34 24.775 418.34 24.185C418.34 23.505 418.58 23.005 419.06 22.685C419.55 22.355 420.2 22.19 421.01 22.19C421.35 22.19 421.695 22.225 422.045 22.295C422.405 22.365 422.69 22.455 422.9 22.565V21.725C422.9 21.165 422.745 20.765 422.435 20.525C422.125 20.285 421.665 20.165 421.055 20.165C420.645 20.165 420.25 20.22 419.87 20.33C419.5 20.43 419.195 20.555 418.955 20.705L418.91 19.82C419.19 19.66 419.52 19.535 419.9 19.445C420.29 19.355 420.705 19.31 421.145 19.31C421.995 19.31 422.655 19.495 423.125 19.865C423.605 20.225 423.845 20.815 423.845 21.635V26ZM422.9 24.74V23.225C422.69 23.115 422.425 23.03 422.105 22.97C421.795 22.9 421.48 22.865 421.16 22.865C420.6 22.865 420.15 22.97 419.81 23.18C419.48 23.38 419.315 23.71 419.315 24.17C419.315 24.6 419.46 24.91 419.75 25.1C420.04 25.29 420.41 25.385 420.86 25.385C421.25 25.385 421.635 25.32 422.015 25.19C422.395 25.06 422.69 24.91 422.9 24.74ZM434.605 19.4L432.385 26H431.38L430.045 22.34C429.945 22.02 429.855 21.74 429.775 21.5C429.695 21.26 429.63 21.045 429.58 20.855H429.505C429.465 21.045 429.4 21.26 429.31 21.5C429.23 21.74 429.14 22.02 429.04 22.34L427.705 26H426.7L424.48 19.43L425.47 19.37L426.88 23.63C426.95 23.85 427.015 24.08 427.075 24.32C427.145 24.55 427.2 24.765 427.24 24.965H427.3C427.34 24.765 427.395 24.55 427.465 24.32C427.545 24.08 427.62 23.85 427.69 23.63L429.055 19.85H430.06L431.425 23.63C431.495 23.85 431.57 24.08 431.65 24.32C431.73 24.55 431.785 24.765 431.815 24.965H431.89C431.93 24.765 431.98 24.55 432.04 24.32C432.11 24.08 432.175 23.85 432.235 23.63L433.63 19.4H434.605ZM438.106 22.235V23.105H434.596V22.235H438.106ZM442.333 16.565L442.288 17.42C442.218 17.4 442.128 17.385 442.018 17.375C441.918 17.365 441.818 17.36 441.718 17.36C441.318 17.36 440.988 17.475 440.728 17.705C440.478 17.925 440.353 18.335 440.353 18.935V19.4H442.153L442.078 20.24H440.353V26H439.408V20.24H438.448V19.4H439.408V18.905C439.408 18.095 439.613 17.49 440.023 17.09C440.433 16.69 440.973 16.49 441.643 16.49C441.763 16.49 441.883 16.5 442.003 16.52C442.133 16.53 442.243 16.545 442.333 16.565ZM448.143 22.895H443.238C443.278 23.375 443.413 23.79 443.643 24.14C443.883 24.48 444.198 24.75 444.588 24.95C444.978 25.14 445.428 25.235 445.938 25.235C446.358 25.235 446.768 25.175 447.168 25.055C447.578 24.935 447.918 24.765 448.188 24.545L448.233 25.445C447.973 25.645 447.623 25.805 447.183 25.925C446.753 26.035 446.323 26.09 445.893 26.09C445.173 26.09 444.533 25.95 443.973 25.67C443.423 25.39 442.998 24.99 442.698 24.47C442.398 23.95 442.248 23.335 442.248 22.625C442.248 21.965 442.383 21.385 442.653 20.885C442.923 20.385 443.293 20 443.763 19.73C444.243 19.45 444.783 19.31 445.383 19.31C445.933 19.31 446.418 19.425 446.838 19.655C447.268 19.885 447.603 20.21 447.843 20.63C448.083 21.05 448.203 21.54 448.203 22.1C448.203 22.21 448.198 22.34 448.188 22.49C448.178 22.64 448.163 22.775 448.143 22.895ZM445.383 20.06C444.793 20.06 444.298 20.26 443.898 20.66C443.498 21.06 443.273 21.595 443.223 22.265H447.258C447.268 22.225 447.273 22.185 447.273 22.145C447.273 22.095 447.273 22.04 447.273 21.98C447.273 21.42 447.098 20.96 446.748 20.6C446.408 20.24 445.953 20.06 445.383 20.06ZM454.232 19.895L453.992 20.78C453.782 20.61 453.512 20.47 453.182 20.36C452.852 20.25 452.527 20.195 452.207 20.195C451.737 20.195 451.312 20.3 450.932 20.51C450.552 20.72 450.252 21.015 450.032 21.395C449.822 21.765 449.717 22.2 449.717 22.7C449.717 23.2 449.827 23.64 450.047 24.02C450.267 24.39 450.572 24.68 450.962 24.89C451.352 25.1 451.797 25.205 452.297 25.205C452.677 25.205 453.047 25.145 453.407 25.025C453.777 24.905 454.092 24.735 454.352 24.515L454.397 25.43C454.137 25.63 453.812 25.79 453.422 25.91C453.032 26.03 452.622 26.09 452.192 26.09C451.542 26.09 450.957 25.955 450.437 25.685C449.917 25.415 449.502 25.025 449.192 24.515C448.882 24.005 448.727 23.4 448.727 22.7C448.727 22.04 448.877 21.455 449.177 20.945C449.487 20.425 449.902 20.025 450.422 19.745C450.942 19.455 451.517 19.31 452.147 19.31C452.587 19.31 452.987 19.365 453.347 19.475C453.707 19.575 454.002 19.715 454.232 19.895ZM458.696 19.4L458.621 20.24H456.551V24.02C456.551 24.45 456.656 24.76 456.866 24.95C457.076 25.14 457.361 25.235 457.721 25.235C457.931 25.235 458.121 25.205 458.291 25.145C458.471 25.075 458.626 24.995 458.756 24.905L458.801 25.745C458.491 25.975 458.076 26.09 457.556 26.09C456.916 26.09 456.426 25.93 456.086 25.61C455.756 25.28 455.591 24.79 455.591 24.14V20.24H454.631V19.4H455.591V17.915L456.551 17.66V19.4H458.696ZM463.129 16.49V26H462.169V16.565L463.129 16.49ZM465.042 16.64C465.212 16.64 465.357 16.7 465.477 16.82C465.597 16.94 465.657 17.085 465.657 17.255C465.657 17.435 465.597 17.585 465.477 17.705C465.357 17.825 465.212 17.885 465.042 17.885C464.862 17.885 464.707 17.825 464.577 17.705C464.457 17.585 464.397 17.435 464.397 17.255C464.397 17.085 464.457 16.94 464.577 16.82C464.707 16.7 464.862 16.64 465.042 16.64ZM465.507 19.37V26H464.547V19.43L465.507 19.37ZM473.029 22.64C473.029 23.31 472.879 23.905 472.579 24.425C472.279 24.945 471.859 25.355 471.319 25.655C470.789 25.945 470.164 26.09 469.444 26.09C468.944 26.09 468.474 26.04 468.034 25.94C467.594 25.83 467.224 25.7 466.924 25.55V16.565L467.884 16.49V19.94C468.184 19.73 468.499 19.575 468.829 19.475C469.159 19.365 469.509 19.31 469.879 19.31C470.469 19.31 470.999 19.44 471.469 19.7C471.949 19.96 472.329 20.34 472.609 20.84C472.889 21.33 473.029 21.93 473.029 22.64ZM472.039 22.67C472.039 22.14 471.934 21.685 471.724 21.305C471.524 20.925 471.244 20.64 470.884 20.45C470.534 20.25 470.129 20.15 469.669 20.15C468.989 20.15 468.394 20.35 467.884 20.75V24.935C468.094 25.025 468.334 25.1 468.604 25.16C468.884 25.22 469.174 25.25 469.474 25.25C469.954 25.25 470.384 25.15 470.764 24.95C471.154 24.74 471.464 24.44 471.694 24.05C471.924 23.66 472.039 23.2 472.039 22.67ZM477.47 19.4L477.44 20.315C477.36 20.285 477.255 20.26 477.125 20.24C477.005 20.22 476.895 20.21 476.795 20.21C476.435 20.21 476.085 20.305 475.745 20.495C475.415 20.675 475.125 20.915 474.875 21.215V26H473.915V19.43L474.875 19.37V20.36C475.145 20.04 475.46 19.785 475.82 19.595C476.18 19.405 476.55 19.31 476.93 19.31C477.03 19.31 477.13 19.315 477.23 19.325C477.33 19.335 477.41 19.36 477.47 19.4ZM483.191 26H482.276V25.4C481.996 25.6 481.656 25.765 481.256 25.895C480.856 26.025 480.431 26.09 479.981 26.09C479.231 26.09 478.661 25.92 478.271 25.58C477.881 25.24 477.686 24.775 477.686 24.185C477.686 23.505 477.926 23.005 478.406 22.685C478.896 22.355 479.546 22.19 480.356 22.19C480.696 22.19 481.041 22.225 481.391 22.295C481.751 22.365 482.036 22.455 482.246 22.565V21.725C482.246 21.165 482.091 20.765 481.781 20.525C481.471 20.285 481.011 20.165 480.401 20.165C479.991 20.165 479.596 20.22 479.216 20.33C478.846 20.43 478.541 20.555 478.301 20.705L478.256 19.82C478.536 19.66 478.866 19.535 479.246 19.445C479.636 19.355 480.051 19.31 480.491 19.31C481.341 19.31 482.001 19.495 482.471 19.865C482.951 20.225 483.191 20.815 483.191 21.635V26ZM482.246 24.74V23.225C482.036 23.115 481.771 23.03 481.451 22.97C481.141 22.9 480.826 22.865 480.506 22.865C479.946 22.865 479.496 22.97 479.156 23.18C478.826 23.38 478.661 23.71 478.661 24.17C478.661 24.6 478.806 24.91 479.096 25.1C479.386 25.29 479.756 25.385 480.206 25.385C480.596 25.385 480.981 25.32 481.361 25.19C481.741 25.06 482.036 24.91 482.246 24.74ZM488.157 19.4L488.127 20.315C488.047 20.285 487.942 20.26 487.812 20.24C487.692 20.22 487.582 20.21 487.482 20.21C487.122 20.21 486.772 20.305 486.432 20.495C486.102 20.675 485.812 20.915 485.562 21.215V26H484.602V19.43L485.562 19.37V20.36C485.832 20.04 486.147 19.785 486.507 19.595C486.867 19.405 487.237 19.31 487.617 19.31C487.717 19.31 487.817 19.315 487.917 19.325C488.017 19.335 488.097 19.36 488.157 19.4ZM494.538 19.4L492.378 24.98C492.068 25.81 491.743 26.49 491.403 27.02C491.063 27.55 490.698 27.96 490.308 28.25C489.928 28.54 489.503 28.745 489.033 28.865L488.613 28.115C489.173 27.945 489.623 27.69 489.963 27.35C490.313 27.01 490.628 26.56 490.908 26L488.148 19.43L489.168 19.37L490.908 23.54C491.018 23.81 491.118 24.075 491.208 24.335C491.308 24.585 491.383 24.795 491.433 24.965H491.493C491.543 24.795 491.608 24.585 491.688 24.335C491.768 24.075 491.858 23.805 491.958 23.525L493.548 19.4H494.538ZM501.038 16.565L500.993 17.42C500.923 17.4 500.833 17.385 500.723 17.375C500.623 17.365 500.523 17.36 500.423 17.36C500.023 17.36 499.693 17.475 499.433 17.705C499.183 17.925 499.058 18.335 499.058 18.935V19.4H500.858L500.783 20.24H499.058V26H498.113V20.24H497.153V19.4H498.113V18.905C498.113 18.095 498.318 17.49 498.728 17.09C499.138 16.69 499.678 16.49 500.348 16.49C500.468 16.49 500.588 16.5 500.708 16.52C500.838 16.53 500.948 16.545 501.038 16.565ZM507.75 22.7C507.75 23.36 507.6 23.95 507.3 24.47C507 24.98 506.59 25.38 506.07 25.67C505.55 25.95 504.97 26.09 504.33 26.09C503.69 26.09 503.11 25.95 502.59 25.67C502.07 25.38 501.66 24.98 501.36 24.47C501.06 23.95 500.91 23.36 500.91 22.7C500.91 22.03 501.06 21.44 501.36 20.93C501.66 20.42 502.07 20.025 502.59 19.745C503.11 19.455 503.69 19.31 504.33 19.31C504.97 19.31 505.55 19.455 506.07 19.745C506.59 20.025 507 20.42 507.3 20.93C507.6 21.44 507.75 22.03 507.75 22.7ZM506.76 22.7C506.76 22.2 506.65 21.76 506.43 21.38C506.21 21 505.915 20.705 505.545 20.495C505.185 20.275 504.78 20.165 504.33 20.165C503.88 20.165 503.47 20.275 503.1 20.495C502.73 20.705 502.435 21 502.215 21.38C502.005 21.76 501.9 22.2 501.9 22.7C501.9 23.19 502.01 23.63 502.23 24.02C502.45 24.4 502.745 24.7 503.115 24.92C503.485 25.13 503.89 25.235 504.33 25.235C504.79 25.235 505.205 25.13 505.575 24.92C505.945 24.7 506.235 24.4 506.445 24.02C506.655 23.63 506.76 23.19 506.76 22.7ZM512.186 19.4L512.156 20.315C512.076 20.285 511.971 20.26 511.841 20.24C511.721 20.22 511.611 20.21 511.511 20.21C511.151 20.21 510.801 20.305 510.461 20.495C510.131 20.675 509.841 20.915 509.591 21.215V26H508.631V19.43L509.591 19.37V20.36C509.861 20.04 510.176 19.785 510.536 19.595C510.896 19.405 511.266 19.31 511.646 19.31C511.746 19.31 511.846 19.315 511.946 19.325C512.046 19.335 512.126 19.36 512.186 19.4ZM521.675 19.85C521.675 20.53 521.475 21.08 521.075 21.5C520.675 21.92 520.18 22.2 519.59 22.34L522.17 26H520.985L518.585 22.565H516.575V26H515.585V17.09H518.285C518.965 17.09 519.56 17.195 520.07 17.405C520.58 17.615 520.975 17.925 521.255 18.335C521.535 18.735 521.675 19.24 521.675 19.85ZM520.655 19.85C520.655 19.39 520.545 19.02 520.325 18.74C520.115 18.46 519.825 18.255 519.455 18.125C519.095 17.995 518.68 17.93 518.21 17.93H516.575V21.755H518.21C518.68 21.755 519.095 21.69 519.455 21.56C519.825 21.43 520.115 21.225 520.325 20.945C520.545 20.665 520.655 20.3 520.655 19.85ZM528.548 17.09L528.473 17.975H524.123V21.065H527.768V21.935H524.123V25.115H528.638V26H523.133V17.09H528.548ZM536.826 17.09V26H535.926L531.261 19.565C531.131 19.385 531.011 19.215 530.901 19.055C530.801 18.885 530.716 18.74 530.646 18.62H530.586V26H529.641V17.09H530.616L535.206 23.42C535.326 23.59 535.441 23.76 535.551 23.93C535.661 24.09 535.751 24.235 535.821 24.365H535.866V17.09H536.826ZM545.77 26H544.72L543.625 23.255H539.71L538.615 26H537.595L541.135 17.09H542.245L545.77 26ZM543.325 22.43L542.005 19.115C541.935 18.945 541.875 18.79 541.825 18.65C541.785 18.5 541.745 18.35 541.705 18.2H541.63C541.59 18.35 541.545 18.5 541.495 18.65C541.455 18.79 541.4 18.945 541.33 19.115L539.995 22.43H543.325ZM548.783 26H547.793V17.99H544.898V17.09H551.723L551.648 17.99H548.783V26ZM558.067 17.09L557.992 17.975H553.642V21.065H557.287V21.935H553.642V25.115H558.157V26H552.652V17.09H558.067ZM565.25 19.85C565.25 20.53 565.05 21.08 564.65 21.5C564.25 21.92 563.755 22.2 563.165 22.34L565.745 26H564.56L562.16 22.565H560.15V26H559.16V17.09H561.86C562.54 17.09 563.135 17.195 563.645 17.405C564.155 17.615 564.55 17.925 564.83 18.335C565.11 18.735 565.25 19.24 565.25 19.85ZM564.23 19.85C564.23 19.39 564.12 19.02 563.9 18.74C563.69 18.46 563.4 18.255 563.03 18.125C562.67 17.995 562.255 17.93 561.785 17.93H560.15V21.755H561.785C562.255 21.755 562.67 21.69 563.03 21.56C563.4 21.43 563.69 21.225 563.9 20.945C564.12 20.665 564.23 20.3 564.23 19.85Z" fill="white"/>
</svg>
