<svg width="581" height="43" viewBox="0 0 581 43" fill="none" xmlns="http://www.w3.org/2000/svg">
<rect width="581" height="43" rx="15" fill="#1A2F3E"/>
<path fill-rule="evenodd" clip-rule="evenodd" d="M25.0098 18.8346L14 18.835V13.123H25.0098V18.835H30.754V29.8771H25.0098V24.5471C22.093 24.5979 19.7442 26.9647 19.7442 29.8771H14C14 23.8103 18.9205 18.8862 25.0098 18.835V18.8346Z" fill="#A0D9FF"/>
<path d="M51.1859 14.012L50.4859 17.316C50.1872 17.1293 49.7859 16.9707 49.2819 16.84C48.7966 16.7093 48.2926 16.6067 47.7699 16.532C47.2472 16.4387 46.7526 16.392 46.2859 16.392C45.3899 16.392 44.7086 16.5227 44.2419 16.784C43.7752 17.0453 43.5419 17.4467 43.5419 17.988C43.5419 18.3613 43.6912 18.66 43.9899 18.884C44.2886 19.108 44.6806 19.304 45.1659 19.472C45.6699 19.64 46.2206 19.808 46.8179 19.976C47.4152 20.144 48.0126 20.3493 48.6099 20.592C49.2072 20.816 49.7486 21.1147 50.2339 21.488C50.7192 21.8427 51.1112 22.3093 51.4099 22.888C51.7272 23.448 51.8859 24.148 51.8859 24.988C51.8859 26.5933 51.2979 27.872 50.1219 28.824C48.9459 29.776 47.2472 30.252 45.0259 30.252C43.9992 30.252 43.0192 30.1587 42.0859 29.972C41.1712 29.7853 40.4152 29.5333 39.8179 29.216L40.1259 25.744C40.4992 25.968 40.9566 26.1733 41.4979 26.36C42.0392 26.5467 42.6272 26.696 43.2619 26.808C43.8966 26.92 44.5219 26.976 45.1379 26.976C46.1272 26.976 46.8646 26.8453 47.3499 26.584C47.8352 26.304 48.0779 25.884 48.0779 25.324C48.0779 24.932 47.9192 24.6147 47.6019 24.372C47.3032 24.1293 46.9112 23.924 46.4259 23.756C45.9406 23.588 45.3992 23.42 44.8019 23.252C44.2046 23.084 43.6072 22.888 43.0099 22.664C42.4126 22.4213 41.8619 22.1227 41.3579 21.768C40.8726 21.4133 40.4806 20.956 40.1819 20.396C39.8832 19.836 39.7339 19.136 39.7339 18.296C39.7339 17.2693 39.9859 16.3733 40.4899 15.608C41.0126 14.824 41.7592 14.2173 42.7299 13.788C43.7006 13.34 44.8579 13.116 46.2019 13.116C46.7432 13.116 47.3219 13.1533 47.9379 13.228C48.5539 13.284 49.1419 13.3773 49.7019 13.508C50.2806 13.6387 50.7752 13.8067 51.1859 14.012ZM62.9218 18.52L62.1378 21.768C61.8205 21.4507 61.4005 21.1893 60.8778 20.984C60.3552 20.7787 59.8138 20.676 59.2538 20.676C58.6378 20.676 58.0778 20.8067 57.5738 21.068C57.0885 21.3107 56.7058 21.6653 56.4258 22.132C56.1645 22.5987 56.0338 23.1587 56.0338 23.812C56.0338 24.484 56.1738 25.0627 56.4538 25.548C56.7338 26.0333 57.1352 26.3973 57.6578 26.64C58.1992 26.8827 58.8245 27.004 59.5338 27.004C60.1685 27.004 60.7658 26.9107 61.3258 26.724C61.9045 26.5373 62.4178 26.2947 62.8658 25.996L63.0058 29.188C62.4832 29.5053 61.8858 29.7667 61.2138 29.972C60.5418 30.1587 59.7858 30.252 58.9458 30.252C57.7698 30.252 56.6778 30 55.6698 29.496C54.6618 28.992 53.8498 28.264 53.2338 27.312C52.6365 26.3413 52.3378 25.1747 52.3378 23.812C52.3378 22.58 52.6272 21.488 53.2058 20.536C53.7845 19.5653 54.5685 18.8093 55.5578 18.268C56.5472 17.708 57.6485 17.428 58.8618 17.428C59.7578 17.428 60.5418 17.5307 61.2138 17.736C61.9045 17.9227 62.4738 18.184 62.9218 18.52ZM76.6657 23.84C76.6657 25.072 76.3764 26.1733 75.7977 27.144C75.2377 28.1147 74.4537 28.88 73.4457 29.44C72.4377 29.9813 71.2897 30.252 70.0017 30.252C68.7137 30.252 67.5657 29.9813 66.5577 29.44C65.5497 28.88 64.7564 28.1147 64.1777 27.144C63.6177 26.1733 63.3377 25.072 63.3377 23.84C63.3377 22.5893 63.6177 21.488 64.1777 20.536C64.7564 19.5653 65.5497 18.8093 66.5577 18.268C67.5657 17.708 68.7137 17.428 70.0017 17.428C71.2897 17.428 72.4377 17.708 73.4457 18.268C74.4537 18.8093 75.2377 19.5653 75.7977 20.536C76.3764 21.488 76.6657 22.5893 76.6657 23.84ZM72.9697 23.84C72.9697 23.1867 72.839 22.6173 72.5777 22.132C72.3164 21.628 71.9617 21.2453 71.5137 20.984C71.0657 20.704 70.5617 20.564 70.0017 20.564C69.4417 20.564 68.9377 20.704 68.4897 20.984C68.0417 21.2453 67.687 21.628 67.4257 22.132C67.1644 22.6173 67.0337 23.1867 67.0337 23.84C67.0337 24.4933 67.1644 25.072 67.4257 25.576C67.687 26.0613 68.0417 26.444 68.4897 26.724C68.9564 26.9853 69.4604 27.116 70.0017 27.116C70.5804 27.116 71.0937 26.9853 71.5417 26.724C71.9897 26.444 72.335 26.0613 72.5777 25.576C72.839 25.072 72.9697 24.4933 72.9697 23.84ZM89.3099 12.248V30H85.7259V29.244C84.8299 29.916 83.7752 30.252 82.5619 30.252C81.5539 30.252 80.6205 30 79.7619 29.496C78.9219 28.992 78.2499 28.2733 77.7459 27.34C77.2419 26.388 76.9899 25.268 76.9899 23.98C76.9899 22.6547 77.2419 21.5067 77.7459 20.536C78.2685 19.5467 78.9965 18.7813 79.9299 18.24C80.8819 17.6987 81.9925 17.428 83.2619 17.428C83.7099 17.428 84.1485 17.4653 84.5779 17.54C85.0072 17.6147 85.3899 17.7267 85.7259 17.876V12.416L89.3099 12.248ZM85.7259 20.872C85.5019 20.7787 85.2125 20.6947 84.8579 20.62C84.5032 20.5453 84.1579 20.508 83.8219 20.508C83.1872 20.508 82.6272 20.648 82.1419 20.928C81.6752 21.1893 81.3112 21.572 81.0499 22.076C80.8072 22.58 80.6859 23.1773 80.6859 23.868C80.6859 24.54 80.7979 25.128 81.0219 25.632C81.2459 26.1173 81.5725 26.5 82.0019 26.78C82.4499 27.0413 82.9632 27.172 83.5419 27.172C84.3819 27.172 85.1099 26.9573 85.7259 26.528V20.872ZM103.697 23.84C103.697 25.072 103.407 26.1733 102.829 27.144C102.269 28.1147 101.485 28.88 100.477 29.44C99.4686 29.9813 98.3206 30.252 97.0326 30.252C95.7446 30.252 94.5966 29.9813 93.5886 29.44C92.5806 28.88 91.7873 28.1147 91.2086 27.144C90.6486 26.1733 90.3686 25.072 90.3686 23.84C90.3686 22.5893 90.6486 21.488 91.2086 20.536C91.7873 19.5653 92.5806 18.8093 93.5886 18.268C94.5966 17.708 95.7446 17.428 97.0326 17.428C98.3206 17.428 99.4686 17.708 100.477 18.268C101.485 18.8093 102.269 19.5653 102.829 20.536C103.407 21.488 103.697 22.5893 103.697 23.84ZM100.001 23.84C100.001 23.1867 99.87 22.6173 99.6086 22.132C99.3473 21.628 98.9926 21.2453 98.5446 20.984C98.0966 20.704 97.5926 20.564 97.0326 20.564C96.4726 20.564 95.9686 20.704 95.5206 20.984C95.0726 21.2453 94.718 21.628 94.4566 22.132C94.1953 22.6173 94.0646 23.1867 94.0646 23.84C94.0646 24.4933 94.1953 25.072 94.4566 25.576C94.718 26.0613 95.0726 26.444 95.5206 26.724C95.9873 26.9853 96.4913 27.116 97.0326 27.116C97.6113 27.116 98.1246 26.9853 98.5726 26.724C99.0206 26.444 99.366 26.0613 99.6086 25.576C99.87 25.072 100.001 24.4933 100.001 23.84ZM116.873 17.764L112.533 22.804L117.097 30H112.981L109.789 25.296L108.333 26.976V30H104.749V12.416L108.333 12.248V23.588H108.473C108.678 23.1773 108.949 22.72 109.285 22.216C109.621 21.6933 110.022 21.1333 110.489 20.536L113.037 17.596L116.873 17.764Z" fill="#A0D9FF"/>
<path d="M347.91 26H346.995V25.4C346.715 25.6 346.375 25.765 345.975 25.895C345.575 26.025 345.15 26.09 344.7 26.09C343.95 26.09 343.38 25.92 342.99 25.58C342.6 25.24 342.405 24.775 342.405 24.185C342.405 23.505 342.645 23.005 343.125 22.685C343.615 22.355 344.265 22.19 345.075 22.19C345.415 22.19 345.76 22.225 346.11 22.295C346.47 22.365 346.755 22.455 346.965 22.565V21.725C346.965 21.165 346.81 20.765 346.5 20.525C346.19 20.285 345.73 20.165 345.12 20.165C344.71 20.165 344.315 20.22 343.935 20.33C343.565 20.43 343.26 20.555 343.02 20.705L342.975 19.82C343.255 19.66 343.585 19.535 343.965 19.445C344.355 19.355 344.77 19.31 345.21 19.31C346.06 19.31 346.72 19.495 347.19 19.865C347.67 20.225 347.91 20.815 347.91 21.635V26ZM346.965 24.74V23.225C346.755 23.115 346.49 23.03 346.17 22.97C345.86 22.9 345.545 22.865 345.225 22.865C344.665 22.865 344.215 22.97 343.875 23.18C343.545 23.38 343.38 23.71 343.38 24.17C343.38 24.6 343.525 24.91 343.815 25.1C344.105 25.29 344.475 25.385 344.925 25.385C345.315 25.385 345.7 25.32 346.08 25.19C346.46 25.06 346.755 24.91 346.965 24.74ZM355.894 19.58L355.759 20.435C355.549 20.345 355.304 20.27 355.024 20.21C354.744 20.15 354.434 20.12 354.094 20.12C353.614 20.12 353.249 20.215 352.999 20.405C352.749 20.585 352.624 20.82 352.624 21.11C352.624 21.33 352.709 21.515 352.879 21.665C353.049 21.805 353.269 21.93 353.539 22.04C353.809 22.14 354.099 22.245 354.409 22.355C354.719 22.455 355.009 22.58 355.279 22.73C355.549 22.87 355.769 23.06 355.939 23.3C356.109 23.53 356.194 23.825 356.194 24.185C356.194 24.525 356.109 24.84 355.939 25.13C355.769 25.42 355.494 25.655 355.114 25.835C354.734 26.005 354.239 26.09 353.629 26.09C353.239 26.09 352.854 26.05 352.474 25.97C352.094 25.88 351.779 25.765 351.529 25.625L351.619 24.77C351.869 24.91 352.179 25.03 352.549 25.13C352.919 25.23 353.279 25.28 353.629 25.28C354.679 25.28 355.204 24.925 355.204 24.215C355.204 23.985 355.119 23.8 354.949 23.66C354.779 23.52 354.559 23.395 354.289 23.285C354.019 23.175 353.729 23.07 353.419 22.97C353.109 22.86 352.819 22.73 352.549 22.58C352.279 22.43 352.059 22.245 351.889 22.025C351.719 21.795 351.634 21.505 351.634 21.155C351.634 20.825 351.724 20.52 351.904 20.24C352.094 19.96 352.374 19.735 352.744 19.565C353.114 19.395 353.569 19.31 354.109 19.31C354.499 19.31 354.839 19.335 355.129 19.385C355.419 19.425 355.674 19.49 355.894 19.58ZM357.763 16.64C357.933 16.64 358.078 16.7 358.198 16.82C358.318 16.94 358.378 17.085 358.378 17.255C358.378 17.435 358.318 17.585 358.198 17.705C358.078 17.825 357.933 17.885 357.763 17.885C357.583 17.885 357.428 17.825 357.298 17.705C357.178 17.585 357.118 17.435 357.118 17.255C357.118 17.085 357.178 16.94 357.298 16.82C357.428 16.7 357.583 16.64 357.763 16.64ZM358.228 19.37V26H357.268V19.43L358.228 19.37ZM369.651 26H368.691V21.86C368.691 21.72 368.676 21.59 368.646 21.47C368.626 21.34 368.601 21.23 368.571 21.14C368.471 20.8 368.301 20.555 368.061 20.405C367.821 20.255 367.516 20.18 367.146 20.18C367.096 20.18 367.046 20.185 366.996 20.195C366.946 20.195 366.896 20.195 366.846 20.195C366.556 20.225 366.256 20.31 365.946 20.45C365.646 20.58 365.341 20.755 365.031 20.975C365.061 21.095 365.081 21.22 365.091 21.35C365.111 21.47 365.121 21.6 365.121 21.74V26H364.161V21.86C364.161 21.72 364.151 21.59 364.131 21.47C364.111 21.34 364.081 21.23 364.041 21.14C363.951 20.8 363.786 20.555 363.546 20.405C363.306 20.255 363.001 20.18 362.631 20.18C362.301 20.18 361.961 20.255 361.611 20.405C361.271 20.545 360.936 20.735 360.606 20.975V26H359.646V19.43L360.606 19.37V20.18C360.976 19.9 361.331 19.695 361.671 19.565C362.021 19.425 362.351 19.35 362.661 19.34C362.991 19.32 363.306 19.35 363.606 19.43C363.886 19.49 364.131 19.595 364.341 19.745C364.551 19.885 364.716 20.08 364.836 20.33C365.286 19.96 365.726 19.7 366.156 19.55C366.586 19.39 366.991 19.31 367.371 19.31C368.071 19.31 368.626 19.5 369.036 19.88C369.446 20.25 369.651 20.84 369.651 21.65V26ZM377.166 22.655C377.166 23.315 377.016 23.905 376.716 24.425C376.426 24.945 376.021 25.355 375.501 25.655C374.991 25.945 374.406 26.09 373.746 26.09C373.066 26.09 372.491 25.99 372.021 25.79V28.775H371.061V19.43L372.021 19.37V19.955C372.301 19.735 372.606 19.575 372.936 19.475C373.276 19.365 373.636 19.31 374.016 19.31C374.606 19.31 375.136 19.44 375.606 19.7C376.076 19.96 376.451 20.34 376.731 20.84C377.021 21.34 377.166 21.945 377.166 22.655ZM376.176 22.67C376.176 22.14 376.071 21.685 375.861 21.305C375.661 20.925 375.381 20.64 375.021 20.45C374.671 20.25 374.266 20.15 373.806 20.15C373.126 20.15 372.531 20.35 372.021 20.75V24.935C372.231 25.025 372.471 25.1 372.741 25.16C373.021 25.22 373.311 25.25 373.611 25.25C374.091 25.25 374.521 25.15 374.901 24.95C375.291 24.74 375.601 24.44 375.831 24.05C376.061 23.66 376.176 23.2 376.176 22.67ZM379.012 16.49V26H378.052V16.565L379.012 16.49ZM385.799 22.895H380.894C380.934 23.375 381.069 23.79 381.299 24.14C381.539 24.48 381.854 24.75 382.244 24.95C382.634 25.14 383.084 25.235 383.594 25.235C384.014 25.235 384.424 25.175 384.824 25.055C385.234 24.935 385.574 24.765 385.844 24.545L385.889 25.445C385.629 25.645 385.279 25.805 384.839 25.925C384.409 26.035 383.979 26.09 383.549 26.09C382.829 26.09 382.189 25.95 381.629 25.67C381.079 25.39 380.654 24.99 380.354 24.47C380.054 23.95 379.904 23.335 379.904 22.625C379.904 21.965 380.039 21.385 380.309 20.885C380.579 20.385 380.949 20 381.419 19.73C381.899 19.45 382.439 19.31 383.039 19.31C383.589 19.31 384.074 19.425 384.494 19.655C384.924 19.885 385.259 20.21 385.499 20.63C385.739 21.05 385.859 21.54 385.859 22.1C385.859 22.21 385.854 22.34 385.844 22.49C385.834 22.64 385.819 22.775 385.799 22.895ZM383.039 20.06C382.449 20.06 381.954 20.26 381.554 20.66C381.154 21.06 380.929 21.595 380.879 22.265H384.914C384.924 22.225 384.929 22.185 384.929 22.145C384.929 22.095 384.929 22.04 384.929 21.98C384.929 21.42 384.754 20.96 384.404 20.6C384.064 20.24 383.609 20.06 383.039 20.06ZM396.901 26H395.851L394.756 23.255H390.841L389.746 26H388.726L392.266 17.09H393.376L396.901 26ZM394.456 22.43L393.136 19.115C393.066 18.945 393.006 18.79 392.956 18.65C392.916 18.5 392.876 18.35 392.836 18.2H392.761C392.721 18.35 392.676 18.5 392.626 18.65C392.586 18.79 392.531 18.945 392.461 19.115L391.126 22.43H394.456ZM403.865 19.955C403.865 20.605 403.71 21.145 403.4 21.575C403.1 21.995 402.685 22.305 402.155 22.505C401.625 22.705 401.02 22.805 400.34 22.805H398.69V26H397.7V17.09H400.34C401.03 17.09 401.635 17.195 402.155 17.405C402.685 17.605 403.1 17.915 403.4 18.335C403.71 18.755 403.865 19.295 403.865 19.955ZM402.86 19.955C402.86 19.445 402.74 19.045 402.5 18.755C402.26 18.455 401.945 18.245 401.555 18.125C401.165 17.995 400.735 17.93 400.265 17.93H398.69V21.965H400.265C400.735 21.965 401.165 21.905 401.555 21.785C401.945 21.665 402.26 21.46 402.5 21.17C402.74 20.87 402.86 20.465 402.86 19.955ZM405.916 17.09V26H404.926V17.09H405.916ZM419.481 19.4L417.261 26H416.256L414.921 22.34C414.821 22.02 414.731 21.74 414.651 21.5C414.571 21.26 414.506 21.045 414.456 20.855H414.381C414.341 21.045 414.276 21.26 414.186 21.5C414.106 21.74 414.016 22.02 413.916 22.34L412.581 26H411.576L409.356 19.43L410.346 19.37L411.756 23.63C411.826 23.85 411.891 24.08 411.951 24.32C412.021 24.55 412.076 24.765 412.116 24.965H412.176C412.216 24.765 412.271 24.55 412.341 24.32C412.421 24.08 412.496 23.85 412.566 23.63L413.931 19.85H414.936L416.301 23.63C416.371 23.85 416.446 24.08 416.526 24.32C416.606 24.55 416.661 24.765 416.691 24.965H416.766C416.806 24.765 416.856 24.55 416.916 24.32C416.986 24.08 417.051 23.85 417.111 23.63L418.506 19.4H419.481ZM423.828 19.4L423.798 20.315C423.718 20.285 423.613 20.26 423.483 20.24C423.363 20.22 423.253 20.21 423.153 20.21C422.793 20.21 422.443 20.305 422.103 20.495C421.773 20.675 421.483 20.915 421.233 21.215V26H420.273V19.43L421.233 19.37V20.36C421.503 20.04 421.818 19.785 422.178 19.595C422.538 19.405 422.908 19.31 423.288 19.31C423.388 19.31 423.488 19.315 423.588 19.325C423.688 19.335 423.768 19.36 423.828 19.4ZM429.549 26H428.634V25.4C428.354 25.6 428.014 25.765 427.614 25.895C427.214 26.025 426.789 26.09 426.339 26.09C425.589 26.09 425.019 25.92 424.629 25.58C424.239 25.24 424.044 24.775 424.044 24.185C424.044 23.505 424.284 23.005 424.764 22.685C425.254 22.355 425.904 22.19 426.714 22.19C427.054 22.19 427.399 22.225 427.749 22.295C428.109 22.365 428.394 22.455 428.604 22.565V21.725C428.604 21.165 428.449 20.765 428.139 20.525C427.829 20.285 427.369 20.165 426.759 20.165C426.349 20.165 425.954 20.22 425.574 20.33C425.204 20.43 424.899 20.555 424.659 20.705L424.614 19.82C424.894 19.66 425.224 19.535 425.604 19.445C425.994 19.355 426.409 19.31 426.849 19.31C427.699 19.31 428.359 19.495 428.829 19.865C429.309 20.225 429.549 20.815 429.549 21.635V26ZM428.604 24.74V23.225C428.394 23.115 428.129 23.03 427.809 22.97C427.499 22.9 427.184 22.865 426.864 22.865C426.304 22.865 425.854 22.97 425.514 23.18C425.184 23.38 425.019 23.71 425.019 24.17C425.019 24.6 425.164 24.91 425.454 25.1C425.744 25.29 426.114 25.385 426.564 25.385C426.954 25.385 427.339 25.32 427.719 25.19C428.099 25.06 428.394 24.91 428.604 24.74ZM437.064 22.655C437.064 23.315 436.914 23.905 436.614 24.425C436.324 24.945 435.919 25.355 435.399 25.655C434.889 25.945 434.304 26.09 433.644 26.09C432.964 26.09 432.389 25.99 431.919 25.79V28.775H430.959V19.43L431.919 19.37V19.955C432.199 19.735 432.504 19.575 432.834 19.475C433.174 19.365 433.534 19.31 433.914 19.31C434.504 19.31 435.034 19.44 435.504 19.7C435.974 19.96 436.349 20.34 436.629 20.84C436.919 21.34 437.064 21.945 437.064 22.655ZM436.074 22.67C436.074 22.14 435.969 21.685 435.759 21.305C435.559 20.925 435.279 20.64 434.919 20.45C434.569 20.25 434.164 20.15 433.704 20.15C433.024 20.15 432.429 20.35 431.919 20.75V24.935C432.129 25.025 432.369 25.1 432.639 25.16C432.919 25.22 433.209 25.25 433.509 25.25C433.989 25.25 434.419 25.15 434.799 24.95C435.189 24.74 435.499 24.44 435.729 24.05C435.959 23.66 436.074 23.2 436.074 22.67ZM444.056 22.655C444.056 23.315 443.906 23.905 443.606 24.425C443.316 24.945 442.911 25.355 442.391 25.655C441.881 25.945 441.296 26.09 440.636 26.09C439.956 26.09 439.381 25.99 438.911 25.79V28.775H437.951V19.43L438.911 19.37V19.955C439.191 19.735 439.496 19.575 439.826 19.475C440.166 19.365 440.526 19.31 440.906 19.31C441.496 19.31 442.026 19.44 442.496 19.7C442.966 19.96 443.341 20.34 443.621 20.84C443.911 21.34 444.056 21.945 444.056 22.655ZM443.066 22.67C443.066 22.14 442.961 21.685 442.751 21.305C442.551 20.925 442.271 20.64 441.911 20.45C441.561 20.25 441.156 20.15 440.696 20.15C440.016 20.15 439.421 20.35 438.911 20.75V24.935C439.121 25.025 439.361 25.1 439.631 25.16C439.911 25.22 440.201 25.25 440.501 25.25C440.981 25.25 441.411 25.15 441.791 24.95C442.181 24.74 442.491 24.44 442.721 24.05C442.951 23.66 443.066 23.2 443.066 22.67ZM450.312 22.895H445.407C445.447 23.375 445.582 23.79 445.812 24.14C446.052 24.48 446.367 24.75 446.757 24.95C447.147 25.14 447.597 25.235 448.107 25.235C448.527 25.235 448.937 25.175 449.337 25.055C449.747 24.935 450.087 24.765 450.357 24.545L450.402 25.445C450.142 25.645 449.792 25.805 449.352 25.925C448.922 26.035 448.492 26.09 448.062 26.09C447.342 26.09 446.702 25.95 446.142 25.67C445.592 25.39 445.167 24.99 444.867 24.47C444.567 23.95 444.417 23.335 444.417 22.625C444.417 21.965 444.552 21.385 444.822 20.885C445.092 20.385 445.462 20 445.932 19.73C446.412 19.45 446.952 19.31 447.552 19.31C448.102 19.31 448.587 19.425 449.007 19.655C449.437 19.885 449.772 20.21 450.012 20.63C450.252 21.05 450.372 21.54 450.372 22.1C450.372 22.21 450.367 22.34 450.357 22.49C450.347 22.64 450.332 22.775 450.312 22.895ZM447.552 20.06C446.962 20.06 446.467 20.26 446.067 20.66C445.667 21.06 445.442 21.595 445.392 22.265H449.427C449.437 22.225 449.442 22.185 449.442 22.145C449.442 22.095 449.442 22.04 449.442 21.98C449.442 21.42 449.267 20.96 448.917 20.6C448.577 20.24 448.122 20.06 447.552 20.06ZM454.976 19.4L454.946 20.315C454.866 20.285 454.761 20.26 454.631 20.24C454.511 20.22 454.401 20.21 454.301 20.21C453.941 20.21 453.591 20.305 453.251 20.495C452.921 20.675 452.631 20.915 452.381 21.215V26H451.421V19.43L452.381 19.37V20.36C452.651 20.04 452.966 19.785 453.326 19.595C453.686 19.405 454.056 19.31 454.436 19.31C454.536 19.31 454.636 19.315 454.736 19.325C454.836 19.335 454.916 19.36 454.976 19.4ZM461.525 16.565L461.48 17.42C461.41 17.4 461.32 17.385 461.21 17.375C461.11 17.365 461.01 17.36 460.91 17.36C460.51 17.36 460.18 17.475 459.92 17.705C459.67 17.925 459.545 18.335 459.545 18.935V19.4H461.345L461.27 20.24H459.545V26H458.6V20.24H457.64V19.4H458.6V18.905C458.6 18.095 458.805 17.49 459.215 17.09C459.625 16.69 460.165 16.49 460.835 16.49C460.955 16.49 461.075 16.5 461.195 16.52C461.325 16.53 461.435 16.545 461.525 16.565ZM468.237 22.7C468.237 23.36 468.087 23.95 467.787 24.47C467.487 24.98 467.077 25.38 466.557 25.67C466.037 25.95 465.457 26.09 464.817 26.09C464.177 26.09 463.597 25.95 463.077 25.67C462.557 25.38 462.147 24.98 461.847 24.47C461.547 23.95 461.397 23.36 461.397 22.7C461.397 22.03 461.547 21.44 461.847 20.93C462.147 20.42 462.557 20.025 463.077 19.745C463.597 19.455 464.177 19.31 464.817 19.31C465.457 19.31 466.037 19.455 466.557 19.745C467.077 20.025 467.487 20.42 467.787 20.93C468.087 21.44 468.237 22.03 468.237 22.7ZM467.247 22.7C467.247 22.2 467.137 21.76 466.917 21.38C466.697 21 466.402 20.705 466.032 20.495C465.672 20.275 465.267 20.165 464.817 20.165C464.367 20.165 463.957 20.275 463.587 20.495C463.217 20.705 462.922 21 462.702 21.38C462.492 21.76 462.387 22.2 462.387 22.7C462.387 23.19 462.497 23.63 462.717 24.02C462.937 24.4 463.232 24.7 463.602 24.92C463.972 25.13 464.377 25.235 464.817 25.235C465.277 25.235 465.692 25.13 466.062 24.92C466.432 24.7 466.722 24.4 466.932 24.02C467.142 23.63 467.247 23.19 467.247 22.7ZM472.673 19.4L472.643 20.315C472.563 20.285 472.458 20.26 472.328 20.24C472.208 20.22 472.098 20.21 471.998 20.21C471.638 20.21 471.288 20.305 470.948 20.495C470.618 20.675 470.328 20.915 470.078 21.215V26H469.118V19.43L470.078 19.37V20.36C470.348 20.04 470.663 19.785 471.023 19.595C471.383 19.405 471.753 19.31 472.133 19.31C472.233 19.31 472.333 19.315 472.433 19.325C472.533 19.335 472.613 19.36 472.673 19.4ZM481.202 17.48L480.992 18.365C480.822 18.265 480.617 18.18 480.377 18.11C480.137 18.04 479.882 17.985 479.612 17.945C479.352 17.905 479.092 17.885 478.832 17.885C478.142 17.885 477.612 18.02 477.242 18.29C476.882 18.56 476.702 18.92 476.702 19.37C476.702 19.67 476.787 19.92 476.957 20.12C477.137 20.32 477.372 20.485 477.662 20.615C477.952 20.745 478.267 20.865 478.607 20.975C478.957 21.085 479.307 21.205 479.657 21.335C480.007 21.455 480.327 21.61 480.617 21.8C480.907 21.98 481.137 22.215 481.307 22.505C481.487 22.795 481.577 23.155 481.577 23.585C481.577 24.345 481.302 24.955 480.752 25.415C480.202 25.865 479.382 26.09 478.292 26.09C477.762 26.09 477.252 26.035 476.762 25.925C476.282 25.815 475.892 25.675 475.592 25.505L475.712 24.56C475.922 24.68 476.162 24.79 476.432 24.89C476.712 24.98 477.012 25.055 477.332 25.115C477.652 25.175 477.977 25.205 478.307 25.205C479.087 25.205 479.657 25.07 480.017 24.8C480.377 24.52 480.557 24.145 480.557 23.675C480.557 23.355 480.467 23.095 480.287 22.895C480.117 22.695 479.887 22.53 479.597 22.4C479.307 22.26 478.987 22.14 478.637 22.04C478.297 21.93 477.952 21.815 477.602 21.695C477.252 21.565 476.932 21.41 476.642 21.23C476.352 21.04 476.117 20.805 475.937 20.525C475.767 20.235 475.682 19.87 475.682 19.43C475.682 18.96 475.802 18.545 476.042 18.185C476.282 17.815 476.637 17.525 477.107 17.315C477.577 17.105 478.147 17 478.817 17C479.117 17 479.412 17.02 479.702 17.06C479.992 17.09 480.267 17.14 480.527 17.21C480.787 17.28 481.012 17.37 481.202 17.48ZM489.628 25.415C489.288 25.635 488.878 25.805 488.398 25.925C487.928 26.035 487.423 26.09 486.883 26.09C485.953 26.09 485.123 25.9 484.393 25.52C483.673 25.13 483.108 24.59 482.698 23.9C482.298 23.21 482.098 22.425 482.098 21.545C482.098 20.665 482.288 19.885 482.668 19.205C483.058 18.525 483.593 17.99 484.273 17.6C484.953 17.2 485.733 17 486.613 17C487.223 17 487.748 17.06 488.188 17.18C488.638 17.29 489.048 17.475 489.418 17.735L489.088 18.665C488.798 18.435 488.443 18.255 488.023 18.125C487.603 17.985 487.153 17.915 486.673 17.915C485.973 17.915 485.353 18.075 484.813 18.395C484.283 18.705 483.868 19.13 483.568 19.67C483.268 20.21 483.118 20.835 483.118 21.545C483.118 22.235 483.278 22.855 483.598 23.405C483.928 23.955 484.378 24.39 484.948 24.71C485.518 25.02 486.173 25.175 486.913 25.175C487.403 25.175 487.888 25.11 488.368 24.98C488.858 24.84 489.273 24.65 489.613 24.41L489.628 25.415ZM494.426 17C495.316 17 496.101 17.195 496.781 17.585C497.461 17.975 497.996 18.515 498.386 19.205C498.776 19.885 498.971 20.665 498.971 21.545C498.971 22.415 498.776 23.195 498.386 23.885C497.996 24.565 497.461 25.105 496.781 25.505C496.101 25.895 495.316 26.09 494.426 26.09C493.536 26.09 492.746 25.895 492.056 25.505C491.376 25.105 490.841 24.565 490.451 23.885C490.071 23.195 489.881 22.415 489.881 21.545C489.881 20.665 490.071 19.885 490.451 19.205C490.841 18.525 491.376 17.99 492.056 17.6C492.746 17.2 493.536 17 494.426 17ZM494.426 25.19C495.116 25.19 495.726 25.03 496.256 24.71C496.786 24.39 497.196 23.955 497.486 23.405C497.786 22.855 497.936 22.235 497.936 21.545C497.936 20.865 497.786 20.25 497.486 19.7C497.196 19.14 496.786 18.7 496.256 18.38C495.726 18.06 495.116 17.9 494.426 17.9C493.736 17.9 493.126 18.06 492.596 18.38C492.066 18.7 491.651 19.135 491.351 19.685C491.061 20.225 490.916 20.845 490.916 21.545C490.916 22.225 491.061 22.845 491.351 23.405C491.651 23.955 492.066 24.39 492.596 24.71C493.126 25.03 493.736 25.19 494.426 25.19ZM507.655 21.545C507.655 22.445 507.455 23.23 507.055 23.9C506.655 24.57 506.085 25.09 505.345 25.46C504.605 25.82 503.72 26 502.69 26H500.035V17.09H502.69C503.72 17.09 504.605 17.275 505.345 17.645C506.085 18.005 506.655 18.52 507.055 19.19C507.455 19.85 507.655 20.635 507.655 21.545ZM506.62 21.545C506.62 20.785 506.46 20.14 506.14 19.61C505.82 19.07 505.365 18.66 504.775 18.38C504.185 18.09 503.49 17.945 502.69 17.945H501.01V25.145H502.69C503.5 25.145 504.195 25.005 504.775 24.725C505.365 24.435 505.82 24.02 506.14 23.48C506.46 22.94 506.62 22.295 506.62 21.545ZM512.715 17C513.605 17 514.39 17.195 515.07 17.585C515.75 17.975 516.285 18.515 516.675 19.205C517.065 19.885 517.26 20.665 517.26 21.545C517.26 22.415 517.065 23.195 516.675 23.885C516.285 24.565 515.75 25.105 515.07 25.505C514.39 25.895 513.605 26.09 512.715 26.09C511.825 26.09 511.035 25.895 510.345 25.505C509.665 25.105 509.13 24.565 508.74 23.885C508.36 23.195 508.17 22.415 508.17 21.545C508.17 20.665 508.36 19.885 508.74 19.205C509.13 18.525 509.665 17.99 510.345 17.6C511.035 17.2 511.825 17 512.715 17ZM512.715 25.19C513.405 25.19 514.015 25.03 514.545 24.71C515.075 24.39 515.485 23.955 515.775 23.405C516.075 22.855 516.225 22.235 516.225 21.545C516.225 20.865 516.075 20.25 515.775 19.7C515.485 19.14 515.075 18.7 514.545 18.38C514.015 18.06 513.405 17.9 512.715 17.9C512.025 17.9 511.415 18.06 510.885 18.38C510.355 18.7 509.94 19.135 509.64 19.685C509.35 20.225 509.205 20.845 509.205 21.545C509.205 22.225 509.35 22.845 509.64 23.405C509.94 23.955 510.355 24.39 510.885 24.71C511.415 25.03 512.025 25.19 512.715 25.19ZM525.299 25.415C524.959 25.635 524.549 25.805 524.069 25.925C523.599 26.035 523.094 26.09 522.554 26.09C521.624 26.09 520.794 25.9 520.064 25.52C519.344 25.13 518.779 24.59 518.369 23.9C517.969 23.21 517.769 22.425 517.769 21.545C517.769 20.665 517.959 19.885 518.339 19.205C518.729 18.525 519.264 17.99 519.944 17.6C520.624 17.2 521.404 17 522.284 17C522.894 17 523.419 17.06 523.859 17.18C524.309 17.29 524.719 17.475 525.089 17.735L524.759 18.665C524.469 18.435 524.114 18.255 523.694 18.125C523.274 17.985 522.824 17.915 522.344 17.915C521.644 17.915 521.024 18.075 520.484 18.395C519.954 18.705 519.539 19.13 519.239 19.67C518.939 20.21 518.789 20.835 518.789 21.545C518.789 22.235 518.949 22.855 519.269 23.405C519.599 23.955 520.049 24.39 520.619 24.71C521.189 25.02 521.844 25.175 522.584 25.175C523.074 25.175 523.559 25.11 524.039 24.98C524.529 24.84 524.944 24.65 525.284 24.41L525.299 25.415ZM536.123 17.09V26H535.223L530.558 19.565C530.428 19.385 530.308 19.215 530.198 19.055C530.098 18.885 530.013 18.74 529.943 18.62H529.883V26H528.938V17.09H529.913L534.503 23.42C534.623 23.59 534.738 23.76 534.848 23.93C534.958 24.09 535.048 24.235 535.118 24.365H535.163V17.09H536.123ZM541.721 17C542.611 17 543.396 17.195 544.076 17.585C544.756 17.975 545.291 18.515 545.681 19.205C546.071 19.885 546.266 20.665 546.266 21.545C546.266 22.415 546.071 23.195 545.681 23.885C545.291 24.565 544.756 25.105 544.076 25.505C543.396 25.895 542.611 26.09 541.721 26.09C540.831 26.09 540.041 25.895 539.351 25.505C538.671 25.105 538.136 24.565 537.746 23.885C537.366 23.195 537.176 22.415 537.176 21.545C537.176 20.665 537.366 19.885 537.746 19.205C538.136 18.525 538.671 17.99 539.351 17.6C540.041 17.2 540.831 17 541.721 17ZM541.721 25.19C542.411 25.19 543.021 25.03 543.551 24.71C544.081 24.39 544.491 23.955 544.781 23.405C545.081 22.855 545.231 22.235 545.231 21.545C545.231 20.865 545.081 20.25 544.781 19.7C544.491 19.14 544.081 18.7 543.551 18.38C543.021 18.06 542.411 17.9 541.721 17.9C541.031 17.9 540.421 18.06 539.891 18.38C539.361 18.7 538.946 19.135 538.646 19.685C538.356 20.225 538.211 20.845 538.211 21.545C538.211 22.225 538.356 22.845 538.646 23.405C538.946 23.955 539.361 24.39 539.891 24.71C540.421 25.03 541.031 25.19 541.721 25.19ZM550.115 26H549.125V17.99H546.23V17.09H553.055L552.98 17.99H550.115V26ZM559.399 17.09L559.324 17.975H554.974V21.065H558.619V21.935H554.974V25.115H559.489V26H553.984V17.09H559.399ZM565.622 17.48L565.412 18.365C565.242 18.265 565.037 18.18 564.797 18.11C564.557 18.04 564.302 17.985 564.032 17.945C563.772 17.905 563.512 17.885 563.252 17.885C562.562 17.885 562.032 18.02 561.662 18.29C561.302 18.56 561.122 18.92 561.122 19.37C561.122 19.67 561.207 19.92 561.377 20.12C561.557 20.32 561.792 20.485 562.082 20.615C562.372 20.745 562.687 20.865 563.027 20.975C563.377 21.085 563.727 21.205 564.077 21.335C564.427 21.455 564.747 21.61 565.037 21.8C565.327 21.98 565.557 22.215 565.727 22.505C565.907 22.795 565.997 23.155 565.997 23.585C565.997 24.345 565.722 24.955 565.172 25.415C564.622 25.865 563.802 26.09 562.712 26.09C562.182 26.09 561.672 26.035 561.182 25.925C560.702 25.815 560.312 25.675 560.012 25.505L560.132 24.56C560.342 24.68 560.582 24.79 560.852 24.89C561.132 24.98 561.432 25.055 561.752 25.115C562.072 25.175 562.397 25.205 562.727 25.205C563.507 25.205 564.077 25.07 564.437 24.8C564.797 24.52 564.977 24.145 564.977 23.675C564.977 23.355 564.887 23.095 564.707 22.895C564.537 22.695 564.307 22.53 564.017 22.4C563.727 22.26 563.407 22.14 563.057 22.04C562.717 21.93 562.372 21.815 562.022 21.695C561.672 21.565 561.352 21.41 561.062 21.23C560.772 21.04 560.537 20.805 560.357 20.525C560.187 20.235 560.102 19.87 560.102 19.43C560.102 18.96 560.222 18.545 560.462 18.185C560.702 17.815 561.057 17.525 561.527 17.315C561.997 17.105 562.567 17 563.237 17C563.537 17 563.832 17.02 564.122 17.06C564.412 17.09 564.687 17.14 564.947 17.21C565.207 17.28 565.432 17.37 565.622 17.48Z" fill="white"/>
</svg>
