<svg width="581" height="43" viewBox="0 0 581 43" fill="none" xmlns="http://www.w3.org/2000/svg">
<rect width="581" height="43" rx="15" fill="#1A1D3E"/>
<path fill-rule="evenodd" clip-rule="evenodd" d="M25.0098 18.8346L14 18.835V13.123H25.0098V18.835H30.754V29.8771H25.0098V24.5471C22.093 24.5979 19.7442 26.9647 19.7442 29.8771H14C14 23.8103 18.9205 18.8862 25.0098 18.835V18.8346Z" fill="#A0A8FF"/>
<path d="M51.1859 14.012L50.4859 17.316C50.1872 17.1293 49.7859 16.9707 49.2819 16.84C48.7966 16.7093 48.2926 16.6067 47.7699 16.532C47.2472 16.4387 46.7526 16.392 46.2859 16.392C45.3899 16.392 44.7086 16.5227 44.2419 16.784C43.7752 17.0453 43.5419 17.4467 43.5419 17.988C43.5419 18.3613 43.6912 18.66 43.9899 18.884C44.2886 19.108 44.6806 19.304 45.1659 19.472C45.6699 19.64 46.2206 19.808 46.8179 19.976C47.4152 20.144 48.0126 20.3493 48.6099 20.592C49.2072 20.816 49.7486 21.1147 50.2339 21.488C50.7192 21.8427 51.1112 22.3093 51.4099 22.888C51.7272 23.448 51.8859 24.148 51.8859 24.988C51.8859 26.5933 51.2979 27.872 50.1219 28.824C48.9459 29.776 47.2472 30.252 45.0259 30.252C43.9992 30.252 43.0192 30.1587 42.0859 29.972C41.1712 29.7853 40.4152 29.5333 39.8179 29.216L40.1259 25.744C40.4992 25.968 40.9566 26.1733 41.4979 26.36C42.0392 26.5467 42.6272 26.696 43.2619 26.808C43.8966 26.92 44.5219 26.976 45.1379 26.976C46.1272 26.976 46.8646 26.8453 47.3499 26.584C47.8352 26.304 48.0779 25.884 48.0779 25.324C48.0779 24.932 47.9192 24.6147 47.6019 24.372C47.3032 24.1293 46.9112 23.924 46.4259 23.756C45.9406 23.588 45.3992 23.42 44.8019 23.252C44.2046 23.084 43.6072 22.888 43.0099 22.664C42.4126 22.4213 41.8619 22.1227 41.3579 21.768C40.8726 21.4133 40.4806 20.956 40.1819 20.396C39.8832 19.836 39.7339 19.136 39.7339 18.296C39.7339 17.2693 39.9859 16.3733 40.4899 15.608C41.0126 14.824 41.7592 14.2173 42.7299 13.788C43.7006 13.34 44.8579 13.116 46.2019 13.116C46.7432 13.116 47.3219 13.1533 47.9379 13.228C48.5539 13.284 49.1419 13.3773 49.7019 13.508C50.2806 13.6387 50.7752 13.8067 51.1859 14.012ZM65.6658 23.84C65.6658 25.072 65.3765 26.1733 64.7978 27.144C64.2378 28.1147 63.4538 28.88 62.4458 29.44C61.4378 29.9813 60.2898 30.252 59.0018 30.252C57.7138 30.252 56.5658 29.9813 55.5578 29.44C54.5498 28.88 53.7565 28.1147 53.1778 27.144C52.6178 26.1733 52.3378 25.072 52.3378 23.84C52.3378 22.5893 52.6178 21.488 53.1778 20.536C53.7565 19.5653 54.5498 18.8093 55.5578 18.268C56.5658 17.708 57.7138 17.428 59.0018 17.428C60.2898 17.428 61.4378 17.708 62.4458 18.268C63.4538 18.8093 64.2378 19.5653 64.7978 20.536C65.3765 21.488 65.6658 22.5893 65.6658 23.84ZM61.9698 23.84C61.9698 23.1867 61.8392 22.6173 61.5778 22.132C61.3165 21.628 60.9618 21.2453 60.5138 20.984C60.0658 20.704 59.5618 20.564 59.0018 20.564C58.4418 20.564 57.9378 20.704 57.4898 20.984C57.0418 21.2453 56.6872 21.628 56.4258 22.132C56.1645 22.6173 56.0338 23.1867 56.0338 23.84C56.0338 24.4933 56.1645 25.072 56.4258 25.576C56.6872 26.0613 57.0418 26.444 57.4898 26.724C57.9565 26.9853 58.4605 27.116 59.0018 27.116C59.5805 27.116 60.0938 26.9853 60.5418 26.724C60.9898 26.444 61.3352 26.0613 61.5778 25.576C61.8392 25.072 61.9698 24.4933 61.9698 23.84ZM81.446 13.368V30H77.722V23.308H70.694V30H66.97V13.368H70.694V19.948H77.722V13.368H81.446ZM94.0714 30H90.6834V29.048C90.2354 29.4027 89.6941 29.692 89.0594 29.916C88.4247 30.14 87.7247 30.252 86.9594 30.252C85.5967 30.252 84.5514 29.9253 83.8234 29.272C83.1141 28.6187 82.7594 27.7133 82.7594 26.556C82.7594 25.3053 83.1981 24.3627 84.0754 23.728C84.9527 23.0747 86.1381 22.748 87.6314 22.748C88.1727 22.748 88.7141 22.7947 89.2554 22.888C89.7967 22.9813 90.2354 23.1027 90.5714 23.252V22.58C90.5714 21.852 90.3381 21.3387 89.8714 21.04C89.4234 20.7227 88.7141 20.564 87.7434 20.564C87.0527 20.564 86.3434 20.648 85.6154 20.816C84.9061 20.984 84.3367 21.1987 83.9074 21.46L83.7674 18.324C84.3461 18.044 85.0274 17.8293 85.8114 17.68C86.6141 17.512 87.4354 17.428 88.2754 17.428C90.1421 17.428 91.5701 17.8293 92.5594 18.632C93.5674 19.416 94.0714 20.6573 94.0714 22.356V30ZM90.5714 27.144V25.38C90.3101 25.2493 89.9834 25.1467 89.5914 25.072C89.2181 24.9973 88.8541 24.96 88.4994 24.96C87.7901 24.96 87.2487 25.0907 86.8754 25.352C86.5021 25.5947 86.3154 25.9773 86.3154 26.5C86.3154 26.9853 86.4741 27.34 86.7914 27.564C87.1087 27.7693 87.5754 27.872 88.1914 27.872C88.6207 27.872 89.0594 27.8067 89.5074 27.676C89.9554 27.5267 90.3101 27.3493 90.5714 27.144ZM114.624 17.68L110.984 30H107.176L105.72 25.66C105.458 24.764 105.244 24.0453 105.076 23.504C104.908 22.944 104.768 22.4307 104.656 21.964H104.516C104.422 22.4307 104.282 22.944 104.096 23.504C103.928 24.0453 103.713 24.764 103.452 25.66L101.996 30H98.1876L94.5476 17.764L98.1596 17.596L99.8116 23.476C99.905 23.868 99.9983 24.3347 100.092 24.876C100.204 25.3987 100.288 25.884 100.344 26.332H100.484C100.54 25.884 100.633 25.3987 100.764 24.876C100.894 24.3347 101.016 23.868 101.128 23.476L102.752 18.604H106.56L108.184 23.476C108.296 23.868 108.417 24.3347 108.548 24.876C108.678 25.3987 108.772 25.884 108.828 26.332H108.968C109.024 25.884 109.098 25.3987 109.192 24.876C109.304 24.3347 109.406 23.868 109.5 23.476L111.096 17.68H114.624ZM127.788 23.7C127.788 24.9507 127.517 26.0707 126.976 27.06C126.453 28.0493 125.725 28.8333 124.792 29.412C123.877 29.972 122.813 30.252 121.6 30.252C120.554 30.252 119.705 30.084 119.052 29.748V35.18H115.468V17.764L119.052 17.596V18.492C119.481 18.1373 119.957 17.876 120.48 17.708C121.002 17.5213 121.6 17.428 122.272 17.428C123.298 17.428 124.222 17.68 125.044 18.184C125.884 18.688 126.546 19.4067 127.032 20.34C127.536 21.2733 127.788 22.3933 127.788 23.7ZM124.092 23.812C124.092 23.14 123.98 22.5613 123.756 22.076C123.532 21.572 123.196 21.1893 122.748 20.928C122.318 20.648 121.777 20.508 121.124 20.508C120.321 20.508 119.63 20.7227 119.052 21.152V26.836C119.294 26.9293 119.574 27.0133 119.892 27.088C120.228 27.144 120.573 27.172 120.928 27.172C121.581 27.172 122.141 27.0413 122.608 26.78C123.074 26.5 123.438 26.108 123.7 25.604C123.961 25.0813 124.092 24.484 124.092 23.812ZM141.166 23.7C141.166 24.9507 140.896 26.0707 140.354 27.06C139.832 28.0493 139.104 28.8333 138.17 29.412C137.256 29.972 136.192 30.252 134.978 30.252C133.933 30.252 133.084 30.084 132.43 29.748V35.18H128.846V17.764L132.43 17.596V18.492C132.86 18.1373 133.336 17.876 133.858 17.708C134.381 17.5213 134.978 17.428 135.65 17.428C136.677 17.428 137.601 17.68 138.422 18.184C139.262 18.688 139.925 19.4067 140.41 20.34C140.914 21.2733 141.166 22.3933 141.166 23.7ZM137.47 23.812C137.47 23.14 137.358 22.5613 137.134 22.076C136.91 21.572 136.574 21.1893 136.126 20.928C135.697 20.648 135.156 20.508 134.502 20.508C133.7 20.508 133.009 20.7227 132.43 21.152V26.836C132.673 26.9293 132.953 27.0133 133.27 27.088C133.606 27.144 133.952 27.172 134.306 27.172C134.96 27.172 135.52 27.0413 135.986 26.78C136.453 26.5 136.817 26.108 137.078 25.604C137.34 25.0813 137.47 24.484 137.47 23.812ZM154.212 17.68L150.572 28.18C150.049 29.7293 149.424 31.0173 148.696 32.044C147.986 33.0707 147.202 33.8547 146.344 34.396C145.504 34.9373 144.617 35.2827 143.684 35.432L142.172 32.632C143.049 32.464 143.786 32.156 144.384 31.708C145 31.26 145.494 30.6907 145.868 30L140.996 17.764L144.776 17.596L146.848 22.944C147.09 23.6347 147.305 24.2787 147.492 24.876C147.697 25.4733 147.837 25.9773 147.912 26.388H148.052C148.126 25.9773 148.238 25.4733 148.388 24.876C148.537 24.2787 148.714 23.6347 148.92 22.944L150.6 17.68H154.212Z" fill="#A0A8FF"/>
<path d="M355.91 26H354.995V25.4C354.715 25.6 354.375 25.765 353.975 25.895C353.575 26.025 353.15 26.09 352.7 26.09C351.95 26.09 351.38 25.92 350.99 25.58C350.6 25.24 350.405 24.775 350.405 24.185C350.405 23.505 350.645 23.005 351.125 22.685C351.615 22.355 352.265 22.19 353.075 22.19C353.415 22.19 353.76 22.225 354.11 22.295C354.47 22.365 354.755 22.455 354.965 22.565V21.725C354.965 21.165 354.81 20.765 354.5 20.525C354.19 20.285 353.73 20.165 353.12 20.165C352.71 20.165 352.315 20.22 351.935 20.33C351.565 20.43 351.26 20.555 351.02 20.705L350.975 19.82C351.255 19.66 351.585 19.535 351.965 19.445C352.355 19.355 352.77 19.31 353.21 19.31C354.06 19.31 354.72 19.495 355.19 19.865C355.67 20.225 355.91 20.815 355.91 21.635V26ZM354.965 24.74V23.225C354.755 23.115 354.49 23.03 354.17 22.97C353.86 22.9 353.545 22.865 353.225 22.865C352.665 22.865 352.215 22.97 351.875 23.18C351.545 23.38 351.38 23.71 351.38 24.17C351.38 24.6 351.525 24.91 351.815 25.1C352.105 25.29 352.475 25.385 352.925 25.385C353.315 25.385 353.7 25.32 354.08 25.19C354.46 25.06 354.755 24.91 354.965 24.74ZM363.006 26H362.061V21.86C362.061 21.29 361.921 20.87 361.641 20.6C361.361 20.32 360.961 20.18 360.441 20.18C360.081 20.18 359.716 20.255 359.346 20.405C358.976 20.545 358.621 20.735 358.281 20.975V26H357.321V19.43L358.281 19.37V20.18C358.681 19.88 359.081 19.66 359.481 19.52C359.891 19.38 360.291 19.31 360.681 19.31C361.411 19.31 361.981 19.5 362.391 19.88C362.801 20.25 363.006 20.84 363.006 21.65V26ZM371.962 26H371.047V25.4C370.767 25.6 370.427 25.765 370.027 25.895C369.627 26.025 369.202 26.09 368.752 26.09C368.002 26.09 367.432 25.92 367.042 25.58C366.652 25.24 366.457 24.775 366.457 24.185C366.457 23.505 366.697 23.005 367.177 22.685C367.667 22.355 368.317 22.19 369.127 22.19C369.467 22.19 369.812 22.225 370.162 22.295C370.522 22.365 370.807 22.455 371.017 22.565V21.725C371.017 21.165 370.862 20.765 370.552 20.525C370.242 20.285 369.782 20.165 369.172 20.165C368.762 20.165 368.367 20.22 367.987 20.33C367.617 20.43 367.312 20.555 367.072 20.705L367.027 19.82C367.307 19.66 367.637 19.535 368.017 19.445C368.407 19.355 368.822 19.31 369.262 19.31C370.112 19.31 370.772 19.495 371.242 19.865C371.722 20.225 371.962 20.815 371.962 21.635V26ZM371.017 24.74V23.225C370.807 23.115 370.542 23.03 370.222 22.97C369.912 22.9 369.597 22.865 369.277 22.865C368.717 22.865 368.267 22.97 367.927 23.18C367.597 23.38 367.432 23.71 367.432 24.17C367.432 24.6 367.577 24.91 367.867 25.1C368.157 25.29 368.527 25.385 368.977 25.385C369.367 25.385 369.752 25.32 370.132 25.19C370.512 25.06 370.807 24.91 371.017 24.74ZM382.722 19.4L380.502 26H379.497L378.162 22.34C378.062 22.02 377.972 21.74 377.892 21.5C377.812 21.26 377.747 21.045 377.697 20.855H377.622C377.582 21.045 377.517 21.26 377.427 21.5C377.347 21.74 377.257 22.02 377.157 22.34L375.822 26H374.817L372.597 19.43L373.587 19.37L374.997 23.63C375.067 23.85 375.132 24.08 375.192 24.32C375.262 24.55 375.317 24.765 375.357 24.965H375.417C375.457 24.765 375.512 24.55 375.582 24.32C375.662 24.08 375.737 23.85 375.807 23.63L377.172 19.85H378.177L379.542 23.63C379.612 23.85 379.687 24.08 379.767 24.32C379.847 24.55 379.902 24.765 379.932 24.965H380.007C380.047 24.765 380.097 24.55 380.157 24.32C380.227 24.08 380.292 23.85 380.352 23.63L381.747 19.4H382.722ZM393.519 26H392.559V21.86C392.559 21.72 392.544 21.59 392.514 21.47C392.494 21.34 392.469 21.23 392.439 21.14C392.339 20.8 392.169 20.555 391.929 20.405C391.689 20.255 391.384 20.18 391.014 20.18C390.964 20.18 390.914 20.185 390.864 20.195C390.814 20.195 390.764 20.195 390.714 20.195C390.424 20.225 390.124 20.31 389.814 20.45C389.514 20.58 389.209 20.755 388.899 20.975C388.929 21.095 388.949 21.22 388.959 21.35C388.979 21.47 388.989 21.6 388.989 21.74V26H388.029V21.86C388.029 21.72 388.019 21.59 387.999 21.47C387.979 21.34 387.949 21.23 387.909 21.14C387.819 20.8 387.654 20.555 387.414 20.405C387.174 20.255 386.869 20.18 386.499 20.18C386.169 20.18 385.829 20.255 385.479 20.405C385.139 20.545 384.804 20.735 384.474 20.975V26H383.514V19.43L384.474 19.37V20.18C384.844 19.9 385.199 19.695 385.539 19.565C385.889 19.425 386.219 19.35 386.529 19.34C386.859 19.32 387.174 19.35 387.474 19.43C387.754 19.49 387.999 19.595 388.209 19.745C388.419 19.885 388.584 20.08 388.704 20.33C389.154 19.96 389.594 19.7 390.024 19.55C390.454 19.39 390.859 19.31 391.239 19.31C391.939 19.31 392.494 19.5 392.904 19.88C393.314 20.25 393.519 20.84 393.519 21.65V26ZM399.909 26H398.994V25.4C398.714 25.6 398.374 25.765 397.974 25.895C397.574 26.025 397.149 26.09 396.699 26.09C395.949 26.09 395.379 25.92 394.989 25.58C394.599 25.24 394.404 24.775 394.404 24.185C394.404 23.505 394.644 23.005 395.124 22.685C395.614 22.355 396.264 22.19 397.074 22.19C397.414 22.19 397.759 22.225 398.109 22.295C398.469 22.365 398.754 22.455 398.964 22.565V21.725C398.964 21.165 398.809 20.765 398.499 20.525C398.189 20.285 397.729 20.165 397.119 20.165C396.709 20.165 396.314 20.22 395.934 20.33C395.564 20.43 395.259 20.555 395.019 20.705L394.974 19.82C395.254 19.66 395.584 19.535 395.964 19.445C396.354 19.355 396.769 19.31 397.209 19.31C398.059 19.31 398.719 19.495 399.189 19.865C399.669 20.225 399.909 20.815 399.909 21.635V26ZM398.964 24.74V23.225C398.754 23.115 398.489 23.03 398.169 22.97C397.859 22.9 397.544 22.865 397.224 22.865C396.664 22.865 396.214 22.97 395.874 23.18C395.544 23.38 395.379 23.71 395.379 24.17C395.379 24.6 395.524 24.91 395.814 25.1C396.104 25.29 396.474 25.385 396.924 25.385C397.314 25.385 397.699 25.32 398.079 25.19C398.459 25.06 398.754 24.91 398.964 24.74ZM400.753 26V25.175L404.893 20.24H400.933V19.4H406.048V20.225L401.908 25.16H406.228V26H400.753ZM407.679 16.64C407.849 16.64 407.994 16.7 408.114 16.82C408.234 16.94 408.294 17.085 408.294 17.255C408.294 17.435 408.234 17.585 408.114 17.705C407.994 17.825 407.849 17.885 407.679 17.885C407.499 17.885 407.344 17.825 407.214 17.705C407.094 17.585 407.034 17.435 407.034 17.255C407.034 17.085 407.094 16.94 407.214 16.82C407.344 16.7 407.499 16.64 407.679 16.64ZM408.144 19.37V26H407.184V19.43L408.144 19.37ZM415.246 26H414.301V21.86C414.301 21.29 414.161 20.87 413.881 20.6C413.601 20.32 413.201 20.18 412.681 20.18C412.321 20.18 411.956 20.255 411.586 20.405C411.216 20.545 410.861 20.735 410.521 20.975V26H409.561V19.43L410.521 19.37V20.18C410.921 19.88 411.321 19.66 411.721 19.52C412.131 19.38 412.531 19.31 412.921 19.31C413.651 19.31 414.221 19.5 414.631 19.88C415.041 20.25 415.246 20.84 415.246 21.65V26ZM422.144 19.25L422.114 20.09H420.749C420.969 20.27 421.144 20.49 421.274 20.75C421.414 21.01 421.484 21.29 421.484 21.59C421.484 22.21 421.269 22.73 420.839 23.15C420.419 23.57 419.844 23.805 419.114 23.855L418.004 25.04C418.104 25.02 418.244 25.005 418.424 24.995C418.604 24.975 418.784 24.96 418.964 24.95C419.154 24.94 419.304 24.935 419.414 24.935C420.354 24.935 421.064 25.09 421.544 25.4C422.034 25.71 422.279 26.185 422.279 26.825C422.279 27.415 422.019 27.9 421.499 28.28C420.989 28.67 420.164 28.865 419.024 28.865C418.414 28.865 417.819 28.8 417.239 28.67C416.669 28.55 416.209 28.385 415.859 28.175L415.949 27.29C416.179 27.43 416.459 27.555 416.789 27.665C417.119 27.785 417.479 27.88 417.869 27.95C418.269 28.02 418.664 28.055 419.054 28.055C419.644 28.055 420.104 28 420.434 27.89C420.764 27.78 420.999 27.63 421.139 27.44C421.279 27.26 421.349 27.06 421.349 26.84C421.349 26.43 421.179 26.145 420.839 25.985C420.509 25.815 419.979 25.73 419.249 25.73C418.919 25.73 418.549 25.745 418.139 25.775C417.739 25.805 417.409 25.85 417.149 25.91V25.145L418.409 23.84C417.729 23.77 417.194 23.525 416.804 23.105C416.414 22.675 416.219 22.17 416.219 21.59C416.219 21.15 416.324 20.76 416.534 20.42C416.754 20.07 417.059 19.8 417.449 19.61C417.849 19.41 418.314 19.31 418.844 19.31C419.194 19.31 419.509 19.355 419.789 19.445L422.144 19.25ZM420.569 21.59C420.569 21.14 420.414 20.77 420.104 20.48C419.794 20.18 419.374 20.03 418.844 20.03C418.324 20.03 417.909 20.175 417.599 20.465C417.289 20.755 417.134 21.13 417.134 21.59C417.134 22.04 417.289 22.41 417.599 22.7C417.909 22.99 418.324 23.135 418.844 23.135C419.374 23.135 419.794 22.995 420.104 22.715C420.414 22.425 420.569 22.05 420.569 21.59ZM432.892 26H431.842L430.747 23.255H426.832L425.737 26H424.717L428.257 17.09H429.367L432.892 26ZM430.447 22.43L429.127 19.115C429.057 18.945 428.997 18.79 428.947 18.65C428.907 18.5 428.867 18.35 428.827 18.2H428.752C428.712 18.35 428.667 18.5 428.617 18.65C428.577 18.79 428.522 18.945 428.452 19.115L427.117 22.43H430.447ZM439.856 19.955C439.856 20.605 439.701 21.145 439.391 21.575C439.091 21.995 438.676 22.305 438.146 22.505C437.616 22.705 437.011 22.805 436.331 22.805H434.681V26H433.691V17.09H436.331C437.021 17.09 437.626 17.195 438.146 17.405C438.676 17.605 439.091 17.915 439.391 18.335C439.701 18.755 439.856 19.295 439.856 19.955ZM438.851 19.955C438.851 19.445 438.731 19.045 438.491 18.755C438.251 18.455 437.936 18.245 437.546 18.125C437.156 17.995 436.726 17.93 436.256 17.93H434.681V21.965H436.256C436.726 21.965 437.156 21.905 437.546 21.785C437.936 21.665 438.251 21.46 438.491 21.17C438.731 20.87 438.851 20.465 438.851 19.955ZM441.907 17.09V26H440.917V17.09H441.907ZM455.471 19.4L453.251 26H452.246L450.911 22.34C450.811 22.02 450.721 21.74 450.641 21.5C450.561 21.26 450.496 21.045 450.446 20.855H450.371C450.331 21.045 450.266 21.26 450.176 21.5C450.096 21.74 450.006 22.02 449.906 22.34L448.571 26H447.566L445.346 19.43L446.336 19.37L447.746 23.63C447.816 23.85 447.881 24.08 447.941 24.32C448.011 24.55 448.066 24.765 448.106 24.965H448.166C448.206 24.765 448.261 24.55 448.331 24.32C448.411 24.08 448.486 23.85 448.556 23.63L449.921 19.85H450.926L452.291 23.63C452.361 23.85 452.436 24.08 452.516 24.32C452.596 24.55 452.651 24.765 452.681 24.965H452.756C452.796 24.765 452.846 24.55 452.906 24.32C452.976 24.08 453.041 23.85 453.101 23.63L454.496 19.4H455.471ZM459.818 19.4L459.788 20.315C459.708 20.285 459.603 20.26 459.473 20.24C459.353 20.22 459.243 20.21 459.143 20.21C458.783 20.21 458.433 20.305 458.093 20.495C457.763 20.675 457.473 20.915 457.223 21.215V26H456.263V19.43L457.223 19.37V20.36C457.493 20.04 457.808 19.785 458.168 19.595C458.528 19.405 458.898 19.31 459.278 19.31C459.378 19.31 459.478 19.315 459.578 19.325C459.678 19.335 459.758 19.36 459.818 19.4ZM465.539 26H464.624V25.4C464.344 25.6 464.004 25.765 463.604 25.895C463.204 26.025 462.779 26.09 462.329 26.09C461.579 26.09 461.009 25.92 460.619 25.58C460.229 25.24 460.034 24.775 460.034 24.185C460.034 23.505 460.274 23.005 460.754 22.685C461.244 22.355 461.894 22.19 462.704 22.19C463.044 22.19 463.389 22.225 463.739 22.295C464.099 22.365 464.384 22.455 464.594 22.565V21.725C464.594 21.165 464.439 20.765 464.129 20.525C463.819 20.285 463.359 20.165 462.749 20.165C462.339 20.165 461.944 20.22 461.564 20.33C461.194 20.43 460.889 20.555 460.649 20.705L460.604 19.82C460.884 19.66 461.214 19.535 461.594 19.445C461.984 19.355 462.399 19.31 462.839 19.31C463.689 19.31 464.349 19.495 464.819 19.865C465.299 20.225 465.539 20.815 465.539 21.635V26ZM464.594 24.74V23.225C464.384 23.115 464.119 23.03 463.799 22.97C463.489 22.9 463.174 22.865 462.854 22.865C462.294 22.865 461.844 22.97 461.504 23.18C461.174 23.38 461.009 23.71 461.009 24.17C461.009 24.6 461.154 24.91 461.444 25.1C461.734 25.29 462.104 25.385 462.554 25.385C462.944 25.385 463.329 25.32 463.709 25.19C464.089 25.06 464.384 24.91 464.594 24.74ZM473.055 22.655C473.055 23.315 472.905 23.905 472.605 24.425C472.315 24.945 471.91 25.355 471.39 25.655C470.88 25.945 470.295 26.09 469.635 26.09C468.955 26.09 468.38 25.99 467.91 25.79V28.775H466.95V19.43L467.91 19.37V19.955C468.19 19.735 468.495 19.575 468.825 19.475C469.165 19.365 469.525 19.31 469.905 19.31C470.495 19.31 471.025 19.44 471.495 19.7C471.965 19.96 472.34 20.34 472.62 20.84C472.91 21.34 473.055 21.945 473.055 22.655ZM472.065 22.67C472.065 22.14 471.96 21.685 471.75 21.305C471.55 20.925 471.27 20.64 470.91 20.45C470.56 20.25 470.155 20.15 469.695 20.15C469.015 20.15 468.42 20.35 467.91 20.75V24.935C468.12 25.025 468.36 25.1 468.63 25.16C468.91 25.22 469.2 25.25 469.5 25.25C469.98 25.25 470.41 25.15 470.79 24.95C471.18 24.74 471.49 24.44 471.72 24.05C471.95 23.66 472.065 23.2 472.065 22.67ZM480.047 22.655C480.047 23.315 479.897 23.905 479.597 24.425C479.307 24.945 478.902 25.355 478.382 25.655C477.872 25.945 477.287 26.09 476.627 26.09C475.947 26.09 475.372 25.99 474.902 25.79V28.775H473.942V19.43L474.902 19.37V19.955C475.182 19.735 475.487 19.575 475.817 19.475C476.157 19.365 476.517 19.31 476.897 19.31C477.487 19.31 478.017 19.44 478.487 19.7C478.957 19.96 479.332 20.34 479.612 20.84C479.902 21.34 480.047 21.945 480.047 22.655ZM479.057 22.67C479.057 22.14 478.952 21.685 478.742 21.305C478.542 20.925 478.262 20.64 477.902 20.45C477.552 20.25 477.147 20.15 476.687 20.15C476.007 20.15 475.412 20.35 474.902 20.75V24.935C475.112 25.025 475.352 25.1 475.622 25.16C475.902 25.22 476.192 25.25 476.492 25.25C476.972 25.25 477.402 25.15 477.782 24.95C478.172 24.74 478.482 24.44 478.712 24.05C478.942 23.66 479.057 23.2 479.057 22.67ZM486.303 22.895H481.398C481.438 23.375 481.573 23.79 481.803 24.14C482.043 24.48 482.358 24.75 482.748 24.95C483.138 25.14 483.588 25.235 484.098 25.235C484.518 25.235 484.928 25.175 485.328 25.055C485.738 24.935 486.078 24.765 486.348 24.545L486.393 25.445C486.133 25.645 485.783 25.805 485.343 25.925C484.913 26.035 484.483 26.09 484.053 26.09C483.333 26.09 482.693 25.95 482.133 25.67C481.583 25.39 481.158 24.99 480.858 24.47C480.558 23.95 480.408 23.335 480.408 22.625C480.408 21.965 480.543 21.385 480.813 20.885C481.083 20.385 481.453 20 481.923 19.73C482.403 19.45 482.943 19.31 483.543 19.31C484.093 19.31 484.578 19.425 484.998 19.655C485.428 19.885 485.763 20.21 486.003 20.63C486.243 21.05 486.363 21.54 486.363 22.1C486.363 22.21 486.358 22.34 486.348 22.49C486.338 22.64 486.323 22.775 486.303 22.895ZM483.543 20.06C482.953 20.06 482.458 20.26 482.058 20.66C481.658 21.06 481.433 21.595 481.383 22.265H485.418C485.428 22.225 485.433 22.185 485.433 22.145C485.433 22.095 485.433 22.04 485.433 21.98C485.433 21.42 485.258 20.96 484.908 20.6C484.568 20.24 484.113 20.06 483.543 20.06ZM490.967 19.4L490.937 20.315C490.857 20.285 490.752 20.26 490.622 20.24C490.502 20.22 490.392 20.21 490.292 20.21C489.932 20.21 489.582 20.305 489.242 20.495C488.912 20.675 488.622 20.915 488.372 21.215V26H487.412V19.43L488.372 19.37V20.36C488.642 20.04 488.957 19.785 489.317 19.595C489.677 19.405 490.047 19.31 490.427 19.31C490.527 19.31 490.627 19.315 490.727 19.325C490.827 19.335 490.907 19.36 490.967 19.4ZM497.516 16.565L497.471 17.42C497.401 17.4 497.311 17.385 497.201 17.375C497.101 17.365 497.001 17.36 496.901 17.36C496.501 17.36 496.171 17.475 495.911 17.705C495.661 17.925 495.536 18.335 495.536 18.935V19.4H497.336L497.261 20.24H495.536V26H494.591V20.24H493.631V19.4H494.591V18.905C494.591 18.095 494.796 17.49 495.206 17.09C495.616 16.69 496.156 16.49 496.826 16.49C496.946 16.49 497.066 16.5 497.186 16.52C497.316 16.53 497.426 16.545 497.516 16.565ZM504.227 22.7C504.227 23.36 504.077 23.95 503.777 24.47C503.477 24.98 503.067 25.38 502.547 25.67C502.027 25.95 501.447 26.09 500.807 26.09C500.167 26.09 499.587 25.95 499.067 25.67C498.547 25.38 498.137 24.98 497.837 24.47C497.537 23.95 497.387 23.36 497.387 22.7C497.387 22.03 497.537 21.44 497.837 20.93C498.137 20.42 498.547 20.025 499.067 19.745C499.587 19.455 500.167 19.31 500.807 19.31C501.447 19.31 502.027 19.455 502.547 19.745C503.067 20.025 503.477 20.42 503.777 20.93C504.077 21.44 504.227 22.03 504.227 22.7ZM503.237 22.7C503.237 22.2 503.127 21.76 502.907 21.38C502.687 21 502.392 20.705 502.022 20.495C501.662 20.275 501.257 20.165 500.807 20.165C500.357 20.165 499.947 20.275 499.577 20.495C499.207 20.705 498.912 21 498.692 21.38C498.482 21.76 498.377 22.2 498.377 22.7C498.377 23.19 498.487 23.63 498.707 24.02C498.927 24.4 499.222 24.7 499.592 24.92C499.962 25.13 500.367 25.235 500.807 25.235C501.267 25.235 501.682 25.13 502.052 24.92C502.422 24.7 502.712 24.4 502.922 24.02C503.132 23.63 503.237 23.19 503.237 22.7ZM508.664 19.4L508.634 20.315C508.554 20.285 508.449 20.26 508.319 20.24C508.199 20.22 508.089 20.21 507.989 20.21C507.629 20.21 507.279 20.305 506.939 20.495C506.609 20.675 506.319 20.915 506.069 21.215V26H505.109V19.43L506.069 19.37V20.36C506.339 20.04 506.654 19.785 507.014 19.595C507.374 19.405 507.744 19.31 508.124 19.31C508.224 19.31 508.324 19.315 508.424 19.325C508.524 19.335 508.604 19.36 508.664 19.4ZM517.193 17.48L516.983 18.365C516.813 18.265 516.608 18.18 516.368 18.11C516.128 18.04 515.873 17.985 515.603 17.945C515.343 17.905 515.083 17.885 514.823 17.885C514.133 17.885 513.603 18.02 513.233 18.29C512.873 18.56 512.693 18.92 512.693 19.37C512.693 19.67 512.778 19.92 512.948 20.12C513.128 20.32 513.363 20.485 513.653 20.615C513.943 20.745 514.258 20.865 514.598 20.975C514.948 21.085 515.298 21.205 515.648 21.335C515.998 21.455 516.318 21.61 516.608 21.8C516.898 21.98 517.128 22.215 517.298 22.505C517.478 22.795 517.568 23.155 517.568 23.585C517.568 24.345 517.293 24.955 516.743 25.415C516.193 25.865 515.373 26.09 514.283 26.09C513.753 26.09 513.243 26.035 512.753 25.925C512.273 25.815 511.883 25.675 511.583 25.505L511.703 24.56C511.913 24.68 512.153 24.79 512.423 24.89C512.703 24.98 513.003 25.055 513.323 25.115C513.643 25.175 513.968 25.205 514.298 25.205C515.078 25.205 515.648 25.07 516.008 24.8C516.368 24.52 516.548 24.145 516.548 23.675C516.548 23.355 516.458 23.095 516.278 22.895C516.108 22.695 515.878 22.53 515.588 22.4C515.298 22.26 514.978 22.14 514.628 22.04C514.288 21.93 513.943 21.815 513.593 21.695C513.243 21.565 512.923 21.41 512.633 21.23C512.343 21.04 512.108 20.805 511.928 20.525C511.758 20.235 511.673 19.87 511.673 19.43C511.673 18.96 511.793 18.545 512.033 18.185C512.273 17.815 512.628 17.525 513.098 17.315C513.568 17.105 514.138 17 514.808 17C515.108 17 515.403 17.02 515.693 17.06C515.983 17.09 516.258 17.14 516.518 17.21C516.778 17.28 517.003 17.37 517.193 17.48ZM522.634 17C523.524 17 524.309 17.195 524.989 17.585C525.669 17.975 526.204 18.515 526.594 19.205C526.984 19.885 527.179 20.665 527.179 21.545C527.179 22.415 526.984 23.195 526.594 23.885C526.204 24.565 525.669 25.105 524.989 25.505C524.309 25.895 523.524 26.09 522.634 26.09C521.744 26.09 520.954 25.895 520.264 25.505C519.584 25.105 519.049 24.565 518.659 23.885C518.279 23.195 518.089 22.415 518.089 21.545C518.089 20.665 518.279 19.885 518.659 19.205C519.049 18.525 519.584 17.99 520.264 17.6C520.954 17.2 521.744 17 522.634 17ZM522.634 25.19C523.324 25.19 523.934 25.03 524.464 24.71C524.994 24.39 525.404 23.955 525.694 23.405C525.994 22.855 526.144 22.235 526.144 21.545C526.144 20.865 525.994 20.25 525.694 19.7C525.404 19.14 524.994 18.7 524.464 18.38C523.934 18.06 523.324 17.9 522.634 17.9C521.944 17.9 521.334 18.06 520.804 18.38C520.274 18.7 519.859 19.135 519.559 19.685C519.269 20.225 519.124 20.845 519.124 21.545C519.124 22.225 519.269 22.845 519.559 23.405C519.859 23.955 520.274 24.39 520.804 24.71C521.334 25.03 521.944 25.19 522.634 25.19ZM535.428 17.09V26H534.438V21.95H529.233V26H528.243V17.09H529.233V21.05H534.438V17.09H535.428ZM544.371 26H543.321L542.226 23.255H538.311L537.216 26H536.196L539.736 17.09H540.846L544.371 26ZM541.926 22.43L540.606 19.115C540.536 18.945 540.476 18.79 540.426 18.65C540.386 18.5 540.346 18.35 540.306 18.2H540.231C540.191 18.35 540.146 18.5 540.096 18.65C540.056 18.79 540.001 18.945 539.931 19.115L538.596 22.43H541.926ZM551.335 19.955C551.335 20.605 551.18 21.145 550.87 21.575C550.57 21.995 550.155 22.305 549.625 22.505C549.095 22.705 548.49 22.805 547.81 22.805H546.16V26H545.17V17.09H547.81C548.5 17.09 549.105 17.195 549.625 17.405C550.155 17.605 550.57 17.915 550.87 18.335C551.18 18.755 551.335 19.295 551.335 19.955ZM550.33 19.955C550.33 19.445 550.21 19.045 549.97 18.755C549.73 18.455 549.415 18.245 549.025 18.125C548.635 17.995 548.205 17.93 547.735 17.93H546.16V21.965H547.735C548.205 21.965 548.635 21.905 549.025 21.785C549.415 21.665 549.73 21.46 549.97 21.17C550.21 20.87 550.33 20.465 550.33 19.955ZM558.561 19.955C558.561 20.605 558.406 21.145 558.096 21.575C557.796 21.995 557.381 22.305 556.851 22.505C556.321 22.705 555.716 22.805 555.036 22.805H553.386V26H552.396V17.09H555.036C555.726 17.09 556.331 17.195 556.851 17.405C557.381 17.605 557.796 17.915 558.096 18.335C558.406 18.755 558.561 19.295 558.561 19.955ZM557.556 19.955C557.556 19.445 557.436 19.045 557.196 18.755C556.956 18.455 556.641 18.245 556.251 18.125C555.861 17.995 555.431 17.93 554.961 17.93H553.386V21.965H554.961C555.431 21.965 555.861 21.905 556.251 21.785C556.641 21.665 556.956 21.46 557.196 21.17C557.436 20.87 557.556 20.465 557.556 19.955ZM566.035 17.09L562.765 22.565V26H561.775V22.565L558.505 17.09H559.615L562.285 21.62L564.97 17.09H566.035Z" fill="white"/>
</svg>
