<svg width="581" height="43" viewBox="0 0 581 43" fill="none" xmlns="http://www.w3.org/2000/svg">
<rect width="581" height="43" rx="15" fill="#443434"/>
<path fill-rule="evenodd" clip-rule="evenodd" d="M25.0098 18.8346L14 18.835V13.123H25.0098V18.835H30.754V29.8771H25.0098V24.5471C22.093 24.5979 19.7442 26.9647 19.7442 29.8771H14C14 23.8103 18.9205 18.8862 25.0098 18.835V18.8346Z" fill="#FFA0A0"/>
<path d="M47.6859 30H43.9619V16.728H39.2019V13.368H52.5859L52.3059 16.728H47.6859V30ZM64.6292 17.596V30H61.0452V28.964C60.4665 29.412 59.8785 29.7387 59.2812 29.944C58.6839 30.1493 58.0399 30.252 57.3492 30.252C56.0799 30.252 55.0532 29.8973 54.2692 29.188C53.4852 28.46 53.0932 27.3307 53.0932 25.8V17.764L56.6772 17.596V25.044C56.6772 25.772 56.8545 26.2947 57.2092 26.612C57.5639 26.9293 58.0492 27.088 58.6652 27.088C59.0759 27.088 59.4865 27.0227 59.8972 26.892C60.3079 26.7427 60.6905 26.556 61.0452 26.332V17.764L64.6292 17.596ZM74.2846 17.568L74.1446 21.012C74.0326 20.956 73.8366 20.9 73.5566 20.844C73.2953 20.788 73.0433 20.76 72.8006 20.76C72.2966 20.76 71.8019 20.8533 71.3166 21.04C70.8499 21.208 70.4206 21.4413 70.0286 21.74V30H66.4446V17.764L70.0286 17.596V19.052C70.5699 18.492 71.1206 18.0813 71.6806 17.82C72.2593 17.5587 72.8566 17.428 73.4726 17.428C73.6033 17.428 73.7433 17.4373 73.8926 17.456C74.0606 17.4747 74.1913 17.512 74.2846 17.568ZM87.4129 23.644C87.4129 24.9507 87.1329 26.108 86.5729 27.116C86.0129 28.1053 85.2102 28.88 84.1649 29.44C83.1195 29.9813 81.8689 30.252 80.4129 30.252C79.4049 30.252 78.4435 30.1493 77.5289 29.944C76.6142 29.72 75.8022 29.44 75.0929 29.104V12.416L78.6769 12.248V18.436C79.1809 18.0813 79.6849 17.8293 80.1889 17.68C80.7115 17.512 81.2809 17.428 81.8969 17.428C82.9422 17.428 83.8755 17.68 84.6969 18.184C85.5369 18.688 86.1995 19.4067 86.6849 20.34C87.1702 21.2547 87.4129 22.356 87.4129 23.644ZM83.7169 23.812C83.7169 23.14 83.6049 22.5613 83.3809 22.076C83.1569 21.572 82.8209 21.1893 82.3729 20.928C81.9435 20.648 81.4022 20.508 80.7489 20.508C79.9462 20.508 79.2555 20.7227 78.6769 21.152V26.836C78.9195 26.9293 79.1995 27.0133 79.5169 27.088C79.8529 27.144 80.1982 27.172 80.5529 27.172C81.2062 27.172 81.7662 27.0413 82.2329 26.78C82.6995 26.5 83.0635 26.108 83.3249 25.604C83.5862 25.0813 83.7169 24.484 83.7169 23.812ZM99.0556 30H95.6676V29.048C95.2196 29.4027 94.6783 29.692 94.0436 29.916C93.409 30.14 92.709 30.252 91.9436 30.252C90.581 30.252 89.5356 29.9253 88.8076 29.272C88.0983 28.6187 87.7436 27.7133 87.7436 26.556C87.7436 25.3053 88.1823 24.3627 89.0596 23.728C89.937 23.0747 91.1223 22.748 92.6156 22.748C93.157 22.748 93.6983 22.7947 94.2396 22.888C94.781 22.9813 95.2196 23.1027 95.5556 23.252V22.58C95.5556 21.852 95.3223 21.3387 94.8556 21.04C94.4076 20.7227 93.6983 20.564 92.7276 20.564C92.037 20.564 91.3276 20.648 90.5996 20.816C89.8903 20.984 89.321 21.1987 88.8916 21.46L88.7516 18.324C89.3303 18.044 90.0116 17.8293 90.7956 17.68C91.5983 17.512 92.4196 17.428 93.2596 17.428C95.1263 17.428 96.5543 17.8293 97.5436 18.632C98.5516 19.416 99.0556 20.6573 99.0556 22.356V30ZM95.5556 27.144V25.38C95.2943 25.2493 94.9676 25.1467 94.5756 25.072C94.2023 24.9973 93.8383 24.96 93.4836 24.96C92.7743 24.96 92.233 25.0907 91.8596 25.352C91.4863 25.5947 91.2996 25.9773 91.2996 26.5C91.2996 26.9853 91.4583 27.34 91.7756 27.564C92.093 27.7693 92.5596 27.872 93.1756 27.872C93.605 27.872 94.0436 27.8067 94.4916 27.676C94.9396 27.5267 95.2943 27.3493 95.5556 27.144ZM119.608 17.68L115.968 30H112.16L110.704 25.66C110.443 24.764 110.228 24.0453 110.06 23.504C109.892 22.944 109.752 22.4307 109.64 21.964H109.5C109.407 22.4307 109.267 22.944 109.08 23.504C108.912 24.0453 108.697 24.764 108.436 25.66L106.98 30H103.172L99.5318 17.764L103.144 17.596L104.796 23.476C104.889 23.868 104.983 24.3347 105.076 24.876C105.188 25.3987 105.272 25.884 105.328 26.332H105.468C105.524 25.884 105.617 25.3987 105.748 24.876C105.879 24.3347 106 23.868 106.112 23.476L107.736 18.604H111.544L113.168 23.476C113.28 23.868 113.401 24.3347 113.532 24.876C113.663 25.3987 113.756 25.884 113.812 26.332H113.952C114.008 25.884 114.083 25.3987 114.176 24.876C114.288 24.3347 114.391 23.868 114.484 23.476L116.08 17.68H119.608ZM128.882 18.044L128.35 20.956C127.958 20.7693 127.472 20.62 126.894 20.508C126.334 20.3773 125.764 20.312 125.186 20.312C124.663 20.312 124.271 20.396 124.01 20.564C123.767 20.732 123.646 20.956 123.646 21.236C123.646 21.46 123.786 21.656 124.066 21.824C124.346 21.9733 124.7 22.1133 125.13 22.244C125.578 22.3747 126.044 22.5333 126.53 22.72C127.034 22.9067 127.5 23.14 127.93 23.42C128.378 23.7 128.732 24.0733 128.994 24.54C129.274 24.988 129.414 25.5573 129.414 26.248C129.414 26.9573 129.236 27.62 128.882 28.236C128.546 28.8333 127.986 29.3187 127.202 29.692C126.436 30.0653 125.438 30.252 124.206 30.252C123.366 30.252 122.544 30.1587 121.742 29.972C120.958 29.7853 120.323 29.5427 119.838 29.244L120.062 26.22C120.528 26.5187 121.135 26.7893 121.882 27.032C122.647 27.256 123.403 27.368 124.15 27.368C125.214 27.368 125.746 27.0507 125.746 26.416C125.746 26.1733 125.606 25.9773 125.326 25.828C125.046 25.6787 124.691 25.5387 124.262 25.408C123.832 25.2587 123.366 25.0907 122.862 24.904C122.358 24.7173 121.891 24.484 121.462 24.204C121.032 23.9053 120.678 23.532 120.398 23.084C120.118 22.636 119.978 22.0667 119.978 21.376C119.978 20.6293 120.183 19.9667 120.594 19.388C121.023 18.7907 121.63 18.3147 122.414 17.96C123.198 17.6053 124.131 17.428 125.214 17.428C125.942 17.428 126.632 17.484 127.286 17.596C127.939 17.6893 128.471 17.8387 128.882 18.044ZM141.497 24.708H133.601C133.713 25.212 133.937 25.6507 134.273 26.024C134.627 26.3787 135.075 26.6493 135.617 26.836C136.177 27.0227 136.83 27.116 137.577 27.116C138.211 27.116 138.893 27.032 139.621 26.864C140.349 26.6773 140.946 26.444 141.413 26.164L141.553 29.216C141.067 29.552 140.414 29.8133 139.593 30C138.79 30.168 138.034 30.252 137.325 30.252C135.738 30.252 134.375 29.9907 133.237 29.468C132.117 28.9267 131.267 28.1707 130.689 27.2C130.129 26.2293 129.849 25.0907 129.849 23.784C129.849 22.496 130.11 21.3853 130.633 20.452C131.174 19.5 131.911 18.7627 132.845 18.24C133.797 17.6987 134.861 17.428 136.037 17.428C137.119 17.428 138.081 17.6427 138.921 18.072C139.779 18.5013 140.442 19.1267 140.909 19.948C141.394 20.7507 141.637 21.7213 141.637 22.86C141.637 23.1027 141.618 23.4013 141.581 23.756C141.562 24.092 141.534 24.4093 141.497 24.708ZM136.065 20.004C135.337 20.004 134.739 20.2467 134.273 20.732C133.825 21.2173 133.554 21.8613 133.461 22.664H138.305C138.305 22.6267 138.305 22.5707 138.305 22.496C138.305 22.4027 138.305 22.3373 138.305 22.3C138.305 21.6093 138.099 21.0587 137.689 20.648C137.297 20.2187 136.755 20.004 136.065 20.004ZM146.473 12.248V30H142.889V12.416L146.473 12.248ZM155.871 12.444L155.731 15.524C155.601 15.468 155.423 15.4307 155.199 15.412C154.994 15.3933 154.798 15.384 154.611 15.384C153.939 15.384 153.426 15.5333 153.071 15.832C152.717 16.1307 152.539 16.6253 152.539 17.316V17.68H155.591L155.339 20.76H152.539V30H148.955V20.76H147.275V17.68H148.955V17.26C148.955 15.6173 149.431 14.376 150.383 13.536C151.335 12.6773 152.614 12.248 154.219 12.248C154.481 12.248 154.77 12.2667 155.087 12.304C155.405 12.3413 155.666 12.388 155.871 12.444Z" fill="#FFA0A0"/>
<path d="M344.91 26H343.995V25.4C343.715 25.6 343.375 25.765 342.975 25.895C342.575 26.025 342.15 26.09 341.7 26.09C340.95 26.09 340.38 25.92 339.99 25.58C339.6 25.24 339.405 24.775 339.405 24.185C339.405 23.505 339.645 23.005 340.125 22.685C340.615 22.355 341.265 22.19 342.075 22.19C342.415 22.19 342.76 22.225 343.11 22.295C343.47 22.365 343.755 22.455 343.965 22.565V21.725C343.965 21.165 343.81 20.765 343.5 20.525C343.19 20.285 342.73 20.165 342.12 20.165C341.71 20.165 341.315 20.22 340.935 20.33C340.565 20.43 340.26 20.555 340.02 20.705L339.975 19.82C340.255 19.66 340.585 19.535 340.965 19.445C341.355 19.355 341.77 19.31 342.21 19.31C343.06 19.31 343.72 19.495 344.19 19.865C344.67 20.225 344.91 20.815 344.91 21.635V26ZM343.965 24.74V23.225C343.755 23.115 343.49 23.03 343.17 22.97C342.86 22.9 342.545 22.865 342.225 22.865C341.665 22.865 341.215 22.97 340.875 23.18C340.545 23.38 340.38 23.71 340.38 24.17C340.38 24.6 340.525 24.91 340.815 25.1C341.105 25.29 341.475 25.385 341.925 25.385C342.315 25.385 342.7 25.32 343.08 25.19C343.46 25.06 343.755 24.91 343.965 24.74ZM352.006 26H351.061V21.86C351.061 21.29 350.921 20.87 350.641 20.6C350.361 20.32 349.961 20.18 349.441 20.18C349.081 20.18 348.716 20.255 348.346 20.405C347.976 20.545 347.621 20.735 347.281 20.975V26H346.321V19.43L347.281 19.37V20.18C347.681 19.88 348.081 19.66 348.481 19.52C348.891 19.38 349.291 19.31 349.681 19.31C350.411 19.31 350.981 19.5 351.391 19.88C351.801 20.25 352.006 20.84 352.006 21.65V26ZM360.962 26H360.047V25.4C359.767 25.6 359.427 25.765 359.027 25.895C358.627 26.025 358.202 26.09 357.752 26.09C357.002 26.09 356.432 25.92 356.042 25.58C355.652 25.24 355.457 24.775 355.457 24.185C355.457 23.505 355.697 23.005 356.177 22.685C356.667 22.355 357.317 22.19 358.127 22.19C358.467 22.19 358.812 22.225 359.162 22.295C359.522 22.365 359.807 22.455 360.017 22.565V21.725C360.017 21.165 359.862 20.765 359.552 20.525C359.242 20.285 358.782 20.165 358.172 20.165C357.762 20.165 357.367 20.22 356.987 20.33C356.617 20.43 356.312 20.555 356.072 20.705L356.027 19.82C356.307 19.66 356.637 19.535 357.017 19.445C357.407 19.355 357.822 19.31 358.262 19.31C359.112 19.31 359.772 19.495 360.242 19.865C360.722 20.225 360.962 20.815 360.962 21.635V26ZM360.017 24.74V23.225C359.807 23.115 359.542 23.03 359.222 22.97C358.912 22.9 358.597 22.865 358.277 22.865C357.717 22.865 357.267 22.97 356.927 23.18C356.597 23.38 356.432 23.71 356.432 24.17C356.432 24.6 356.577 24.91 356.867 25.1C357.157 25.29 357.527 25.385 357.977 25.385C358.367 25.385 358.752 25.32 359.132 25.19C359.512 25.06 359.807 24.91 360.017 24.74ZM371.722 19.4L369.502 26H368.497L367.162 22.34C367.062 22.02 366.972 21.74 366.892 21.5C366.812 21.26 366.747 21.045 366.697 20.855H366.622C366.582 21.045 366.517 21.26 366.427 21.5C366.347 21.74 366.257 22.02 366.157 22.34L364.822 26H363.817L361.597 19.43L362.587 19.37L363.997 23.63C364.067 23.85 364.132 24.08 364.192 24.32C364.262 24.55 364.317 24.765 364.357 24.965H364.417C364.457 24.765 364.512 24.55 364.582 24.32C364.662 24.08 364.737 23.85 364.807 23.63L366.172 19.85H367.177L368.542 23.63C368.612 23.85 368.687 24.08 368.767 24.32C368.847 24.55 368.902 24.765 368.932 24.965H369.007C369.047 24.765 369.097 24.55 369.157 24.32C369.227 24.08 369.292 23.85 369.352 23.63L370.747 19.4H371.722ZM382.519 26H381.559V21.86C381.559 21.72 381.544 21.59 381.514 21.47C381.494 21.34 381.469 21.23 381.439 21.14C381.339 20.8 381.169 20.555 380.929 20.405C380.689 20.255 380.384 20.18 380.014 20.18C379.964 20.18 379.914 20.185 379.864 20.195C379.814 20.195 379.764 20.195 379.714 20.195C379.424 20.225 379.124 20.31 378.814 20.45C378.514 20.58 378.209 20.755 377.899 20.975C377.929 21.095 377.949 21.22 377.959 21.35C377.979 21.47 377.989 21.6 377.989 21.74V26H377.029V21.86C377.029 21.72 377.019 21.59 376.999 21.47C376.979 21.34 376.949 21.23 376.909 21.14C376.819 20.8 376.654 20.555 376.414 20.405C376.174 20.255 375.869 20.18 375.499 20.18C375.169 20.18 374.829 20.255 374.479 20.405C374.139 20.545 373.804 20.735 373.474 20.975V26H372.514V19.43L373.474 19.37V20.18C373.844 19.9 374.199 19.695 374.539 19.565C374.889 19.425 375.219 19.35 375.529 19.34C375.859 19.32 376.174 19.35 376.474 19.43C376.754 19.49 376.999 19.595 377.209 19.745C377.419 19.885 377.584 20.08 377.704 20.33C378.154 19.96 378.594 19.7 379.024 19.55C379.454 19.39 379.859 19.31 380.239 19.31C380.939 19.31 381.494 19.5 381.904 19.88C382.314 20.25 382.519 20.84 382.519 21.65V26ZM388.909 26H387.994V25.4C387.714 25.6 387.374 25.765 386.974 25.895C386.574 26.025 386.149 26.09 385.699 26.09C384.949 26.09 384.379 25.92 383.989 25.58C383.599 25.24 383.404 24.775 383.404 24.185C383.404 23.505 383.644 23.005 384.124 22.685C384.614 22.355 385.264 22.19 386.074 22.19C386.414 22.19 386.759 22.225 387.109 22.295C387.469 22.365 387.754 22.455 387.964 22.565V21.725C387.964 21.165 387.809 20.765 387.499 20.525C387.189 20.285 386.729 20.165 386.119 20.165C385.709 20.165 385.314 20.22 384.934 20.33C384.564 20.43 384.259 20.555 384.019 20.705L383.974 19.82C384.254 19.66 384.584 19.535 384.964 19.445C385.354 19.355 385.769 19.31 386.209 19.31C387.059 19.31 387.719 19.495 388.189 19.865C388.669 20.225 388.909 20.815 388.909 21.635V26ZM387.964 24.74V23.225C387.754 23.115 387.489 23.03 387.169 22.97C386.859 22.9 386.544 22.865 386.224 22.865C385.664 22.865 385.214 22.97 384.874 23.18C384.544 23.38 384.379 23.71 384.379 24.17C384.379 24.6 384.524 24.91 384.814 25.1C385.104 25.29 385.474 25.385 385.924 25.385C386.314 25.385 386.699 25.32 387.079 25.19C387.459 25.06 387.754 24.91 387.964 24.74ZM389.753 26V25.175L393.893 20.24H389.933V19.4H395.048V20.225L390.908 25.16H395.228V26H389.753ZM396.679 16.64C396.849 16.64 396.994 16.7 397.114 16.82C397.234 16.94 397.294 17.085 397.294 17.255C397.294 17.435 397.234 17.585 397.114 17.705C396.994 17.825 396.849 17.885 396.679 17.885C396.499 17.885 396.344 17.825 396.214 17.705C396.094 17.585 396.034 17.435 396.034 17.255C396.034 17.085 396.094 16.94 396.214 16.82C396.344 16.7 396.499 16.64 396.679 16.64ZM397.144 19.37V26H396.184V19.43L397.144 19.37ZM404.246 26H403.301V21.86C403.301 21.29 403.161 20.87 402.881 20.6C402.601 20.32 402.201 20.18 401.681 20.18C401.321 20.18 400.956 20.255 400.586 20.405C400.216 20.545 399.861 20.735 399.521 20.975V26H398.561V19.43L399.521 19.37V20.18C399.921 19.88 400.321 19.66 400.721 19.52C401.131 19.38 401.531 19.31 401.921 19.31C402.651 19.31 403.221 19.5 403.631 19.88C404.041 20.25 404.246 20.84 404.246 21.65V26ZM411.144 19.25L411.114 20.09H409.749C409.969 20.27 410.144 20.49 410.274 20.75C410.414 21.01 410.484 21.29 410.484 21.59C410.484 22.21 410.269 22.73 409.839 23.15C409.419 23.57 408.844 23.805 408.114 23.855L407.004 25.04C407.104 25.02 407.244 25.005 407.424 24.995C407.604 24.975 407.784 24.96 407.964 24.95C408.154 24.94 408.304 24.935 408.414 24.935C409.354 24.935 410.064 25.09 410.544 25.4C411.034 25.71 411.279 26.185 411.279 26.825C411.279 27.415 411.019 27.9 410.499 28.28C409.989 28.67 409.164 28.865 408.024 28.865C407.414 28.865 406.819 28.8 406.239 28.67C405.669 28.55 405.209 28.385 404.859 28.175L404.949 27.29C405.179 27.43 405.459 27.555 405.789 27.665C406.119 27.785 406.479 27.88 406.869 27.95C407.269 28.02 407.664 28.055 408.054 28.055C408.644 28.055 409.104 28 409.434 27.89C409.764 27.78 409.999 27.63 410.139 27.44C410.279 27.26 410.349 27.06 410.349 26.84C410.349 26.43 410.179 26.145 409.839 25.985C409.509 25.815 408.979 25.73 408.249 25.73C407.919 25.73 407.549 25.745 407.139 25.775C406.739 25.805 406.409 25.85 406.149 25.91V25.145L407.409 23.84C406.729 23.77 406.194 23.525 405.804 23.105C405.414 22.675 405.219 22.17 405.219 21.59C405.219 21.15 405.324 20.76 405.534 20.42C405.754 20.07 406.059 19.8 406.449 19.61C406.849 19.41 407.314 19.31 407.844 19.31C408.194 19.31 408.509 19.355 408.789 19.445L411.144 19.25ZM409.569 21.59C409.569 21.14 409.414 20.77 409.104 20.48C408.794 20.18 408.374 20.03 407.844 20.03C407.324 20.03 406.909 20.175 406.599 20.465C406.289 20.755 406.134 21.13 406.134 21.59C406.134 22.04 406.289 22.41 406.599 22.7C406.909 22.99 407.324 23.135 407.844 23.135C408.374 23.135 408.794 22.995 409.104 22.715C409.414 22.425 409.569 22.05 409.569 21.59ZM421.892 26H420.842L419.747 23.255H415.832L414.737 26H413.717L417.257 17.09H418.367L421.892 26ZM419.447 22.43L418.127 19.115C418.057 18.945 417.997 18.79 417.947 18.65C417.907 18.5 417.867 18.35 417.827 18.2H417.752C417.712 18.35 417.667 18.5 417.617 18.65C417.577 18.79 417.522 18.945 417.452 19.115L416.117 22.43H419.447ZM428.856 19.955C428.856 20.605 428.701 21.145 428.391 21.575C428.091 21.995 427.676 22.305 427.146 22.505C426.616 22.705 426.011 22.805 425.331 22.805H423.681V26H422.691V17.09H425.331C426.021 17.09 426.626 17.195 427.146 17.405C427.676 17.605 428.091 17.915 428.391 18.335C428.701 18.755 428.856 19.295 428.856 19.955ZM427.851 19.955C427.851 19.445 427.731 19.045 427.491 18.755C427.251 18.455 426.936 18.245 426.546 18.125C426.156 17.995 425.726 17.93 425.256 17.93H423.681V21.965H425.256C425.726 21.965 426.156 21.905 426.546 21.785C426.936 21.665 427.251 21.46 427.491 21.17C427.731 20.87 427.851 20.465 427.851 19.955ZM430.907 17.09V26H429.917V17.09H430.907ZM444.471 19.4L442.251 26H441.246L439.911 22.34C439.811 22.02 439.721 21.74 439.641 21.5C439.561 21.26 439.496 21.045 439.446 20.855H439.371C439.331 21.045 439.266 21.26 439.176 21.5C439.096 21.74 439.006 22.02 438.906 22.34L437.571 26H436.566L434.346 19.43L435.336 19.37L436.746 23.63C436.816 23.85 436.881 24.08 436.941 24.32C437.011 24.55 437.066 24.765 437.106 24.965H437.166C437.206 24.765 437.261 24.55 437.331 24.32C437.411 24.08 437.486 23.85 437.556 23.63L438.921 19.85H439.926L441.291 23.63C441.361 23.85 441.436 24.08 441.516 24.32C441.596 24.55 441.651 24.765 441.681 24.965H441.756C441.796 24.765 441.846 24.55 441.906 24.32C441.976 24.08 442.041 23.85 442.101 23.63L443.496 19.4H444.471ZM448.818 19.4L448.788 20.315C448.708 20.285 448.603 20.26 448.473 20.24C448.353 20.22 448.243 20.21 448.143 20.21C447.783 20.21 447.433 20.305 447.093 20.495C446.763 20.675 446.473 20.915 446.223 21.215V26H445.263V19.43L446.223 19.37V20.36C446.493 20.04 446.808 19.785 447.168 19.595C447.528 19.405 447.898 19.31 448.278 19.31C448.378 19.31 448.478 19.315 448.578 19.325C448.678 19.335 448.758 19.36 448.818 19.4ZM454.539 26H453.624V25.4C453.344 25.6 453.004 25.765 452.604 25.895C452.204 26.025 451.779 26.09 451.329 26.09C450.579 26.09 450.009 25.92 449.619 25.58C449.229 25.24 449.034 24.775 449.034 24.185C449.034 23.505 449.274 23.005 449.754 22.685C450.244 22.355 450.894 22.19 451.704 22.19C452.044 22.19 452.389 22.225 452.739 22.295C453.099 22.365 453.384 22.455 453.594 22.565V21.725C453.594 21.165 453.439 20.765 453.129 20.525C452.819 20.285 452.359 20.165 451.749 20.165C451.339 20.165 450.944 20.22 450.564 20.33C450.194 20.43 449.889 20.555 449.649 20.705L449.604 19.82C449.884 19.66 450.214 19.535 450.594 19.445C450.984 19.355 451.399 19.31 451.839 19.31C452.689 19.31 453.349 19.495 453.819 19.865C454.299 20.225 454.539 20.815 454.539 21.635V26ZM453.594 24.74V23.225C453.384 23.115 453.119 23.03 452.799 22.97C452.489 22.9 452.174 22.865 451.854 22.865C451.294 22.865 450.844 22.97 450.504 23.18C450.174 23.38 450.009 23.71 450.009 24.17C450.009 24.6 450.154 24.91 450.444 25.1C450.734 25.29 451.104 25.385 451.554 25.385C451.944 25.385 452.329 25.32 452.709 25.19C453.089 25.06 453.384 24.91 453.594 24.74ZM462.055 22.655C462.055 23.315 461.905 23.905 461.605 24.425C461.315 24.945 460.91 25.355 460.39 25.655C459.88 25.945 459.295 26.09 458.635 26.09C457.955 26.09 457.38 25.99 456.91 25.79V28.775H455.95V19.43L456.91 19.37V19.955C457.19 19.735 457.495 19.575 457.825 19.475C458.165 19.365 458.525 19.31 458.905 19.31C459.495 19.31 460.025 19.44 460.495 19.7C460.965 19.96 461.34 20.34 461.62 20.84C461.91 21.34 462.055 21.945 462.055 22.655ZM461.065 22.67C461.065 22.14 460.96 21.685 460.75 21.305C460.55 20.925 460.27 20.64 459.91 20.45C459.56 20.25 459.155 20.15 458.695 20.15C458.015 20.15 457.42 20.35 456.91 20.75V24.935C457.12 25.025 457.36 25.1 457.63 25.16C457.91 25.22 458.2 25.25 458.5 25.25C458.98 25.25 459.41 25.15 459.79 24.95C460.18 24.74 460.49 24.44 460.72 24.05C460.95 23.66 461.065 23.2 461.065 22.67ZM469.047 22.655C469.047 23.315 468.897 23.905 468.597 24.425C468.307 24.945 467.902 25.355 467.382 25.655C466.872 25.945 466.287 26.09 465.627 26.09C464.947 26.09 464.372 25.99 463.902 25.79V28.775H462.942V19.43L463.902 19.37V19.955C464.182 19.735 464.487 19.575 464.817 19.475C465.157 19.365 465.517 19.31 465.897 19.31C466.487 19.31 467.017 19.44 467.487 19.7C467.957 19.96 468.332 20.34 468.612 20.84C468.902 21.34 469.047 21.945 469.047 22.655ZM468.057 22.67C468.057 22.14 467.952 21.685 467.742 21.305C467.542 20.925 467.262 20.64 466.902 20.45C466.552 20.25 466.147 20.15 465.687 20.15C465.007 20.15 464.412 20.35 463.902 20.75V24.935C464.112 25.025 464.352 25.1 464.622 25.16C464.902 25.22 465.192 25.25 465.492 25.25C465.972 25.25 466.402 25.15 466.782 24.95C467.172 24.74 467.482 24.44 467.712 24.05C467.942 23.66 468.057 23.2 468.057 22.67ZM475.303 22.895H470.398C470.438 23.375 470.573 23.79 470.803 24.14C471.043 24.48 471.358 24.75 471.748 24.95C472.138 25.14 472.588 25.235 473.098 25.235C473.518 25.235 473.928 25.175 474.328 25.055C474.738 24.935 475.078 24.765 475.348 24.545L475.393 25.445C475.133 25.645 474.783 25.805 474.343 25.925C473.913 26.035 473.483 26.09 473.053 26.09C472.333 26.09 471.693 25.95 471.133 25.67C470.583 25.39 470.158 24.99 469.858 24.47C469.558 23.95 469.408 23.335 469.408 22.625C469.408 21.965 469.543 21.385 469.813 20.885C470.083 20.385 470.453 20 470.923 19.73C471.403 19.45 471.943 19.31 472.543 19.31C473.093 19.31 473.578 19.425 473.998 19.655C474.428 19.885 474.763 20.21 475.003 20.63C475.243 21.05 475.363 21.54 475.363 22.1C475.363 22.21 475.358 22.34 475.348 22.49C475.338 22.64 475.323 22.775 475.303 22.895ZM472.543 20.06C471.953 20.06 471.458 20.26 471.058 20.66C470.658 21.06 470.433 21.595 470.383 22.265H474.418C474.428 22.225 474.433 22.185 474.433 22.145C474.433 22.095 474.433 22.04 474.433 21.98C474.433 21.42 474.258 20.96 473.908 20.6C473.568 20.24 473.113 20.06 472.543 20.06ZM479.967 19.4L479.937 20.315C479.857 20.285 479.752 20.26 479.622 20.24C479.502 20.22 479.392 20.21 479.292 20.21C478.932 20.21 478.582 20.305 478.242 20.495C477.912 20.675 477.622 20.915 477.372 21.215V26H476.412V19.43L477.372 19.37V20.36C477.642 20.04 477.957 19.785 478.317 19.595C478.677 19.405 479.047 19.31 479.427 19.31C479.527 19.31 479.627 19.315 479.727 19.325C479.827 19.335 479.907 19.36 479.967 19.4ZM486.516 16.565L486.471 17.42C486.401 17.4 486.311 17.385 486.201 17.375C486.101 17.365 486.001 17.36 485.901 17.36C485.501 17.36 485.171 17.475 484.911 17.705C484.661 17.925 484.536 18.335 484.536 18.935V19.4H486.336L486.261 20.24H484.536V26H483.591V20.24H482.631V19.4H483.591V18.905C483.591 18.095 483.796 17.49 484.206 17.09C484.616 16.69 485.156 16.49 485.826 16.49C485.946 16.49 486.066 16.5 486.186 16.52C486.316 16.53 486.426 16.545 486.516 16.565ZM493.227 22.7C493.227 23.36 493.077 23.95 492.777 24.47C492.477 24.98 492.067 25.38 491.547 25.67C491.027 25.95 490.447 26.09 489.807 26.09C489.167 26.09 488.587 25.95 488.067 25.67C487.547 25.38 487.137 24.98 486.837 24.47C486.537 23.95 486.387 23.36 486.387 22.7C486.387 22.03 486.537 21.44 486.837 20.93C487.137 20.42 487.547 20.025 488.067 19.745C488.587 19.455 489.167 19.31 489.807 19.31C490.447 19.31 491.027 19.455 491.547 19.745C492.067 20.025 492.477 20.42 492.777 20.93C493.077 21.44 493.227 22.03 493.227 22.7ZM492.237 22.7C492.237 22.2 492.127 21.76 491.907 21.38C491.687 21 491.392 20.705 491.022 20.495C490.662 20.275 490.257 20.165 489.807 20.165C489.357 20.165 488.947 20.275 488.577 20.495C488.207 20.705 487.912 21 487.692 21.38C487.482 21.76 487.377 22.2 487.377 22.7C487.377 23.19 487.487 23.63 487.707 24.02C487.927 24.4 488.222 24.7 488.592 24.92C488.962 25.13 489.367 25.235 489.807 25.235C490.267 25.235 490.682 25.13 491.052 24.92C491.422 24.7 491.712 24.4 491.922 24.02C492.132 23.63 492.237 23.19 492.237 22.7ZM497.664 19.4L497.634 20.315C497.554 20.285 497.449 20.26 497.319 20.24C497.199 20.22 497.089 20.21 496.989 20.21C496.629 20.21 496.279 20.305 495.939 20.495C495.609 20.675 495.319 20.915 495.069 21.215V26H494.109V19.43L495.069 19.37V20.36C495.339 20.04 495.654 19.785 496.014 19.595C496.374 19.405 496.744 19.31 497.124 19.31C497.224 19.31 497.324 19.315 497.424 19.325C497.524 19.335 497.604 19.36 497.664 19.4ZM504.288 26H503.298V17.99H500.403V17.09H507.228L507.153 17.99H504.288V26ZM515.135 17.09V22.295C515.135 23.525 514.82 24.465 514.19 25.115C513.56 25.765 512.68 26.09 511.55 26.09C510.42 26.09 509.54 25.765 508.91 25.115C508.28 24.465 507.965 23.525 507.965 22.295V17.09H508.955V22.205C508.955 23.145 509.17 23.875 509.6 24.395C510.03 24.915 510.685 25.175 511.565 25.175C512.455 25.175 513.11 24.915 513.53 24.395C513.96 23.875 514.175 23.145 514.175 22.205V17.09H515.135ZM522.762 19.85C522.762 20.53 522.562 21.08 522.162 21.5C521.762 21.92 521.267 22.2 520.677 22.34L523.257 26H522.072L519.672 22.565H517.662V26H516.672V17.09H519.372C520.052 17.09 520.647 17.195 521.157 17.405C521.667 17.615 522.062 17.925 522.342 18.335C522.622 18.735 522.762 19.24 522.762 19.85ZM521.742 19.85C521.742 19.39 521.632 19.02 521.412 18.74C521.202 18.46 520.912 18.255 520.542 18.125C520.182 17.995 519.767 17.93 519.297 17.93H517.662V21.755H519.297C519.767 21.755 520.182 21.69 520.542 21.56C520.912 21.43 521.202 21.225 521.412 20.945C521.632 20.665 521.742 20.3 521.742 19.85ZM530.685 23.54C530.685 24.27 530.42 24.865 529.89 25.325C529.36 25.775 528.575 26 527.535 26H524.22V17.09H527.34C528.34 17.09 529.08 17.3 529.56 17.72C530.05 18.14 530.295 18.705 530.295 19.415C530.295 19.925 530.155 20.355 529.875 20.705C529.605 21.045 529.255 21.275 528.825 21.395C529.375 21.505 529.82 21.745 530.16 22.115C530.51 22.485 530.685 22.96 530.685 23.54ZM529.305 19.52C529.305 19.02 529.135 18.63 528.795 18.35C528.465 18.07 527.93 17.93 527.19 17.93H525.195V21.125H527.325C528.005 21.125 528.505 20.975 528.825 20.675C529.145 20.375 529.305 19.99 529.305 19.52ZM529.68 23.48C529.68 22.97 529.495 22.575 529.125 22.295C528.765 22.015 528.195 21.875 527.415 21.875H525.195V25.16H527.4C528.14 25.16 528.705 25.025 529.095 24.755C529.485 24.475 529.68 24.05 529.68 23.48ZM535.729 17C536.619 17 537.404 17.195 538.084 17.585C538.764 17.975 539.299 18.515 539.689 19.205C540.079 19.885 540.274 20.665 540.274 21.545C540.274 22.415 540.079 23.195 539.689 23.885C539.299 24.565 538.764 25.105 538.084 25.505C537.404 25.895 536.619 26.09 535.729 26.09C534.839 26.09 534.049 25.895 533.359 25.505C532.679 25.105 532.144 24.565 531.754 23.885C531.374 23.195 531.184 22.415 531.184 21.545C531.184 20.665 531.374 19.885 531.754 19.205C532.144 18.525 532.679 17.99 533.359 17.6C534.049 17.2 534.839 17 535.729 17ZM535.729 25.19C536.419 25.19 537.029 25.03 537.559 24.71C538.089 24.39 538.499 23.955 538.789 23.405C539.089 22.855 539.239 22.235 539.239 21.545C539.239 20.865 539.089 20.25 538.789 19.7C538.499 19.14 538.089 18.7 537.559 18.38C537.029 18.06 536.419 17.9 535.729 17.9C535.039 17.9 534.429 18.06 533.899 18.38C533.369 18.7 532.954 19.135 532.654 19.685C532.364 20.225 532.219 20.845 532.219 21.545C532.219 22.225 532.364 22.845 532.654 23.405C532.954 23.955 533.369 24.39 533.899 24.71C534.429 25.03 535.039 25.19 535.729 25.19ZM546.35 17.48L546.14 18.365C545.97 18.265 545.765 18.18 545.525 18.11C545.285 18.04 545.03 17.985 544.76 17.945C544.5 17.905 544.24 17.885 543.98 17.885C543.29 17.885 542.76 18.02 542.39 18.29C542.03 18.56 541.85 18.92 541.85 19.37C541.85 19.67 541.935 19.92 542.105 20.12C542.285 20.32 542.52 20.485 542.81 20.615C543.1 20.745 543.415 20.865 543.755 20.975C544.105 21.085 544.455 21.205 544.805 21.335C545.155 21.455 545.475 21.61 545.765 21.8C546.055 21.98 546.285 22.215 546.455 22.505C546.635 22.795 546.725 23.155 546.725 23.585C546.725 24.345 546.45 24.955 545.9 25.415C545.35 25.865 544.53 26.09 543.44 26.09C542.91 26.09 542.4 26.035 541.91 25.925C541.43 25.815 541.04 25.675 540.74 25.505L540.86 24.56C541.07 24.68 541.31 24.79 541.58 24.89C541.86 24.98 542.16 25.055 542.48 25.115C542.8 25.175 543.125 25.205 543.455 25.205C544.235 25.205 544.805 25.07 545.165 24.8C545.525 24.52 545.705 24.145 545.705 23.675C545.705 23.355 545.615 23.095 545.435 22.895C545.265 22.695 545.035 22.53 544.745 22.4C544.455 22.26 544.135 22.14 543.785 22.04C543.445 21.93 543.1 21.815 542.75 21.695C542.4 21.565 542.08 21.41 541.79 21.23C541.5 21.04 541.265 20.805 541.085 20.525C540.915 20.235 540.83 19.87 540.83 19.43C540.83 18.96 540.95 18.545 541.19 18.185C541.43 17.815 541.785 17.525 542.255 17.315C542.725 17.105 543.295 17 543.965 17C544.265 17 544.56 17.02 544.85 17.06C545.14 17.09 545.415 17.14 545.675 17.21C545.935 17.28 546.16 17.37 546.35 17.48ZM553.216 17.09L553.141 17.975H548.791V21.065H552.436V21.935H548.791V25.115H553.306V26H547.801V17.09H553.216ZM554.309 26V17.09H555.299V25.1H559.409L559.334 26H554.309ZM565.72 17.09L565.645 17.975H561.295V21.41H565.015V22.28H561.295V26H560.305V17.09H565.72Z" fill="white"/>
</svg>
