<svg width="581" height="43" viewBox="0 0 581 43" fill="none" xmlns="http://www.w3.org/2000/svg">
<rect width="581" height="43" rx="15" fill="#443C34"/>
<path fill-rule="evenodd" clip-rule="evenodd" d="M25.0098 18.8346L14 18.835V13.123H25.0098V18.835H30.754V29.8771H25.0098V24.5471C22.093 24.5979 19.7442 26.9647 19.7442 29.8771H14C14 23.8103 18.9205 18.8862 25.0098 18.835V18.8346Z" fill="#FFD0A0"/>
<path d="M64.0659 13.368L59.2779 30H55.0499L52.2219 20.928C52.1099 20.5547 52.0072 20.1907 51.9139 19.836C51.8392 19.4813 51.7832 19.1453 51.7459 18.828H51.6059C51.5686 19.1453 51.5126 19.4813 51.4379 19.836C51.3632 20.1907 51.2699 20.5547 51.1579 20.928L48.3019 30H44.1019L39.2859 13.368H43.2059L45.9219 23.756C46.0152 24.1293 46.0992 24.4747 46.1739 24.792C46.2486 25.1093 46.3139 25.436 46.3699 25.772H46.5099C46.5472 25.436 46.6032 25.1093 46.6779 24.792C46.7526 24.4747 46.8459 24.1293 46.9579 23.756L49.6739 14.684H53.8739L56.5899 23.756C56.7019 24.1293 56.7952 24.4747 56.8699 24.792C56.9446 25.1093 57.0099 25.436 57.0659 25.772H57.1779C57.2339 25.436 57.2992 25.1187 57.3739 24.82C57.4486 24.5027 57.5326 24.148 57.6259 23.756L60.3419 13.368H64.0659ZM74.814 24.708H66.918C67.03 25.212 67.254 25.6507 67.59 26.024C67.9446 26.3787 68.3926 26.6493 68.934 26.836C69.494 27.0227 70.1473 27.116 70.894 27.116C71.5286 27.116 72.21 27.032 72.938 26.864C73.666 26.6773 74.2633 26.444 74.73 26.164L74.87 29.216C74.3846 29.552 73.7313 29.8133 72.91 30C72.1073 30.168 71.3513 30.252 70.642 30.252C69.0553 30.252 67.6926 29.9907 66.554 29.468C65.434 28.9267 64.5846 28.1707 64.006 27.2C63.446 26.2293 63.166 25.0907 63.166 23.784C63.166 22.496 63.4273 21.3853 63.95 20.452C64.4913 19.5 65.2286 18.7627 66.162 18.24C67.114 17.6987 68.178 17.428 69.354 17.428C70.4366 17.428 71.398 17.6427 72.238 18.072C73.0966 18.5013 73.7593 19.1267 74.226 19.948C74.7113 20.7507 74.954 21.7213 74.954 22.86C74.954 23.1027 74.9353 23.4013 74.898 23.756C74.8793 24.092 74.8513 24.4093 74.814 24.708ZM69.382 20.004C68.654 20.004 68.0566 20.2467 67.59 20.732C67.142 21.2173 66.8713 21.8613 66.778 22.664H71.622C71.622 22.6267 71.622 22.5707 71.622 22.496C71.622 22.4027 71.622 22.3373 71.622 22.3C71.622 21.6093 71.4166 21.0587 71.006 20.648C70.614 20.2187 70.0726 20.004 69.382 20.004ZM88.5263 23.644C88.5263 24.9507 88.2463 26.108 87.6863 27.116C87.1263 28.1053 86.3236 28.88 85.2783 29.44C84.233 29.9813 82.9823 30.252 81.5263 30.252C80.5183 30.252 79.557 30.1493 78.6423 29.944C77.7276 29.72 76.9156 29.44 76.2063 29.104V12.416L79.7903 12.248V18.436C80.2943 18.0813 80.7983 17.8293 81.3023 17.68C81.825 17.512 82.3943 17.428 83.0103 17.428C84.0556 17.428 84.989 17.68 85.8103 18.184C86.6503 18.688 87.313 19.4067 87.7983 20.34C88.2836 21.2547 88.5263 22.356 88.5263 23.644ZM84.8303 23.812C84.8303 23.14 84.7183 22.5613 84.4943 22.076C84.2703 21.572 83.9343 21.1893 83.4863 20.928C83.057 20.648 82.5156 20.508 81.8623 20.508C81.0596 20.508 80.369 20.7227 79.7903 21.152V26.836C80.033 26.9293 80.313 27.0133 80.6303 27.088C80.9663 27.144 81.3116 27.172 81.6663 27.172C82.3196 27.172 82.8796 27.0413 83.3463 26.78C83.813 26.5 84.177 26.108 84.4383 25.604C84.6996 25.0813 84.8303 24.484 84.8303 23.812ZM102.493 18.968C102.493 20.0693 102.185 21.0213 101.569 21.824C100.972 22.608 100.216 23.1587 99.3011 23.476L103.669 30H99.3571L95.6611 24.4H93.5611V30H89.8371V13.368H95.6051C97.0611 13.368 98.3024 13.592 99.3291 14.04C100.356 14.4693 101.14 15.104 101.681 15.944C102.222 16.7653 102.493 17.7733 102.493 18.968ZM98.7411 18.968C98.7411 18.3893 98.6011 17.9133 98.3211 17.54C98.0597 17.148 97.6864 16.868 97.2011 16.7C96.7344 16.5133 96.1651 16.42 95.4931 16.42H93.5611V21.488H95.4931C96.1651 21.488 96.7344 21.404 97.2011 21.236C97.6864 21.0493 98.0597 20.7693 98.3211 20.396C98.6011 20.0227 98.7411 19.5467 98.7411 18.968ZM114.868 24.708H106.972C107.084 25.212 107.308 25.6507 107.644 26.024C107.999 26.3787 108.447 26.6493 108.988 26.836C109.548 27.0227 110.202 27.116 110.948 27.116C111.583 27.116 112.264 27.032 112.992 26.864C113.72 26.6773 114.318 26.444 114.784 26.164L114.924 29.216C114.439 29.552 113.786 29.8133 112.964 30C112.162 30.168 111.406 30.252 110.696 30.252C109.11 30.252 107.747 29.9907 106.608 29.468C105.488 28.9267 104.639 28.1707 104.06 27.2C103.5 26.2293 103.22 25.0907 103.22 23.784C103.22 22.496 103.482 21.3853 104.004 20.452C104.546 19.5 105.283 18.7627 106.216 18.24C107.168 17.6987 108.232 17.428 109.408 17.428C110.491 17.428 111.452 17.6427 112.292 18.072C113.151 18.5013 113.814 19.1267 114.28 19.948C114.766 20.7507 115.008 21.7213 115.008 22.86C115.008 23.1027 114.99 23.4013 114.952 23.756C114.934 24.092 114.906 24.4093 114.868 24.708ZM109.436 20.004C108.708 20.004 108.111 20.2467 107.644 20.732C107.196 21.2173 106.926 21.8613 106.832 22.664H111.676C111.676 22.6267 111.676 22.5707 111.676 22.496C111.676 22.4027 111.676 22.3373 111.676 22.3C111.676 21.6093 111.471 21.0587 111.06 20.648C110.668 20.2187 110.127 20.004 109.436 20.004ZM124.773 18.044L124.241 20.956C123.849 20.7693 123.363 20.62 122.785 20.508C122.225 20.3773 121.655 20.312 121.077 20.312C120.554 20.312 120.162 20.396 119.901 20.564C119.658 20.732 119.537 20.956 119.537 21.236C119.537 21.46 119.677 21.656 119.957 21.824C120.237 21.9733 120.591 22.1133 121.021 22.244C121.469 22.3747 121.935 22.5333 122.421 22.72C122.925 22.9067 123.391 23.14 123.821 23.42C124.269 23.7 124.623 24.0733 124.885 24.54C125.165 24.988 125.305 25.5573 125.305 26.248C125.305 26.9573 125.127 27.62 124.773 28.236C124.437 28.8333 123.877 29.3187 123.093 29.692C122.327 30.0653 121.329 30.252 120.097 30.252C119.257 30.252 118.435 30.1587 117.633 29.972C116.849 29.7853 116.214 29.5427 115.729 29.244L115.953 26.22C116.419 26.5187 117.026 26.7893 117.773 27.032C118.538 27.256 119.294 27.368 120.041 27.368C121.105 27.368 121.637 27.0507 121.637 26.416C121.637 26.1733 121.497 25.9773 121.217 25.828C120.937 25.6787 120.582 25.5387 120.153 25.408C119.723 25.2587 119.257 25.0907 118.753 24.904C118.249 24.7173 117.782 24.484 117.353 24.204C116.923 23.9053 116.569 23.532 116.289 23.084C116.009 22.636 115.869 22.0667 115.869 21.376C115.869 20.6293 116.074 19.9667 116.485 19.388C116.914 18.7907 117.521 18.3147 118.305 17.96C119.089 17.6053 120.022 17.428 121.105 17.428C121.833 17.428 122.523 17.484 123.177 17.596C123.83 17.6893 124.362 17.8387 124.773 18.044ZM134.195 17.68L133.943 20.76H130.667V25.436C130.667 26.052 130.817 26.4907 131.115 26.752C131.414 26.9947 131.853 27.116 132.431 27.116C132.749 27.116 133.047 27.0693 133.327 26.976C133.626 26.864 133.878 26.7333 134.083 26.584L134.223 29.608C133.57 30.0373 132.683 30.252 131.563 30.252C130.014 30.252 128.885 29.8693 128.175 29.104C127.466 28.3387 127.111 27.2467 127.111 25.828V20.76H125.431V17.68H127.111V15.104L130.667 14.348V17.68H134.195ZM145.891 30H142.503V29.048C142.055 29.4027 141.514 29.692 140.879 29.916C140.244 30.14 139.544 30.252 138.779 30.252C137.416 30.252 136.371 29.9253 135.643 29.272C134.934 28.6187 134.579 27.7133 134.579 26.556C134.579 25.3053 135.018 24.3627 135.895 23.728C136.772 23.0747 137.958 22.748 139.451 22.748C139.992 22.748 140.534 22.7947 141.075 22.888C141.616 22.9813 142.055 23.1027 142.391 23.252V22.58C142.391 21.852 142.158 21.3387 141.691 21.04C141.243 20.7227 140.534 20.564 139.563 20.564C138.872 20.564 138.163 20.648 137.435 20.816C136.726 20.984 136.156 21.1987 135.727 21.46L135.587 18.324C136.166 18.044 136.847 17.8293 137.631 17.68C138.434 17.512 139.255 17.428 140.095 17.428C141.962 17.428 143.39 17.8293 144.379 18.632C145.387 19.416 145.891 20.6573 145.891 22.356V30ZM142.391 27.144V25.38C142.13 25.2493 141.803 25.1467 141.411 25.072C141.038 24.9973 140.674 24.96 140.319 24.96C139.61 24.96 139.068 25.0907 138.695 25.352C138.322 25.5947 138.135 25.9773 138.135 26.5C138.135 26.9853 138.294 27.34 138.611 27.564C138.928 27.7693 139.395 27.872 140.011 27.872C140.44 27.872 140.879 27.8067 141.327 27.676C141.775 27.5267 142.13 27.3493 142.391 27.144ZM166.443 17.68L162.803 30H158.995L157.539 25.66C157.278 24.764 157.063 24.0453 156.895 23.504C156.727 22.944 156.587 22.4307 156.475 21.964H156.335C156.242 22.4307 156.102 22.944 155.915 23.504C155.747 24.0453 155.533 24.764 155.271 25.66L153.815 30H150.007L146.367 17.764L149.979 17.596L151.631 23.476C151.725 23.868 151.818 24.3347 151.911 24.876C152.023 25.3987 152.107 25.884 152.163 26.332H152.303C152.359 25.884 152.453 25.3987 152.583 24.876C152.714 24.3347 152.835 23.868 152.947 23.476L154.571 18.604H158.379L160.003 23.476C160.115 23.868 160.237 24.3347 160.367 24.876C160.498 25.3987 160.591 25.884 160.647 26.332H160.787C160.843 25.884 160.918 25.3987 161.011 24.876C161.123 24.3347 161.226 23.868 161.319 23.476L162.915 17.68H166.443Z" fill="#FFD0A0"/>
<path d="M347.91 26H346.995V25.4C346.715 25.6 346.375 25.765 345.975 25.895C345.575 26.025 345.15 26.09 344.7 26.09C343.95 26.09 343.38 25.92 342.99 25.58C342.6 25.24 342.405 24.775 342.405 24.185C342.405 23.505 342.645 23.005 343.125 22.685C343.615 22.355 344.265 22.19 345.075 22.19C345.415 22.19 345.76 22.225 346.11 22.295C346.47 22.365 346.755 22.455 346.965 22.565V21.725C346.965 21.165 346.81 20.765 346.5 20.525C346.19 20.285 345.73 20.165 345.12 20.165C344.71 20.165 344.315 20.22 343.935 20.33C343.565 20.43 343.26 20.555 343.02 20.705L342.975 19.82C343.255 19.66 343.585 19.535 343.965 19.445C344.355 19.355 344.77 19.31 345.21 19.31C346.06 19.31 346.72 19.495 347.19 19.865C347.67 20.225 347.91 20.815 347.91 21.635V26ZM346.965 24.74V23.225C346.755 23.115 346.49 23.03 346.17 22.97C345.86 22.9 345.545 22.865 345.225 22.865C344.665 22.865 344.215 22.97 343.875 23.18C343.545 23.38 343.38 23.71 343.38 24.17C343.38 24.6 343.525 24.91 343.815 25.1C344.105 25.29 344.475 25.385 344.925 25.385C345.315 25.385 345.7 25.32 346.08 25.19C346.46 25.06 346.755 24.91 346.965 24.74ZM355.006 26H354.061V21.86C354.061 21.29 353.921 20.87 353.641 20.6C353.361 20.32 352.961 20.18 352.441 20.18C352.081 20.18 351.716 20.255 351.346 20.405C350.976 20.545 350.621 20.735 350.281 20.975V26H349.321V19.43L350.281 19.37V20.18C350.681 19.88 351.081 19.66 351.481 19.52C351.891 19.38 352.291 19.31 352.681 19.31C353.411 19.31 353.981 19.5 354.391 19.88C354.801 20.25 355.006 20.84 355.006 21.65V26ZM363.962 26H363.047V25.4C362.767 25.6 362.427 25.765 362.027 25.895C361.627 26.025 361.202 26.09 360.752 26.09C360.002 26.09 359.432 25.92 359.042 25.58C358.652 25.24 358.457 24.775 358.457 24.185C358.457 23.505 358.697 23.005 359.177 22.685C359.667 22.355 360.317 22.19 361.127 22.19C361.467 22.19 361.812 22.225 362.162 22.295C362.522 22.365 362.807 22.455 363.017 22.565V21.725C363.017 21.165 362.862 20.765 362.552 20.525C362.242 20.285 361.782 20.165 361.172 20.165C360.762 20.165 360.367 20.22 359.987 20.33C359.617 20.43 359.312 20.555 359.072 20.705L359.027 19.82C359.307 19.66 359.637 19.535 360.017 19.445C360.407 19.355 360.822 19.31 361.262 19.31C362.112 19.31 362.772 19.495 363.242 19.865C363.722 20.225 363.962 20.815 363.962 21.635V26ZM363.017 24.74V23.225C362.807 23.115 362.542 23.03 362.222 22.97C361.912 22.9 361.597 22.865 361.277 22.865C360.717 22.865 360.267 22.97 359.927 23.18C359.597 23.38 359.432 23.71 359.432 24.17C359.432 24.6 359.577 24.91 359.867 25.1C360.157 25.29 360.527 25.385 360.977 25.385C361.367 25.385 361.752 25.32 362.132 25.19C362.512 25.06 362.807 24.91 363.017 24.74ZM374.722 19.4L372.502 26H371.497L370.162 22.34C370.062 22.02 369.972 21.74 369.892 21.5C369.812 21.26 369.747 21.045 369.697 20.855H369.622C369.582 21.045 369.517 21.26 369.427 21.5C369.347 21.74 369.257 22.02 369.157 22.34L367.822 26H366.817L364.597 19.43L365.587 19.37L366.997 23.63C367.067 23.85 367.132 24.08 367.192 24.32C367.262 24.55 367.317 24.765 367.357 24.965H367.417C367.457 24.765 367.512 24.55 367.582 24.32C367.662 24.08 367.737 23.85 367.807 23.63L369.172 19.85H370.177L371.542 23.63C371.612 23.85 371.687 24.08 371.767 24.32C371.847 24.55 371.902 24.765 371.932 24.965H372.007C372.047 24.765 372.097 24.55 372.157 24.32C372.227 24.08 372.292 23.85 372.352 23.63L373.747 19.4H374.722ZM385.519 26H384.559V21.86C384.559 21.72 384.544 21.59 384.514 21.47C384.494 21.34 384.469 21.23 384.439 21.14C384.339 20.8 384.169 20.555 383.929 20.405C383.689 20.255 383.384 20.18 383.014 20.18C382.964 20.18 382.914 20.185 382.864 20.195C382.814 20.195 382.764 20.195 382.714 20.195C382.424 20.225 382.124 20.31 381.814 20.45C381.514 20.58 381.209 20.755 380.899 20.975C380.929 21.095 380.949 21.22 380.959 21.35C380.979 21.47 380.989 21.6 380.989 21.74V26H380.029V21.86C380.029 21.72 380.019 21.59 379.999 21.47C379.979 21.34 379.949 21.23 379.909 21.14C379.819 20.8 379.654 20.555 379.414 20.405C379.174 20.255 378.869 20.18 378.499 20.18C378.169 20.18 377.829 20.255 377.479 20.405C377.139 20.545 376.804 20.735 376.474 20.975V26H375.514V19.43L376.474 19.37V20.18C376.844 19.9 377.199 19.695 377.539 19.565C377.889 19.425 378.219 19.35 378.529 19.34C378.859 19.32 379.174 19.35 379.474 19.43C379.754 19.49 379.999 19.595 380.209 19.745C380.419 19.885 380.584 20.08 380.704 20.33C381.154 19.96 381.594 19.7 382.024 19.55C382.454 19.39 382.859 19.31 383.239 19.31C383.939 19.31 384.494 19.5 384.904 19.88C385.314 20.25 385.519 20.84 385.519 21.65V26ZM391.909 26H390.994V25.4C390.714 25.6 390.374 25.765 389.974 25.895C389.574 26.025 389.149 26.09 388.699 26.09C387.949 26.09 387.379 25.92 386.989 25.58C386.599 25.24 386.404 24.775 386.404 24.185C386.404 23.505 386.644 23.005 387.124 22.685C387.614 22.355 388.264 22.19 389.074 22.19C389.414 22.19 389.759 22.225 390.109 22.295C390.469 22.365 390.754 22.455 390.964 22.565V21.725C390.964 21.165 390.809 20.765 390.499 20.525C390.189 20.285 389.729 20.165 389.119 20.165C388.709 20.165 388.314 20.22 387.934 20.33C387.564 20.43 387.259 20.555 387.019 20.705L386.974 19.82C387.254 19.66 387.584 19.535 387.964 19.445C388.354 19.355 388.769 19.31 389.209 19.31C390.059 19.31 390.719 19.495 391.189 19.865C391.669 20.225 391.909 20.815 391.909 21.635V26ZM390.964 24.74V23.225C390.754 23.115 390.489 23.03 390.169 22.97C389.859 22.9 389.544 22.865 389.224 22.865C388.664 22.865 388.214 22.97 387.874 23.18C387.544 23.38 387.379 23.71 387.379 24.17C387.379 24.6 387.524 24.91 387.814 25.1C388.104 25.29 388.474 25.385 388.924 25.385C389.314 25.385 389.699 25.32 390.079 25.19C390.459 25.06 390.754 24.91 390.964 24.74ZM392.753 26V25.175L396.893 20.24H392.933V19.4H398.048V20.225L393.908 25.16H398.228V26H392.753ZM399.679 16.64C399.849 16.64 399.994 16.7 400.114 16.82C400.234 16.94 400.294 17.085 400.294 17.255C400.294 17.435 400.234 17.585 400.114 17.705C399.994 17.825 399.849 17.885 399.679 17.885C399.499 17.885 399.344 17.825 399.214 17.705C399.094 17.585 399.034 17.435 399.034 17.255C399.034 17.085 399.094 16.94 399.214 16.82C399.344 16.7 399.499 16.64 399.679 16.64ZM400.144 19.37V26H399.184V19.43L400.144 19.37ZM407.246 26H406.301V21.86C406.301 21.29 406.161 20.87 405.881 20.6C405.601 20.32 405.201 20.18 404.681 20.18C404.321 20.18 403.956 20.255 403.586 20.405C403.216 20.545 402.861 20.735 402.521 20.975V26H401.561V19.43L402.521 19.37V20.18C402.921 19.88 403.321 19.66 403.721 19.52C404.131 19.38 404.531 19.31 404.921 19.31C405.651 19.31 406.221 19.5 406.631 19.88C407.041 20.25 407.246 20.84 407.246 21.65V26ZM414.144 19.25L414.114 20.09H412.749C412.969 20.27 413.144 20.49 413.274 20.75C413.414 21.01 413.484 21.29 413.484 21.59C413.484 22.21 413.269 22.73 412.839 23.15C412.419 23.57 411.844 23.805 411.114 23.855L410.004 25.04C410.104 25.02 410.244 25.005 410.424 24.995C410.604 24.975 410.784 24.96 410.964 24.95C411.154 24.94 411.304 24.935 411.414 24.935C412.354 24.935 413.064 25.09 413.544 25.4C414.034 25.71 414.279 26.185 414.279 26.825C414.279 27.415 414.019 27.9 413.499 28.28C412.989 28.67 412.164 28.865 411.024 28.865C410.414 28.865 409.819 28.8 409.239 28.67C408.669 28.55 408.209 28.385 407.859 28.175L407.949 27.29C408.179 27.43 408.459 27.555 408.789 27.665C409.119 27.785 409.479 27.88 409.869 27.95C410.269 28.02 410.664 28.055 411.054 28.055C411.644 28.055 412.104 28 412.434 27.89C412.764 27.78 412.999 27.63 413.139 27.44C413.279 27.26 413.349 27.06 413.349 26.84C413.349 26.43 413.179 26.145 412.839 25.985C412.509 25.815 411.979 25.73 411.249 25.73C410.919 25.73 410.549 25.745 410.139 25.775C409.739 25.805 409.409 25.85 409.149 25.91V25.145L410.409 23.84C409.729 23.77 409.194 23.525 408.804 23.105C408.414 22.675 408.219 22.17 408.219 21.59C408.219 21.15 408.324 20.76 408.534 20.42C408.754 20.07 409.059 19.8 409.449 19.61C409.849 19.41 410.314 19.31 410.844 19.31C411.194 19.31 411.509 19.355 411.789 19.445L414.144 19.25ZM412.569 21.59C412.569 21.14 412.414 20.77 412.104 20.48C411.794 20.18 411.374 20.03 410.844 20.03C410.324 20.03 409.909 20.175 409.599 20.465C409.289 20.755 409.134 21.13 409.134 21.59C409.134 22.04 409.289 22.41 409.599 22.7C409.909 22.99 410.324 23.135 410.844 23.135C411.374 23.135 411.794 22.995 412.104 22.715C412.414 22.425 412.569 22.05 412.569 21.59ZM424.892 26H423.842L422.747 23.255H418.832L417.737 26H416.717L420.257 17.09H421.367L424.892 26ZM422.447 22.43L421.127 19.115C421.057 18.945 420.997 18.79 420.947 18.65C420.907 18.5 420.867 18.35 420.827 18.2H420.752C420.712 18.35 420.667 18.5 420.617 18.65C420.577 18.79 420.522 18.945 420.452 19.115L419.117 22.43H422.447ZM431.856 19.955C431.856 20.605 431.701 21.145 431.391 21.575C431.091 21.995 430.676 22.305 430.146 22.505C429.616 22.705 429.011 22.805 428.331 22.805H426.681V26H425.691V17.09H428.331C429.021 17.09 429.626 17.195 430.146 17.405C430.676 17.605 431.091 17.915 431.391 18.335C431.701 18.755 431.856 19.295 431.856 19.955ZM430.851 19.955C430.851 19.445 430.731 19.045 430.491 18.755C430.251 18.455 429.936 18.245 429.546 18.125C429.156 17.995 428.726 17.93 428.256 17.93H426.681V21.965H428.256C428.726 21.965 429.156 21.905 429.546 21.785C429.936 21.665 430.251 21.46 430.491 21.17C430.731 20.87 430.851 20.465 430.851 19.955ZM433.907 17.09V26H432.917V17.09H433.907ZM447.471 19.4L445.251 26H444.246L442.911 22.34C442.811 22.02 442.721 21.74 442.641 21.5C442.561 21.26 442.496 21.045 442.446 20.855H442.371C442.331 21.045 442.266 21.26 442.176 21.5C442.096 21.74 442.006 22.02 441.906 22.34L440.571 26H439.566L437.346 19.43L438.336 19.37L439.746 23.63C439.816 23.85 439.881 24.08 439.941 24.32C440.011 24.55 440.066 24.765 440.106 24.965H440.166C440.206 24.765 440.261 24.55 440.331 24.32C440.411 24.08 440.486 23.85 440.556 23.63L441.921 19.85H442.926L444.291 23.63C444.361 23.85 444.436 24.08 444.516 24.32C444.596 24.55 444.651 24.765 444.681 24.965H444.756C444.796 24.765 444.846 24.55 444.906 24.32C444.976 24.08 445.041 23.85 445.101 23.63L446.496 19.4H447.471ZM451.818 19.4L451.788 20.315C451.708 20.285 451.603 20.26 451.473 20.24C451.353 20.22 451.243 20.21 451.143 20.21C450.783 20.21 450.433 20.305 450.093 20.495C449.763 20.675 449.473 20.915 449.223 21.215V26H448.263V19.43L449.223 19.37V20.36C449.493 20.04 449.808 19.785 450.168 19.595C450.528 19.405 450.898 19.31 451.278 19.31C451.378 19.31 451.478 19.315 451.578 19.325C451.678 19.335 451.758 19.36 451.818 19.4ZM457.539 26H456.624V25.4C456.344 25.6 456.004 25.765 455.604 25.895C455.204 26.025 454.779 26.09 454.329 26.09C453.579 26.09 453.009 25.92 452.619 25.58C452.229 25.24 452.034 24.775 452.034 24.185C452.034 23.505 452.274 23.005 452.754 22.685C453.244 22.355 453.894 22.19 454.704 22.19C455.044 22.19 455.389 22.225 455.739 22.295C456.099 22.365 456.384 22.455 456.594 22.565V21.725C456.594 21.165 456.439 20.765 456.129 20.525C455.819 20.285 455.359 20.165 454.749 20.165C454.339 20.165 453.944 20.22 453.564 20.33C453.194 20.43 452.889 20.555 452.649 20.705L452.604 19.82C452.884 19.66 453.214 19.535 453.594 19.445C453.984 19.355 454.399 19.31 454.839 19.31C455.689 19.31 456.349 19.495 456.819 19.865C457.299 20.225 457.539 20.815 457.539 21.635V26ZM456.594 24.74V23.225C456.384 23.115 456.119 23.03 455.799 22.97C455.489 22.9 455.174 22.865 454.854 22.865C454.294 22.865 453.844 22.97 453.504 23.18C453.174 23.38 453.009 23.71 453.009 24.17C453.009 24.6 453.154 24.91 453.444 25.1C453.734 25.29 454.104 25.385 454.554 25.385C454.944 25.385 455.329 25.32 455.709 25.19C456.089 25.06 456.384 24.91 456.594 24.74ZM465.055 22.655C465.055 23.315 464.905 23.905 464.605 24.425C464.315 24.945 463.91 25.355 463.39 25.655C462.88 25.945 462.295 26.09 461.635 26.09C460.955 26.09 460.38 25.99 459.91 25.79V28.775H458.95V19.43L459.91 19.37V19.955C460.19 19.735 460.495 19.575 460.825 19.475C461.165 19.365 461.525 19.31 461.905 19.31C462.495 19.31 463.025 19.44 463.495 19.7C463.965 19.96 464.34 20.34 464.62 20.84C464.91 21.34 465.055 21.945 465.055 22.655ZM464.065 22.67C464.065 22.14 463.96 21.685 463.75 21.305C463.55 20.925 463.27 20.64 462.91 20.45C462.56 20.25 462.155 20.15 461.695 20.15C461.015 20.15 460.42 20.35 459.91 20.75V24.935C460.12 25.025 460.36 25.1 460.63 25.16C460.91 25.22 461.2 25.25 461.5 25.25C461.98 25.25 462.41 25.15 462.79 24.95C463.18 24.74 463.49 24.44 463.72 24.05C463.95 23.66 464.065 23.2 464.065 22.67ZM472.047 22.655C472.047 23.315 471.897 23.905 471.597 24.425C471.307 24.945 470.902 25.355 470.382 25.655C469.872 25.945 469.287 26.09 468.627 26.09C467.947 26.09 467.372 25.99 466.902 25.79V28.775H465.942V19.43L466.902 19.37V19.955C467.182 19.735 467.487 19.575 467.817 19.475C468.157 19.365 468.517 19.31 468.897 19.31C469.487 19.31 470.017 19.44 470.487 19.7C470.957 19.96 471.332 20.34 471.612 20.84C471.902 21.34 472.047 21.945 472.047 22.655ZM471.057 22.67C471.057 22.14 470.952 21.685 470.742 21.305C470.542 20.925 470.262 20.64 469.902 20.45C469.552 20.25 469.147 20.15 468.687 20.15C468.007 20.15 467.412 20.35 466.902 20.75V24.935C467.112 25.025 467.352 25.1 467.622 25.16C467.902 25.22 468.192 25.25 468.492 25.25C468.972 25.25 469.402 25.15 469.782 24.95C470.172 24.74 470.482 24.44 470.712 24.05C470.942 23.66 471.057 23.2 471.057 22.67ZM478.303 22.895H473.398C473.438 23.375 473.573 23.79 473.803 24.14C474.043 24.48 474.358 24.75 474.748 24.95C475.138 25.14 475.588 25.235 476.098 25.235C476.518 25.235 476.928 25.175 477.328 25.055C477.738 24.935 478.078 24.765 478.348 24.545L478.393 25.445C478.133 25.645 477.783 25.805 477.343 25.925C476.913 26.035 476.483 26.09 476.053 26.09C475.333 26.09 474.693 25.95 474.133 25.67C473.583 25.39 473.158 24.99 472.858 24.47C472.558 23.95 472.408 23.335 472.408 22.625C472.408 21.965 472.543 21.385 472.813 20.885C473.083 20.385 473.453 20 473.923 19.73C474.403 19.45 474.943 19.31 475.543 19.31C476.093 19.31 476.578 19.425 476.998 19.655C477.428 19.885 477.763 20.21 478.003 20.63C478.243 21.05 478.363 21.54 478.363 22.1C478.363 22.21 478.358 22.34 478.348 22.49C478.338 22.64 478.323 22.775 478.303 22.895ZM475.543 20.06C474.953 20.06 474.458 20.26 474.058 20.66C473.658 21.06 473.433 21.595 473.383 22.265H477.418C477.428 22.225 477.433 22.185 477.433 22.145C477.433 22.095 477.433 22.04 477.433 21.98C477.433 21.42 477.258 20.96 476.908 20.6C476.568 20.24 476.113 20.06 475.543 20.06ZM482.967 19.4L482.937 20.315C482.857 20.285 482.752 20.26 482.622 20.24C482.502 20.22 482.392 20.21 482.292 20.21C481.932 20.21 481.582 20.305 481.242 20.495C480.912 20.675 480.622 20.915 480.372 21.215V26H479.412V19.43L480.372 19.37V20.36C480.642 20.04 480.957 19.785 481.317 19.595C481.677 19.405 482.047 19.31 482.427 19.31C482.527 19.31 482.627 19.315 482.727 19.325C482.827 19.335 482.907 19.36 482.967 19.4ZM489.516 16.565L489.471 17.42C489.401 17.4 489.311 17.385 489.201 17.375C489.101 17.365 489.001 17.36 488.901 17.36C488.501 17.36 488.171 17.475 487.911 17.705C487.661 17.925 487.536 18.335 487.536 18.935V19.4H489.336L489.261 20.24H487.536V26H486.591V20.24H485.631V19.4H486.591V18.905C486.591 18.095 486.796 17.49 487.206 17.09C487.616 16.69 488.156 16.49 488.826 16.49C488.946 16.49 489.066 16.5 489.186 16.52C489.316 16.53 489.426 16.545 489.516 16.565ZM496.227 22.7C496.227 23.36 496.077 23.95 495.777 24.47C495.477 24.98 495.067 25.38 494.547 25.67C494.027 25.95 493.447 26.09 492.807 26.09C492.167 26.09 491.587 25.95 491.067 25.67C490.547 25.38 490.137 24.98 489.837 24.47C489.537 23.95 489.387 23.36 489.387 22.7C489.387 22.03 489.537 21.44 489.837 20.93C490.137 20.42 490.547 20.025 491.067 19.745C491.587 19.455 492.167 19.31 492.807 19.31C493.447 19.31 494.027 19.455 494.547 19.745C495.067 20.025 495.477 20.42 495.777 20.93C496.077 21.44 496.227 22.03 496.227 22.7ZM495.237 22.7C495.237 22.2 495.127 21.76 494.907 21.38C494.687 21 494.392 20.705 494.022 20.495C493.662 20.275 493.257 20.165 492.807 20.165C492.357 20.165 491.947 20.275 491.577 20.495C491.207 20.705 490.912 21 490.692 21.38C490.482 21.76 490.377 22.2 490.377 22.7C490.377 23.19 490.487 23.63 490.707 24.02C490.927 24.4 491.222 24.7 491.592 24.92C491.962 25.13 492.367 25.235 492.807 25.235C493.267 25.235 493.682 25.13 494.052 24.92C494.422 24.7 494.712 24.4 494.922 24.02C495.132 23.63 495.237 23.19 495.237 22.7ZM500.664 19.4L500.634 20.315C500.554 20.285 500.449 20.26 500.319 20.24C500.199 20.22 500.089 20.21 499.989 20.21C499.629 20.21 499.279 20.305 498.939 20.495C498.609 20.675 498.319 20.915 498.069 21.215V26H497.109V19.43L498.069 19.37V20.36C498.339 20.04 498.654 19.785 499.014 19.595C499.374 19.405 499.744 19.31 500.124 19.31C500.224 19.31 500.324 19.315 500.424 19.325C500.524 19.335 500.604 19.36 500.664 19.4ZM515.718 17.09L512.988 26H511.893L509.868 19.91C509.818 19.73 509.768 19.545 509.718 19.355C509.668 19.165 509.633 19.005 509.613 18.875H509.538C509.518 19.005 509.483 19.165 509.433 19.355C509.383 19.545 509.333 19.73 509.283 19.91L507.273 26H506.178L503.448 17.09H504.483L506.508 23.9C506.558 24.07 506.603 24.23 506.643 24.38C506.683 24.52 506.718 24.66 506.748 24.8H506.808C506.828 24.66 506.858 24.52 506.898 24.38C506.938 24.23 506.988 24.07 507.048 23.9L509.058 17.69H510.138L512.163 23.9C512.213 24.07 512.258 24.23 512.298 24.38C512.348 24.52 512.383 24.66 512.403 24.8H512.463C512.493 24.66 512.523 24.52 512.553 24.38C512.593 24.24 512.638 24.08 512.688 23.9L514.713 17.09H515.718ZM522.138 17.09L522.063 17.975H517.713V21.065H521.358V21.935H517.713V25.115H522.228V26H516.723V17.09H522.138ZM529.696 23.54C529.696 24.27 529.431 24.865 528.901 25.325C528.371 25.775 527.586 26 526.546 26H523.231V17.09H526.351C527.351 17.09 528.091 17.3 528.571 17.72C529.061 18.14 529.306 18.705 529.306 19.415C529.306 19.925 529.166 20.355 528.886 20.705C528.616 21.045 528.266 21.275 527.836 21.395C528.386 21.505 528.831 21.745 529.171 22.115C529.521 22.485 529.696 22.96 529.696 23.54ZM528.316 19.52C528.316 19.02 528.146 18.63 527.806 18.35C527.476 18.07 526.941 17.93 526.201 17.93H524.206V21.125H526.336C527.016 21.125 527.516 20.975 527.836 20.675C528.156 20.375 528.316 19.99 528.316 19.52ZM528.691 23.48C528.691 22.97 528.506 22.575 528.136 22.295C527.776 22.015 527.206 21.875 526.426 21.875H524.206V25.16H526.411C527.151 25.16 527.716 25.025 528.106 24.755C528.496 24.475 528.691 24.05 528.691 23.48ZM536.84 19.85C536.84 20.53 536.64 21.08 536.24 21.5C535.84 21.92 535.345 22.2 534.755 22.34L537.335 26H536.15L533.75 22.565H531.74V26H530.75V17.09H533.45C534.13 17.09 534.725 17.195 535.235 17.405C535.745 17.615 536.14 17.925 536.42 18.335C536.7 18.735 536.84 19.24 536.84 19.85ZM535.82 19.85C535.82 19.39 535.71 19.02 535.49 18.74C535.28 18.46 534.99 18.255 534.62 18.125C534.26 17.995 533.845 17.93 533.375 17.93H531.74V21.755H533.375C533.845 21.755 534.26 21.69 534.62 21.56C534.99 21.43 535.28 21.225 535.49 20.945C535.71 20.665 535.82 20.3 535.82 19.85ZM543.713 17.09L543.638 17.975H539.288V21.065H542.933V21.935H539.288V25.115H543.803V26H538.298V17.09H543.713ZM549.936 17.48L549.726 18.365C549.556 18.265 549.351 18.18 549.111 18.11C548.871 18.04 548.616 17.985 548.346 17.945C548.086 17.905 547.826 17.885 547.566 17.885C546.876 17.885 546.346 18.02 545.976 18.29C545.616 18.56 545.436 18.92 545.436 19.37C545.436 19.67 545.521 19.92 545.691 20.12C545.871 20.32 546.106 20.485 546.396 20.615C546.686 20.745 547.001 20.865 547.341 20.975C547.691 21.085 548.041 21.205 548.391 21.335C548.741 21.455 549.061 21.61 549.351 21.8C549.641 21.98 549.871 22.215 550.041 22.505C550.221 22.795 550.311 23.155 550.311 23.585C550.311 24.345 550.036 24.955 549.486 25.415C548.936 25.865 548.116 26.09 547.026 26.09C546.496 26.09 545.986 26.035 545.496 25.925C545.016 25.815 544.626 25.675 544.326 25.505L544.446 24.56C544.656 24.68 544.896 24.79 545.166 24.89C545.446 24.98 545.746 25.055 546.066 25.115C546.386 25.175 546.711 25.205 547.041 25.205C547.821 25.205 548.391 25.07 548.751 24.8C549.111 24.52 549.291 24.145 549.291 23.675C549.291 23.355 549.201 23.095 549.021 22.895C548.851 22.695 548.621 22.53 548.331 22.4C548.041 22.26 547.721 22.14 547.371 22.04C547.031 21.93 546.686 21.815 546.336 21.695C545.986 21.565 545.666 21.41 545.376 21.23C545.086 21.04 544.851 20.805 544.671 20.525C544.501 20.235 544.416 19.87 544.416 19.43C544.416 18.96 544.536 18.545 544.776 18.185C545.016 17.815 545.371 17.525 545.841 17.315C546.311 17.105 546.881 17 547.551 17C547.851 17 548.146 17.02 548.436 17.06C548.726 17.09 549.001 17.14 549.261 17.21C549.521 17.28 549.746 17.37 549.936 17.48ZM554.554 26H553.564V17.99H550.669V17.09H557.494L557.419 17.99H554.554V26ZM561.973 17C562.863 17 563.648 17.195 564.328 17.585C565.008 17.975 565.543 18.515 565.933 19.205C566.323 19.885 566.518 20.665 566.518 21.545C566.518 22.415 566.323 23.195 565.933 23.885C565.543 24.565 565.008 25.105 564.328 25.505C563.648 25.895 562.863 26.09 561.973 26.09C561.083 26.09 560.293 25.895 559.603 25.505C558.923 25.105 558.388 24.565 557.998 23.885C557.618 23.195 557.428 22.415 557.428 21.545C557.428 20.665 557.618 19.885 557.998 19.205C558.388 18.525 558.923 17.99 559.603 17.6C560.293 17.2 561.083 17 561.973 17ZM561.973 25.19C562.663 25.19 563.273 25.03 563.803 24.71C564.333 24.39 564.743 23.955 565.033 23.405C565.333 22.855 565.483 22.235 565.483 21.545C565.483 20.865 565.333 20.25 565.033 19.7C564.743 19.14 564.333 18.7 563.803 18.38C563.273 18.06 562.663 17.9 561.973 17.9C561.283 17.9 560.673 18.06 560.143 18.38C559.613 18.7 559.198 19.135 558.898 19.685C558.608 20.225 558.463 20.845 558.463 21.545C558.463 22.225 558.608 22.845 558.898 23.405C559.198 23.955 559.613 24.39 560.143 24.71C560.673 25.03 561.283 25.19 561.973 25.19Z" fill="white"/>
</svg>
