<svg width="656" height="210" viewBox="0 0 656 210" fill="none" xmlns="http://www.w3.org/2000/svg">
<path d="M135.051 159V46.2379H160.503V136.931H206.574V159H135.051ZM225.272 72.0121C221.084 72.0121 217.486 70.5086 214.479 67.5016C211.472 64.4946 209.968 60.8969 209.968 56.7086C209.968 52.5203 211.472 48.9227 214.479 45.9157C217.486 42.9087 221.084 41.4052 225.272 41.4052C229.675 41.4052 233.326 42.9087 236.226 45.9157C239.125 48.9227 240.575 52.5203 240.575 56.7086C240.575 60.8969 239.125 64.4946 236.226 67.5016C233.326 70.5086 229.675 72.0121 225.272 72.0121ZM212.868 159V79.1H237.676V159H212.868ZM279.841 159C270.39 159 263.248 156.691 258.416 152.073C253.691 147.455 251.328 140.367 251.328 130.809V99.5583H242.951V79.1H251.328V59.2861H276.136V79.1H292.406V99.5583H276.136V131.132C276.136 133.816 276.673 135.642 277.746 136.609C278.928 137.468 280.861 137.897 283.546 137.897H292.406V159H279.841ZM337.257 160.933C329.847 160.933 323.028 159.376 316.799 156.261C310.57 153.04 305.577 148.314 301.818 142.086C298.059 135.857 296.18 128.178 296.18 119.05C296.18 109.922 298.005 102.243 301.657 96.0143C305.308 89.7855 310.248 85.114 316.477 81.9996C322.706 78.7778 329.633 77.1669 337.257 77.1669C345.204 77.1669 352.185 78.8315 358.199 82.1607C364.32 85.3824 369.099 90.054 372.536 96.1754C376.08 102.189 377.852 109.385 377.852 117.761C377.852 118.835 377.798 120.017 377.691 121.305C377.691 122.487 377.583 123.722 377.369 125.01H320.987C321.31 128.876 322.222 131.937 323.726 134.192C325.337 136.448 327.27 138.112 329.525 139.186C331.888 140.153 334.197 140.636 336.452 140.636C339.566 140.636 342.197 139.992 344.345 138.703C346.493 137.414 348.158 135.427 349.339 132.743H375.919C374.737 137.79 372.375 142.462 368.831 146.757C365.287 151.053 360.83 154.49 355.46 157.067C350.198 159.644 344.131 160.933 337.257 160.933ZM320.987 111.157H352.239C352.239 106.754 350.789 103.317 347.889 100.847C344.99 98.3769 341.338 97.1419 336.935 97.1419C332.64 97.1419 329.096 98.4306 326.303 101.008C323.511 103.478 321.739 106.861 320.987 111.157ZM384.796 159V79.1H409.604V91.5038C412.396 87.4229 415.94 84.04 420.236 81.3552C424.531 78.563 429.472 77.1669 435.056 77.1669V103.424H428.129C421.9 103.424 417.229 104.82 414.114 107.613C411.107 110.405 409.604 115.023 409.604 121.466V159H384.796ZM462.607 160.933C457.989 160.933 453.694 160.02 449.72 158.195C445.746 156.261 442.525 153.523 440.055 149.979C437.692 146.328 436.511 141.925 436.511 136.77C436.511 130.863 438.068 126.084 441.182 122.433C444.297 118.674 448.431 115.936 453.586 114.217C458.848 112.499 464.594 111.64 470.823 111.64H488.865C488.865 108.848 488.381 106.378 487.415 104.23C486.448 102.082 484.998 100.417 483.065 99.2361C481.132 97.9474 478.716 97.303 475.816 97.303C472.809 97.303 470.071 97.9474 467.601 99.2361C465.131 100.525 463.574 102.726 462.929 105.841H438.927C439.357 99.9341 441.343 94.8867 444.887 90.6984C448.431 86.4027 452.942 83.0735 458.419 80.7109C464.003 78.3482 469.964 77.1669 476.3 77.1669C483.71 77.1669 490.207 78.563 495.791 81.3552C501.483 84.04 505.886 87.9599 509.001 93.1147C512.115 98.1621 513.672 104.284 513.672 111.479V131.937C513.672 134.3 513.994 136.125 514.639 137.414C515.391 138.703 517.27 139.347 520.277 139.347V159C515.122 159 510.826 158.678 507.39 158.033C503.953 157.389 501.054 156.208 498.691 154.49C496.328 152.664 494.181 150.033 492.247 146.596C488.704 151.321 484.515 154.919 479.683 157.389C474.85 159.752 469.158 160.933 462.607 160.933ZM471.306 141.925C474.42 141.925 477.266 141.28 479.844 139.992C482.528 138.595 484.676 136.662 486.287 134.192C487.898 131.722 488.703 128.93 488.703 125.816V124.849H473.4C471.252 124.849 469.265 125.171 467.44 125.816C465.614 126.353 464.164 127.266 463.09 128.554C462.016 129.736 461.479 131.4 461.479 133.548C461.479 136.662 462.5 138.864 464.54 140.153C466.581 141.334 468.836 141.925 471.306 141.925ZM554.981 159C545.531 159 538.389 156.691 533.557 152.073C528.831 147.455 526.469 140.367 526.469 130.809V99.5583H518.092V79.1H526.469V59.2861H551.276V79.1H567.546V99.5583H551.276V131.132C551.276 133.816 551.813 135.642 552.887 136.609C554.069 137.468 556.002 137.897 558.687 137.897H567.546V159H554.981ZM612.398 160.933C604.988 160.933 598.169 159.376 591.94 156.261C585.711 153.04 580.717 148.314 576.959 142.086C573.2 135.857 571.321 128.178 571.321 119.05C571.321 109.922 573.146 102.243 576.798 96.0143C580.449 89.7855 585.389 85.114 591.618 81.9996C597.847 78.7778 604.773 77.1669 612.398 77.1669C620.345 77.1669 627.326 78.8315 633.34 82.1607C639.461 85.3824 644.24 90.054 647.677 96.1754C651.221 102.189 652.993 109.385 652.993 117.761C652.993 118.835 652.939 120.017 652.832 121.305C652.832 122.487 652.724 123.722 652.509 125.01H596.128C596.45 128.876 597.363 131.937 598.867 134.192C600.478 136.448 602.411 138.112 604.666 139.186C607.029 140.153 609.338 140.636 611.593 140.636C614.707 140.636 617.338 139.992 619.486 138.703C621.634 137.414 623.299 135.427 624.48 132.743H651.06C649.878 137.79 647.516 142.462 643.972 146.757C640.428 151.053 635.971 154.49 630.601 157.067C625.339 159.644 619.271 160.933 612.398 160.933ZM596.128 111.157H627.38C627.38 106.754 625.93 103.317 623.03 100.847C620.131 98.3769 616.479 97.1419 612.076 97.1419C607.78 97.1419 604.236 98.4306 601.444 101.008C598.652 103.478 596.88 106.861 596.128 111.157Z" fill="white"/>
<path d="M74.925 47.4525H0V84.915H74.925C33.5451 84.915 0 118.46 0 159.84H37.4625C37.4625 139.15 54.235 122.377 74.925 122.377V159.84H112.387V84.915H74.925V47.4525Z" fill="white"/>
</svg>
